{
	"asset":{
		"generator":"Khronos glTF Blender I/O v5.1.20",
		"version":"2.0"
	},
	"scene":0,
	"scenes":[
		{
			"name":"Scene",
			"nodes":[
				0
			]
		}
	],
	"nodes":[
		{
			"mesh":0,
			"name":"Lilac_sapling_1_LOD0"
		}
	],
	"meshes":[
		{
			"name":"LOD0.005",
			"primitives":[
				{
					"attributes":{
						"POSITION":0,
						"NORMAL":1,
						"TEXCOORD_0":2,
						"COLOR_0":3
					},
					"indices":4
				},
				{
					"attributes":{
						"POSITION":5,
						"NORMAL":6,
						"TEXCOORD_0":7,
						"COLOR_0":8
					},
					"indices":9
				}
			]
		}
	],
	"accessors":[
		{
			"bufferView":0,
			"componentType":5126,
			"count":117,
			"max":[
				0.001951001351699233,
				1.8949289321899414,
				-0.01618747040629387
			],
			"min":[
				-0.18924137949943542,
				-0.0627378523349762,
				-0.13940024375915527
			],
			"type":"VEC3"
		},
		{
			"bufferView":1,
			"componentType":5126,
			"count":117,
			"type":"VEC3"
		},
		{
			"bufferView":2,
			"componentType":5126,
			"count":117,
			"type":"VEC2"
		},
		{
			"bufferView":3,
			"componentType":5123,
			"count":117,
			"normalized":true,
			"type":"VEC4"
		},
		{
			"bufferView":4,
			"componentType":5123,
			"count":516,
			"type":"SCALAR"
		},
		{
			"bufferView":5,
			"componentType":5126,
			"count":243,
			"max":[
				0.4883919060230255,
				2.1795554161071777,
				0.355170875787735
			],
			"min":[
				-0.7410459518432617,
				-0.040325287729501724,
				-0.6057257652282715
			],
			"type":"VEC3"
		},
		{
			"bufferView":6,
			"componentType":5126,
			"count":243,
			"type":"VEC3"
		},
		{
			"bufferView":7,
			"componentType":5126,
			"count":243,
			"type":"VEC2"
		},
		{
			"bufferView":8,
			"componentType":5123,
			"count":243,
			"normalized":true,
			"type":"VEC4"
		},
		{
			"bufferView":9,
			"componentType":5123,
			"count":720,
			"type":"SCALAR"
		}
	],
	"bufferViews":[
		{
			"buffer":0,
			"byteLength":1404,
			"byteOffset":0,
			"target":34962
		},
		{
			"buffer":0,
			"byteLength":1404,
			"byteOffset":1404,
			"target":34962
		},
		{
			"buffer":0,
			"byteLength":936,
			"byteOffset":2808,
			"target":34962
		},
		{
			"buffer":0,
			"byteLength":936,
			"byteOffset":3744,
			"target":34962
		},
		{
			"buffer":0,
			"byteLength":1032,
			"byteOffset":4680,
			"target":34963
		},
		{
			"buffer":0,
			"byteLength":2916,
			"byteOffset":5712,
			"target":34962
		},
		{
			"buffer":0,
			"byteLength":2916,
			"byteOffset":8628,
			"target":34962
		},
		{
			"buffer":0,
			"byteLength":1944,
			"byteOffset":11544,
			"target":34962
		},
		{
			"buffer":0,
			"byteLength":1944,
			"byteOffset":13488,
			"target":34962
		},
		{
			"buffer":0,
			"byteLength":1440,
			"byteOffset":15432,
			"target":34963
		}
	],
	"buffers":[
		{
			"byteLength":16872,
			"uri":"bush4.bin"
		}
	]
}
