{
	"asset":{
		"generator":"Khronos glTF Blender I/O v5.1.20",
		"version":"2.0"
	},
	"scene":0,
	"scenes":[
		{
			"name":"Scene",
			"nodes":[
				0
			]
		}
	],
	"nodes":[
		{
			"mesh":0,
			"name":"Lilac_small_bush_3_LOD0"
		}
	],
	"meshes":[
		{
			"name":"LOD0.001",
			"primitives":[
				{
					"attributes":{
						"POSITION":0,
						"NORMAL":1,
						"TEXCOORD_0":2,
						"COLOR_0":3
					},
					"indices":4
				},
				{
					"attributes":{
						"POSITION":5,
						"NORMAL":6,
						"TEXCOORD_0":7,
						"COLOR_0":8
					},
					"indices":9
				}
			]
		}
	],
	"accessors":[
		{
			"bufferView":0,
			"componentType":5126,
			"count":150,
			"max":[
				0.564310610294342,
				2.334855794906616,
				0.614516019821167
			],
			"min":[
				-0.6632355451583862,
				-0.06326097249984741,
				-0.5321860909461975
			],
			"type":"VEC3"
		},
		{
			"bufferView":1,
			"componentType":5126,
			"count":150,
			"type":"VEC3"
		},
		{
			"bufferView":2,
			"componentType":5126,
			"count":150,
			"type":"VEC2"
		},
		{
			"bufferView":3,
			"componentType":5123,
			"count":150,
			"normalized":true,
			"type":"VEC4"
		},
		{
			"bufferView":4,
			"componentType":5123,
			"count":630,
			"type":"SCALAR"
		},
		{
			"bufferView":5,
			"componentType":5126,
			"count":1547,
			"max":[
				1.4461933374404907,
				3.4302923679351807,
				1.4002976417541504
			],
			"min":[
				-1.4964405298233032,
				-0.03455887734889984,
				-1.32860267162323
			],
			"type":"VEC3"
		},
		{
			"bufferView":6,
			"componentType":5126,
			"count":1547,
			"type":"VEC3"
		},
		{
			"bufferView":7,
			"componentType":5126,
			"count":1547,
			"type":"VEC2"
		},
		{
			"bufferView":8,
			"componentType":5123,
			"count":1547,
			"normalized":true,
			"type":"VEC4"
		},
		{
			"bufferView":9,
			"componentType":5123,
			"count":4728,
			"type":"SCALAR"
		}
	],
	"bufferViews":[
		{
			"buffer":0,
			"byteLength":1800,
			"byteOffset":0,
			"target":34962
		},
		{
			"buffer":0,
			"byteLength":1800,
			"byteOffset":1800,
			"target":34962
		},
		{
			"buffer":0,
			"byteLength":1200,
			"byteOffset":3600,
			"target":34962
		},
		{
			"buffer":0,
			"byteLength":1200,
			"byteOffset":4800,
			"target":34962
		},
		{
			"buffer":0,
			"byteLength":1260,
			"byteOffset":6000,
			"target":34963
		},
		{
			"buffer":0,
			"byteLength":18564,
			"byteOffset":7260,
			"target":34962
		},
		{
			"buffer":0,
			"byteLength":18564,
			"byteOffset":25824,
			"target":34962
		},
		{
			"buffer":0,
			"byteLength":12376,
			"byteOffset":44388,
			"target":34962
		},
		{
			"buffer":0,
			"byteLength":12376,
			"byteOffset":56764,
			"target":34962
		},
		{
			"buffer":0,
			"byteLength":9456,
			"byteOffset":69140,
			"target":34963
		}
	],
	"buffers":[
		{
			"byteLength":78596,
			"uri":"bush2.bin"
		}
	]
}
