{
	"asset":{
		"generator":"Khronos glTF Blender I/O v5.1.20",
		"version":"2.0"
	},
	"scene":0,
	"scenes":[
		{
			"name":"Scene",
			"nodes":[
				0
			]
		}
	],
	"nodes":[
		{
			"mesh":0,
			"name":"Lilac_small_bush_2_LOD0"
		}
	],
	"meshes":[
		{
			"name":"LOD0.012",
			"primitives":[
				{
					"attributes":{
						"POSITION":0,
						"NORMAL":1,
						"TEXCOORD_0":2,
						"COLOR_0":3
					},
					"indices":4
				},
				{
					"attributes":{
						"POSITION":5,
						"NORMAL":6,
						"TEXCOORD_0":7,
						"COLOR_0":8
					},
					"indices":9
				}
			]
		}
	],
	"accessors":[
		{
			"bufferView":0,
			"componentType":5126,
			"count":99,
			"max":[
				0.6974602937698364,
				1.4541547298431396,
				-0.017662519589066505
			],
			"min":[
				-0.017154047265648842,
				-0.0735827311873436,
				-0.3818873465061188
			],
			"type":"VEC3"
		},
		{
			"bufferView":1,
			"componentType":5126,
			"count":99,
			"type":"VEC3"
		},
		{
			"bufferView":2,
			"componentType":5126,
			"count":99,
			"type":"VEC2"
		},
		{
			"bufferView":3,
			"componentType":5123,
			"count":99,
			"normalized":true,
			"type":"VEC4"
		},
		{
			"bufferView":4,
			"componentType":5123,
			"count":417,
			"type":"SCALAR"
		},
		{
			"bufferView":5,
			"componentType":5126,
			"count":461,
			"max":[
				1.6132497787475586,
				2.3575053215026855,
				0.49432164430618286
			],
			"min":[
				-0.6862980127334595,
				-0.03942912817001343,
				-1.296144723892212
			],
			"type":"VEC3"
		},
		{
			"bufferView":6,
			"componentType":5126,
			"count":461,
			"type":"VEC3"
		},
		{
			"bufferView":7,
			"componentType":5126,
			"count":461,
			"type":"VEC2"
		},
		{
			"bufferView":8,
			"componentType":5123,
			"count":461,
			"normalized":true,
			"type":"VEC4"
		},
		{
			"bufferView":9,
			"componentType":5123,
			"count":1377,
			"type":"SCALAR"
		}
	],
	"bufferViews":[
		{
			"buffer":0,
			"byteLength":1188,
			"byteOffset":0,
			"target":34962
		},
		{
			"buffer":0,
			"byteLength":1188,
			"byteOffset":1188,
			"target":34962
		},
		{
			"buffer":0,
			"byteLength":792,
			"byteOffset":2376,
			"target":34962
		},
		{
			"buffer":0,
			"byteLength":792,
			"byteOffset":3168,
			"target":34962
		},
		{
			"buffer":0,
			"byteLength":834,
			"byteOffset":3960,
			"target":34963
		},
		{
			"buffer":0,
			"byteLength":5532,
			"byteOffset":4796,
			"target":34962
		},
		{
			"buffer":0,
			"byteLength":5532,
			"byteOffset":10328,
			"target":34962
		},
		{
			"buffer":0,
			"byteLength":3688,
			"byteOffset":15860,
			"target":34962
		},
		{
			"buffer":0,
			"byteLength":3688,
			"byteOffset":19548,
			"target":34962
		},
		{
			"buffer":0,
			"byteLength":2754,
			"byteOffset":23236,
			"target":34963
		}
	],
	"buffers":[
		{
			"byteLength":25992,
			"uri":"bush3.bin"
		}
	]
}
