{
	"asset":{
		"generator":"Khronos glTF Blender I/O v5.1.20",
		"version":"2.0"
	},
	"scene":0,
	"scenes":[
		{
			"name":"Scene",
			"nodes":[
				0
			]
		}
	],
	"nodes":[
		{
			"mesh":0,
			"name":"Lilac_sapling_2_LOD0"
		}
	],
	"meshes":[
		{
			"name":"LOD0.006",
			"primitives":[
				{
					"attributes":{
						"POSITION":0,
						"NORMAL":1,
						"TEXCOORD_0":2,
						"COLOR_0":3
					},
					"indices":4
				},
				{
					"attributes":{
						"POSITION":5,
						"NORMAL":6,
						"TEXCOORD_0":7,
						"COLOR_0":8
					},
					"indices":9
				}
			]
		}
	],
	"accessors":[
		{
			"bufferView":0,
			"componentType":5126,
			"count":128,
			"max":[
				0.04064952954649925,
				2.5220627784729004,
				0.2508623003959656
			],
			"min":[
				-0.11884347349405289,
				-0.07863616943359375,
				0.09318660199642181
			],
			"type":"VEC3"
		},
		{
			"bufferView":1,
			"componentType":5126,
			"count":128,
			"type":"VEC3"
		},
		{
			"bufferView":2,
			"componentType":5126,
			"count":128,
			"type":"VEC2"
		},
		{
			"bufferView":3,
			"componentType":5123,
			"count":128,
			"normalized":true,
			"type":"VEC4"
		},
		{
			"bufferView":4,
			"componentType":5123,
			"count":570,
			"type":"SCALAR"
		},
		{
			"bufferView":5,
			"componentType":5126,
			"count":274,
			"max":[
				0.8886358737945557,
				2.872450828552246,
				0.6298425197601318
			],
			"min":[
				-1.1552270650863647,
				-0.04223358631134033,
				-0.8617706298828125
			],
			"type":"VEC3"
		},
		{
			"bufferView":6,
			"componentType":5126,
			"count":274,
			"type":"VEC3"
		},
		{
			"bufferView":7,
			"componentType":5126,
			"count":274,
			"type":"VEC2"
		},
		{
			"bufferView":8,
			"componentType":5123,
			"count":274,
			"normalized":true,
			"type":"VEC4"
		},
		{
			"bufferView":9,
			"componentType":5123,
			"count":795,
			"type":"SCALAR"
		}
	],
	"bufferViews":[
		{
			"buffer":0,
			"byteLength":1536,
			"byteOffset":0,
			"target":34962
		},
		{
			"buffer":0,
			"byteLength":1536,
			"byteOffset":1536,
			"target":34962
		},
		{
			"buffer":0,
			"byteLength":1024,
			"byteOffset":3072,
			"target":34962
		},
		{
			"buffer":0,
			"byteLength":1024,
			"byteOffset":4096,
			"target":34962
		},
		{
			"buffer":0,
			"byteLength":1140,
			"byteOffset":5120,
			"target":34963
		},
		{
			"buffer":0,
			"byteLength":3288,
			"byteOffset":6260,
			"target":34962
		},
		{
			"buffer":0,
			"byteLength":3288,
			"byteOffset":9548,
			"target":34962
		},
		{
			"buffer":0,
			"byteLength":2192,
			"byteOffset":12836,
			"target":34962
		},
		{
			"buffer":0,
			"byteLength":2192,
			"byteOffset":15028,
			"target":34962
		},
		{
			"buffer":0,
			"byteLength":1590,
			"byteOffset":17220,
			"target":34963
		}
	],
	"buffers":[
		{
			"byteLength":18812,
			"uri":"bush1.bin"
		}
	]
}
