# Blender 5.1.2
# www.blender.org
mtllib rock 3.mtl
o Pavementblock.020
v 1.421545 0.247073 -0.484650
v 1.347985 0.031222 -0.814812
v 1.639380 0.175888 -0.327968
v 1.326017 0.438886 -0.162324
v 1.094161 0.576353 -0.278906
v 0.774656 0.680383 -0.522859
v 1.018707 0.256316 -0.694616
v 1.130359 0.638959 -0.094929
v 0.949470 0.592399 0.630551
v 1.343527 0.364457 0.065049
v 1.131320 0.495221 0.496112
v 0.759855 0.747413 -0.255802
v 0.901207 0.667503 0.165853
v 0.554577 0.585850 0.292013
v 0.585058 0.512584 0.758320
v 0.884561 0.417436 0.734819
v 0.550507 0.323702 1.025767
v 0.693605 0.281438 0.849883
v 0.444676 0.448595 0.916774
v -0.066175 0.518935 -0.032982
v -0.369994 0.481190 -0.015823
v 0.496469 0.718276 -0.456028
v -0.035533 0.422787 0.722271
v -0.379615 0.486889 -0.369760
v -0.563396 0.468164 -0.295634
v -0.684347 0.423358 -0.466278
v 0.164748 0.593407 -0.739976
v -0.289948 0.496240 -0.809537
v -0.186448 0.537265 -1.106494
v -0.591050 0.477803 -1.024716
v -0.308542 0.439425 -1.356630
v -0.785945 0.361315 -0.672867
v -0.713023 0.400971 -1.040839
v -0.784282 0.199194 -0.934920
v -0.789754 0.213136 -1.182342
v -0.606254 0.170778 -1.384228
v -0.552275 0.071838 -1.641151
v -0.473330 0.201107 -1.677180
v -0.665683 0.005563 -1.409819
v -0.900668 0.030039 -1.161979
v -0.997182 -0.103505 -0.996898
v -0.746101 -0.508547 -1.337217
v -0.521968 -0.268189 -1.630042
v -0.585542 -0.348114 -1.462737
v -0.585791 -0.605414 -1.238139
v -0.425665 -0.384723 -1.425619
v -0.300884 -0.317970 -1.627326
v -0.186247 -0.311155 -1.508438
v 0.038811 -0.525562 -1.201929
v -0.225902 -0.670036 -0.966943
v 0.617115 -0.478666 -1.122714
v 0.459323 -0.381122 -1.277050
v 0.088269 -0.354988 -1.321757
v 0.323691 -0.271748 -1.389804
v 0.159366 -0.195141 -1.580384
v 0.094483 -0.182589 -1.721743
v 0.069161 0.012121 -1.790552
v 0.295341 0.128474 -1.463039
v 0.608634 -0.105838 -1.178731
v 0.573964 0.363086 -1.160085
v 0.013454 0.153105 -1.697957
v -0.069650 0.198136 -1.658345
v -0.346380 0.298300 -1.610371
v 0.771039 0.291905 -1.061338
v 0.306632 0.515835 -1.013928
v 0.658571 0.696859 -0.622972
v 0.963581 0.032953 -0.916102
v 1.017298 0.227935 -0.897512
v 1.111600 0.119928 -0.872651
v 1.042041 -0.227400 -0.894322
v 0.970097 -0.407723 -0.806940
v 0.734039 -0.358559 -1.108230
v 1.399243 -0.126088 -0.795531
v 1.400148 -0.302447 -0.672417
v 1.461422 -0.280517 -0.570629
v 1.578017 -0.077452 -0.604583
v 1.665554 0.065260 -0.395649
v 1.654979 -0.034550 -0.229979
v 1.573354 0.013081 -0.026815
v 0.821519 -0.413194 0.105868
v 0.797761 -0.511239 -0.219304
v 0.286287 -0.755086 0.054424
v 1.479354 0.028566 0.166585
v 1.244763 -0.039472 0.561817
v 0.407371 -0.608740 0.427213
v 1.456563 0.051415 0.431980
v 1.166519 0.035940 0.703538
v 0.875359 -0.004552 0.845586
v 0.877737 -0.204536 0.703942
v 0.322392 -0.392225 1.226858
v 0.619493 -0.226713 1.136911
v 0.741558 -0.007680 1.068585
v 0.729845 -0.028343 1.319587
v 0.494158 -0.063136 1.706817
v 0.312263 0.155813 1.721243
v 0.031900 -0.259877 1.771507
v 0.131849 -0.367529 1.623188
v 0.104113 -0.495895 1.179259
v -0.188247 -0.259230 1.741222
v -0.447798 -0.285673 0.971545
v -0.251354 -0.090444 1.789338
v 0.142430 -0.596058 0.790058
v -0.466968 -0.163212 1.605000
v -0.727032 -0.120234 1.455644
v -0.698054 0.090979 1.605066
v -0.362705 0.163556 1.771622
v -1.004577 0.061978 1.406853
v -0.564331 0.201218 1.666451
v -1.197934 0.186533 1.166475
v -1.104563 0.309649 1.010960
v -1.292263 0.290711 0.867833
v -1.192039 0.031661 1.160560
v -1.414782 0.258954 0.622544
v -1.381616 0.096604 0.717087
v -1.274556 0.349352 0.489770
v -1.451811 0.212470 0.289408
v -1.422980 -0.029118 0.226228
v -1.470488 -0.018599 -0.039999
v -1.243660 0.358506 0.184398
v -1.469722 0.186278 -0.046835
v -1.188518 0.336621 -0.345518
v -1.338565 0.024754 -0.453852
v -1.289496 -0.243596 -0.646677
v -0.974902 0.192838 -0.516280
v -1.208335 -0.144773 -0.748108
v -1.381153 -0.228736 -0.348786
v -1.186473 -0.291876 -0.113903
v -1.088575 -0.422387 -0.820243
v -0.843641 -0.575512 -1.022229
v -0.535279 -0.584014 -0.608322
v -0.318553 -0.688355 -0.774052
v -0.081043 -0.756057 -0.748114
v -0.138999 -0.768201 -0.634299
v 0.089118 -0.779879 -0.136431
v -0.101774 -0.651414 0.084319
v 0.195270 -0.715852 0.364284
v -0.261174 -0.497539 0.267425
v -0.691051 -0.365618 0.206228
v -0.861916 -0.265409 0.521815
v -1.110857 -0.073240 0.910531
v -1.187775 -0.174270 0.322329
v 0.190018 -0.664551 0.586546
v 0.752954 -0.493334 -0.982170
v -0.993865 -0.078944 -0.918827
v -1.030719 0.423922 -0.417679
v -0.957305 0.472142 -0.400503
v -0.896990 0.436920 -0.200041
v -0.549438 0.357045 0.630440
v -0.388158 0.399208 0.589273
v 0.032156 0.314130 1.608451
v -0.359569 0.271769 1.638256
v -0.055462 0.165857 1.761332
v 0.405123 0.412099 1.206271
v 0.233120 0.293152 1.680083
v 0.549436 0.303713 1.247576
v 0.697993 0.061769 1.322929
v -0.757483 0.311440 0.871072
v 1.280979 0.167765 0.636692
v 1.034235 0.427850 0.722382
v 1.396956 0.222774 0.407411
v 0.026719 -0.152020 -1.768185
vn 0.5014 0.7211 -0.4781
vn 0.4735 0.3666 -0.8009
vn 0.8382 0.5380 -0.0896
vn 0.6655 0.7439 -0.0609
vn 0.5097 0.7657 -0.3924
vn 0.4160 0.8416 -0.3444
vn 0.6168 0.6886 -0.3812
vn 0.5279 0.8483 -0.0419
vn 0.2514 0.8345 0.4904
vn 0.7794 0.5967 0.1910
vn 0.6754 0.6695 0.3092
vn 0.0869 0.9959 -0.0252
vn 0.0673 0.9845 0.1619
vn -0.1836 0.9667 0.1783
vn 0.0600 0.8832 0.4651
vn 0.2089 0.3316 0.9200
vn 0.7072 0.6483 0.2822
vn 0.5717 0.4335 0.6966
vn 0.1077 0.9538 0.2806
vn -0.1733 0.9763 0.1298
vn -0.1181 0.9895 0.0837
vn -0.1375 0.9887 -0.0590
vn -0.1116 0.9855 0.1279
vn -0.1781 0.9840 -0.0067
vn -0.0857 0.9949 -0.0536
vn -0.0726 0.9806 -0.1820
vn -0.1355 0.9763 -0.1685
vn -0.1724 0.9842 0.0408
vn -0.0528 0.9777 -0.2030
vn -0.3447 0.9244 -0.1637
vn -0.1618 0.8757 -0.4549
vn -0.6256 0.7267 -0.2839
vn -0.7064 0.6603 -0.2548
vn -0.8765 0.4590 -0.1451
vn -0.7610 0.5163 -0.3928
vn -0.6906 0.5361 -0.4855
vn -0.6969 0.1076 -0.7091
vn -0.4770 0.4519 -0.7538
vn -0.8145 0.1299 -0.5655
vn -0.8661 0.2049 -0.4560
vn -0.8576 0.2433 -0.4531
vn -0.5020 -0.5220 -0.6896
vn -0.5144 -0.4557 -0.7265
vn -0.4363 -0.4988 -0.7489
vn -0.0711 -0.8917 -0.4469
vn 0.0267 -0.8098 -0.5861
vn 0.0468 -0.8331 -0.5511
vn 0.2121 -0.8823 -0.4201
vn 0.1511 -0.8011 -0.5791
vn -0.0074 -0.9548 -0.2972
vn 0.3688 -0.7208 -0.5869
vn 0.3662 -0.4510 -0.8139
vn 0.1960 -0.7135 -0.6726
vn 0.4358 -0.4578 -0.7749
vn 0.6044 -0.5807 -0.5453
vn 0.5638 -0.5916 -0.5764
vn 0.3868 0.1690 -0.9065
vn 0.6486 0.2077 -0.7323
vn 0.5961 0.0156 -0.8027
vn 0.4500 0.5524 -0.7017
vn 0.2169 0.7177 -0.6616
vn 0.1611 0.7304 -0.6637
vn -0.0908 0.7824 -0.6162
vn 0.5640 0.3681 -0.7391
vn 0.1068 0.8971 -0.4287
vn 0.2125 0.9188 -0.3327
vn 0.4531 0.0107 -0.8914
vn 0.6838 0.4279 -0.5911
vn 0.4514 0.4106 -0.7922
vn 0.4620 -0.2567 -0.8489
vn 0.4684 -0.8057 -0.3625
vn 0.5984 -0.2403 -0.7643
vn 0.5523 -0.2001 -0.8093
vn 0.4910 -0.7865 -0.3747
vn 0.6370 -0.7692 -0.0512
vn 0.8956 -0.1057 -0.4320
vn 0.9424 0.1231 -0.3111
vn 0.8956 -0.3759 0.2378
vn 0.8572 -0.2503 0.4500
vn 0.5010 -0.8350 0.2276
vn 0.4255 -0.9008 0.0869
vn 0.2772 -0.9569 0.0864
vn 0.9081 -0.3029 0.2891
vn 0.5517 -0.7112 0.4356
vn 0.4731 -0.8512 0.2272
vn 0.8946 -0.3022 0.3292
vn 0.4806 -0.3181 0.8172
vn 0.6908 -0.0572 0.7207
vn 0.5811 -0.6797 0.4475
vn 0.4678 -0.8355 0.2883
vn 0.6697 -0.6793 0.3000
vn 0.9459 0.0761 0.3155
vn 0.9328 -0.1513 0.3270
vn 0.6547 -0.1392 0.7430
vn 0.4113 0.3496 0.8418
vn 0.0851 -0.4688 0.8792
vn 0.1984 -0.8698 0.4517
vn -0.0011 -0.9678 0.2518
vn -0.3167 -0.6982 0.6420
vn -0.3318 -0.9268 0.1759
vn -0.2325 -0.1840 0.9550
vn -0.0567 -0.9662 0.2515
vn -0.4582 -0.7275 0.5107
vn -0.4195 -0.7710 0.4791
vn -0.5545 -0.0726 0.8290
vn -0.2008 0.3713 0.9065
vn -0.6465 -0.0935 0.7572
vn -0.4114 0.5522 0.7251
vn -0.7362 0.4143 0.5351
vn -0.2011 0.9478 0.2473
vn -0.5987 0.7388 0.3094
vn -0.7613 -0.4997 0.4131
vn -0.8746 0.4547 0.1682
vn -0.8846 -0.3650 0.2902
vn -0.2558 0.9664 0.0255
vn -0.9194 0.3901 0.0509
vn -0.8338 -0.5165 0.1951
vn -0.9711 -0.2369 -0.0302
vn -0.3487 0.9370 0.0197
vn -0.8877 0.4334 -0.1555
vn -0.5801 0.6670 -0.4676
vn -0.7853 0.3508 -0.5101
vn -0.8741 -0.2476 -0.4178
vn -0.6160 0.4595 -0.6398
vn -0.7295 0.3270 -0.6008
vn -0.8486 -0.5234 -0.0769
vn -0.4184 -0.8864 0.1978
vn -0.7387 -0.5943 -0.3180
vn -0.4582 -0.8792 -0.1304
vn -0.3322 -0.9262 0.1784
vn -0.2862 -0.9571 -0.0443
vn 0.0338 -0.9714 -0.2352
vn -0.1898 -0.9817 -0.0160
vn -0.0772 -0.9964 0.0341
vn -0.4501 -0.8673 0.2126
vn -0.0027 -0.9752 0.2213
vn -0.4202 -0.8828 0.2101
vn -0.2787 -0.9422 0.1857
vn -0.3064 -0.9326 0.1907
vn -0.4884 -0.8508 0.1940
vn -0.4890 -0.8440 0.2200
vn 0.0347 -0.9542 0.2971
vn 0.4906 -0.7833 -0.3819
vn -0.6637 0.7011 -0.2607
vn -0.5786 0.6408 -0.5046
vn -0.2236 0.9538 -0.2005
vn -0.0601 0.9867 0.1509
vn -0.1440 0.9791 0.1436
vn -0.1572 0.9768 0.1453
vn -0.0888 0.9158 0.3918
vn -0.1083 0.9064 0.4082
vn 0.0283 0.4024 0.9150
vn 0.2708 0.9395 0.2097
vn 0.2465 0.7282 0.6395
vn 0.7042 0.6604 0.2606
vn 0.8358 0.4175 0.3566
vn -0.0396 0.9959 0.0815
vn 0.6805 0.1715 0.7124
vn 0.3886 0.3748 0.8417
vn 0.8398 0.4754 0.2622
vn 0.0877 -0.4522 -0.8876
vt 0.684545 0.089710
vt 0.710111 0.089832
vt 0.722278 0.107388
vt 0.716694 0.077145
vt 0.694040 0.078325
vt 0.680146 0.081280
vt 0.674998 0.107643
vt 0.667887 0.096594
vt 0.700450 0.111067
vt 0.664384 0.075598
vt 0.657328 0.054655
vt 0.668758 0.054442
vt 0.691695 0.065516
vt 0.645937 0.076928
vt 0.636531 0.053116
vt 0.640264 0.037379
vt 0.652639 0.045272
vt 0.624975 0.106192
vt 0.624902 0.048033
vt 0.626649 0.036422
vt 0.610730 0.112721
vt 0.607837 0.071640
vt 0.618814 0.129230
vt 0.661162 0.111082
vt 0.608396 0.130196
vt 0.653805 0.132242
vt 0.606460 0.141374
vt 0.634187 0.147139
vt 0.646457 0.157993
vt 0.626507 0.164337
vt 0.647046 0.173989
vt 0.621090 0.168964
vt 0.606116 0.154780
vt 0.609479 0.171808
vt 0.618245 0.180981
vt 0.630839 0.189582
vt 0.625060 0.198514
vt 0.640086 0.203236
vt 0.647766 0.198266
vt 0.629778 0.219957
vt 0.609520 0.187298
vt 0.596356 0.187509
vt 0.604548 0.220049
vt 0.618773 0.218593
vt 0.892822 0.743352
vt 0.879047 0.754914
vt 0.878515 0.743819
vt 0.896199 0.752065
vt 0.902995 0.739738
vt 0.909684 0.750257
vt 0.908934 0.759388
vt 0.899115 0.781215
vt 0.878996 0.778031
vt 0.914723 0.808893
vt 0.910084 0.777744
vt 0.918374 0.796277
vt 0.925734 0.771454
vt 0.921777 0.785373
vt 0.683037 0.194660
vt 0.699546 0.188083
vt 0.694961 0.195809
vt 0.929359 0.763718
vt 0.686366 0.170302
vt 0.709943 0.176887
vt 0.674710 0.188727
vt 0.710305 0.154106
vt 0.686450 0.143477
vt 0.668922 0.187783
vt 0.681920 0.196111
vt 0.652077 0.189161
vt 0.671962 0.114565
vt 0.695207 0.134452
vt 0.667633 0.141790
vt 0.704296 0.120943
vt 0.713487 0.127718
vt 0.711929 0.117452
vt 0.729175 0.129262
vt 0.918617 0.858402
vt 0.912801 0.834904
vt 0.924556 0.837112
vt 0.921491 0.815506
vt 0.727307 0.152726
vt 0.731509 0.106936
vt 0.929607 0.857720
vt 0.915952 0.863754
vt 0.925332 0.872004
vt 0.731476 0.091267
vt 0.723234 0.078833
vt 0.921930 0.886577
vt 0.910977 0.888197
vt 0.724594 0.067691
vt 0.714962 0.058035
vt 0.867783 0.857902
vt 0.899659 0.892855
vt 0.880565 0.844856
vt 0.852412 0.828685
vt 0.862521 0.896792
vt 0.888214 0.895733
vt 0.843851 0.882724
vt 0.840408 0.846404
vt 0.875457 0.903454
vt 0.853772 0.901050
vt 0.837172 0.894634
vt 0.815280 0.882505
vt 0.802557 0.868127
vt 0.822743 0.895074
vt 0.808973 0.897601
vt 0.783927 0.895201
vt 0.566486 0.003687
vt 0.598134 0.002378
vt 0.592238 0.016438
vt 0.623700 0.007757
vt 0.768980 0.871801
vt 0.779941 0.870131
vt 0.798657 0.855555
vt 0.762994 0.860659
vt 0.560257 0.022491
vt 0.555446 0.013056
vt 0.758431 0.843713
vt 0.787088 0.824384
vt 0.817172 0.845000
vt 0.546550 0.030079
vt 0.552557 0.048057
vt 0.756005 0.827446
vt 0.537698 0.046406
vt 0.543427 0.063635
vt 0.560969 0.044795
vt 0.565439 0.035375
vt 0.543903 0.080038
vt 0.549821 0.095286
vt 0.554398 0.084947
vt 0.548576 0.108271
vt 0.534877 0.078480
vt 0.551853 0.124740
vt 0.539671 0.104749
vt 0.558398 0.111011
vt 0.566435 0.123792
vt 0.541134 0.133137
vt 0.549371 0.147041
vt 0.558967 0.140600
vt 0.569217 0.162619
vt 0.579971 0.146657
vt 0.569582 0.181836
vt 0.554933 0.169715
vt 0.578841 0.180618
vt 0.590010 0.158049
vt 0.785619 0.756831
vt 0.815708 0.743029
vt 0.811806 0.759314
vt 0.862950 0.751163
vt 0.795024 0.745554
vt 0.831159 0.737694
vt 0.846458 0.744561
vt 0.867976 0.780152
vt 0.853959 0.775038
vt 0.873884 0.791231
vt 0.867623 0.792202
vt 0.854245 0.815282
vt 0.838548 0.813315
vt 0.824256 0.811151
vt 0.837085 0.834048
vt 0.812947 0.790653
vt 0.793426 0.792534
vt 0.766726 0.792954
vt 0.791182 0.771689
vt 0.751925 0.796786
vt 0.763349 0.773049
vt 0.827784 0.840557
vt 0.912199 0.819122
vt 0.577309 0.197743
vt 0.594402 0.183175
vt 0.589432 0.145664
vt 0.592719 0.142879
vt 0.591054 0.132961
vt 0.595234 0.086140
vt 0.586980 0.088198
vt 0.586559 0.032414
vt 0.570457 0.041572
vt 0.576909 0.026396
vt 0.591929 0.024419
vt 0.613052 0.036870
vt 0.617337 0.028183
vt 0.621480 0.012942
vt 0.637132 0.015911
vt 0.572204 0.082800
vt 0.651884 0.021133
vt 0.670677 0.025997
vt 0.675719 0.036249
vt 0.693035 0.036218
vt 0.660393 0.045942
vt 0.686659 0.045426
vt 0.706210 0.047958
vt 0.720246 0.170460
vt 0.731509 0.161729
vt 0.683092 0.206037
vt 0.688191 0.206529
vt 0.929607 0.758923
vt 0.655155 0.224987
vt 0.646079 0.207208
vt 0.668334 0.223661
s 1
usemtl RocksCollection
f 5/1/5 1/2/1 2/3/2
f 3/4/3 2/3/2 1/2/1
f 1/2/1 4/5/4 3/4/3
f 4/5/4 1/2/1 5/1/5
f 8/6/8 5/1/5 6/7/6 12/8/12
f 7/9/7 6/7/6 5/1/5
f 8/6/8 4/5/4 5/1/5
f 5/1/5 2/3/2 7/9/7
f 13/10/13 9/11/9 8/6/8
f 11/12/11 8/6/8 9/11/9
f 11/12/11 10/13/10 8/6/8
f 4/5/4 8/6/8 10/13/10
f 13/10/13 8/6/8 12/8/12
f 13/10/13 14/14/14 15/15/15
f 13/10/13 12/8/12 14/14/14
f 13/10/13 15/15/15 9/11/9
f 15/15/15 18/16/18 16/17/16
f 16/17/16 9/11/9 15/15/15
f 15/15/15 14/14/14 20/18/20
f 15/15/15 19/19/19 17/20/17
f 15/15/15 17/20/17 18/16/18
f 15/15/15 20/18/20 19/19/19
f 20/18/20 21/21/21 23/22/23
f 20/18/20 24/23/24 21/21/21
f 24/23/24 20/18/20 22/24/22
f 22/24/22 20/18/20 14/14/14
f 23/22/23 19/19/19 20/18/20
f 24/23/24 25/25/25 21/21/21
f 22/24/22 27/26/27 24/23/24
f 24/23/24 26/27/26 25/25/25
f 28/28/28 26/27/26 24/23/24
f 27/26/27 28/28/28 24/23/24
f 28/28/28 27/26/27 29/29/29
f 28/28/28 29/29/29 30/30/30
f 30/30/30 26/27/26 28/28/28
f 30/30/30 29/29/29 31/31/31
f 30/30/30 31/31/31 33/32/33
f 30/30/30 32/33/32 26/27/26
f 32/33/32 30/30/30 33/32/33
f 34/34/34 32/33/32 33/32/33
f 33/32/33 35/35/35 34/34/34
f 31/31/31 36/36/36 33/32/33
f 33/32/33 36/36/36 35/35/35
f 39/37/39 36/36/36 37/38/37
f 38/39/38 37/38/37 36/36/36
f 36/36/36 39/37/39 35/35/35
f 31/31/31 38/39/38 36/36/36
f 37/38/37 43/40/43 39/37/39
f 40/41/40 39/37/39 41/42/41
f 39/37/39 40/41/40 35/35/35
f 39/37/39 42/43/42 41/42/41
f 44/44/44 42/43/42 39/37/39
f 43/40/43 44/44/44 39/37/39
f 44/45/44 45/46/45 42/47/42
f 44/45/44 46/48/46 45/46/45
f 44/45/44 43/49/43 46/48/46
f 46/48/46 47/50/47 48/51/48
f 43/49/43 47/50/47 46/48/46
f 49/52/49 45/46/45 46/48/46
f 49/52/49 46/48/46 48/51/48
f 45/46/45 49/52/49 50/53/50
f 51/54/51 50/53/50 49/52/49
f 53/55/53 49/52/49 48/51/48
f 52/56/52 51/54/51 49/52/49
f 49/52/49 53/55/53 52/56/52
f 55/57/55 53/55/53 48/51/48
f 54/58/54 53/55/53 55/57/55
f 54/58/54 52/56/52 53/55/53
f 57/59/57 55/60/55 56/61/56
f 55/57/55 48/51/48 56/62/56
f 58/63/58 55/60/55 57/59/57
f 58/63/58 54/64/54 55/60/55
f 57/59/57 61/65/61 58/63/58
f 54/64/54 58/63/58 59/66/59
f 59/66/59 58/63/58 60/67/60
f 58/63/58 62/68/62 60/67/60
f 61/65/61 62/68/62 58/63/58
f 38/39/38 62/68/62 57/69/57
f 38/39/38 63/70/63 62/68/62
f 62/68/62 31/31/31 60/67/60
f 31/31/31 62/68/62 63/70/63
f 62/68/62 61/65/61 57/69/57
f 31/31/31 63/70/63 38/39/38
f 66/71/66 64/72/64 60/67/60
f 64/72/64 59/66/59 60/67/60
f 65/73/65 60/67/60 31/31/31
f 60/67/60 65/73/65 66/71/66
f 6/7/6 64/72/64 66/71/66
f 22/24/22 66/71/66 65/73/65
f 22/24/22 6/7/6 66/71/66
f 27/26/27 65/73/65 29/29/29
f 65/73/65 27/26/27 22/24/22
f 29/29/29 65/73/65 31/31/31
f 68/74/68 67/75/67 64/72/64
f 64/72/64 67/75/67 59/66/59
f 64/72/64 6/7/6 68/74/68
f 69/76/69 67/75/67 68/74/68
f 7/9/7 69/76/69 68/74/68
f 7/9/7 68/74/68 6/7/6
f 2/3/2 70/77/70 69/76/69
f 69/76/69 7/9/7 2/3/2
f 69/76/69 70/77/70 67/75/67
f 74/78/74 71/79/71 70/80/70
f 72/81/72 70/80/70 71/79/71
f 72/82/72 67/75/67 70/77/70
f 70/77/70 2/3/2 73/83/73
f 74/78/74 70/80/70 73/84/73
f 75/85/75 71/79/71 74/78/74
f 76/86/76 75/85/75 74/78/74
f 73/84/73 76/86/76 74/78/74
f 2/3/2 3/4/3 76/87/76
f 2/3/2 76/87/76 73/83/73
f 77/88/77 76/87/76 3/4/3
f 77/89/77 75/85/75 76/86/76
f 77/89/77 78/90/78 75/85/75
f 77/88/77 3/4/3 78/91/78
f 78/91/78 3/4/3 79/92/79
f 80/93/80 75/85/75 78/90/78
f 78/90/78 79/94/79 80/93/80
f 81/95/81 75/85/75 80/93/80
f 81/95/81 80/93/80 82/96/82
f 80/93/80 84/97/84 82/96/82
f 80/93/80 79/94/79 83/98/83
f 83/98/83 84/97/84 80/93/80
f 89/99/89 85/100/85 84/97/84
f 85/100/85 82/96/82 84/97/84
f 86/101/86 87/102/87 84/97/84
f 86/101/86 84/97/84 83/98/83
f 88/103/88 84/97/84 87/102/87
f 88/103/88 89/99/89 84/97/84
f 91/104/91 90/105/90 89/99/89
f 85/100/85 89/99/89 90/105/90
f 88/103/88 91/104/91 89/99/89
f 92/106/92 93/107/93 91/104/91
f 88/103/88 92/106/92 91/104/91
f 91/104/91 94/108/94 90/105/90
f 94/108/94 91/104/91 93/107/93
f 96/109/96 94/110/94 95/111/95
f 93/112/93 95/111/95 94/110/94
f 96/113/96 97/114/97 94/108/94
f 94/108/94 97/114/97 90/105/90
f 90/105/90 97/114/97 98/115/98
f 99/116/99 98/115/98 97/114/97
f 99/116/99 97/114/97 96/113/96
f 96/109/96 101/117/101 99/118/99
f 103/119/103 100/120/100 99/116/99
f 100/120/100 102/121/102 99/116/99
f 103/122/103 99/118/99 101/117/101
f 98/115/98 99/116/99 102/121/102
f 105/123/105 103/122/103 101/117/101
f 100/120/100 103/119/103 104/124/104
f 105/123/105 104/125/104 103/122/103
f 104/125/104 105/123/105 107/126/107
f 108/127/108 105/123/105 106/128/106
f 106/128/106 105/123/105 101/117/101
f 107/126/107 105/123/105 109/129/109
f 109/129/109 105/123/105 108/127/108
f 111/130/111 109/129/109 110/131/110
f 110/131/110 109/129/109 108/127/108
f 113/132/113 109/129/109 111/130/111
f 112/133/112 109/129/109 113/132/113
f 107/126/107 109/129/109 112/133/112
f 116/134/116 114/135/114 113/132/113
f 114/135/114 112/133/112 113/132/113
f 115/136/115 113/132/113 111/130/111
f 113/132/113 115/136/115 116/134/116
f 115/136/115 119/137/119 116/134/116
f 116/134/116 117/138/117 114/135/114
f 117/138/117 116/134/116 118/139/118
f 116/134/116 120/140/120 118/139/118
f 119/137/119 120/140/120 116/134/116
f 120/140/120 122/141/122 118/139/118
f 119/137/119 121/142/121 120/140/120
f 120/140/120 121/142/121 122/141/122
f 123/143/123 126/144/126 122/141/122
f 125/145/125 123/143/123 122/141/122
f 124/146/124 122/141/122 121/142/121
f 122/141/122 124/146/124 125/145/125
f 122/141/122 126/144/126 118/139/118
f 117/147/117 126/148/126 127/149/127
f 126/148/126 129/150/129 127/149/127
f 118/151/118 126/148/126 117/147/117
f 123/152/123 128/153/128 126/148/126
f 128/153/128 129/150/129 126/148/126
f 45/46/45 129/150/129 42/47/42
f 50/53/50 131/154/131 129/150/129 45/46/45
f 130/155/130 127/149/127 129/150/129
f 42/47/42 129/150/129 128/153/128
f 131/154/131 130/155/130 129/150/129
f 131/154/131 50/53/50 132/156/132
f 131/154/131 132/156/132 133/157/133
f 131/154/131 133/157/133 130/155/130
f 82/96/82 134/158/134 133/157/133
f 82/96/82 133/157/133 132/156/132
f 133/157/133 135/159/135 130/155/130
f 133/157/133 134/158/134 135/159/135
f 137/160/137 130/155/130 135/159/135
f 135/159/135 134/158/134 136/161/136
f 136/161/136 102/121/102 135/159/135
f 135/159/135 102/121/102 137/160/137
f 138/162/138 130/155/130 137/160/137
f 138/162/138 137/160/137 100/120/100
f 102/121/102 100/120/100 137/160/137
f 139/163/139 138/162/138 100/120/100
f 130/155/130 138/162/138 127/149/127
f 127/149/127 138/162/138 139/163/139
f 100/120/100 104/124/104 139/163/139
f 140/164/140 139/163/139 104/124/104
f 141/165/141 127/149/127 139/163/139
f 140/164/140 141/165/141 139/163/139
f 140/164/140 117/147/117 141/165/141
f 141/165/141 117/147/117 127/149/127
f 140/164/140 112/166/112 114/167/114
f 140/164/140 114/167/114 117/147/117
f 104/124/104 112/166/112 140/164/140
f 85/100/85 136/161/136 82/96/82
f 134/158/134 82/96/82 136/161/136
f 136/161/136 85/100/85 142/168/142
f 102/121/102 136/161/136 142/168/142
f 102/121/102 142/168/142 85/100/85
f 132/156/132 143/169/143 82/96/82
f 51/54/51 132/156/132 50/53/50
f 51/54/51 143/169/143 132/156/132
f 72/81/72 143/169/143 51/54/51
f 71/79/71 143/169/143 72/81/72
f 81/95/81 82/96/82 143/169/143
f 81/95/81 143/169/143 71/79/71
f 41/42/41 128/170/128 123/143/123
f 128/170/128 41/42/41 42/43/42
f 125/145/125 124/146/124 144/171/144
f 123/143/123 125/145/125 41/42/41
f 125/145/125 144/171/144 41/42/41
f 34/34/34 144/171/144 32/33/32
f 40/41/40 144/171/144 34/34/34
f 40/41/40 41/42/41 144/171/144
f 32/33/32 144/171/144 124/146/124
f 121/142/121 145/172/145 124/146/124
f 32/33/32 124/146/124 145/172/145
f 145/172/145 146/173/146 32/33/32
f 146/173/146 145/172/145 119/137/119
f 121/142/121 119/137/119 145/172/145
f 146/173/146 119/137/119 147/174/147
f 25/25/25 146/173/146 147/174/147
f 26/27/26 146/173/146 25/25/25
f 26/27/26 32/33/32 146/173/146
f 23/22/23 147/174/147 149/175/149
f 147/174/147 23/22/23 21/21/21
f 25/25/25 147/174/147 21/21/21
f 119/137/119 148/176/148 147/174/147
f 147/174/147 148/176/148 149/175/149
f 23/22/23 149/175/149 150/177/150
f 150/177/150 149/175/149 148/176/148
f 150/177/150 148/176/148 151/178/151
f 152/179/152 150/177/150 151/178/151
f 154/180/154 150/177/150 152/179/152
f 154/180/154 153/181/153 150/177/150
f 23/22/23 150/177/150 153/181/153
f 154/180/154 95/111/95 155/182/155
f 155/182/155 153/181/153 154/180/154
f 154/180/154 152/179/152 95/111/95
f 17/20/17 155/182/155 156/183/156 92/184/92
f 155/182/155 95/111/95 156/183/156
f 19/19/19 153/181/153 155/182/155 17/20/17
f 156/183/156 95/111/95 93/112/93
f 156/183/156 93/112/93 92/184/92
f 153/181/153 19/19/19 23/22/23
f 152/179/152 101/117/101 96/109/96
f 95/111/95 152/179/152 96/109/96
f 106/128/106 101/117/101 152/179/152
f 152/179/152 151/178/151 106/128/106
f 157/185/157 110/131/110 151/178/151
f 110/131/110 108/127/108 151/178/151
f 106/128/106 151/178/151 108/127/108
f 151/178/151 148/176/148 157/185/157
f 110/131/110 157/185/157 119/137/119
f 148/176/148 119/137/119 157/185/157
f 115/136/115 110/131/110 119/137/119
f 110/131/110 115/136/115 111/130/111
f 107/126/107 112/133/112 104/125/104
f 85/100/85 98/115/98 102/121/102
f 98/115/98 85/100/85 90/105/90
f 88/186/88 17/20/17 92/184/92
f 17/20/17 88/186/88 18/16/18
f 88/186/88 87/187/87 18/16/18
f 158/188/158 87/187/87 86/189/86
f 18/16/18 87/187/87 16/17/16
f 87/187/87 158/188/158 159/190/159
f 159/190/159 16/17/16 87/187/87
f 9/11/9 16/17/16 159/190/159
f 9/11/9 159/190/159 11/12/11
f 11/12/11 159/190/159 158/188/158
f 160/191/160 158/188/158 86/189/86
f 158/188/158 160/191/160 11/12/11
f 160/191/160 10/13/10 11/12/11
f 83/192/83 160/191/160 86/189/86
f 10/13/10 160/191/160 83/192/83
f 83/192/83 3/4/3 10/13/10
f 79/92/79 3/4/3 83/192/83
f 81/95/81 71/79/71 75/85/75
f 59/66/59 72/82/72 52/193/52
f 72/82/72 59/66/59 67/75/67
f 72/82/72 51/194/51 52/193/52
f 54/64/54 59/66/59 52/193/52
f 57/69/57 161/195/161 38/39/38
f 56/196/56 161/195/161 57/69/57
f 56/62/56 48/51/48 161/197/161
f 48/51/48 47/50/47 161/197/161
f 161/195/161 43/198/43 37/199/37
f 37/199/37 38/39/38 161/195/161
f 47/200/47 43/198/43 161/195/161
f 40/41/40 34/34/34 35/35/35
f 6/7/6 22/24/22 12/8/12
f 22/24/22 14/14/14 12/8/12
f 4/5/4 10/13/10 3/4/3
