# Blender 5.1.2
# www.blender.org
mtllib rock 1.mtl
o Pavementblock.026
v 1.990493 0.111899 -0.219877
v 1.878373 0.401406 0.004739
v 2.057829 0.093129 -0.047975
v 1.990018 -0.133418 -0.473391
v 1.902135 0.166869 -0.474177
v 2.081701 -0.176183 -0.336833
v 1.996082 -0.289048 -0.093400
v 1.741090 -0.324296 -0.442997
v 1.612348 -0.295613 -0.181790
v 1.452398 -0.329541 -0.779949
v 1.541567 -0.196527 -0.670668
v 1.452007 -0.317536 -0.366247
v 1.284609 -0.336348 -0.673611
v 1.224828 -0.516253 -1.009878
v 1.201321 -0.335307 -0.542330
v 1.048839 -0.338504 -0.760453
v 0.788373 -0.373960 -0.918877
v 0.768009 -0.186137 -0.580522
v 0.542599 -0.182102 -0.508457
v 0.580406 -0.196022 -0.747383
v 0.992327 -0.245152 -0.480857
v 0.897818 -0.260114 -0.394877
v 0.745753 -0.197358 -0.275103
v 0.966292 -0.329723 -0.294358
v 0.800270 -0.230277 -0.076737
v 0.579979 -0.206538 -0.284166
v 0.474222 -0.228004 -0.035527
v 0.391234 -0.228295 -0.527373
v 0.625390 -0.199922 -0.004467
v 0.811616 -0.240374 0.134793
v 0.543556 -0.209144 0.242453
v 0.278087 -0.315911 0.207358
v 0.369198 -0.363132 0.600525
v 0.699925 -0.287301 0.489019
v 1.091563 -0.409161 0.598712
v 0.315099 -0.463950 0.808590
v 0.905782 -0.281890 0.341764
v 1.197395 -0.356517 0.340633
v 1.370910 -0.295815 0.185977
v 1.424025 -0.300261 -0.023506
v 0.999779 -0.327700 -0.099400
v 1.617568 -0.431552 0.443885
v 1.255021 -0.351146 -0.186179
v 1.111560 -0.319074 -0.327861
v 1.800847 -0.228518 0.421067
v 1.442485 -0.258924 0.651308
v 1.087223 -0.240742 0.794652
v 1.973790 -0.334333 0.248713
v 1.770309 -0.360345 -0.018141
v 1.865276 0.007674 0.387181
v 2.016708 -0.208644 0.137341
v 1.899386 0.190750 0.180097
v 1.785153 0.428973 0.375638
v 1.780583 0.231027 0.435949
v 1.664499 0.047342 0.531485
v 1.608634 0.458685 0.601005
v 1.650610 0.556212 0.369842
v 1.378578 0.416365 0.742761
v 1.380019 0.526451 0.594455
v 1.548306 0.021965 0.686146
v 1.277905 -0.022570 0.930152
v 1.395985 0.045922 0.851753
v 1.199074 0.326234 1.010631
v 1.196123 0.158642 1.034700
v 1.126283 0.475804 0.804644
v 0.958003 0.105943 1.048964
v 0.954589 0.347301 1.039908
v 0.575760 0.507857 0.777901
v 0.787775 0.257672 1.294157
v 0.697200 0.371737 1.196045
v 0.261335 0.330114 1.214781
v 0.204087 0.578631 0.962705
v -0.086868 0.583429 0.580602
v 0.229403 0.535096 0.583320
v -0.157735 0.629228 0.855425
v 0.078546 0.406381 1.140195
v -0.038578 0.469901 0.998202
v 0.135254 0.180234 1.052255
v 0.208822 0.206547 1.232482
v -0.201667 0.620487 0.870066
v -0.474402 0.506669 0.669201
v -0.369280 0.551176 1.031050
v -0.679461 0.520225 0.911630
v -1.106029 0.499550 0.784004
v -0.833047 0.370510 1.175388
v -0.581824 0.375129 1.321856
v -0.732996 0.484223 0.822955
v -0.948334 0.498432 0.460041
v -1.219849 0.482510 0.539483
v -1.357471 0.440338 0.377414
v -1.040793 0.503457 -0.110088
v -1.274205 0.344398 0.779546
v -0.974421 0.526314 0.282300
v -0.774125 0.491972 0.099428
v -0.505596 0.501900 -0.022839
v -0.639320 0.611853 -0.214544
v -0.655545 0.486273 0.234344
v -0.812480 0.571980 -0.207372
v -0.474978 0.512132 0.090493
v -0.442353 0.510634 0.322996
v -0.236578 0.590880 0.323609
v -0.164242 0.548489 0.056422
v 0.035553 0.572845 0.396229
v -0.143399 0.496734 -0.083806
v 0.156775 0.525223 0.015167
v -0.024513 0.550276 -0.219825
v 0.386376 0.520333 -0.063766
v 0.470632 0.586216 0.151968
v 0.629185 0.353011 -0.069568
v 0.614517 0.454633 0.524179
v 0.712657 0.508478 0.249229
v 1.034786 0.469076 -0.160775
v 0.923263 0.587292 0.419647
v 1.028540 0.596547 0.071945
v 0.852157 0.562735 0.571251
v 1.208964 0.534643 0.413323
v 1.024150 0.498321 0.412380
v 1.462152 0.512362 0.348344
v 1.566773 0.584671 -0.004004
v 1.760865 0.438118 -0.132827
v 1.357907 0.304316 -0.244341
v 1.384449 0.545036 -0.109883
v 1.632648 0.284279 -0.373328
v 1.343838 0.061059 -0.457221
v 1.537045 0.068499 -0.508356
v 1.562605 -0.098241 -0.710909
v 1.278185 0.064564 -0.934830
v 1.096958 0.045862 -0.764199
v 1.219791 0.048789 -1.264270
v 0.945870 0.216727 -1.144445
v 0.849010 0.113430 -1.440426
v 0.656197 0.222374 -0.912698
v 0.500876 0.237214 -1.141068
v 0.518042 0.067767 -1.496945
v 0.772370 0.089380 -1.797886
v 0.232127 0.105391 -1.819004
v 0.227433 0.178109 -1.426063
v -0.128623 0.222324 -1.435778
v 0.089183 0.261696 -1.110485
v 0.180914 0.262888 -0.814018
v -0.104959 0.313810 -1.256302
v -0.305322 -0.040267 -1.203492
v -0.017466 0.339551 -1.007126
v -0.627810 0.027620 -0.909589
v -0.316732 0.326746 -0.983266
v -0.195115 0.334745 -0.846298
v -0.428322 0.377178 -0.749157
v -0.559962 0.438688 -0.648534
v -0.427657 0.462999 -0.511635
v -0.605120 0.535014 -0.382636
v -0.673811 0.281568 -0.643790
v -0.666189 0.445350 -0.313550
v -0.805163 0.342266 -0.445533
v -0.925393 0.472385 -0.225338
v -1.032604 0.274855 -0.368531
v -1.128780 0.346697 -0.265878
v -1.362138 0.386641 -0.323221
v -1.167312 0.440361 -0.096098
v -1.568025 0.339211 -0.175774
v -1.781102 0.143011 0.176046
v -1.847651 -0.032261 0.046261
v -1.611446 0.177965 -0.478830
v -1.523403 0.308167 -0.454402
v -1.187729 0.014615 -0.585816
v -1.076952 -0.154060 -0.667554
v -1.101550 -0.323331 -0.547768
v -0.986747 -0.059152 -0.604526
v -1.477086 -0.030572 -0.372354
v -1.440068 -0.293890 -0.195936
v -1.712371 -0.331061 0.072112
v -1.768527 -0.023191 -0.042450
v -1.951711 -0.150330 0.073316
v -1.958050 -0.301186 0.076041
v -2.043001 -0.147043 0.272447
v -2.134089 -0.334638 1.005493
v -2.024619 -0.118206 0.733451
v -1.888270 0.011830 0.348454
v -2.040485 -0.477826 0.542326
v -1.973851 0.124194 0.569564
v -1.605543 0.328778 0.693116
v -1.799821 0.191120 0.448269
v -1.976897 0.123869 0.883101
v -1.949144 0.220378 1.158993
v -1.658864 0.268279 1.014957
v -2.066416 0.051411 1.318053
v -1.645146 0.136840 1.539947
v -1.773103 0.056025 1.488989
v -2.009196 -0.026088 1.344098
v -1.654197 -0.005208 1.460340
v -1.814901 -0.152821 1.345489
v -1.927399 -0.321528 1.125283
v -1.809945 -0.518691 0.835833
v -1.623370 -0.274249 1.131085
v -1.688336 -0.397897 0.945898
v -1.602738 -0.424393 0.822475
v -1.383717 -0.383622 1.056816
v -1.458945 -0.276336 1.125908
v -1.360046 -0.235168 1.275767
v -1.141553 -0.092184 1.376158
v -1.213696 -0.278641 1.236830
v -1.376077 0.069569 1.615096
v -1.188121 0.226838 1.676946
v -1.125038 0.031733 1.529027
v -1.116600 0.120759 1.716238
v -0.668719 -0.007852 1.570655
v -0.784880 0.259614 1.551716
v -1.090303 0.335347 1.150144
v -1.344312 0.337468 0.918703
v -1.550650 0.199970 1.258552
v -0.923771 -0.156584 1.345658
v -0.507788 0.163164 1.283858
v -0.658322 -0.176654 1.388817
v -0.635190 -0.263032 1.175474
v -0.418594 -0.181227 1.085614
v -0.854149 -0.333091 1.218241
v -1.106305 -0.319591 1.042679
v -0.729785 -0.265601 0.819210
v -1.071191 -0.390623 0.864921
v -0.769516 -0.342142 0.671771
v -1.245902 -0.454995 0.604115
v -1.032602 -0.412967 0.385393
v -1.321004 -0.425501 0.759432
v -1.486831 -0.470704 0.580711
v -1.776016 -0.512727 0.649574
v -1.411614 -0.376365 0.376778
v -1.174404 -0.351778 0.198499
v -1.450189 -0.322517 0.040906
v -1.258813 -0.396240 -0.109893
v -0.840000 -0.465851 0.080832
v -1.041401 -0.404394 0.123520
v -0.850807 -0.397537 -0.253548
v -0.646859 -0.448081 -0.215244
v -0.866487 -0.349023 -0.454802
v -0.476888 -0.534765 -0.634716
v -0.091716 -0.518110 -0.515786
v -0.167880 -0.473703 -0.314755
v -0.568212 -0.567395 -0.716580
v -0.124561 -0.522167 -1.051946
v -0.555672 -0.533011 -0.906864
v -0.308346 -0.549140 -1.145613
v -0.765154 -0.233834 -0.815824
v -0.760031 -0.287026 -0.679555
v -0.490302 -0.396663 -1.043586
v -0.286868 -0.275554 -1.366612
v -0.813791 -0.436236 -0.646317
v -0.851666 -0.105761 -0.697088
v -0.787866 0.072036 -0.498283
v -0.236268 -0.289543 -1.701092
v -0.286470 -0.062340 -1.598447
v -0.046003 -0.491171 -1.572526
v -0.162649 -0.530620 -1.323541
v -0.430135 -0.200908 -1.022891
v -0.587190 -0.108723 -0.889789
v 0.009759 -0.465944 -1.159739
v 0.079522 -0.486180 -1.258265
v 0.296469 -0.495711 -1.180256
v 0.211208 -0.412684 -1.408862
v 0.386126 -0.414276 -1.411562
v 0.278215 -0.404087 -1.565279
v 0.470560 -0.500626 -1.252620
v 0.298307 -0.368992 -0.923004
v 0.592137 -0.387326 -1.380384
v 0.694538 -0.411039 -1.154409
v 1.140088 -0.528859 -1.177585
v 0.829888 -0.416322 -1.523140
v 1.253616 -0.541933 -1.263675
v 0.999463 -0.268211 -1.696255
v 0.636856 -0.248467 -1.790386
v 0.515369 -0.355438 -1.559456
v 0.864328 -0.136766 -1.906471
v 0.356060 -0.129575 -1.928729
v 0.627522 -0.033247 -1.890516
v 0.030074 -0.173267 -1.923057
v 0.057612 0.015718 -1.895931
v -0.171671 -0.082270 -1.814148
v -0.142012 0.156957 -1.700756
v 1.027062 -0.122272 -1.854048
v 1.200336 -0.025005 -1.381195
v 1.230900 -0.400738 -1.411016
v 1.418169 -0.357623 -1.250471
v 1.373078 -0.476655 -0.949703
v 1.633405 -0.170584 -0.963563
v -0.336570 -0.450901 -0.227281
v -0.087167 -0.463987 -0.152787
v -0.296969 -0.518395 -0.041084
v 0.096515 -0.403461 -0.152113
v 0.285580 -0.266174 0.020630
v 0.046197 -0.394916 0.235205
v -0.194900 -0.446173 0.190900
v -0.467397 -0.375938 0.437042
v -0.144938 -0.418068 0.389540
v -0.134453 -0.413100 0.704895
v 0.198664 -0.435838 0.929819
v 0.079564 -0.408401 0.622740
v -0.388788 -0.315289 0.956096
v -0.130075 -0.421166 0.928931
v -0.227536 -0.096542 1.028339
v 0.090519 -0.140452 0.937138
v -0.042759 0.026840 0.948523
v -0.282946 0.130631 1.040742
v -0.214199 0.345283 1.039512
v -0.347488 0.273779 1.153597
v 0.245557 -0.057034 1.109542
v 0.385797 -0.273893 0.930289
v 0.576630 0.113959 1.199887
v 0.760169 -0.072554 1.004914
v 0.602910 -0.231575 0.921331
v 0.824374 -0.291933 0.765131
v 0.621698 -0.410507 0.777934
v -2.036549 -0.559602 0.805872
v -0.222545 0.482285 -0.228184
v -0.479488 0.513142 -0.196627
v 0.015889 0.439646 -0.633274
v -0.196566 0.400741 -0.689848
v 0.145322 0.345685 -0.669951
v 0.498404 0.373717 -0.518669
v 0.284902 0.379200 -0.457730
v 0.526188 0.278719 -0.780948
v 0.699048 0.194507 -0.826965
v 0.769811 0.259871 -0.513815
v 0.912119 0.345245 -0.235254
v 0.698009 0.275372 -0.229512
v 0.912089 0.302146 -0.522025
v 1.052714 0.231076 -0.570059
v 0.497365 0.429239 -0.182687
v 0.187083 0.488699 -0.312430
v -0.551030 0.486886 0.492622
vn 0.8637 0.4289 -0.2647
vn 0.7599 0.6496 -0.0243
vn 0.9564 0.2751 0.0977
vn 0.7102 -0.1766 -0.6815
vn 0.5421 0.5376 -0.6459
vn 0.9051 -0.2949 -0.3063
vn 0.6828 -0.7282 -0.0594
vn 0.2765 -0.9146 -0.2951
vn -0.0128 -0.9987 -0.0487
vn 0.5708 -0.8088 0.1415
vn 0.7296 -0.2844 -0.6220
vn 0.0640 -0.9970 0.0436
vn 0.0423 -0.9823 0.1826
vn -0.0196 -0.9540 0.2991
vn -0.1013 -0.9947 0.0152
vn -0.2006 -0.9012 0.3843
vn -0.3016 -0.8824 0.3611
vn -0.2015 -0.9689 0.1436
vn 0.1630 -0.9863 -0.0272
vn 0.0339 -0.9500 0.3104
vn -0.3369 -0.9290 -0.1533
vn -0.3401 -0.9029 -0.2627
vn -0.2016 -0.9735 -0.1081
vn -0.2702 -0.9561 -0.1132
vn -0.3114 -0.9502 -0.0097
vn 0.0989 -0.9926 -0.0704
vn 0.2636 -0.9646 -0.0051
vn 0.3980 -0.9156 0.0566
vn -0.0159 -0.9998 -0.0092
vn -0.2398 -0.9691 -0.0575
vn 0.1190 -0.9804 -0.1569
vn 0.2966 -0.9410 -0.1633
vn 0.1324 -0.9353 -0.3280
vn -0.0723 -0.9203 -0.3845
vn -0.0035 -0.9788 0.2047
vn 0.0791 -0.9968 0.0093
vn -0.1905 -0.9626 -0.1924
vn -0.1102 -0.9765 -0.1850
vn 0.0867 -0.9900 -0.1112
vn 0.0733 -0.9973 -0.0035
vn -0.2515 -0.9677 0.0162
vn 0.2462 -0.9063 0.3435
vn 0.0516 -0.9986 -0.0131
vn -0.0442 -0.9989 0.0172
vn 0.5848 -0.2035 0.7853
vn 0.4522 -0.4788 0.7525
vn 0.1649 -0.6742 0.7199
vn 0.7348 -0.5906 0.3336
vn 0.0582 -0.9678 -0.2448
vn 0.7810 0.0991 0.6166
vn 0.9742 -0.0586 0.2178
vn 0.8914 0.2652 0.3676
vn 0.8175 0.4474 0.3627
vn 0.7896 0.0966 0.6060
vn 0.6763 -0.0619 0.7341
vn 0.5487 0.5033 0.6676
vn 0.3105 0.9327 0.1836
vn 0.5367 0.5101 0.6722
vn -0.0219 0.9783 0.2058
vn 0.7450 -0.1405 0.6520
vn 0.3676 -0.4034 0.8379
vn 0.7037 -0.0846 0.7054
vn 0.4086 0.4355 0.8021
vn 0.4344 -0.1058 0.8945
vn 0.1322 0.9092 0.3948
vn 0.3362 -0.3671 0.8673
vn 0.3295 0.6393 0.6948
vn 0.1063 0.9914 0.0765
vn 0.3801 0.0376 0.9242
vn 0.1696 0.8182 0.5493
vn -0.1206 0.4565 0.8815
vn 0.0823 0.9377 0.3376
vn -0.0051 0.9989 -0.0466
vn 0.1446 0.9894 0.0102
vn -0.0416 0.9862 0.1602
vn -0.5369 0.2457 0.8070
vn -0.4805 -0.1175 0.8691
vn -0.6275 -0.2968 0.7198
vn -0.4734 -0.1996 0.8579
vn -0.0933 0.9707 0.2217
vn -0.1617 0.9799 -0.1171
vn 0.0866 0.7938 0.6020
vn -0.1864 0.9791 0.0809
vn -0.3115 0.9330 0.1802
vn -0.1847 0.9169 0.3538
vn 0.3570 0.6916 0.6278
vn -0.0413 0.9798 -0.1959
vn 0.0155 0.9974 0.0703
vn -0.3518 0.9251 0.1429
vn -0.3802 0.9248 0.0148
vn -0.3116 0.9144 -0.2584
vn -0.2174 0.9472 0.2357
vn 0.0359 0.9985 0.0414
vn 0.0150 0.9939 0.1090
vn 0.0686 0.9947 0.0762
vn 0.1212 0.9907 -0.0613
vn -0.0377 0.9987 0.0338
vn -0.3428 0.8710 -0.3520
vn -0.1344 0.9902 -0.0371
vn -0.2747 0.9615 -0.0038
vn -0.1227 0.9921 -0.0259
vn -0.0150 0.9729 -0.2306
vn 0.0636 0.9979 -0.0126
vn -0.0896 0.9906 -0.1031
vn -0.0270 0.9971 -0.0707
vn -0.0649 0.9974 -0.0308
vn 0.2583 0.9220 -0.2883
vn 0.2207 0.9635 -0.1518
vn 0.1960 0.9076 -0.3713
vn -0.0764 0.9971 -0.0065
vn -0.0925 0.9881 -0.1227
vn -0.1577 0.7261 -0.6692
vn 0.2000 0.9633 0.1790
vn -0.1776 0.9655 -0.1907
vn -0.0802 0.9920 0.0974
vn 0.0534 0.9906 0.1258
vn 0.1530 0.9877 -0.0310
vn -0.0903 0.9939 0.0637
vn 0.1934 0.9463 -0.2590
vn 0.4067 0.8117 -0.4192
vn 0.0224 0.6863 -0.7270
vn 0.1247 0.7271 -0.6751
vn -0.0727 0.7046 -0.7059
vn 0.1401 0.8535 -0.5018
vn -0.0260 0.7904 -0.6120
vn 0.7880 0.2725 -0.5522
vn 0.3828 0.9233 -0.0324
vn 0.2663 0.9575 -0.1108
vn 0.5443 0.7716 -0.3291
vn 0.2398 0.9663 -0.0935
vn 0.0788 0.9745 -0.2101
vn 0.2701 0.9614 0.0534
vn 0.0514 0.9747 -0.2174
vn 0.0863 0.9785 -0.1875
vn 0.1925 0.8513 -0.4881
vn 0.0886 0.8247 -0.5586
vn 0.1932 0.9540 -0.2292
vn -0.4755 0.8432 -0.2508
vn 0.3761 0.9156 -0.1419
vn 0.2467 0.9226 -0.2966
vn -0.2226 0.9075 -0.3563
vn -0.8646 0.2112 -0.4560
vn 0.2140 0.9689 -0.1245
vn -0.6810 0.1908 -0.7070
vn -0.3544 0.8547 -0.3794
vn 0.0345 0.9841 -0.1741
vn 0.2373 0.9557 -0.1740
vn -0.3763 0.8178 -0.4354
vn 0.0882 0.9567 -0.2775
vn -0.3091 0.8403 -0.4455
vn -0.7517 0.4674 -0.4654
vn -0.5804 0.4764 -0.6605
vn -0.4129 0.6037 -0.6819
vn -0.3425 0.6714 -0.6572
vn -0.1182 0.6169 -0.7781
vn 0.0011 0.8499 -0.5270
vn -0.0191 0.9129 -0.4078
vn -0.2916 0.9174 -0.2708
vn -0.5815 0.8070 -0.1032
vn -0.7591 0.6366 -0.1358
vn -0.7906 0.4803 -0.3798
vn -0.7000 0.0428 -0.7129
vn -0.3284 0.7089 -0.6242
vn -0.2084 0.2324 -0.9500
vn -0.4382 -0.0009 -0.8989
vn -0.4686 -0.7649 -0.4419
vn -0.0487 0.6432 -0.7641
vn -0.5675 -0.5225 -0.6364
vn -0.4502 -0.7717 -0.4492
vn -0.2530 -0.8654 -0.4325
vn -0.5774 -0.5008 -0.6448
vn -0.6862 0.1680 -0.7078
vn -0.4899 -0.4867 -0.7233
vn -0.9253 0.2694 -0.2669
vn -0.8678 -0.3733 0.3281
vn -0.9446 0.3262 -0.0368
vn -0.6791 0.6430 -0.3541
vn -0.6300 -0.7120 -0.3101
vn -0.7666 0.6196 -0.1686
vn -0.3599 0.9319 0.0441
vn -0.5418 0.8034 -0.2472
vn -0.7745 0.6251 -0.0973
vn -0.4957 0.8644 0.0841
vn -0.2051 0.9667 0.1530
vn -0.8310 0.2832 0.4787
vn -0.3327 0.5450 0.7696
vn -0.3850 -0.2519 0.8879
vn -0.5216 -0.3650 0.7712
vn -0.3156 -0.4737 0.8222
vn -0.1998 -0.6530 0.7305
vn -0.1458 -0.7739 0.6162
vn 0.2119 -0.9165 0.3393
vn 0.0163 -0.8700 0.4927
vn 0.1405 -0.8582 0.4937
vn 0.1692 -0.9574 0.2339
vn -0.0563 -0.9055 0.4205
vn -0.2163 -0.8314 0.5118
vn -0.0523 -0.7875 0.6141
vn 0.0036 -0.7058 0.7084
vn -0.0017 -0.8073 0.5901
vn -0.1554 -0.4630 0.8726
vn -0.1734 0.6738 0.7183
vn -0.0327 -0.8359 0.5479
vn 0.0124 -0.2669 0.9636
vn 0.5013 -0.3372 0.7969
vn 0.2752 0.6764 0.6832
vn -0.1777 0.9473 0.2664
vn -0.1044 0.9826 0.1534
vn -0.1489 0.9633 0.2234
vn -0.1156 -0.6726 0.7309
vn 0.7753 -0.0028 0.6316
vn 0.4042 -0.6585 0.6348
vn 0.3118 -0.9132 0.2624
vn 0.5584 -0.4253 0.7122
vn 0.0859 -0.9165 0.3906
vn -0.0151 -0.9528 0.3032
vn 0.0375 -0.9644 0.2619
vn 0.1590 -0.9723 0.1714
vn 0.0923 -0.9691 0.2290
vn 0.0860 -0.9960 -0.0224
vn -0.0239 -0.9997 -0.0016
vn 0.0450 -0.9764 0.2114
vn 0.0795 -0.9892 -0.1234
vn 0.1473 -0.9786 -0.1434
vn 0.0027 -0.9610 -0.2767
vn -0.1943 -0.9805 -0.0278
vn -0.1019 -0.9917 -0.0791
vn -0.2486 -0.9491 -0.1932
vn -0.1064 -0.9937 0.0351
vn -0.2881 -0.9522 0.1013
vn -0.1719 -0.9595 -0.2232
vn -0.1789 -0.9803 -0.0834
vn -0.2554 -0.9635 0.0799
vn -0.0460 -0.9875 0.1510
vn 0.2194 -0.9710 0.0948
vn -0.0919 -0.9828 0.1600
vn -0.0750 -0.9943 0.0756
vn 0.2156 -0.9749 -0.0561
vn -0.4691 -0.7951 -0.3845
vn -0.2900 -0.9033 -0.3161
vn -0.8058 -0.2121 -0.5529
vn -0.6458 -0.2894 -0.7065
vn -0.7713 -0.0305 -0.6357
vn -0.9145 -0.2335 -0.3303
vn -0.4687 -0.2861 -0.8358
vn -0.5830 0.2714 -0.7658
vn -0.5764 0.4927 -0.6519
vn -0.7412 -0.4679 -0.4814
vn -0.9522 0.1965 -0.2339
vn -0.1560 -0.9092 -0.3859
vn -0.2909 -0.9192 -0.2654
vn -0.7482 0.0931 -0.6569
vn -0.5333 -0.0873 -0.8414
vn 0.1645 -0.9789 0.1211
vn 0.1088 -0.9940 -0.0119
vn 0.0049 -0.9911 0.1328
vn 0.1397 -0.9757 -0.1686
vn 0.0948 -0.9370 -0.3363
vn 0.1482 -0.9330 -0.3278
vn 0.1810 -0.9807 -0.0734
vn 0.2941 -0.9136 0.2809
vn 0.0681 -0.9723 -0.2236
vn -0.0670 -0.9825 0.1736
vn -0.1864 -0.9812 0.0495
vn -0.0588 -0.9296 -0.3638
vn 0.3305 -0.8981 -0.2900
vn 0.2228 -0.7668 -0.6020
vn 0.0235 -0.8126 -0.5824
vn 0.0678 -0.9538 -0.2926
vn 0.2028 -0.2124 -0.9559
vn 0.0302 -0.2363 -0.9712
vn 0.0598 0.4176 -0.9067
vn -0.1766 -0.3387 -0.9242
vn -0.1690 0.4516 -0.8761
vn -0.6710 0.1151 -0.7325
vn -0.4885 0.7575 -0.4331
vn 0.6245 0.0363 -0.7802
vn 0.7335 0.4391 -0.5189
vn 0.6537 -0.3480 -0.6720
vn 0.7963 -0.2864 -0.5329
vn 0.4107 -0.8560 0.3140
vn 0.9869 0.1091 -0.1192
vn -0.0062 -0.9994 -0.0338
vn 0.1975 -0.9780 0.0665
vn 0.0728 -0.9973 -0.0107
vn 0.4047 -0.9115 0.0740
vn 0.3035 -0.9518 0.0446
vn 0.2621 -0.9650 -0.0037
vn 0.1034 -0.9802 0.1688
vn -0.0505 -0.9843 0.1692
vn 0.0269 -0.9975 0.0647
vn -0.1331 -0.9911 0.0087
vn 0.0280 -0.7513 0.6594
vn 0.0476 -0.9850 -0.1657
vn 0.0034 -0.8640 0.5035
vn -0.1566 -0.8278 0.5387
vn 0.2623 -0.1005 0.9597
vn -0.2114 -0.0951 0.9728
vn 0.0551 -0.1194 0.9913
vn 0.5225 -0.1241 0.8436
vn 0.2893 0.0793 0.9539
vn 0.5930 0.1030 0.7986
vn -0.3240 -0.4256 0.8449
vn 0.2597 -0.5015 0.8253
vn 0.0883 -0.5680 0.8183
vn 0.2388 -0.5647 0.7900
vn 0.1963 -0.6212 0.7587
vn 0.2241 -0.6864 0.6919
vn 0.2577 -0.6992 0.6668
vn -0.4419 -0.8743 0.2007
vn -0.1121 0.9936 0.0099
vn 0.2634 0.9646 0.0096
vn 0.1741 0.8122 -0.5567
vn 0.0103 0.9049 -0.4254
vn 0.2330 0.8878 -0.3969
vn 0.2220 0.9557 -0.1935
vn 0.1978 0.9404 -0.2766
vn 0.2020 0.9535 -0.2237
vn 0.3390 0.9354 -0.1006
vn -0.0032 0.9906 -0.1370
vn -0.1495 0.8487 -0.5073
vn 0.0907 0.9593 -0.2674
vn 0.0107 0.9553 -0.2954
vn 0.3954 0.7529 -0.5261
vn 0.4482 0.8700 -0.2054
vn 0.2715 0.9104 -0.3123
vn -0.0889 0.9955 -0.0319
vt 0.380844 0.224716
vt 0.365151 0.228542
vt 0.360129 0.219249
vt 0.369262 0.235480
vt 0.353732 0.233372
vt 0.351693 0.227171
vt 0.336230 0.228468
vt 0.352813 0.247952
vt 0.873520 0.512494
vt 0.859893 0.528315
vt 0.850899 0.515751
vt 0.847120 0.531088
vt 0.334899 0.208307
vt 0.828102 0.531094
vt 0.827869 0.520362
vt 0.323696 0.204231
vt 0.808955 0.524278
vt 0.818020 0.540164
vt 0.832255 0.538465
vt 0.803852 0.547761
vt 0.819809 0.558503
vt 0.817754 0.569893
vt 0.808528 0.562884
vt 0.832769 0.566734
vt 0.829458 0.550639
vt 0.831611 0.556592
vt 0.828371 0.573912
vt 0.838440 0.555224
vt 0.843136 0.569100
vt 0.813157 0.576260
vt 0.836800 0.584951
vt 0.841959 0.578796
vt 0.852914 0.573805
vt 0.850833 0.588245
vt 0.843016 0.600458
vt 0.863498 0.605920
vt 0.865856 0.587668
vt 0.864694 0.574867
vt 0.882680 0.573336
vt 0.872693 0.614120
vt 0.873101 0.561267
vt 0.890116 0.544507
vt 0.862314 0.541128
vt 0.870565 0.548689
vt 0.847786 0.558577
vt 0.850386 0.544863
vt 0.840343 0.548002
vt 0.430594 0.282057
vt 0.434785 0.266376
vt 0.451502 0.267279
vt 0.452315 0.247966
vt 0.467177 0.231232
vt 0.475551 0.243776
vt 0.872034 0.525482
vt 0.889503 0.521893
vt 0.367341 0.263808
vt 0.366817 0.253222
vt 0.388710 0.252747
vt 0.420876 0.260556
vt 0.383325 0.237680
vt 0.398184 0.229566
vt 0.399449 0.241187
vt 0.414415 0.247042
vt 0.428778 0.247511
vt 0.413748 0.227024
vt 0.417239 0.213870
vt 0.401439 0.221448
vt 0.426526 0.217261
vt 0.436905 0.239476
vt 0.450850 0.226367
vt 0.443515 0.229372
vt 0.442196 0.211966
vt 0.448504 0.216237
vt 0.458128 0.208836
vt 0.431924 0.204708
vt 0.447505 0.201126
vt 0.438994 0.177599
vt 0.455629 0.189950
vt 0.459136 0.194910
vt 0.467523 0.175885
vt 0.455125 0.163746
vt 0.436603 0.156742
vt 0.443664 0.140131
vt 0.460043 0.143198
vt 0.469289 0.166003
vt 0.462011 0.141140
vt 0.468630 0.155062
vt 0.481338 0.170717
vt 0.473814 0.177222
vt 0.474819 0.134241
vt 0.456819 0.120251
vt 0.473864 0.113886
vt 0.469672 0.109169
vt 0.493054 0.108546
vt 0.474375 0.089510
vt 0.498178 0.125186
vt 0.454822 0.091045
vt 0.464429 0.079113
vt 0.426823 0.072823
vt 0.459737 0.068320
vt 0.479150 0.079231
vt 0.446145 0.085725
vt 0.432025 0.092432
vt 0.436859 0.101758
vt 0.425097 0.108839
vt 0.419368 0.104781
vt 0.411643 0.092499
vt 0.415371 0.083198
vt 0.437312 0.115163
vt 0.432985 0.126947
vt 0.417315 0.125430
vt 0.431229 0.142686
vt 0.408948 0.123746
vt 0.408947 0.141456
vt 0.410869 0.159690
vt 0.399540 0.128303
vt 0.401060 0.152034
vt 0.410818 0.174001
vt 0.393808 0.165520
vt 0.426207 0.174460
vt 0.386820 0.185203
vt 0.398779 0.188874
vt 0.424107 0.187630
vt 0.415410 0.187691
vt 0.411681 0.202183
vt 0.413858 0.193524
vt 0.404467 0.212883
vt 0.387806 0.210478
vt 0.366985 0.209436
vt 0.377943 0.217139
vt 0.374016 0.197282
vt 0.385833 0.201279
vt 0.355411 0.203162
vt 0.359318 0.194334
vt 0.340254 0.204941
vt 0.339153 0.183381
vt 0.337860 0.163521
vt 0.350816 0.178726
vt 0.326773 0.173487
vt 0.326523 0.155735
vt 0.327863 0.142098
vt 0.352649 0.154774
vt 0.344244 0.144669
vt 0.333324 0.130314
vt 0.317766 0.129447
vt 0.315189 0.148211
vt 0.333129 0.114866
vt 0.342968 0.114729
vt 0.362451 0.132443
vt 0.349061 0.125494
vt 0.355555 0.119812
vt 0.354531 0.075826
vt 0.333963 0.093441
vt 0.358136 0.102720
vt 0.373800 0.098411
vt 0.365461 0.111099
vt 0.381709 0.091178
vt 0.388842 0.100711
vt 0.400270 0.090899
vt 0.402927 0.082725
vt 0.378254 0.079208
vt 0.401852 0.082747
vt 0.416818 0.074098
vt 0.393354 0.071979
vt 0.399858 0.068875
vt 0.411711 0.058164
vt 0.421032 0.059950
vt 0.431105 0.065864
vt 0.428735 0.050537
vt 0.439849 0.046107
vt 0.458451 0.024247
vt 0.461767 0.037675
vt 0.430288 0.036010
vt 0.429315 0.041747
vt 0.408270 0.035864
vt 0.396491 0.030013
vt 0.397387 0.016987
vt 0.395133 0.038747
vt 0.426065 0.025728
vt 0.428114 0.007190
vt 0.452334 0.002378
vt 0.451219 0.024208
vt 0.464975 0.016781
vt 0.477142 0.020631
vt 0.467888 0.007607
vt 0.497219 0.033917
vt 0.515415 0.030395
vt 0.499069 0.010043
vt 0.484792 0.040406
vt 0.473963 0.033135
vt 0.480434 0.061569
vt 0.497530 0.047255
vt 0.474806 0.044900
vt 0.514015 0.051174
vt 0.506133 0.055446
vt 0.496284 0.064278
vt 0.519980 0.069536
vt 0.520465 0.062576
vt 0.517871 0.050963
vt 0.526079 0.064568
vt 0.528714 0.052529
vt 0.526632 0.035127
vt 0.528324 0.013639
vt 0.819168 0.719666
vt 0.829954 0.716074
vt 0.834792 0.732718
vt 0.842973 0.718006
vt 0.851085 0.732938
vt 0.846182 0.709857
vt 0.825413 0.708625
vt 0.842440 0.702980
vt 0.855992 0.707948
vt 0.878286 0.719125
vt 0.869577 0.701149
vt 0.856562 0.699269
vt 0.879463 0.704681
vt 0.529025 0.080942
vt 0.523748 0.093471
vt 0.530122 0.097515
vt 0.889882 0.708836
vt 0.514739 0.114797
vt 0.890116 0.682267
vt 0.526857 0.127542
vt 0.495065 0.093801
vt 0.486852 0.077876
vt 0.506416 0.071913
vt 0.871312 0.689153
vt 0.877923 0.676226
vt 0.505453 0.137379
vt 0.529430 0.142524
vt 0.530122 0.156896
vt 0.514968 0.163044
vt 0.862723 0.681115
vt 0.867055 0.669614
vt 0.849299 0.689473
vt 0.840751 0.683138
vt 0.848476 0.665430
vt 0.839593 0.663210
vt 0.818215 0.668808
vt 0.823233 0.685287
vt 0.829235 0.692913
vt 0.815884 0.696626
vt 0.811462 0.712741
vt 0.807278 0.686799
vt 0.790164 0.679275
vt 0.784510 0.692439
vt 0.777738 0.704081
vt 0.805062 0.670904
vt 0.789103 0.665903
vt 0.779235 0.672336
vt 0.791857 0.643535
vt 0.808650 0.651209
vt 0.805309 0.662274
vt 0.781849 0.639676
vt 0.798992 0.634507
vt 0.771662 0.647816
vt 0.783625 0.615428
vt 0.806437 0.609598
vt 0.798942 0.601050
vt 0.773831 0.588467
vt 0.777179 0.617504
vt 0.769067 0.611937
vt 0.316081 0.091713
vt 0.308279 0.069742
vt 0.325396 0.053161
vt 0.764621 0.594290
vt 0.349118 0.057815
vt 0.325937 0.066886
vt 0.349979 0.049157
vt 0.346834 0.039302
vt 0.773676 0.631091
vt 0.361408 0.055278
vt 0.375956 0.017027
vt 0.384341 0.037709
vt 0.390233 0.054224
vt 0.379098 0.060108
vt 0.292437 0.101990
vt 0.309394 0.107449
vt 0.319263 0.107480
vt 0.299117 0.083186
vt 0.334903 0.076981
vt 0.346933 0.071105
vt 0.760407 0.583005
vt 0.772768 0.579008
vt 0.769722 0.573220
vt 0.751925 0.571318
vt 0.778548 0.565025
vt 0.765704 0.562760
vt 0.769919 0.554808
vt 0.779703 0.555804
vt 0.760198 0.555967
vt 0.791798 0.571662
vt 0.789975 0.547107
vt 0.776378 0.545895
vt 0.775800 0.531373
vt 0.799331 0.524266
vt 0.286693 0.159189
vt 0.301921 0.159884
vt 0.294779 0.189608
vt 0.797998 0.516972
vt 0.766116 0.544907
vt 0.299453 0.144059
vt 0.285000 0.138851
vt 0.283705 0.123696
vt 0.306904 0.132572
vt 0.306901 0.150861
vt 0.308304 0.120231
vt 0.310523 0.142938
vt 0.314290 0.122838
vt 0.321975 0.116897
vt 0.314186 0.114527
vt 0.308474 0.155610
vt 0.301755 0.179142
vt 0.320560 0.171101
vt 0.310029 0.189752
vt 0.326366 0.197973
vt 0.307467 0.210126
vt 0.323706 0.214344
vt 0.815522 0.518959
vt 0.816189 0.609863
vt 0.806339 0.619593
vt 0.816138 0.622614
vt 0.821089 0.600833
vt 0.838355 0.612674
vt 0.834833 0.595048
vt 0.830157 0.623386
vt 0.835650 0.642741
vt 0.841095 0.625782
vt 0.856632 0.632981
vt 0.862225 0.651963
vt 0.875644 0.622545
vt 0.867539 0.638126
vt 0.857883 0.620616
vt 0.509426 0.189709
vt 0.501311 0.168406
vt 0.518462 0.174807
vt 0.494046 0.202840
vt 0.493480 0.155327
vt 0.487234 0.184562
vt 0.486361 0.171303
vt 0.491406 0.143277
vt 0.480987 0.148689
vt 0.495499 0.166301
vt 0.499887 0.178945
vt 0.486494 0.184847
vt 0.508905 0.196474
vt 0.494501 0.201074
vt 0.469114 0.193210
vt 0.471787 0.208507
vt 0.484952 0.209368
vt 0.493940 0.219815
vt 0.480650 0.224568
vt 0.879531 0.599421
vt 0.811382 0.729536
vt 0.798617 0.721830
vt 0.514725 0.014423
vt 0.402313 0.116870
vt 0.408868 0.102674
vt 0.377183 0.124769
vt 0.375055 0.112636
vt 0.371433 0.131420
vt 0.375121 0.151481
vt 0.380735 0.141565
vt 0.361094 0.150074
vt 0.355759 0.158568
vt 0.370676 0.165770
vt 0.382583 0.176961
vt 0.384650 0.166375
vt 0.368818 0.172733
vt 0.363602 0.178579
vt 0.391978 0.156050
vt 0.391098 0.138077
vt 0.337443 0.212180
vt 0.448808 0.112633
s 1
usemtl RocksCollection
f 2/1/2 1/2/1 5/3/5
f 1/2/1 2/1/2 3/4/3
f 3/4/3 6/5/6 1/2/1
f 1/2/1 4/6/4 5/3/5
f 4/6/4 1/2/1 6/5/6
f 6/5/6 8/7/8 4/6/4
f 6/5/6 3/4/3 7/8/7
f 8/7/8 6/5/6 7/8/7
f 7/9/7 9/10/9 8/11/8
f 9/10/9 12/12/12 8/11/8
f 4/6/4 8/7/8 11/13/11
f 13/14/13 10/15/10 8/11/8
f 10/16/10 11/13/11 8/7/8
f 13/14/13 8/11/8 12/12/12
f 10/15/10 13/14/13 14/17/14
f 16/18/16 14/17/14 13/14/13
f 13/14/13 12/12/12 15/19/15
f 13/14/13 15/19/15 16/18/16
f 17/20/17 14/17/14 16/18/16
f 18/21/18 17/20/17 16/18/16
f 18/21/18 16/18/16 15/19/15
f 19/22/19 20/23/20 18/21/18
f 18/21/18 23/24/23 19/22/19
f 21/25/21 18/21/18 15/19/15
f 17/20/17 18/21/18 20/23/20
f 18/21/18 21/25/21 22/26/22
f 22/26/22 23/24/23 18/21/18
f 19/22/19 23/24/23 26/27/26
f 22/26/22 24/28/24 23/24/23
f 25/29/25 23/24/23 24/28/24
f 25/29/25 26/27/26 23/24/23
f 28/30/28 26/27/26 27/31/27
f 26/27/26 29/32/29 27/31/27
f 26/27/26 28/30/28 19/22/19
f 26/27/26 25/29/25 29/32/29
f 25/29/25 30/33/30 29/32/29
f 31/34/31 29/32/29 30/33/30
f 27/31/27 29/32/29 31/34/31
f 27/31/27 31/34/31 32/35/32
f 33/36/33 32/35/32 31/34/31
f 31/34/31 34/37/34 33/36/33
f 34/37/34 31/34/31 30/33/30
f 34/37/34 30/33/30 37/38/37
f 37/38/37 35/39/35 34/37/34
f 35/39/35 36/40/36 34/37/34
f 36/40/36 33/36/33 34/37/34
f 30/33/30 38/41/38 37/38/37
f 38/41/38 35/39/35 37/38/37
f 38/41/38 42/42/42 35/39/35
f 38/41/38 40/43/40 39/44/39
f 42/42/42 38/41/38 39/44/39
f 30/33/30 41/45/41 38/41/38
f 38/41/38 43/46/43 40/43/40
f 38/41/38 41/45/41 43/46/43
f 12/12/12 40/43/40 43/46/43
f 12/12/12 43/46/43 15/19/15
f 15/19/15 43/46/43 44/47/44
f 43/46/43 41/45/41 44/47/44
f 24/28/24 15/19/15 44/47/44
f 44/47/44 41/45/41 24/28/24
f 48/48/48 45/49/45 42/50/42
f 46/51/46 42/50/42 45/49/45
f 42/50/42 46/51/46 47/52/47
f 47/52/47 35/53/35 42/50/42
f 49/54/49 42/42/42 39/44/39
f 42/42/42 49/54/49 48/55/48
f 49/54/49 39/44/39 40/43/40
f 48/55/48 49/54/49 7/9/7
f 9/10/9 7/9/7 49/54/49
f 9/10/9 49/54/49 40/43/40
f 48/56/48 51/57/51 50/58/50
f 48/48/48 50/59/50 45/49/45
f 7/8/7 51/57/51 48/56/48
f 51/57/51 7/8/7 3/4/3
f 51/57/51 3/4/3 52/60/52
f 51/57/51 52/60/52 50/58/50
f 52/60/52 3/4/3 2/1/2
f 52/60/52 2/1/2 53/61/53
f 52/60/52 53/61/53 54/62/54
f 50/58/50 52/60/52 54/62/54
f 54/63/54 55/64/55 50/59/50
f 56/65/56 55/64/55 54/63/54
f 54/62/54 53/61/53 56/65/56
f 59/66/59 56/65/56 57/67/57
f 57/67/57 56/65/56 53/61/53
f 59/66/59 58/68/58 56/65/56
f 58/68/58 60/69/60 56/65/56
f 55/64/55 56/65/56 60/69/60
f 60/69/60 46/51/46 55/64/55
f 46/51/46 60/69/60 61/70/61
f 62/71/62 61/70/61 60/69/60
f 60/69/60 58/68/58 62/71/62
f 63/72/63 62/71/62 58/68/58
f 62/71/62 63/72/63 61/70/61
f 61/70/61 63/72/63 64/73/64
f 63/72/63 66/74/66 64/73/64
f 63/72/63 58/68/58 59/66/59
f 65/75/65 63/72/63 59/66/59
f 63/72/63 65/75/65 67/76/67
f 63/72/63 67/76/67 66/74/66
f 67/76/67 68/77/68 70/78/70
f 67/76/67 65/75/65 68/77/68
f 69/79/69 67/76/67 70/78/70
f 69/79/69 66/74/66 67/76/67
f 70/78/70 71/80/71 69/79/69
f 72/81/72 71/80/71 70/78/70
f 70/78/70 68/77/68 72/81/72
f 72/81/72 68/77/68 74/82/74
f 72/81/72 73/83/73 75/84/75
f 74/82/74 73/83/73 72/81/72
f 75/84/75 76/85/76 72/81/72
f 76/85/76 71/80/71 72/81/72
f 80/86/80 77/87/77 76/85/76
f 76/85/76 77/87/77 78/88/78
f 76/85/76 78/88/78 79/89/79
f 80/86/80 76/85/76 75/84/75
f 76/85/76 79/89/79 71/80/71
f 77/87/77 80/86/80 82/90/82
f 75/84/75 81/91/81 80/86/80
f 81/91/81 83/92/83 80/86/80
f 80/86/80 83/92/83 82/90/82
f 87/93/87 83/92/83 81/91/81
f 85/94/85 83/92/83 84/95/84
f 87/93/87 84/95/84 83/92/83
f 83/92/83 85/94/85 86/96/86
f 86/96/86 82/90/82 83/92/83
f 88/97/88 87/93/87 81/91/81
f 88/97/88 89/98/89 87/93/87
f 87/93/87 89/98/89 84/95/84
f 89/98/89 91/99/91 90/100/90
f 90/100/90 92/101/92 89/98/89
f 91/99/91 89/98/89 93/102/93
f 93/102/93 89/98/89 88/97/88
f 84/95/84 89/98/89 92/101/92
f 88/97/88 94/103/94 93/102/93
f 94/103/94 91/99/91 93/102/93
f 97/104/97 94/103/94 88/97/88
f 94/103/94 99/105/99 95/106/95
f 94/103/94 95/106/95 96/107/96
f 96/107/96 98/108/98 94/103/94
f 94/103/94 97/104/97 99/105/99
f 94/103/94 98/108/98 91/99/91
f 100/109/100 99/105/99 97/104/97
f 101/110/101 99/105/99 100/109/100
f 102/111/102 95/106/95 99/105/99
f 102/111/102 99/105/99 101/110/101
f 103/112/103 102/111/102 101/110/101
f 104/113/104 95/106/95 102/111/102
f 103/112/103 105/114/105 102/111/102
f 104/113/104 102/111/102 105/114/105
f 105/114/105 103/112/103 108/115/108
f 106/116/106 104/113/104 105/114/105
f 105/114/105 107/117/107 106/116/106
f 105/114/105 108/115/108 107/117/107
f 111/118/111 109/119/109 108/115/108
f 109/119/109 107/117/107 108/115/108
f 110/120/110 108/115/108 74/82/74
f 111/118/111 108/115/108 110/120/110
f 108/115/108 103/112/103 74/82/74
f 111/118/111 112/121/112 109/119/109
f 112/121/112 111/118/111 114/122/114
f 115/123/115 113/124/113 111/118/111
f 111/118/111 113/124/113 114/122/114
f 110/120/110 115/123/115 111/118/111
f 68/77/68 115/123/115 110/120/110
f 68/77/68 65/75/65 115/123/115
f 65/75/65 116/125/116 115/123/115
f 117/126/117 115/123/115 116/125/116
f 113/124/113 115/123/115 117/126/117
f 114/122/114 113/124/113 117/126/117
f 114/122/114 117/126/117 116/125/116
f 116/125/116 118/127/118 114/122/114
f 118/127/118 116/125/116 65/75/65
f 59/66/59 118/127/118 65/75/65
f 57/67/57 118/127/118 59/66/59
f 114/122/114 118/127/118 119/128/119
f 57/67/57 119/128/119 118/127/118
f 123/129/123 119/128/119 120/130/120
f 2/1/2 120/130/120 119/128/119
f 121/131/121 122/132/122 119/128/119
f 123/129/123 121/131/121 119/128/119
f 119/128/119 122/132/122 114/122/114
f 57/67/57 2/1/2 119/128/119
f 123/129/123 125/133/125 124/134/124
f 121/131/121 123/129/123 124/134/124
f 123/129/123 5/3/5 125/133/125
f 5/3/5 123/129/123 120/130/120
f 125/133/125 5/3/5 126/135/126
f 125/133/125 126/135/126 127/136/127
f 124/134/124 125/133/125 127/136/127
f 130/137/130 128/138/128 127/136/127
f 127/136/127 128/138/128 124/134/124
f 126/135/126 129/139/129 127/136/127
f 127/136/127 129/139/129 130/137/130
f 131/140/131 130/137/130 129/139/129
f 134/141/134 130/137/130 131/140/131
f 130/137/130 132/142/132 128/138/128
f 133/143/133 132/142/132 130/137/130
f 130/137/130 134/141/134 133/143/133
f 133/143/133 134/141/134 137/144/137
f 136/145/136 134/141/134 135/146/135
f 131/140/131 135/146/135 134/141/134
f 134/141/134 136/145/136 137/144/137
f 136/145/136 138/147/138 137/144/137
f 141/148/141 137/144/137 138/147/138
f 133/143/133 137/144/137 140/149/140
f 141/148/141 139/150/139 137/144/137
f 137/144/137 139/150/139 140/149/140
f 141/148/141 143/151/143 139/150/139
f 144/152/144 141/148/141 142/153/142
f 141/148/141 138/147/138 142/153/142
f 143/151/143 141/148/141 145/154/145
f 141/148/141 144/152/144 145/154/145
f 147/155/147 146/156/146 145/154/145
f 146/156/146 143/151/143 145/154/145
f 145/154/145 148/157/148 147/155/147
f 148/157/148 145/154/145 144/152/144
f 147/155/147 148/157/148 149/158/149
f 150/159/150 149/158/149 148/157/148
f 152/160/152 150/159/150 148/157/148
f 151/161/151 148/157/148 144/152/144
f 148/157/148 151/161/151 152/160/152
f 152/162/152 98/108/98 150/159/150
f 98/108/98 152/162/152 154/163/154
f 153/164/153 152/160/152 151/161/151
f 154/163/154 152/162/152 153/165/153
f 153/165/153 155/166/155 154/163/154
f 154/163/154 155/166/155 156/167/156
f 156/167/156 91/99/91 154/163/154
f 98/108/98 154/163/154 91/99/91
f 91/99/91 156/167/156 158/168/158
f 157/169/157 156/167/156 155/166/155
f 158/168/158 156/167/156 157/169/157
f 90/100/90 158/168/158 159/170/159
f 91/99/91 158/168/158 90/100/90
f 157/169/157 159/170/159 158/168/158
f 161/171/161 160/172/160 159/170/159
f 90/100/90 159/170/159 160/172/160
f 162/173/162 161/171/161 159/170/159
f 162/173/162 159/170/159 163/174/163
f 163/174/163 159/170/159 157/169/157
f 163/174/163 157/169/157 164/175/164
f 162/173/162 163/174/163 164/175/164
f 164/175/164 165/176/165 166/177/166
f 164/175/164 167/178/167 165/176/165
f 164/175/164 157/169/157 167/178/167
f 166/177/166 168/179/168 164/175/164
f 162/173/162 164/175/164 168/179/168
f 169/180/169 168/179/168 166/177/166
f 169/180/169 170/181/170 168/179/168
f 168/179/168 170/181/170 171/182/171
f 171/182/171 162/173/162 168/179/168
f 161/171/161 171/182/171 172/183/172
f 171/182/171 161/171/161 162/173/162
f 170/181/170 172/183/172 171/182/171
f 174/184/174 172/183/172 173/185/173
f 170/181/170 173/185/173 172/183/172
f 161/171/161 172/183/172 174/184/174
f 176/186/176 174/184/174 175/187/175
f 174/184/174 178/188/178 175/187/175
f 179/189/179 174/184/174 176/186/176
f 161/171/161 174/184/174 177/190/177
f 177/190/177 174/184/174 179/189/179
f 174/184/174 173/185/173 178/188/178
f 180/191/180 179/189/179 182/192/182
f 181/193/181 179/189/179 180/191/180
f 179/189/179 181/193/181 177/190/177
f 182/192/182 179/189/179 176/186/176
f 185/194/185 183/195/183 182/192/182
f 182/192/182 183/195/183 184/196/184
f 180/191/180 182/192/182 184/196/184
f 182/192/182 176/186/176 185/194/185
f 186/197/186 185/194/185 187/198/187
f 183/195/183 185/194/185 186/197/186
f 188/199/188 187/198/187 185/194/185
f 185/194/185 176/186/176 175/187/175
f 175/187/175 188/199/188 185/194/185
f 187/198/187 188/199/188 189/200/189
f 188/199/188 190/201/190 189/200/189
f 191/202/191 190/201/190 188/199/188
f 191/202/191 188/199/188 175/187/175
f 191/202/191 175/187/175 192/203/192
f 192/204/192 194/205/194 191/206/191
f 193/207/193 190/208/190 191/206/191
f 194/205/194 193/207/193 191/206/191
f 194/205/194 197/209/197 193/207/193
f 195/210/195 194/205/194 192/204/192
f 196/211/196 194/205/194 195/210/195
f 197/209/197 194/205/194 196/211/196
f 197/209/197 198/212/198 193/207/193
f 196/211/196 198/212/198 197/209/197
f 190/208/190 193/207/193 198/212/198
f 201/213/201 190/208/190 198/212/198
f 199/214/199 201/213/201 198/212/198
f 198/212/198 200/215/200 199/214/199
f 198/212/198 196/211/196 200/215/200
f 203/216/203 201/213/201 199/214/199
f 186/197/186 187/198/187 201/217/201
f 202/218/202 186/197/186 201/217/201
f 187/198/187 189/200/189 201/217/201
f 201/217/201 204/219/204 202/218/202
f 204/220/204 201/213/201 203/216/203
f 189/200/189 190/201/190 201/217/201
f 202/218/202 204/219/204 206/221/206
f 205/222/205 204/220/204 203/216/203
f 204/219/204 205/223/205 206/221/206
f 206/221/206 85/94/85 207/224/207
f 86/96/86 85/94/85 206/221/206
f 86/96/86 206/221/206 205/223/205
f 202/218/202 206/221/206 207/224/207
f 84/95/84 207/224/207 85/94/85
f 84/95/84 92/101/92 207/224/207
f 207/224/207 208/225/208 202/218/202
f 208/225/208 207/224/207 92/101/92
f 209/226/209 202/218/202 208/225/208
f 92/101/92 90/100/90 208/225/208
f 184/196/184 208/225/208 180/191/180
f 90/100/90 180/191/180 208/225/208
f 184/196/184 209/226/209 208/225/208
f 186/197/186 209/226/209 183/195/183
f 209/226/209 186/197/186 202/218/202
f 209/226/209 184/196/184 183/195/183
f 205/222/205 210/227/210 212/228/212
f 205/222/205 203/216/203 210/227/210
f 211/229/211 86/96/86 205/223/205
f 205/223/205 212/230/212 211/229/211
f 212/230/212 213/231/213 214/232/214
f 212/228/212 215/233/215 213/234/213
f 214/232/214 211/229/211 212/230/212
f 212/228/212 210/227/210 215/233/215
f 210/227/210 200/215/200 215/233/215
f 216/235/216 215/233/215 200/215/200
f 215/233/215 216/235/216 218/236/218
f 217/237/217 215/233/215 218/236/218
f 213/234/213 215/233/215 217/237/217
f 218/236/218 219/238/219 217/237/217
f 221/239/221 219/238/219 218/236/218
f 218/236/218 216/235/216 196/211/196
f 220/240/220 221/239/221 218/236/218
f 218/236/218 222/241/222 220/240/220
f 218/236/218 196/211/196 195/210/195
f 218/236/218 195/210/195 222/241/222
f 223/242/223 220/240/220 222/241/222
f 222/241/222 195/210/195 223/242/223
f 195/210/195 224/243/224 223/242/223
f 224/243/224 225/244/225 223/242/223
f 220/240/220 223/242/223 225/244/225
f 227/245/227 225/244/225 170/246/170
f 170/246/170 225/244/225 173/247/173
f 220/240/220 225/244/225 221/239/221
f 226/248/226 221/239/221 225/244/225
f 225/244/225 227/245/227 226/248/226
f 225/244/225 224/243/224 173/247/173
f 226/248/226 227/245/227 228/249/228
f 227/245/227 169/250/169 228/249/228
f 170/246/170 169/250/169 227/245/227
f 231/251/231 228/249/228 169/250/169
f 231/251/231 229/252/229 228/249/228
f 229/252/229 230/253/230 228/249/228
f 230/253/230 226/248/226 228/249/228
f 233/254/233 231/251/231 169/250/169
f 231/251/231 232/255/232 229/252/229
f 231/251/231 233/254/233 232/255/232
f 166/256/166 234/257/234 233/254/233
f 233/254/233 169/250/169 166/256/166
f 232/255/232 233/254/233 234/257/234
f 232/255/232 234/257/234 236/258/236
f 236/258/236 234/257/234 235/259/235
f 235/259/235 234/257/234 238/260/238
f 234/257/234 166/256/166 237/261/237
f 239/262/239 234/257/234 237/261/237
f 238/260/238 234/257/234 239/262/239
f 244/263/244 240/264/240 239/265/239
f 240/266/240 238/260/238 239/262/239
f 239/265/239 241/267/241 243/268/243
f 241/267/241 239/265/239 242/269/242
f 245/270/245 242/269/242 239/265/239
f 239/262/239 237/261/237 245/271/245
f 244/263/244 239/265/239 243/268/243
f 166/256/166 245/271/245 237/261/237
f 245/270/245 246/272/246 242/269/242
f 166/177/166 165/176/165 245/273/245
f 246/274/246 245/273/245 165/176/165
f 167/178/167 247/275/247 246/274/246
f 246/274/246 165/176/165 167/178/167
f 151/161/151 246/272/246 247/276/247
f 241/267/241 242/269/242 246/272/246
f 151/161/151 144/152/144 246/272/246
f 246/272/246 144/152/144 241/267/241
f 155/166/155 247/275/247 167/178/167
f 153/165/153 247/275/247 155/166/155
f 247/276/247 153/164/153 151/161/151
f 250/277/250 244/263/244 248/278/248
f 248/278/248 244/263/244 249/279/249
f 142/153/142 249/279/249 244/263/244
f 244/263/244 251/280/251 240/264/240
f 250/277/250 251/280/251 244/263/244
f 243/268/243 252/281/252 244/263/244
f 244/263/244 252/281/252 142/153/142
f 243/268/243 253/282/253 252/281/252
f 252/281/252 144/152/144 142/153/142
f 253/282/253 144/152/144 252/281/252
f 241/267/241 144/152/144 253/282/253
f 241/267/241 253/282/253 243/268/243
f 251/283/251 254/284/254 240/266/240
f 254/284/254 251/283/251 255/285/255
f 255/285/255 251/283/251 250/286/250
f 256/287/256 254/284/254 255/285/255
f 257/288/257 256/287/256 255/285/255
f 255/285/255 250/286/250 257/288/257
f 257/288/257 258/289/258 260/290/260
f 259/291/259 258/289/258 257/288/257
f 257/288/257 250/286/250 259/291/259
f 257/288/257 260/290/260 256/287/256
f 256/287/256 260/290/260 261/292/261
f 20/23/20 261/292/261 260/290/260
f 263/293/263 20/23/20 260/290/260
f 263/293/263 260/290/260 262/294/262
f 260/290/260 258/289/258 262/294/262
f 263/293/263 265/295/265 264/296/264
f 263/293/263 264/296/264 17/20/17
f 262/294/262 265/295/265 263/293/263
f 20/23/20 263/293/263 17/20/17
f 265/297/265 267/298/267 266/299/266
f 264/296/264 265/295/265 266/300/266
f 269/301/269 265/295/265 262/294/262
f 267/298/267 265/297/265 268/302/268
f 265/297/265 269/303/269 268/302/268
f 258/289/258 269/301/269 262/294/262
f 258/289/258 259/291/259 269/301/269
f 269/303/269 259/304/259 268/302/268
f 271/305/271 270/306/270 268/302/268
f 268/302/268 270/306/270 267/298/267
f 268/302/268 259/304/259 271/305/271
f 259/304/259 273/307/273 271/305/271
f 136/145/136 272/308/272 271/305/271
f 272/308/272 270/306/270 271/305/271
f 271/305/271 273/307/273 274/309/274
f 274/309/274 136/145/136 271/305/271
f 136/145/136 274/309/274 276/310/276
f 275/311/275 276/310/276 274/309/274
f 274/309/274 273/307/273 275/311/275
f 276/310/276 275/311/275 249/279/249
f 276/310/276 249/279/249 138/147/138
f 136/145/136 276/310/276 138/147/138
f 249/279/249 275/311/275 248/278/248
f 273/307/273 248/278/248 275/311/275
f 259/304/259 250/277/250 273/307/273
f 273/307/273 250/277/250 248/278/248
f 135/146/135 270/306/270 272/308/272
f 135/146/135 272/308/272 136/145/136
f 277/312/277 270/306/270 135/146/135
f 270/306/270 277/312/277 267/298/267
f 277/312/277 279/313/279 267/298/267
f 279/313/279 277/312/277 278/314/278
f 135/146/135 278/314/278 277/312/277
f 279/313/279 266/299/266 267/298/267
f 280/315/280 266/299/266 279/313/279
f 280/315/280 279/313/279 278/314/278
f 280/315/280 282/316/282 281/317/281
f 280/315/280 281/317/281 266/299/266
f 282/316/282 280/315/280 278/314/278
f 129/139/129 282/316/282 278/314/278
f 281/317/281 282/316/282 10/318/10
f 282/316/282 126/135/126 10/318/10
f 282/316/282 129/139/129 126/135/126
f 266/300/266 281/319/281 14/17/14
f 10/15/10 14/17/14 281/319/281
f 129/139/129 278/314/278 135/146/135
f 14/17/14 264/296/264 266/300/266
f 14/17/14 17/20/17 264/296/264
f 238/260/238 261/292/261 235/259/235
f 254/284/254 261/292/261 238/260/238
f 235/259/235 261/292/261 28/30/28
f 261/292/261 254/284/254 256/287/256
f 28/30/28 261/292/261 20/23/20
f 238/260/238 240/266/240 254/284/254
f 249/279/249 142/153/142 138/147/138
f 284/320/284 236/258/236 235/259/235
f 232/255/232 236/258/236 283/321/283
f 236/258/236 284/320/284 283/321/283
f 285/322/285 283/321/283 284/320/284
f 285/322/285 284/320/284 286/323/286
f 286/323/286 284/320/284 235/259/235
f 28/30/28 286/323/286 235/259/235
f 288/324/288 286/323/286 287/325/287
f 287/325/287 286/323/286 27/31/27
f 286/323/286 288/324/288 289/326/289
f 28/30/28 27/31/27 286/323/286
f 286/323/286 289/326/289 285/322/285
f 229/252/229 285/322/285 289/326/289
f 290/327/290 229/252/229 289/326/289
f 291/328/291 290/327/290 289/326/289
f 291/328/291 289/326/289 288/324/288
f 292/329/292 290/327/290 291/328/291
f 288/324/288 292/329/292 291/328/291
f 290/327/290 292/329/292 295/330/295
f 292/329/292 36/40/36 293/331/293
f 292/329/292 293/331/293 296/332/296
f 288/324/288 294/333/294 292/329/292
f 36/40/36 292/329/292 294/333/294
f 295/330/295 292/329/292 296/332/296
f 296/334/296 297/335/297 295/336/295
f 296/334/296 293/337/293 297/335/297
f 214/232/214 295/336/295 297/335/297
f 300/338/300 214/232/214 297/335/297
f 297/335/297 293/337/293 298/339/298
f 297/335/297 298/339/298 299/340/299
f 297/335/297 299/340/299 300/338/300
f 211/229/211 300/338/300 302/341/302
f 300/338/300 211/229/211 214/232/214
f 301/342/301 300/338/300 299/340/299
f 300/338/300 301/342/301 302/341/302
f 302/341/302 301/342/301 82/90/82
f 302/341/302 82/90/82 211/229/211
f 299/343/299 78/88/78 301/342/301
f 78/88/78 77/87/77 301/342/301
f 82/90/82 301/342/301 77/87/77
f 299/343/299 298/344/298 78/88/78
f 303/345/303 298/344/298 293/346/293
f 298/344/298 303/345/303 78/88/78
f 303/345/303 79/89/79 78/88/78
f 303/345/303 293/346/293 304/347/304
f 305/348/305 303/345/303 304/347/304
f 79/89/79 303/345/303 305/348/305
f 306/349/306 66/74/66 305/348/305
f 69/79/69 305/348/305 66/74/66
f 306/349/306 305/348/305 307/350/307
f 305/348/305 69/79/69 79/89/79
f 305/348/305 304/347/304 307/350/307
f 307/350/307 309/351/309 308/352/308
f 308/352/308 47/52/47 307/350/307
f 307/350/307 47/52/47 306/349/306
f 304/347/304 309/351/309 307/350/307
f 35/53/35 308/352/308 309/351/309
f 36/40/36 35/39/35 309/353/309
f 293/346/293 309/351/309 304/347/304
f 293/331/293 36/40/36 309/353/309
f 47/52/47 308/352/308 35/53/35
f 306/349/306 47/52/47 66/74/66
f 295/336/295 214/232/214 213/231/213
f 295/330/295 213/234/213 217/237/217
f 219/238/219 290/327/290 295/330/295
f 219/238/219 295/330/295 217/237/217
f 32/35/32 33/36/33 294/333/294
f 36/40/36 294/333/294 33/36/33
f 32/35/32 294/333/294 288/324/288
f 221/239/221 290/327/290 219/238/219
f 229/252/229 290/327/290 221/239/221
f 288/324/288 287/325/287 32/35/32
f 287/325/287 27/31/27 32/35/32
f 232/255/232 285/322/285 229/252/229
f 232/255/232 283/321/283 285/322/285
f 221/239/221 226/248/226 230/253/230
f 221/239/221 230/253/230 229/252/229
f 310/354/310 178/355/178 224/243/224
f 178/355/178 173/247/173 224/243/224
f 310/354/310 224/243/224 192/204/192
f 195/210/195 192/204/192 224/243/224
f 310/356/310 175/187/175 178/188/178
f 310/356/310 192/203/192 175/187/175
f 200/215/200 196/211/196 216/235/216
f 82/90/82 86/96/86 211/229/211
f 200/215/200 210/227/210 199/214/199
f 199/214/199 210/227/210 203/216/203
f 177/190/177 181/193/181 160/172/160
f 181/193/181 180/191/180 160/172/160
f 180/191/180 90/100/90 160/172/160
f 160/172/160 161/171/161 177/190/177
f 157/169/157 155/166/155 167/178/167
f 311/357/311 150/159/150 312/358/312
f 311/357/311 149/158/149 150/159/150
f 96/107/96 312/358/312 150/159/150
f 98/108/98 96/107/96 150/159/150
f 312/358/312 96/107/96 95/106/95
f 95/106/95 104/113/104 312/358/312
f 312/358/312 104/113/104 311/357/311
f 106/116/106 149/158/149 311/357/311
f 106/116/106 311/357/311 104/113/104
f 313/359/313 314/360/314 149/158/149
f 149/158/149 106/116/106 313/359/313
f 314/360/314 146/156/146 149/158/149
f 146/156/146 147/155/147 149/158/149
f 314/360/314 313/359/313 315/361/315
f 314/360/314 315/361/315 146/156/146
f 316/362/316 315/361/315 317/363/317
f 315/361/315 316/362/316 318/364/318
f 315/361/315 313/359/313 317/363/317
f 318/364/318 140/149/140 315/361/315
f 146/156/146 315/361/315 143/151/143
f 315/361/315 140/149/140 143/151/143
f 319/365/319 132/142/132 318/364/318
f 318/364/318 132/142/132 133/143/133
f 318/364/318 320/366/320 319/365/319
f 140/149/140 318/364/318 133/143/133
f 320/366/320 318/364/318 316/362/316
f 321/367/321 320/366/320 322/368/322
f 323/369/323 320/366/320 321/367/321
f 320/366/320 316/362/316 322/368/322
f 323/369/323 319/365/319 320/366/320
f 324/370/324 319/365/319 323/369/323
f 323/369/323 121/131/121 324/370/324
f 121/131/121 323/369/323 321/367/321
f 121/131/121 124/134/124 324/370/324
f 319/365/319 324/370/324 128/138/128
f 128/138/128 324/370/324 124/134/124
f 316/362/316 325/371/325 322/368/322
f 109/119/109 322/368/322 325/371/325
f 109/119/109 112/121/112 322/368/322
f 322/368/322 112/121/112 321/367/321
f 317/363/317 325/371/325 316/362/316
f 109/119/109 325/371/325 107/117/107
f 317/363/317 107/117/107 325/371/325
f 121/131/121 321/367/321 112/121/112
f 128/138/128 132/142/132 319/365/319
f 313/359/313 326/372/326 317/363/317
f 326/372/326 107/117/107 317/363/317
f 106/116/106 107/117/107 326/372/326
f 313/359/313 106/116/106 326/372/326
f 139/150/139 143/151/143 140/149/140
f 135/146/135 131/140/131 129/139/129
f 11/13/11 126/135/126 4/6/4
f 126/135/126 11/373/11 10/318/10
f 126/135/126 5/3/5 4/6/4
f 112/121/112 122/132/122 121/131/121
f 112/121/112 114/122/114 122/132/122
f 2/1/2 5/3/5 120/130/120
f 110/120/110 74/82/74 68/77/68
f 74/82/74 103/112/103 73/83/73
f 101/110/101 73/83/73 103/112/103
f 327/374/327 73/83/73 101/110/101
f 101/110/101 100/109/100 327/374/327
f 327/374/327 100/109/100 97/104/97
f 327/374/327 88/97/88 81/91/81
f 81/91/81 73/83/73 327/374/327
f 97/104/97 88/97/88 327/374/327
f 73/83/73 81/91/81 75/84/75
f 71/80/71 79/89/79 69/79/69
f 47/52/47 64/73/64 66/74/66
f 64/73/64 47/52/47 61/70/61
f 61/70/61 47/52/47 46/51/46
f 2/1/2 57/67/57 53/61/53
f 45/49/45 55/64/55 46/51/46
f 45/49/45 50/59/50 55/64/55
f 30/33/30 25/29/25 41/45/41
f 24/28/24 41/45/41 25/29/25
f 9/10/9 40/43/40 12/12/12
f 19/22/19 28/30/28 20/23/20
f 21/25/21 24/28/24 22/26/22
f 15/19/15 24/28/24 21/25/21
