# Blender 5.1.2
# www.blender.org
mtllib rock 2.mtl
o Pavementblock.002
v 1.243578 0.135692 -1.048244
v 1.104671 0.214630 -1.176099
v 1.427340 -0.098853 -1.024519
v 1.534208 -0.038496 -0.916225
v 1.126629 0.246550 -0.993413
v 1.199650 0.301601 -0.686048
v 1.179662 -0.037569 -1.222417
v 0.747112 0.095773 -1.613119
v 1.037366 0.192355 -1.348691
v 1.011725 0.148915 -1.474677
v 0.938897 0.063609 -1.525514
v 0.753377 0.146928 -1.632859
v 0.531981 0.188155 -1.596325
v 0.697819 0.219982 -1.542200
v 0.467341 0.086199 -1.608264
v 0.259703 0.042573 -1.527223
v 0.196565 0.092895 -1.480872
v 0.118008 -0.043420 -1.372244
v -0.024421 -0.010544 -1.343148
v -0.094379 -0.055520 -1.345653
v -0.566410 -0.116772 -1.252696
v -0.470448 -0.004959 -1.446642
v -0.105029 0.037407 -1.252735
v -0.488926 0.107872 -1.350921
v 0.109475 0.099186 -1.319619
v -0.137591 0.113974 -1.001851
v 0.019447 0.135447 -1.169051
v -0.026650 0.187212 -0.868031
v 0.295964 0.201046 -0.980664
v 0.197776 0.291168 -0.639039
v 0.442125 0.213770 -0.833030
v 0.685940 0.254540 -0.868567
v 0.590034 0.311073 -0.565220
v 0.412354 0.318505 -0.478213
v 0.847322 0.395957 -0.227924
v 0.819551 0.370655 -0.510144
v 1.172819 0.397019 -0.440600
v 0.975222 0.450043 -0.158527
v 1.211420 0.444014 -0.200638
v 1.136095 0.541398 0.120275
v 1.274459 0.526500 0.040090
v 1.190846 0.559369 0.485675
v 1.392579 0.518112 0.303994
v 0.909212 0.461852 0.313693
v 1.130975 0.419568 0.538026
v 1.050717 0.402291 0.536428
v 0.602949 0.364739 0.173815
v 0.642402 0.386732 0.489939
v 0.607049 0.345010 0.740676
v 0.396591 0.356864 0.655796
v 0.467768 0.340593 0.424057
v 0.487636 0.310200 0.215609
v 0.058809 0.325413 0.150977
v 0.443929 0.350116 -0.165135
v 0.159281 0.339353 -0.146546
v 0.281022 0.320081 -0.458921
v 0.471665 0.320547 -0.301525
v -0.204687 0.294908 -0.521928
v -0.007229 0.306182 -0.252563
v -0.026797 0.339391 0.018677
v -0.438221 0.388337 0.011010
v -0.507022 0.336118 -0.551783
v -0.658174 0.407685 -0.191536
v -0.941766 0.424223 -0.076720
v -0.976891 0.421483 -0.478596
v -0.779519 0.327611 -0.710156
v -0.547934 0.379373 0.052361
v -0.754301 0.424374 0.299345
v -0.599101 0.440138 0.493306
v -0.217048 0.382734 0.669230
v -0.490026 0.429872 0.794328
v -0.948136 0.367373 0.466471
v -0.765130 0.411299 0.782757
v 0.004393 0.380922 0.356946
v -0.593092 0.394176 1.039958
v -0.724212 0.312728 1.056593
v -0.919683 0.278448 0.781941
v -0.966855 0.128405 0.947757
v -0.687082 -0.080775 1.199474
v -0.767492 0.199170 1.109424
v -1.013391 -0.031380 0.974108
v -1.277379 -0.058819 0.764499
v -1.378539 0.082740 0.411512
v -1.350053 -0.312206 0.715940
v -1.500368 -0.257782 0.605039
v -1.488327 -0.040289 0.448437
v -1.507065 -0.139695 0.599262
v -1.497586 -0.285263 0.387302
v -1.574497 -0.284630 0.286760
v -1.466994 -0.358051 0.516412
v -1.554687 -0.018916 0.279112
v -1.528179 0.168517 0.036846
v -1.544482 0.002881 0.170394
v -1.506735 -0.274772 0.204148
v -1.514963 -0.290110 0.113977
v -1.561440 -0.005979 0.085779
v -1.643648 0.060623 0.029807
v -1.646602 -0.207808 0.033635
v -1.775290 -0.139649 -0.170279
v -1.519317 -0.258197 -0.426508
v -1.405046 -0.338352 0.151527
v -1.622632 -0.187176 -0.756751
v -1.634972 -0.193659 -1.161423
v -1.208075 -0.303925 -0.689871
v -1.234088 -0.361114 -0.036078
v -1.334597 -0.284189 -0.416442
v -1.013227 -0.347158 -0.493931
v -0.839223 -0.230390 -0.785271
v -0.913315 -0.392745 -0.039770
v -0.848781 -0.408709 -0.381470
v -0.512147 -0.214722 -0.880321
v -0.421282 -0.392754 -0.534379
v -0.604134 -0.458993 -0.346456
v -0.249367 -0.375716 -0.424698
v -0.656152 -0.469472 -0.036883
v -0.465227 -0.394086 -0.050521
v 0.019515 -0.400554 -0.186746
v -0.110946 -0.460690 0.232994
v -0.301754 -0.442649 0.273084
v -0.576436 -0.491565 0.227923
v 0.014539 -0.446558 0.045459
v 0.093134 -0.485599 0.198986
v 0.313755 -0.475192 -0.073651
v 0.368955 -0.401331 -0.235969
v 0.574462 -0.395985 -0.065424
v 0.192416 -0.417632 -0.250182
v 0.605224 -0.437299 0.273744
v 0.615974 -0.419619 0.461476
v 0.168935 -0.456874 0.937302
v -0.068522 -0.451797 0.618418
v 0.781488 -0.389592 0.678175
v 0.469526 -0.483541 1.193589
v 0.743845 -0.421262 1.008428
v 0.871813 -0.441308 1.306454
v 0.211841 -0.462951 1.271578
v -0.026105 -0.507036 1.250180
v 0.445852 -0.441483 1.286232
v 0.210314 -0.331604 1.300348
v 0.540059 -0.213436 1.313501
v 0.799170 -0.033083 1.241252
v 0.494771 0.062659 1.217327
v 0.795618 -0.222896 1.321596
v 0.797211 0.031589 1.207446
v 0.224448 -0.156973 1.300804
v 0.064554 -0.461926 1.330669
v 0.221984 0.090627 1.175799
v -0.153378 -0.174482 1.314375
v -0.254666 0.030813 1.261678
v -0.405945 -0.063647 1.258001
v -0.459508 0.220551 1.203311
v -0.145874 0.297569 1.029467
v 0.208484 0.382244 0.956920
v 0.363323 0.287495 1.054052
v -0.160794 0.383352 0.926192
v 0.514102 0.258974 0.855117
v 0.489954 0.246593 1.067915
v 0.603152 0.196524 1.178572
v 0.937491 0.209521 1.194243
v 0.679678 0.341952 1.041048
v 0.951971 0.363157 1.057761
v 0.790913 0.429252 0.921274
v 1.081526 0.488707 0.920808
v 1.007873 0.394441 0.813468
v 1.131125 0.460136 0.769809
v 1.172617 0.536481 0.849595
v 1.218049 0.535704 0.649057
v 1.276130 0.617913 0.807996
v 1.364567 0.480970 0.993657
v 1.401218 0.575127 0.807042
v 1.634363 0.335565 1.018507
v 1.557659 0.546502 0.574024
v 1.588645 0.508847 0.668312
v 1.861422 0.330416 0.700644
v 1.694495 0.391899 0.537480
v 1.784225 0.350394 0.538830
v 1.965146 0.074612 0.403805
v 1.820143 0.232051 0.357494
v 1.778419 0.013495 0.193524
v 1.662766 0.180416 0.170559
v 1.886876 -0.000356 0.294686
v 1.596578 0.350981 0.191043
v 1.497284 0.327885 0.022974
v 1.611230 0.178565 -0.028487
v 1.485080 0.323579 -0.055674
v 1.622891 0.087713 -0.405747
v 1.484637 0.083322 -0.685367
v 1.638389 0.117546 -0.120393
v 1.734335 0.038526 -0.287693
v 1.413682 0.194881 -0.612654
v 1.853870 -0.101192 -0.472760
v 1.967769 -0.093344 -0.232939
v 1.952807 -0.209580 -0.258454
v 1.816567 -0.148573 -0.637031
v 1.815693 -0.211246 -0.606693
v 1.813750 -0.237362 -0.066779
v 1.325240 -0.266814 -0.217774
v 0.854242 -0.279640 -0.457602
v 0.578754 -0.225861 -0.751185
v 0.501078 -0.385025 -0.445338
v 0.142587 -0.278757 -0.704646
v 0.002976 -0.358975 -0.496592
v 1.042786 -0.318632 0.168486
v 1.403235 -0.251426 0.089146
v 1.011182 -0.339707 0.437363
v 1.151911 -0.356902 0.686239
v 1.711306 -0.345390 0.998569
v 1.872691 -0.273361 0.437945
v 2.019612 -0.193810 0.279997
v 1.898800 -0.053711 0.532044
v 1.841984 -0.303518 0.876092
v 2.122682 -0.214185 0.122431
v 1.955603 -0.131547 0.367003
v 1.855767 -0.109600 0.862130
v 1.662462 0.132473 1.046328
v 1.566492 -0.361288 1.160545
v 1.823939 0.129983 0.836153
v 1.819199 0.307942 0.845426
v 1.499979 0.052934 1.240541
v 1.419473 -0.392160 1.261269
v 1.217513 -0.381238 1.339685
v 1.344942 -0.113687 1.328001
v 0.902262 -0.347754 0.583808
v 1.281394 0.063884 1.327967
v 1.006832 -0.073482 1.319708
v 1.451796 0.182128 1.203823
v 1.345734 0.297127 1.189326
v 1.564111 0.230721 1.141942
v 1.302376 0.179798 1.277302
v 2.081858 -0.203526 -0.076744
v 2.076007 -0.129445 -0.070572
v 2.116916 -0.083650 0.142084
v 1.976549 -0.092535 0.196165
v 1.893418 -0.082587 0.045194
v 1.682552 -0.014688 0.017599
v 1.743786 -0.052670 -0.035644
v 1.627497 0.099987 0.010778
v -0.456633 -0.317600 1.328116
v -0.506092 -0.499880 1.324314
v -0.677030 -0.431277 1.223479
v -0.866448 -0.478799 0.925441
v -1.093409 -0.323703 0.890949
v -1.336949 -0.395752 0.610784
v -0.637837 -0.517708 0.599149
v -0.922489 -0.434675 0.413158
v -1.144397 -0.389156 0.142985
v -0.725330 -0.501964 0.325702
v -0.307866 -0.463083 0.563182
v -0.552380 -0.537479 0.911626
v -0.479034 -0.569619 1.252188
v -0.334872 -0.465465 0.850564
v -0.058591 -0.450016 1.029698
v -1.123985 -0.170676 -1.117630
v -1.321869 0.100956 -1.783127
v -0.869560 0.043465 -1.621521
v -1.428878 -0.152293 -1.200198
v -1.937285 -0.059594 -1.529550
v -1.763449 0.033979 -1.747549
v -1.917686 0.030759 -1.589918
v -2.004468 -0.010767 -1.428649
v -1.949607 0.228743 -1.360302
v -2.094372 0.060801 -1.033790
v -1.863346 -0.057094 -0.972264
v -2.012522 0.032142 -0.634038
v -1.935645 0.008184 -0.243073
v -1.802743 0.217597 -0.376387
v -1.684542 0.342459 -0.548551
v -1.853503 -0.089240 -0.196951
v -1.878346 0.231380 -0.970270
v -1.850803 0.362455 -1.226833
v -1.761065 0.343527 -0.937518
v -1.774724 0.288431 -0.832704
v -2.064169 0.133341 -1.104027
v -1.593747 0.402479 -1.218775
v -1.793620 0.420105 -1.437314
v -1.827074 0.350923 -1.490216
v -1.695184 0.435678 -1.466607
v -1.564930 0.291250 -1.692591
v -1.437495 0.372339 -1.552754
v -1.162934 0.228784 -1.844327
v -1.013425 0.329557 -1.533763
v -0.773672 0.245510 -1.450234
v -0.850027 0.349859 -1.066395
v -0.925961 0.334214 -1.305385
v -0.951064 0.274389 -1.686903
v -0.699575 0.181600 -2.079727
v -0.805658 0.214970 -1.819259
v -0.715455 0.104179 -1.652075
v -0.649918 0.157478 -1.872971
v -0.600297 0.019288 -1.510008
v -0.568504 0.122008 -1.487385
v -0.674722 0.104729 -1.877650
v -0.711950 0.134080 -2.095038
v -0.973399 0.123762 -2.099034
v -1.204015 0.117778 -1.968307
v -1.631361 0.068405 -1.842126
v -1.354349 0.131513 -1.936727
v -1.656096 0.193751 -1.761245
v -1.805503 0.189439 -1.663951
v -0.838849 0.230736 -1.205907
v -0.709541 0.180728 -1.115341
v -0.676334 0.266955 -0.946567
v -0.437265 0.169012 -1.030302
v -0.979522 0.377443 -0.777154
v -0.389105 0.260379 -0.700723
v -0.264174 0.197932 -0.808689
v -1.278269 0.389159 -0.684376
v -1.539437 0.372139 -0.299039
v -1.625360 0.177174 -0.148791
v -1.218516 0.397744 0.076527
v -1.790581 0.088180 -0.160734
vn 0.6521 0.5882 -0.4783
vn 0.5481 0.7624 -0.3441
vn 0.4782 -0.4388 -0.7608
vn 0.6886 0.4368 -0.5789
vn 0.3104 0.9275 -0.2082
vn 0.3108 0.9024 -0.2985
vn 0.6193 -0.4245 -0.6605
vn 0.1247 -0.6745 -0.7277
vn 0.5745 0.7488 -0.3305
vn 0.6409 0.4367 -0.6313
vn 0.4153 -0.5602 -0.7168
vn 0.2393 0.2829 -0.9288
vn -0.2253 0.7313 -0.6437
vn 0.0453 0.9419 -0.3327
vn -0.2068 -0.3530 -0.9125
vn -0.2983 -0.3799 -0.8756
vn -0.5136 0.5873 -0.6255
vn -0.1016 -0.8400 -0.5330
vn -0.3536 0.4377 -0.8267
vn 0.0216 -0.3451 -0.9383
vn 0.0337 -0.9335 -0.3571
vn 0.4272 -0.2473 -0.8697
vn -0.0869 0.8431 -0.5307
vn 0.4028 0.8544 -0.3282
vn -0.3346 0.8915 -0.3055
vn -0.0613 0.9522 -0.2994
vn -0.2577 0.9197 -0.2961
vn -0.1272 0.9444 -0.3032
vn 0.1689 0.9215 -0.3497
vn -0.0387 0.9755 -0.2167
vn -0.0559 0.9760 -0.2103
vn -0.1131 0.9807 -0.1593
vn -0.1133 0.9703 -0.2136
vn -0.0457 0.9937 -0.1019
vn -0.2750 0.9589 -0.0694
vn -0.1208 0.9712 -0.2054
vn 0.2480 0.9317 -0.2655
vn -0.2060 0.9655 -0.1595
vn 0.2445 0.9267 -0.2853
vn -0.1314 0.9850 -0.1118
vn 0.2870 0.9199 -0.2670
vn -0.3581 0.9234 0.1380
vn 0.3053 0.9333 -0.1889
vn -0.2829 0.9532 0.1070
vn -0.5563 0.7999 0.2250
vn -0.1868 0.9708 0.1504
vn -0.2985 0.9543 -0.0170
vn -0.1511 0.9870 0.0546
vn -0.2104 0.9628 0.1696
vn 0.0562 0.9955 0.0763
vn -0.1322 0.9856 -0.1050
vn -0.2265 0.9734 -0.0341
vn 0.1760 0.9821 -0.0670
vn -0.0600 0.9969 -0.0502
vn -0.0529 0.9979 -0.0363
vn -0.0738 0.9913 -0.1091
vn 0.0431 0.9943 -0.0974
vn 0.0523 0.9793 -0.1953
vn -0.0101 0.9951 -0.0979
vn 0.0755 0.9954 -0.0590
vn 0.0514 0.9964 -0.0676
vn 0.1289 0.9655 -0.2262
vn 0.1175 0.9920 -0.0456
vn -0.0031 1.0000 0.0056
vn 0.0611 0.9946 -0.0845
vn 0.2151 0.9611 -0.1735
vn -0.0102 0.9995 -0.0304
vn -0.0453 0.9990 0.0063
vn -0.0209 0.9997 -0.0149
vn 0.1000 0.9950 0.0056
vn 0.0485 0.9967 0.0651
vn -0.3942 0.8938 0.2137
vn -0.3698 0.9048 0.2113
vn 0.1404 0.9855 -0.0952
vn -0.1404 0.8521 0.5042
vn -0.4579 0.6494 0.6071
vn -0.6012 0.7220 0.3424
vn -0.6201 0.4839 0.6175
vn -0.4362 0.1311 0.8902
vn -0.5124 0.3416 0.7879
vn -0.5813 0.1288 0.8034
vn -0.6491 0.3750 0.6619
vn -0.5789 0.7387 0.3453
vn -0.5778 -0.4087 0.7065
vn -0.8562 -0.2583 0.4474
vn -0.8763 0.3665 0.3127
vn -0.8732 0.2582 0.4133
vn -0.8924 0.2420 0.3810
vn -0.8984 -0.4391 -0.0027
vn -0.5903 -0.8056 0.0498
vn -0.9085 0.3223 0.2660
vn -0.6640 0.6012 0.4446
vn -0.9998 0.0208 0.0040
vn -0.8155 -0.4642 -0.3457
vn -0.6904 -0.6977 0.1912
vn -0.8016 0.0869 0.5915
vn -0.6402 0.3195 0.6986
vn -0.7164 -0.4955 0.4912
vn -0.6883 -0.6418 0.3380
vn -0.3235 -0.9444 -0.0583
vn -0.3209 -0.9448 -0.0665
vn -0.5387 -0.8425 0.0037
vn -0.1957 -0.9649 -0.1752
vn -0.0445 -0.9843 -0.1708
vn -0.1676 -0.9823 -0.0835
vn -0.1776 -0.9789 -0.1014
vn -0.1179 -0.9697 -0.2139
vn -0.0014 -0.9463 -0.3232
vn -0.1962 -0.9749 -0.1055
vn -0.2049 -0.9604 -0.1888
vn -0.0144 -0.9427 -0.3334
vn 0.0619 -0.9409 -0.3330
vn 0.0171 -0.9884 -0.1507
vn 0.0831 -0.9961 -0.0299
vn 0.0199 -0.9948 -0.0996
vn 0.1771 -0.9806 -0.0844
vn -0.0952 -0.9833 -0.1550
vn -0.0943 -0.9936 -0.0624
vn 0.0424 -0.9917 -0.1211
vn 0.1333 -0.9834 -0.1233
vn -0.1203 -0.9794 -0.1622
vn -0.0522 -0.9976 -0.0465
vn 0.0746 -0.9809 -0.1795
vn 0.1378 -0.9712 -0.1941
vn 0.2185 -0.9682 -0.1220
vn -0.0605 -0.9779 -0.2004
vn 0.1689 -0.9855 -0.0183
vn 0.1414 -0.9890 0.0436
vn 0.0488 -0.9975 -0.0511
vn -0.0262 -0.9991 0.0334
vn 0.1745 -0.9835 -0.0484
vn 0.0469 -0.9844 0.1693
vn 0.1779 -0.9803 -0.0854
vn 0.0241 -0.7719 0.6353
vn 0.1380 -0.6120 0.7787
vn 0.1083 -0.9881 0.1093
vn -0.0206 -0.5769 0.8165
vn 0.1177 -0.0876 0.9892
vn -0.0109 0.1292 0.9916
vn -0.1562 0.4209 0.8936
vn -0.0224 0.3428 0.9391
vn -0.0681 0.1221 0.9902
vn -0.1246 0.2976 0.9465
vn 0.0243 0.2281 0.9733
vn 0.1477 -0.5093 0.8479
vn -0.0259 0.5143 0.8572
vn -0.0106 0.1738 0.9847
vn 0.0060 0.3714 0.9284
vn -0.1613 0.2703 0.9492
vn -0.0242 0.4786 0.8777
vn 0.0901 0.6963 0.7121
vn 0.1173 0.9254 0.3604
vn 0.1391 0.8354 0.5318
vn 0.0763 0.9452 0.3174
vn -0.0857 0.9717 0.2200
vn -0.0625 0.9726 0.2240
vn -0.0854 0.5204 0.8496
vn -0.1429 0.4947 0.8573
vn -0.3072 0.8383 0.4503
vn -0.1113 0.7459 0.6567
vn -0.2264 0.9705 0.0829
vn -0.3709 0.9233 0.0996
vn -0.2889 0.9151 -0.2812
vn -0.6137 0.7580 -0.2209
vn -0.6616 0.6768 -0.3227
vn -0.8641 0.5006 0.0515
vn -0.1241 0.9843 0.1257
vn 0.1366 0.7782 0.6130
vn 0.3349 0.9184 0.2109
vn 0.5617 0.5711 0.5986
vn 0.4551 0.8851 -0.0973
vn 0.5580 0.8152 0.1554
vn 0.8391 0.5282 0.1301
vn 0.5392 0.7720 -0.3366
vn 0.5656 0.7612 -0.3173
vn 0.9605 0.2130 -0.1791
vn 0.6793 0.5710 -0.4610
vn 0.6057 0.6333 -0.4817
vn 0.7551 0.4144 -0.5080
vn 0.7309 0.4877 -0.4774
vn 0.6546 0.6205 -0.4318
vn 0.6979 0.6589 -0.2807
vn 0.8892 0.4449 -0.1065
vn 0.6543 0.7230 -0.2217
vn 0.5843 0.7746 -0.2421
vn 0.6845 0.6883 -0.2400
vn 0.8470 0.5301 0.0402
vn 0.5686 0.8206 -0.0569
vn 0.5847 0.7614 -0.2800
vn 0.7969 0.4953 -0.3459
vn 0.7545 0.5990 -0.2681
vn 0.6645 -0.6314 -0.3996
vn 0.8423 0.1712 -0.5111
vn 0.6128 -0.6942 -0.3775
vn 0.0619 -0.9976 -0.0321
vn 0.1019 -0.9925 -0.0677
vn 0.1323 -0.9690 -0.2088
vn 0.0852 -0.9313 -0.3541
vn 0.1382 -0.9597 -0.2445
vn 0.0252 -0.9350 -0.3537
vn 0.0018 -0.9636 -0.2673
vn 0.2126 -0.9751 -0.0631
vn 0.1008 -0.9940 -0.0415
vn 0.1354 -0.9897 -0.0475
vn 0.0322 -0.9961 -0.0824
vn 0.4391 -0.8621 0.2529
vn 0.6265 -0.7646 0.1515
vn 0.8137 0.0589 0.5783
vn 0.9554 -0.1029 0.2767
vn 0.7828 -0.5503 0.2905
vn 0.8034 -0.5900 0.0801
vn 0.9395 0.0635 0.3367
vn 0.9154 0.0321 0.4013
vn 0.7476 0.0959 0.6572
vn 0.5362 -0.6847 0.4936
vn 0.9065 0.0640 0.4174
vn 0.7639 0.4776 0.4340
vn 0.4908 0.1665 0.8552
vn 0.3789 -0.7336 0.5642
vn 0.1302 -0.4908 0.8615
vn 0.2958 0.0213 0.9550
vn 0.1467 -0.9887 -0.0304
vn 0.1128 0.2625 0.9583
vn -0.1418 0.2157 0.9661
vn 0.3410 0.3617 0.8677
vn -0.1148 0.6587 0.7436
vn 0.5520 0.3616 0.7514
vn 0.1082 0.4815 0.8698
vn 0.7307 -0.5755 -0.3673
vn 0.7451 0.5854 -0.3197
vn 0.7050 0.6738 0.2211
vn 0.4334 0.8806 0.1916
vn 0.2516 0.9562 -0.1499
vn 0.7161 0.6759 -0.1745
vn 0.4491 0.8931 0.0283
vn 0.9344 0.3220 -0.1526
vn -0.2020 0.1171 0.9724
vn -0.3107 -0.4115 0.8568
vn -0.5914 -0.3336 0.7341
vn -0.3866 -0.8865 0.2542
vn -0.5762 -0.3590 0.7343
vn -0.3804 -0.8979 0.2214
vn -0.0278 -0.9985 -0.0469
vn -0.2237 -0.9739 -0.0387
vn -0.1849 -0.9794 -0.0818
vn -0.1512 -0.9875 -0.0434
vn 0.1130 -0.9934 -0.0219
vn 0.0431 -0.9975 -0.0565
vn -0.1274 -0.9400 0.3166
vn 0.1961 -0.9791 -0.0540
vn 0.0714 -0.9847 -0.1587
vn 0.0403 -0.9453 -0.3236
vn 0.0608 -0.9753 -0.2123
vn 0.0797 -0.9360 -0.3430
vn 0.0669 -0.9326 -0.3548
vn -0.5421 -0.7291 -0.4178
vn -0.4137 -0.5165 -0.7497
vn -0.8106 0.0392 -0.5843
vn -0.9043 -0.3617 -0.2266
vn -0.8495 0.4644 -0.2504
vn -0.9810 -0.1512 0.1215
vn -0.4871 -0.8733 0.0072
vn -0.9875 -0.1094 0.1132
vn -0.8829 0.0309 0.4686
vn -0.6395 0.7192 0.2716
vn -0.4230 0.9014 0.0924
vn -0.6448 -0.5243 0.5562
vn -0.6656 0.7091 0.2325
vn -0.5860 0.8031 0.1079
vn -0.5006 0.8489 0.1694
vn -0.6682 0.7370 0.1015
vn -0.9033 0.4276 -0.0352
vn 0.0027 0.9988 0.0495
vn -0.4550 0.8624 -0.2219
vn -0.6426 0.5877 -0.4915
vn -0.0930 0.9566 -0.2763
vn -0.1697 0.7700 -0.6150
vn 0.0688 0.9582 -0.2777
vn -0.0783 0.8821 -0.4645
vn 0.2011 0.9610 -0.1897
vn 0.4722 0.8722 -0.1275
vn 0.4180 0.8910 -0.1769
vn 0.5974 0.7900 -0.1376
vn 0.2669 0.9404 -0.2106
vn 0.6095 0.5570 -0.5641
vn 0.4415 0.8827 0.1610
vn 0.8957 -0.0898 -0.4355
vn 0.9411 0.3321 0.0643
vn 0.4392 -0.3791 -0.8145
vn 0.6352 0.5481 -0.5442
vn 0.5942 -0.7990 -0.0924
vn 0.4492 -0.4878 -0.7485
vn -0.2702 -0.2160 -0.9383
vn -0.2404 -0.3447 -0.9074
vn -0.3007 -0.4642 -0.8331
vn -0.2358 0.2907 -0.9273
vn -0.3831 0.5947 -0.7068
vn -0.6249 0.4510 -0.6372
vn 0.6478 0.7507 -0.1297
vn 0.3797 0.8774 -0.2933
vn 0.3166 0.9107 -0.2652
vn 0.1823 0.9404 -0.2870
vn 0.1619 0.9833 -0.0832
vn 0.1877 0.9384 -0.2900
vn 0.0981 0.9443 -0.3142
vn -0.0212 0.9993 -0.0324
vn -0.3711 0.8990 0.2328
vn -0.5689 0.6894 0.4484
vn -0.3611 0.9022 0.2359
vn -0.6241 0.4563 0.6343
vt 0.340099 0.741249
vt 0.339044 0.754603
vt 0.348745 0.744096
vt 0.371665 0.757557
vt 0.385480 0.774790
vt 0.385078 0.748946
vt 0.389197 0.722564
vt 0.411399 0.766538
vt 0.396892 0.778529
vt 0.390224 0.787566
vt 0.381285 0.792602
vt 0.362075 0.785395
vt 0.333103 0.785555
vt 0.323188 0.781706
vt 0.315870 0.776305
vt 0.304898 0.750774
vt 0.303935 0.729728
vt 0.294155 0.706748
vt 0.311858 0.711602
vt 0.333612 0.736783
vt 0.317246 0.740072
vt 0.172337 0.373835
vt 0.186004 0.376044
vt 0.174415 0.384140
vt 0.179535 0.359247
vt 0.172123 0.354634
vt 0.037769 0.419489
vt 0.045269 0.427298
vt 0.041014 0.431653
vt 0.035652 0.432303
vt 0.186474 0.392947
vt 0.191850 0.395481
vt 0.189218 0.405974
vt 0.191704 0.406214
vt 0.184889 0.414632
vt 0.188625 0.419514
vt 0.183792 0.407085
vt 0.181074 0.390007
vt 0.362093 0.741461
vt 0.365534 0.715290
vt 0.135018 0.421219
vt 0.127269 0.414218
vt 0.110068 0.415106
vt 0.115525 0.401903
vt 0.130199 0.408087
vt 0.137067 0.400643
vt 0.418838 0.662095
vt 0.422489 0.664182
vt 0.424335 0.671822
vt 0.435280 0.677015
vt 0.130938 0.537920
vt 0.138905 0.544749
vt 0.134324 0.553267
vt 0.123341 0.543900
vt 0.097740 0.359031
vt 0.106989 0.352798
vt 0.116557 0.360436
vt 0.111733 0.365381
vt 0.058724 0.454201
vt 0.043875 0.477434
vt 0.045028 0.445397
vt 0.165531 0.447972
vt 0.161160 0.438457
vt 0.170365 0.435482
vt 0.150430 0.445287
vt 0.144262 0.436819
vt 0.154285 0.421411
vt 0.432745 0.726530
vt 0.426398 0.741425
vt 0.399515 0.704760
vt 0.389961 0.684542
vt 0.405983 0.641300
vt 0.446350 0.699870
vt 0.444624 0.710406
vt 0.148904 0.411999
vt 0.022862 0.427461
vt 0.012514 0.413560
vt 0.026075 0.414143
vt 0.032025 0.407990
vt 0.124134 0.383496
vt 0.137199 0.388337
vt 0.170558 0.472340
vt 0.161904 0.472148
vt 0.173273 0.449464
vt 0.129122 0.331531
vt 0.121144 0.326968
vt 0.129999 0.321363
vt 0.132233 0.329176
vt 0.028184 0.463264
vt 0.027043 0.478213
vt 0.020946 0.479840
vt 0.015814 0.470416
vt 0.026578 0.446282
vt 0.100538 0.373285
vt 0.122355 0.376270
vt 0.093249 0.363098
vt 0.092350 0.365898
vt 0.088765 0.382623
vt 0.335790 0.679354
vt 0.322104 0.683661
vt 0.302008 0.677752
vt 0.314937 0.668750
vt 0.333228 0.665636
vt 0.129310 0.534429
vt 0.132321 0.531562
vt 0.145312 0.533780
vt 0.041579 0.490879
vt 0.059702 0.495919
vt 0.046450 0.495463
vt 0.028050 0.497928
vt 0.088857 0.391691
vt 0.077083 0.390865
vt 0.098434 0.394482
vt 0.094459 0.414769
vt 0.102206 0.389381
vt 0.420531 0.620138
vt 0.420634 0.595717
vt 0.436183 0.623722
vt 0.098991 0.421148
vt 0.122568 0.402504
vt 0.049760 0.408255
vt 0.055495 0.411208
vt 0.004980 0.426030
vt 0.002378 0.414495
vt 0.296097 0.718778
vt 0.291151 0.712496
vt 0.288692 0.686256
vt 0.153502 0.504860
vt 0.144705 0.494714
vt 0.156955 0.490650
vt 0.163116 0.506352
vt 0.012402 0.453882
vt 0.084519 0.466515
vt 0.087263 0.445110
vt 0.096370 0.455533
vt 0.103126 0.477342
vt 0.119724 0.472613
vt 0.091480 0.440900
vt 0.117492 0.455567
vt 0.071297 0.449184
vt 0.066286 0.438028
vt 0.083748 0.413973
vt 0.112468 0.425047
vt 0.122380 0.439705
vt 0.065979 0.418080
vt 0.178768 0.431635
vt 0.183351 0.430429
vt 0.051009 0.438462
vt 0.095568 0.331174
vt 0.102464 0.315376
vt 0.112975 0.311347
vt 0.108389 0.322081
vt 0.086231 0.315005
vt 0.079647 0.328838
vt 0.069421 0.331873
vt 0.061050 0.312896
vt 0.082066 0.306054
vt 0.431361 0.597908
vt 0.441568 0.606530
vt 0.445715 0.618957
vt 0.034352 0.444186
vt 0.295788 0.663219
vt 0.302888 0.635925
vt 0.143899 0.477213
vt 0.144469 0.485651
vt 0.135095 0.485145
vt 0.134436 0.472743
vt 0.025149 0.491429
vt 0.035876 0.482172
vt 0.017842 0.487204
vt 0.090630 0.513867
vt 0.105519 0.533807
vt 0.104232 0.548805
vt 0.083823 0.538319
vt 0.049053 0.500247
vt 0.031295 0.502974
vt 0.033366 0.507720
vt 0.055366 0.504049
vt 0.049331 0.357035
vt 0.039826 0.352203
vt 0.051539 0.346174
vt 0.052448 0.358777
vt 0.052208 0.521924
vt 0.041794 0.511963
vt 0.174619 0.503556
vt 0.182653 0.497918
vt 0.190073 0.507154
vt 0.363826 0.598329
vt 0.383097 0.592209
vt 0.349682 0.609209
vt 0.360820 0.633079
vt 0.352073 0.618387
vt 0.367199 0.620395
vt 0.335241 0.629655
vt 0.034339 0.364691
vt 0.047663 0.373103
vt 0.030747 0.381700
vt 0.357772 0.643096
vt 0.340557 0.644878
vt 0.359398 0.655269
vt 0.069436 0.381723
vt 0.060715 0.394811
vt 0.057999 0.385187
vt 0.371439 0.660613
vt 0.369285 0.670564
vt 0.348483 0.666863
vt 0.344373 0.657696
vt 0.043919 0.327752
vt 0.058891 0.332089
vt 0.063043 0.339157
vt 0.362464 0.687043
vt 0.351336 0.690586
vt 0.056050 0.427557
vt 0.021381 0.379149
vt 0.020740 0.364407
vt 0.031149 0.343004
vt 0.172637 0.444807
vt 0.370179 0.702918
vt 0.361152 0.702743
vt 0.367955 0.694370
vt 0.067625 0.505217
vt 0.081533 0.501016
vt 0.349844 0.721835
vt 0.341222 0.725431
vt 0.304429 0.702180
vt 0.308556 0.687056
vt 0.340587 0.687733
vt 0.323289 0.695697
vt 0.345309 0.696792
vt 0.070970 0.359496
vt 0.081945 0.346634
vt 0.087645 0.352230
vt 0.080055 0.357586
vt 0.074075 0.368014
vt 0.101259 0.334359
vt 0.109349 0.331314
vt 0.101018 0.338012
vt 0.095203 0.342729
vt 0.378620 0.636143
vt 0.388471 0.650099
vt 0.151466 0.372212
vt 0.153501 0.400191
vt 0.138218 0.370505
vt 0.328115 0.636964
vt 0.318947 0.651961
vt 0.323420 0.624271
vt 0.014400 0.376135
vt 0.377037 0.681294
vt 0.062675 0.356134
vt 0.067668 0.341387
vt 0.066396 0.370377
vt 0.056297 0.370610
vt 0.011656 0.384631
vt 0.044423 0.387094
vt 0.023466 0.400261
vt 0.052345 0.317939
vt 0.059594 0.378472
vt 0.326305 0.660298
vt 0.082398 0.363357
vt 0.077091 0.379840
vt 0.086047 0.359473
vt 0.084366 0.355538
vt 0.091508 0.357167
vt 0.442426 0.686267
vt 0.089008 0.348186
vt 0.083323 0.335887
vt 0.098051 0.345051
vt 0.114773 0.343242
vt 0.119174 0.336350
vt 0.122058 0.348313
vt 0.125443 0.349902
vt 0.146959 0.344193
vt 0.127195 0.365794
vt 0.158715 0.355015
vt 0.152349 0.359324
vt 0.101658 0.525173
vt 0.107843 0.525354
vt 0.119854 0.534253
vt 0.133051 0.339507
vt 0.143249 0.336229
vt 0.127549 0.340845
vt 0.156293 0.330911
vt 0.145138 0.321378
vt 0.150553 0.317430
vt 0.164731 0.335208
vt 0.166513 0.331784
vt 0.381966 0.705703
vt 0.116055 0.321266
vt 0.283705 0.685972
vt 0.284397 0.676026
vt 0.291079 0.650429
vt 0.106096 0.302764
vt 0.130604 0.304737
vt 0.119522 0.306936
vt 0.340724 0.790217
vt 0.089462 0.324902
vt 0.090523 0.331183
vt 0.389970 0.617082
vt 0.138255 0.313329
vt 0.128770 0.310760
vt 0.140474 0.310035
vt 0.308619 0.768132
vt 0.117885 0.484279
vt 0.072274 0.336775
vt 0.073244 0.342424
vt 0.077043 0.334927
vt 0.390503 0.568699
vt 0.396555 0.571361
vt 0.370322 0.582034
vt 0.351493 0.578391
vt 0.369721 0.568613
vt 0.142217 0.524049
vt 0.124568 0.522629
vt 0.106388 0.496706
vt 0.123262 0.314806
vt 0.127340 0.336709
vt 0.388928 0.601167
vt 0.296224 0.635876
vt 0.166006 0.380100
vt 0.313810 0.618172
vt 0.304872 0.627983
vt 0.145187 0.461782
vt 0.128270 0.452582
vt 0.136998 0.448222
vt 0.164723 0.521545
vt 0.333123 0.599206
vt 0.333092 0.594307
vt 0.145326 0.551114
vt 0.132047 0.558434
vt 0.410711 0.575697
vt 0.125177 0.556562
vt 0.333438 0.587456
vt 0.064597 0.526253
vt 0.077997 0.517878
vt 0.418187 0.642338
vt 0.109033 0.545887
vt 0.063858 0.515492
vt 0.323614 0.617838
vt 0.325326 0.609178
vt 0.171084 0.491702
vt 0.437169 0.626346
vt 0.425753 0.627042
vt 0.419463 0.635081
vt 0.165982 0.480441
vt 0.172133 0.480455
vt 0.446350 0.621460
vt 0.417705 0.580236
vt 0.428068 0.590966
vt 0.164148 0.534380
vt 0.170640 0.528942
vt 0.183349 0.521328
vt 0.146788 0.541143
vt 0.152855 0.546232
vt 0.191850 0.509416
vt 0.298204 0.626419
vt 0.298741 0.730245
vt 0.070580 0.476346
vt 0.057114 0.524424
vt 0.319153 0.619096
s 1
usemtl RocksCollection
f 222/1/222 205/2/205 204/3/204 203/4/203 195/5/195 196/6/196 197/7/197 194/8/194 192/9/192 229/10/229 211/11/211 207/12/207 206/13/206 215/14/215 219/15/219 134/16/134 132/17/132 136/18/136 129/19/129 131/20/131 133/21/133
f 1/22/1 7/23/7 2/24/2
f 3/25/3 1/22/1 4/26/4
f 1/22/1 3/25/3 7/23/7
f 150/27/150 75/28/75 76/29/76 80/30/80
f 10/31/10 7/23/7 11/32/11
f 10/31/10 11/32/11 12/33/12
f 8/34/8 12/33/12 11/32/11
f 13/35/13 12/33/12 15/36/15
f 12/33/12 13/35/13 14/37/14
f 9/38/9 12/33/12 14/37/14
f 15/36/15 12/33/12 8/34/8
f 9/38/9 10/31/10 12/33/12
f 202/39/202 125/40/125 196/6/196 203/4/203 204/3/204
f 30/41/30 56/42/56 55/43/55 54/44/54 34/45/34 33/46/33
f 20/47/20 19/48/19 18/49/18
f 16/50/16 18/49/18 19/48/19
f 275/51/275 298/52/298 258/53/258 260/54/260
f 7/23/7 10/31/10 9/38/9 2/24/2
f 42/55/42 43/56/43 41/57/41 40/58/40
f 72/59/72 83/60/83 77/61/77
f 23/62/23 27/63/27 25/64/25
f 27/63/27 23/62/23 26/65/26
f 27/63/27 26/65/26 28/66/28
f 27/63/27 29/67/29 25/64/25
f 27/63/27 28/66/28 29/67/29
f 7/68/7 3/69/3 194/8/194 198/70/198 200/71/200 21/72/21 20/47/20 18/49/18 8/73/8 11/74/11
f 25/64/25 29/67/29 31/75/31
f 31/75/31 29/67/29 30/41/30
f 79/76/79 237/77/237 149/78/149 148/79/148
f 33/46/33 31/75/31 30/41/30
f 35/80/35 33/46/33 34/45/34
f 35/80/35 36/81/36 33/46/33
f 22/82/22 24/83/24 23/62/23 20/84/20
f 234/85/234 178/86/178 233/87/233 235/88/235
f 82/89/82 87/90/87 85/91/85 84/92/84 81/93/81
f 35/80/35 44/94/44 40/58/40 38/95/38 36/81/36
f 44/94/44 42/55/42 40/58/40
f 45/96/45 42/55/42 44/94/44
f 46/97/46 45/96/45 44/94/44
f 48/98/48 46/97/46 44/94/44
f 119/99/119 247/100/247 248/101/248 243/102/243 120/103/120
f 298/52/298 275/51/275 274/104/274 276/105/276 277/106/277
f 91/107/91 92/108/92 93/109/93 89/110/89
f 48/98/48 51/111/51 50/112/50
f 51/111/51 52/113/52 53/114/53 50/112/50
f 51/111/51 47/115/47 52/113/52
f 47/115/47 54/44/54 52/113/52
f 254/116/254 253/117/253 291/118/291
f 54/44/54 55/43/55 60/119/60 53/114/53 52/113/52
f 54/44/54 35/80/35 57/120/57
f 35/80/35 54/44/54 47/115/47
f 54/44/54 57/120/57 34/45/34
f 35/80/35 34/45/34 57/120/57
f 75/28/75 150/27/150 151/121/151 154/122/154
f 237/77/237 79/76/79 239/123/239 238/124/238
f 136/18/136 135/125/135 145/126/145 249/127/249
f 280/128/280 283/129/283 281/130/281 284/131/284
f 79/76/79 241/132/241 239/123/239
f 64/133/64 67/134/67 63/135/63
f 65/136/65 64/133/64 63/135/63
f 63/135/63 66/137/66 65/136/65
f 67/134/67 61/138/61 63/135/63
f 66/137/66 63/135/63 62/139/62
f 64/133/64 68/140/68 67/134/67
f 69/141/69 67/134/67 68/140/68
f 69/141/69 61/138/61 67/134/67
f 69/141/69 68/140/68 72/59/72
f 74/142/74 60/119/60 59/143/59 58/144/58 62/139/62 61/138/61 69/141/69
f 69/141/69 70/145/70 74/142/74
f 17/146/17 13/35/13 15/36/15 16/147/16
f 73/148/73 69/141/69 72/59/72
f 173/149/173 209/150/209 212/151/212 176/152/176
f 53/114/53 60/119/60 74/142/74
f 75/28/75 73/148/73 76/29/76
f 73/148/73 72/59/72 77/61/77
f 213/153/213 214/154/214 218/155/218 215/156/215 210/157/210
f 253/117/253 294/158/294 293/159/293 292/160/292 291/118/291
f 79/76/79 78/161/78 81/93/81
f 79/76/79 80/30/80 78/161/78
f 80/30/80 76/29/76 78/161/78
f 82/89/82 81/93/81 78/161/78
f 243/102/243 248/101/248 249/127/249 240/162/240 242/163/242
f 300/164/300 299/165/299 282/166/282 301/167/301
f 88/168/88 87/90/87 86/169/86
f 85/91/85 87/90/87 88/168/88
f 88/168/88 91/107/91 89/110/89
f 90/170/90 88/168/88 89/110/89
f 88/168/88 90/170/90 85/91/85
f 88/168/88 86/169/86 91/107/91
f 266/171/266 268/172/268 261/173/261 263/174/263
f 96/175/96 93/109/93 92/108/92
f 93/109/93 94/176/94 89/110/89
f 93/109/93 95/177/95 94/176/94
f 96/175/96 95/177/95 93/109/93
f 92/108/92 97/178/97 96/175/96
f 140/179/140 142/180/142 224/181/224 143/182/143
f 99/183/99 98/184/98 97/178/97
f 286/185/286 288/186/288 285/187/285 284/131/284
f 102/188/102 103/189/103 100/190/100
f 61/138/61 62/139/62 63/135/63
f 107/191/107 106/192/106 100/190/100 103/189/103 104/193/104
f 105/194/105 100/190/100 106/192/106
f 107/191/107 105/194/105 106/192/106
f 139/195/139 143/182/143 141/196/141 144/197/144
f 110/198/110 109/199/109 107/191/107
f 113/200/113 109/199/109 110/198/110
f 155/201/155 50/112/50 152/202/152 153/203/153
f 113/200/113 112/204/112 114/205/114
f 114/205/114 116/206/116 113/200/113
f 113/200/113 116/206/116 115/207/115
f 142/180/142 220/208/220 221/209/221 223/210/223 224/181/224
f 117/211/117 116/206/116 114/205/114
f 117/211/117 121/212/121 116/206/116
f 73/148/73 75/28/75 71/213/71 69/141/69
f 142/180/142 139/195/139 138/214/138 137/215/137 134/216/134 220/208/220
f 119/99/119 120/103/120 116/206/116
f 120/103/120 115/207/115 116/206/116
f 25/64/25 19/217/19 20/84/20 23/62/23
f 124/218/124 125/40/125 123/219/123
f 126/220/126 124/218/124 123/219/123
f 308/221/308 97/178/97 92/108/92 307/222/307
f 123/219/123 127/223/127 128/224/128 131/20/131 129/19/129 251/225/251 250/226/250 247/100/247 118/227/118 130/228/130 122/229/122
f 160/230/160 168/231/168 167/232/167 162/233/162 161/234/161
f 175/235/175 177/236/177 174/237/174 172/238/172
f 110/198/110 107/191/107 108/239/108 111/240/111 112/204/112 113/200/113
f 6/241/6 32/242/32 36/81/36 37/243/37
f 105/194/105 245/244/245 244/245/244 101/246/101 100/190/100
f 136/18/136 132/17/132 135/125/135
f 137/215/137 138/214/138 135/247/135
f 122/229/122 118/227/118 121/212/121 117/211/117 201/248/201 126/220/126 123/219/123
f 139/195/139 142/180/142 140/179/140
f 139/195/139 140/179/140 143/182/143
f 158/249/158 228/250/228 168/231/168 160/230/160 159/251/159 157/252/157
f 139/195/139 144/197/144 138/214/138
f 138/214/138 144/197/144 145/253/145
f 146/254/146 148/79/148 144/197/144
f 141/196/141 146/254/146 144/197/144
f 148/79/148 147/255/147 144/197/144
f 149/78/149 147/255/147 148/79/148
f 148/79/148 146/254/146 151/121/151
f 150/27/150 79/76/79 148/79/148
f 148/79/148 151/121/151 150/27/150
f 153/203/153 152/202/152 151/121/151
f 152/202/152 154/122/154 151/121/151
f 151/121/151 146/254/146 153/203/153
f 70/145/70 154/122/154 152/202/152 50/112/50 74/142/74
f 75/28/75 154/122/154 71/213/71
f 146/254/146 157/252/157 153/203/153
f 95/177/95 96/175/96 97/178/97 98/184/98
f 141/196/141 157/252/157 146/254/146
f 157/252/157 141/196/141 143/182/143
f 218/155/218 221/209/221 219/256/219 215/156/215
f 157/252/157 143/182/143 158/249/158
f 159/251/159 156/257/156 157/252/157
f 156/257/156 159/251/159 155/201/155
f 159/251/159 160/230/160 161/234/161
f 246/258/246 243/102/243 244/245/244 245/244/245
f 163/259/163 49/260/49 161/234/161
f 162/233/162 163/259/163 161/234/161
f 163/259/163 46/97/46 49/260/49
f 46/97/46 163/259/163 164/261/164
f 164/261/164 163/259/163 165/262/165
f 163/259/163 162/233/162 165/262/165
f 167/232/167 165/262/165 162/233/162
f 164/261/164 165/262/165 166/263/166
f 167/232/167 166/263/166 165/262/165
f 15/264/15 8/73/8 18/49/18 16/50/16
f 168/231/168 169/265/169 167/232/167
f 167/232/167 42/55/42 166/263/166
f 167/232/167 169/265/169 42/55/42
f 168/231/168 170/266/170 169/265/169
f 172/238/172 171/267/171 169/265/169
f 172/238/172 173/149/173 175/235/175
f 53/114/53 74/142/74 50/112/50
f 174/237/174 171/267/171 172/238/172
f 243/102/243 246/258/246 115/207/115 120/103/120
f 246/258/246 109/199/109 113/200/113 115/207/115
f 181/268/181 174/237/174 177/236/177
f 171/267/171 174/237/174 181/268/181
f 181/268/181 179/269/179 182/270/182
f 41/57/41 181/268/181 182/270/182
f 41/57/41 43/56/43 181/268/181
f 43/56/43 171/267/171 181/268/181
f 184/271/184 41/57/41 182/270/182
f 237/77/237 145/253/145 144/197/144 147/255/147
f 184/271/184 185/272/185 37/243/37
f 184/271/184 39/273/39 41/57/41
f 37/243/37 39/273/39 184/271/184
f 185/272/185 186/274/186 189/275/189
f 268/172/268 271/276/271 270/277/270 269/278/269
f 185/272/185 187/279/187 188/280/188
f 187/279/187 185/272/185 183/281/183
f 190/282/190 4/26/4 186/274/186 185/272/185 188/280/188 191/283/191
f 37/243/37 185/272/185 189/275/189
f 32/242/32 14/37/14 13/35/13 25/64/25 31/75/31
f 190/282/190 191/283/191 192/284/192
f 190/282/190 193/285/193 4/26/4
f 192/284/192 194/286/194 190/282/190
f 194/286/194 193/285/193 190/282/190
f 193/285/193 194/286/194 3/25/3
f 40/58/40 41/57/41 39/273/39 38/95/38
f 128/224/128 127/223/127 204/3/204 222/1/222
f 198/70/198 199/287/199 200/71/200
f 197/7/197 199/287/199 198/70/198
f 176/152/176 177/236/177 175/235/175 173/149/173
f 241/132/241 79/76/79 81/93/81 84/92/84
f 178/86/178 179/269/179 181/268/181 177/236/177 176/152/176 180/288/180
f 126/220/126 201/248/201 199/287/199
f 201/248/201 117/211/117 114/205/114
f 201/248/201 114/205/114 112/204/112
f 111/240/111 201/248/201 112/204/112
f 153/203/153 157/252/157 156/257/156 155/201/155
f 199/287/199 197/7/197 125/40/125
f 197/7/197 196/6/196 125/40/125
f 131/20/131 128/224/128 222/1/222 133/21/133
f 195/5/195 203/4/203 196/6/196
f 243/102/243 242/163/242 101/246/101 244/245/244
f 249/127/249 238/289/238 239/290/239 241/291/241 240/162/240
f 109/199/109 245/244/245 105/194/105 107/191/107
f 207/292/207 211/293/211 208/294/208
f 212/151/212 207/292/207 208/294/208
f 207/292/207 212/151/212 209/150/209
f 213/153/213 207/292/207 209/150/209
f 206/13/206 207/12/207 210/295/210
f 210/157/210 207/292/207 213/153/213
f 216/296/216 213/153/213 209/150/209
f 214/154/214 213/153/213 216/296/216
f 216/296/216 217/297/217 214/154/214
f 104/193/104 252/298/252 108/239/108 107/191/107
f 214/154/214 217/297/217 170/266/170
f 170/266/170 217/297/217 173/149/173
f 210/295/210 215/14/215 206/13/206
f 230/299/230 231/300/231 211/293/211 229/301/229
f 219/256/219 221/209/221 220/208/220
f 134/16/134 219/15/219 220/302/220
f 205/2/205 222/1/222 204/3/204
f 303/303/303 65/136/65 66/137/66 301/167/301
f 218/155/218 225/304/225 221/209/221
f 221/209/221 225/304/225 223/210/223
f 226/305/226 228/250/228 225/304/225
f 30/41/30 58/144/58 59/143/59
f 225/304/225 228/250/228 223/210/223
f 224/181/224 228/250/228 158/249/158
f 124/218/124 126/220/126 199/287/199 125/40/125
f 226/305/226 168/231/168 228/250/228
f 223/210/223 228/250/228 224/181/224
f 226/305/226 227/306/227 170/266/170
f 214/154/214 170/266/170 227/306/227
f 214/154/214 227/306/227 218/155/218
f 226/305/226 170/266/170 168/231/168
f 224/181/224 158/249/158 143/182/143
f 170/266/170 173/149/173 172/238/172 169/265/169
f 259/307/259 256/308/256 103/189/103 102/188/102 262/309/262 263/310/263 261/311/261
f 176/152/176 212/151/212 180/288/180
f 231/300/231 208/294/208 211/293/211
f 282/166/282 280/128/280 278/312/278 273/313/273 306/314/306 303/303/303
f 230/299/230 233/87/233 231/300/231
f 231/300/231 232/315/232 208/294/208
f 233/87/233 232/315/232 231/300/231
f 47/115/47 51/111/51 48/98/48 44/94/44 35/80/35
f 178/86/178 232/315/232 233/87/233
f 235/88/235 233/87/233 230/299/230
f 191/283/191 235/88/235 230/299/230
f 234/85/234 235/88/235 188/280/188
f 191/283/191 188/280/188 235/88/235
f 234/85/234 188/280/188 187/279/187
f 234/85/234 187/279/187 236/316/236
f 234/85/234 236/316/236 178/86/178
f 183/281/183 179/269/179 236/316/236
f 187/279/187 183/281/183 236/316/236
f 179/269/179 178/86/178 236/316/236
f 232/315/232 178/86/178 180/288/180
f 229/301/229 192/284/192 230/299/230
f 192/284/192 191/283/191 230/299/230
f 193/285/193 3/25/3 4/26/4
f 189/275/189 6/241/6 37/243/37
f 4/26/4 189/275/189 186/274/186
f 6/241/6 189/275/189 4/26/4
f 45/96/45 166/263/166 42/55/42
f 166/263/166 45/96/45 164/261/164
f 164/261/164 45/96/45 46/97/46
f 155/201/155 49/260/49 50/112/50
f 252/298/252 21/72/21 200/71/200 111/240/111 108/239/108
f 80/30/80 79/76/79 150/27/150
f 149/78/149 237/77/237 147/255/147
f 256/308/256 253/117/253 254/116/254 21/72/21 252/298/252 255/317/255 103/189/103
f 238/124/238 145/253/145 237/77/237
f 208/294/208 232/315/232 180/288/180 212/151/212
f 84/318/84 242/163/242 241/291/241
f 9/38/9 14/37/14 5/319/5 2/24/2
f 241/291/241 242/163/242 240/162/240
f 89/320/89 242/163/242 90/321/90
f 89/320/89 101/246/101 242/163/242
f 26/65/26 23/62/23 24/83/24 302/322/302 301/167/301 304/323/304 305/324/305
f 284/131/284 279/325/279 278/312/278 280/128/280
f 197/7/197 198/70/198 194/8/194
f 246/258/246 245/244/245 109/199/109
f 118/227/118 247/100/247 119/99/119 116/206/116 121/212/121
f 247/100/247 250/226/250 248/101/248
f 248/101/248 250/226/250 249/127/249
f 250/226/250 136/18/136 249/127/249
f 250/226/250 251/225/251 136/18/136
f 58/144/58 305/324/305 304/323/304 66/137/66 62/139/62
f 136/18/136 251/225/251 129/19/129
f 249/127/249 145/126/145 238/289/238
f 56/42/56 30/41/30 59/143/59 60/119/60 55/43/55
f 138/214/138 145/253/145 135/247/135
f 122/229/122 130/228/130 118/227/118
f 125/40/125 202/39/202 204/3/204 127/223/127 123/219/123
f 255/317/255 252/298/252 104/193/104
f 218/155/218 227/306/227 226/305/226 225/304/225
f 99/326/99 267/327/267 263/310/263 262/309/262
f 255/317/255 104/193/104 103/189/103
f 257/328/257 256/329/256 258/53/258
f 256/308/256 257/330/257 253/117/253
f 256/329/256 259/331/259 258/53/258
f 71/213/71 154/122/154 70/145/70 69/141/69
f 260/54/260 258/53/258 259/331/259
f 259/331/259 261/173/261 260/54/260
f 49/260/49 46/97/46 48/98/48 50/112/50
f 267/327/267 264/332/264 263/310/263
f 264/333/264 265/334/265 263/174/263
f 263/174/263 265/334/265 266/171/266
f 21/72/21 254/116/254 22/335/22 20/47/20
f 269/278/269 272/336/272 268/172/268
f 268/172/268 266/171/266 271/276/271
f 261/173/261 268/172/268 272/336/272
f 183/281/183 185/272/185 184/271/184 182/270/182 179/269/179
f 261/173/261 272/336/272 260/54/260
f 271/276/271 266/171/266 270/277/270
f 266/171/266 273/313/273 270/277/270
f 310/337/310 97/178/97 308/221/308 265/334/265
f 274/104/274 269/278/269 270/277/270
f 274/104/274 275/51/275 260/54/260
f 278/312/278 277/106/277 276/105/276
f 276/105/276 273/313/273 278/312/278
f 262/309/262 102/188/102 100/190/100 101/246/101 95/338/95 98/339/98 99/326/99
f 277/106/277 278/312/278 279/325/279
f 280/128/280 282/166/282 283/129/283
f 281/130/281 287/340/287 284/131/284
f 284/131/284 285/187/285 279/325/279
f 5/319/5 6/241/6 4/26/4 1/22/1 2/24/2
f 287/340/287 286/185/286 284/131/284
f 288/186/288 286/185/286 287/340/287
f 291/118/291 288/341/288 287/342/287
f 287/342/287 289/343/289 254/116/254
f 287/340/287 290/344/290 289/345/289
f 281/130/281 290/344/290 287/340/287
f 254/116/254 291/118/291 287/342/287
f 274/104/274 260/54/260 272/336/272 269/278/269
f 285/346/285 291/118/291 292/160/292
f 291/118/291 285/346/285 288/341/288
f 209/150/209 173/149/173 217/297/217 216/296/216
f 253/117/253 295/347/295 294/158/294
f 296/348/296 294/158/294 295/347/295
f 296/349/296 279/325/279 294/350/294
f 294/350/294 279/325/279 293/351/293
f 297/352/297 279/325/279 296/349/296
f 295/353/295 297/352/297 296/349/296
f 277/106/277 297/352/297 298/52/298
f 298/52/298 297/352/297 295/353/295
f 297/352/297 277/106/277 279/325/279
f 257/328/257 298/52/298 295/353/295
f 298/52/298 257/328/257 258/53/258
f 257/330/257 295/347/295 253/117/253
f 285/187/285 292/354/292 293/351/293
f 293/351/293 279/325/279 285/187/285
f 290/344/290 281/130/281 24/83/24
f 290/344/290 22/82/22 289/345/289
f 24/83/24 22/82/22 290/344/290
f 22/335/22 254/116/254 289/343/289
f 282/166/282 299/165/299 283/129/283
f 281/130/281 283/129/283 299/165/299
f 24/83/24 299/165/299 300/164/300
f 299/165/299 24/83/24 281/130/281
f 84/318/84 85/355/85 90/321/90 242/163/242
f 304/323/304 301/167/301 66/137/66
f 137/356/137 135/125/135 132/17/132 134/16/134
f 301/167/301 302/322/302 300/164/300
f 303/303/303 301/167/301 282/166/282
f 33/46/33 36/81/36 32/242/32 31/75/31
f 26/65/26 305/324/305 28/66/28
f 159/251/159 161/234/161 49/260/49 155/201/155
f 306/314/306 65/136/65 303/303/303
f 28/66/28 305/324/305 58/144/58 30/41/30 29/67/29
f 43/56/43 42/55/42 169/265/169 171/267/171
f 64/133/64 65/136/65 306/314/306 273/313/273 266/171/266 307/222/307 309/357/309 68/140/68
f 307/222/307 265/334/265 308/221/308
f 201/248/201 111/240/111 200/71/200 199/287/199
f 265/334/265 307/222/307 266/171/266
f 273/313/273 276/105/276 274/104/274 270/277/270
f 68/140/68 309/357/309 72/59/72
f 83/60/83 72/59/72 309/357/309 307/222/307 92/108/92 91/107/91 86/169/86 87/90/87 82/89/82 78/161/78 76/29/76 73/148/73 77/61/77
f 38/95/38 39/273/39 37/243/37 36/81/36
f 97/178/97 310/337/310 99/183/99
f 267/358/267 99/183/99 310/337/310
f 310/337/310 264/333/264 267/358/267
f 264/333/264 310/337/310 265/334/265
f 300/164/300 302/322/302 24/83/24
f 101/246/101 89/320/89 94/359/94
f 95/338/95 101/246/101 94/359/94
f 32/242/32 5/319/5 14/37/14
f 5/319/5 32/242/32 6/241/6
f 17/146/17 25/64/25 13/35/13
f 17/146/17 19/217/19 25/64/25
f 17/146/17 16/147/16 19/217/19
