# Blender 5.1.2
# www.blender.org
mtllib rock 4.mtl
o Procedural_rocks_bake2.003
v -0.184895 -0.845709 0.898472
v -0.364050 -0.572466 0.971403
v -0.173751 -0.784548 1.351673
v -0.390599 -0.067983 0.921450
v -0.354130 -0.381790 -0.091663
v -0.085421 -0.754112 -0.114335
v 0.186951 -0.746796 0.436369
v 0.205547 -0.817559 1.388451
v -0.138517 -0.090425 1.290379
v 0.107540 -0.175463 1.381243
v -0.339594 0.520140 0.997869
v -0.516213 0.199092 0.331138
v -0.431462 -0.236486 -0.136813
v 0.312188 -0.367871 0.219873
v -0.188406 0.616168 1.345444
v 0.380847 -0.472892 1.320478
v -0.404411 0.521903 0.207153
v 0.242676 -0.739250 -0.070840
v 0.350326 0.194179 1.296782
v 0.317259 0.099704 0.434313
v 0.088916 0.260014 1.424879
v -0.102493 0.705212 0.262414
v 0.192541 -0.768453 -0.701793
v -0.158808 -0.754845 -1.097435
v -0.468769 -0.192958 -0.753914
v 0.261377 0.646933 0.574190
v 0.428738 -0.034856 -0.159940
v 0.228785 0.612704 1.287880
v -0.282211 0.565154 -0.706829
v -0.491473 0.268074 -0.993071
v 0.074273 -0.786709 -1.198979
v 0.341876 -0.161494 -1.134416
v 0.594015 0.329860 -0.568628
v 0.331160 0.599241 -0.283148
v 0.103792 0.773196 -0.346105
v 0.315985 0.833992 -0.580777
v -0.325215 0.363884 -1.294021
v -0.155388 0.704604 -1.108821
v 0.537825 0.651500 -0.641695
v 0.117231 -0.007602 -1.378320
v 0.233207 0.577654 -1.314421
v -0.063912 0.384494 -1.428020
v 0.428458 0.205934 -1.264721
vn 0.8464 -0.1470 0.5119
vn 0.8511 0.1024 0.5150
vn -0.0103 0.0120 0.9999
vn 0.4197 -0.6621 0.6209
vn -0.9461 -0.0371 0.3216
vn -0.8620 -0.4772 -0.1712
vn -0.9515 -0.2459 0.1851
vn 0.6377 -0.7695 -0.0349
vn 0.9796 -0.1903 0.0637
vn -0.8687 0.4360 0.2351
vn -0.7890 0.6138 -0.0268
vn -0.9971 0.0415 0.0641
vn -0.4784 0.5946 0.6463
vn -0.1957 0.9806 0.0121
vn -0.9154 -0.3956 0.0743
vn 0.0599 0.0321 0.9977
vn 0.5327 0.6888 0.4917
vn 0.6840 0.7282 0.0417
vn -0.5886 -0.6881 -0.4243
vn 0.2374 -0.7362 -0.6337
vn 0.5894 -0.8059 -0.0560
vn 0.9971 0.0445 0.0624
vn 0.7081 0.6087 0.3578
vn -0.9469 -0.2961 -0.1258
vn -0.4304 -0.9021 -0.0311
vn 0.9965 -0.0129 0.0821
vn 0.8514 -0.3256 -0.4112
vn 0.0552 -0.2342 -0.9706
vn -0.1731 0.1899 -0.9664
vn -0.7319 0.0649 -0.6783
vn -0.6398 -0.0091 0.7685
vn -0.6750 0.7376 0.0147
vn 0.2703 0.9580 0.0955
vn -0.4101 0.8536 -0.3214
vn 0.7759 -0.0434 -0.6294
vn -0.9331 0.1454 -0.3289
vn -0.4255 -0.9044 -0.0317
vn -0.5297 -0.5326 0.6602
vn 0.9655 -0.2402 0.1008
vn 0.6522 -0.7577 0.0213
vn -0.0305 0.9856 0.1661
vn 0.3827 0.5829 -0.7168
vn 0.8582 0.5125 0.0290
vt 0.575970 0.565924
vt 0.577428 0.533880
vt 0.591115 0.549617
vt 0.588696 0.581580
vt 0.538706 0.856468
vt 0.525727 0.893317
vt 0.519047 0.853094
vt 0.082825 0.783432
vt 0.065271 0.796144
vt 0.082783 0.732788
vt 0.575808 0.857122
vt 0.574406 0.896910
vt 0.556517 0.889401
vt 0.451351 0.870903
vt 0.464642 0.851837
vt 0.459691 0.909569
vt 0.443161 0.909892
vt 0.530560 0.913206
vt 0.591317 0.526004
vt 0.008890 0.740478
vt 0.035853 0.739589
vt 0.008307 0.779250
vt 0.300840 0.560442
vt 0.286363 0.564720
vt 0.280618 0.539612
vt 0.067671 0.736981
vt 0.042419 0.787711
vt 0.012073 0.825771
vt 0.476654 0.942508
vt 0.481928 0.896175
vt 0.534920 0.949242
vt 0.503460 0.964352
vt 0.504611 0.911214
vt 0.031991 0.841112
vt 0.922720 0.355886
vt 0.918491 0.390942
vt 0.909105 0.349535
vt 0.895194 0.331742
vt 0.882080 0.336068
vt 0.543322 0.836783
vt 0.441089 0.959577
vt 0.476006 0.960491
vt 0.444273 0.982343
vt 0.923528 0.334822
vt 0.580374 0.968572
vt 0.557251 0.958517
vt 0.574777 0.946345
vt 0.502503 0.856253
vt 0.506324 0.832117
vt 0.579453 0.836185
vt 0.300252 0.428266
vt 0.300589 0.452600
vt 0.281910 0.427166
vt 0.606897 0.582629
vt 0.086710 0.845034
vt 0.055587 0.871017
vt 0.049987 0.817811
vt 0.083530 0.810632
vt 0.603889 0.545123
vt 0.465214 0.944669
vt 0.584015 0.507124
vt 0.605437 0.508218
vt 0.278335 0.504727
vt 0.279625 0.477704
vt 0.293883 0.507389
vt 0.485535 0.857620
vt 0.908534 0.317739
vt 0.088410 0.869696
vt 0.887059 0.315865
vt 0.013340 0.845854
vt 0.562067 0.977778
vt 0.540507 0.972620
vt 0.001307 0.844320
vt 0.462552 0.996733
vt 0.485004 0.963509
vt 0.036170 0.878255
vt 0.903544 0.391767
vt 0.001877 0.828110
vt 0.015520 0.881001
vt 0.888064 0.358592
s 1
usemtl Default_OBJ
f 16/1/1 19/2/2 10/3/3 8/4/4
f 4/5/5 5/6/6 2/7/7
f 7/8/8 14/9/9 8/10/4
f 11/11/10 17/12/11 12/13/12
f 12/13/12 5/6/6 4/5/5
f 11/14/10 15/15/13 22/16/14 17/17/11
f 5/6/6 12/13/12 13/18/15
f 10/3/3 19/2/2 21/19/16
f 28/20/17 19/21/2 26/22/18
f 24/23/19 31/24/20 23/25/21
f 19/21/2 16/26/1 14/9/9 20/27/22 26/22/18
f 26/22/18 20/27/22 34/28/23
f 34/29/23 22/16/14 26/30/18
f 25/31/24 24/32/19 6/33/25 13/18/15
f 33/34/26 34/28/23 20/27/22
f 32/35/27 31/36/20 40/37/28
f 42/38/29 40/37/28 37/39/30
f 11/11/10 4/5/5 2/7/7 9/40/31
f 29/41/32 36/42/33 38/43/34
f 32/35/27 40/37/28 43/44/35
f 38/45/34 30/46/36 12/13/12 29/47/32
f 2/7/7 1/48/37 3/49/38
f 9/40/31 2/7/7 3/49/38
f 11/11/10 9/40/31 15/50/13
f 3/51/38 1/52/37 8/53/4
f 3/54/38 8/4/4 10/3/3
f 4/5/5 11/11/10 12/13/12
f 5/6/6 13/18/15 6/33/25
f 23/55/21 32/56/27 27/57/39 18/58/40
f 9/59/31 3/54/38 10/3/3
f 8/10/4 14/9/9 16/26/1
f 35/60/41 29/41/32 17/17/11 22/16/14
f 1/48/37 2/7/7 5/6/6 6/33/25
f 25/31/24 13/18/15 12/13/12
f 21/19/16 28/61/17 15/62/13
f 23/25/21 18/63/40 7/64/8 6/65/25 24/23/19
f 20/27/22 14/9/9 27/57/39 33/34/26
f 26/30/18 22/16/14 15/15/13 28/66/17
f 12/13/12 17/12/11 29/47/32
f 12/13/12 30/46/36 25/31/24
f 30/46/36 24/32/19 25/31/24
f 43/44/35 40/37/28 42/38/29 41/67/42
f 23/55/21 31/68/20 32/56/27
f 34/29/23 35/60/41 22/16/14
f 35/60/41 36/42/33 29/41/32
f 42/38/29 38/69/34 41/67/42
f 33/34/26 39/70/43 34/28/23
f 37/71/30 40/72/28 30/46/36
f 32/56/27 33/34/26 27/57/39
f 36/73/33 34/28/23 39/70/43
f 41/74/42 36/42/33 39/75/43
f 27/57/39 14/9/9 7/8/8 18/58/40
f 43/76/35 39/70/43 33/34/26
f 24/77/19 40/37/28 31/36/20
f 9/59/31 10/3/3 21/19/16 15/62/13
f 21/19/16 19/2/2 28/61/17
f 38/45/34 37/71/30 30/46/36
f 42/38/29 37/39/30 38/69/34
f 32/56/27 43/76/35 33/34/26
f 36/73/33 35/78/41 34/28/23
f 41/74/42 38/43/34 36/42/33
f 43/76/35 41/79/42 39/70/43
f 24/77/19 30/80/36 40/37/28
f 1/52/37 6/65/25 7/64/8 8/53/4
