# Blender 5.1.2
# www.blender.org
mtllib rock 5.mtl
o Procedural_rocks_bake2.003
v 0.512444 0.260745 -0.470145
v 0.391207 0.288826 0.230842
v 0.502800 -0.362526 -0.179002
v 0.328247 -0.753222 0.023004
v 0.512098 0.138286 -0.717309
v 0.182865 0.713582 -0.173728
v 0.498678 -0.115171 0.877463
v 0.356132 -0.394958 0.956777
v 0.086059 -0.918822 0.187688
v 0.341072 -0.424169 -0.888080
v 0.309973 0.628670 -0.692740
v 0.220989 0.703152 0.784028
v -0.299091 0.777976 -0.196864
v -0.167465 0.678403 0.190572
v 0.406231 0.504622 1.154027
v 0.342857 0.403345 1.367490
v 0.091394 -0.681753 1.112836
v -0.170553 -0.646268 0.453210
v 0.101122 -0.784195 -0.721145
v 0.306257 0.052564 -1.084483
v -0.114164 0.624946 0.900096
v -0.559654 0.437207 -0.279473
v -0.377773 0.408871 0.181231
v 0.043472 0.831310 -0.785193
v 0.214102 -0.150800 1.340873
v -0.350567 -0.723270 -0.071145
v -0.330067 -0.704391 -0.681100
v 0.081488 -0.644712 -1.212014
v 0.167343 0.491233 -1.141917
v 0.024542 0.214882 -1.309899
v 0.060619 0.692738 1.197286
v -0.605787 -0.008788 -0.031491
v -0.264364 0.825849 -0.854449
v 0.051195 0.228793 1.436172
v -0.057366 -0.570307 1.292201
v -0.269844 -0.015282 1.284631
v -0.440540 -0.299096 -0.630944
v -0.132534 -0.639700 -1.114886
v -0.135599 0.724316 -1.172275
v -0.316391 0.048773 -1.150498
v -0.392159 0.112957 0.799945
v -0.267698 0.407571 1.273414
v -0.626112 0.041758 -0.487374
vn 0.9505 0.3107 0.0089
vn 0.9683 -0.2451 -0.0475
vn 0.9598 0.2794 0.0261
vn 0.9567 0.0841 -0.2787
vn 0.8719 -0.3662 -0.3252
vn 0.7803 0.6033 -0.1647
vn 0.5273 0.8424 0.1106
vn 0.4081 0.9129 -0.0047
vn -0.4273 0.8854 0.1829
vn -0.4341 0.8757 0.2115
vn 0.7787 0.0072 -0.6274
vn 0.8321 0.5009 0.2380
vn -0.6887 -0.6723 0.2714
vn 0.0757 -0.9863 0.1463
vn 0.2693 -0.8376 0.4753
vn 0.3270 -0.9238 -0.1990
vn 0.2488 -0.5983 -0.7616
vn 0.1199 0.0719 -0.9902
vn -0.8484 0.4715 0.2406
vn -0.5324 0.8434 0.0727
vn 0.3519 0.9219 -0.1622
vn -0.5471 0.7955 -0.2605
vn -0.0799 0.8829 0.4626
vn 0.5752 0.2775 0.7695
vn -0.0895 0.0599 0.9942
vn 0.4510 -0.2872 0.8451
vn -0.9841 -0.0698 0.1632
vn -0.9841 0.0135 0.1769
vn -0.9194 0.3870 0.0702
vn -0.7341 -0.1805 0.6546
vn -0.2673 -0.6174 0.7399
vn -0.9199 -0.3014 -0.2508
vn -0.5313 -0.6054 -0.5927
vn -0.6920 -0.6874 -0.2205
vn -0.2082 0.6384 -0.7410
vn -0.7289 -0.0399 -0.6834
vn -0.7141 0.3982 0.5757
vn 0.7607 -0.6491 -0.0046
vn 0.9717 -0.1295 0.1978
vn 0.8153 -0.4619 0.3492
vn -0.7249 -0.6863 0.0600
vn 0.6443 0.4101 -0.6455
vn -0.9776 -0.0933 -0.1888
vt 0.222297 0.889556
vt 0.255201 0.909927
vt 0.221184 0.925326
vt 0.231724 0.939294
vt 0.257843 0.947418
vt 0.200706 0.937826
vt 0.196775 0.909300
vt 0.195385 0.857873
vt 0.971477 0.783516
vt 0.991396 0.801667
vt 0.968141 0.804937
vt 0.232286 0.959383
vt 0.206861 0.839237
vt 0.917154 0.947543
vt 0.931305 0.935489
vt 0.926628 0.985567
vt 0.275207 0.938035
vt 0.267268 0.963521
vt 0.049885 0.908008
vt 0.065882 0.913341
vt 0.065516 0.950369
vt 0.617316 0.897940
vt 0.631794 0.898048
vt 0.617646 0.917645
vt 0.986448 0.835389
vt 0.970040 0.841855
vt 0.998468 0.730295
vt 0.979999 0.728167
vt 0.991286 0.717217
vt 0.329528 0.954802
vt 0.323631 0.939438
vt 0.342858 0.928113
vt 0.650971 0.887408
vt 0.647875 0.932248
vt 0.972368 0.744981
vt 0.989389 0.749988
vt 0.611485 0.876562
vt 0.611355 0.839688
vt 0.628916 0.873070
vt 0.649556 0.957221
vt 0.688160 0.915116
vt 0.681268 0.960228
vt 0.671885 0.855802
vt 0.690965 0.830892
vt 0.693471 0.854012
vt 0.036280 0.883677
vt 0.034974 0.920728
vt 0.962700 0.725902
vt 0.629337 0.956602
vt 0.998383 0.829523
vt 0.978655 0.859466
vt 0.306028 0.938024
vt 0.315571 0.920915
vt 0.274135 0.898636
vt 0.240557 0.852534
vt 0.257716 0.847354
vt 0.942831 0.964192
vt 0.947982 0.928739
vt 0.212709 0.826103
vt 0.913438 0.918905
vt 0.943154 0.887960
vt 0.241395 0.827075
vt 0.920404 0.885860
vt 0.208125 0.961634
vt 0.260875 0.827944
vt 0.270739 0.838360
vt 0.195420 0.845072
vt 0.931569 0.864554
vt 0.948449 0.867227
vt 0.915667 0.993393
vt 0.692443 0.887977
vt 0.993798 0.854330
vt 0.054785 0.891335
vt 0.308843 0.959358
vt 0.958920 0.764076
vt 0.652081 0.862772
vt 0.344064 0.901910
vt 0.653614 0.826683
vt 0.618804 0.821470
vt 0.051012 0.955367
s 1
usemtl Default_OBJ
f 2/1/1 3/2/2 1/3/3
f 1/3/3 3/2/2 5/4/4
f 5/4/4 3/2/2 10/5/5
f 1/3/3 11/6/6 6/7/7
f 2/1/1 6/7/7 12/8/8
f 14/9/9 6/10/7 13/11/10
f 10/5/5 20/12/11 5/4/4
f 11/6/6 1/3/3 5/4/4
f 12/8/8 15/13/12 2/1/1
f 18/14/13 9/15/14 17/16/15
f 10/5/5 19/17/16 28/18/17
f 30/19/18 20/20/11 28/21/17
f 14/22/9 23/23/19 21/24/20
f 13/11/10 24/25/21 33/26/22
f 15/27/12 31/28/23 16/29/24
f 16/30/24 34/31/25 25/32/26
f 23/23/19 32/33/27 41/34/28
f 21/35/20 31/28/23 12/36/8
f 13/37/10 33/38/22 22/39/29
f 36/40/30 18/41/13 35/42/31
f 37/43/32 38/44/33 27/45/34
f 39/46/35 30/19/18 40/47/36
f 21/35/20 42/48/37 31/28/23
f 36/40/30 42/49/37 41/34/28
f 6/10/7 11/50/6 24/25/21
f 24/25/21 39/51/35 33/26/22
f 34/31/25 42/52/37 36/53/30
f 4/54/38 7/55/39 8/56/40
f 7/55/39 3/2/2 2/1/1
f 2/1/1 1/3/3 6/7/7
f 8/57/40 9/15/14 4/58/38
f 2/1/1 15/13/12 7/55/39
f 7/55/39 15/13/12 16/59/24
f 19/17/16 3/2/2 4/54/38
f 18/14/13 26/60/41 9/15/14
f 9/15/14 19/61/16 4/58/38
f 14/9/9 12/36/8 6/10/7
f 23/23/19 13/37/10 22/39/29
f 7/55/39 25/62/26 8/56/40
f 13/11/10 6/10/7 24/25/21
f 19/61/16 26/60/41 27/63/34
f 5/4/4 29/64/42 11/6/6
f 8/56/40 35/65/31 17/66/15
f 12/8/8 31/67/23 15/13/12
f 23/23/19 22/39/29 32/33/27
f 19/61/16 38/68/33 28/69/17
f 35/70/31 18/14/13 17/16/15
f 36/40/30 26/71/41 18/41/13
f 26/71/41 37/43/32 27/45/34
f 29/72/42 24/25/21 11/50/6
f 28/21/17 40/47/36 30/19/18
f 30/19/18 29/73/42 20/20/11
f 34/31/25 31/74/23 42/52/37
f 23/75/19 42/48/37 21/35/20
f 43/76/43 32/33/27 22/39/29
f 25/32/26 36/53/30 35/77/31
f 26/71/41 41/34/28 32/33/27
f 37/43/32 32/33/27 43/76/43
f 37/43/32 40/78/36 38/44/33
f 39/46/35 29/73/42 30/19/18
f 40/78/36 33/38/22 39/79/35
f 42/49/37 23/23/19 41/34/28
f 22/39/29 33/38/22 43/76/43
f 20/12/11 10/5/5 28/18/17
f 4/54/38 3/2/2 7/55/39
f 8/57/40 17/16/15 9/15/14
f 19/17/16 10/5/5 3/2/2
f 14/9/9 21/35/20 12/36/8
f 23/23/19 14/22/9 13/37/10
f 7/55/39 16/59/24 25/62/26
f 19/61/16 9/15/14 26/60/41
f 5/4/4 20/12/11 29/64/42
f 8/56/40 25/62/26 35/65/31
f 19/61/16 27/63/34 38/68/33
f 29/72/42 39/51/35 24/25/21
f 28/21/17 38/80/33 40/47/36
f 34/31/25 16/30/24 31/74/23
f 25/32/26 34/31/25 36/53/30
f 26/71/41 36/40/30 41/34/28
f 37/43/32 26/71/41 32/33/27
f 37/43/32 43/76/43 40/78/36
f 40/78/36 43/76/43 33/38/22
