{
	"asset":{
		"generator":"Khronos glTF Blender I/O v5.1.20",
		"version":"2.0"
	},
	"scene":0,
	"scenes":[
		{
			"name":"Scene",
			"nodes":[
				0
			]
		}
	],
	"nodes":[
		{
			"mesh":0,
			"name":"Acer_large_3_LOD0",
			"scale":[
				0.657007098197937,
				0.657007098197937,
				0.657007098197937
			]
		}
	],
	"meshes":[
		{
			"name":"LOD0.032",
			"primitives":[
				{
					"attributes":{
						"POSITION":0,
						"NORMAL":1,
						"TEXCOORD_0":2,
						"TEXCOORD_1":3,
						"COLOR_0":4
					},
					"indices":5
				},
				{
					"attributes":{
						"POSITION":6,
						"NORMAL":7,
						"TEXCOORD_0":8,
						"TEXCOORD_1":9,
						"COLOR_0":10
					},
					"indices":11
				}
			]
		}
	],
	"accessors":[
		{
			"bufferView":0,
			"componentType":5126,
			"count":3307,
			"max":[
				5.088387966156006,
				17.86993408203125,
				7.319889545440674
			],
			"min":[
				-4.499638557434082,
				-0.002659454010426998,
				-6.88431453704834
			],
			"type":"VEC3"
		},
		{
			"bufferView":1,
			"componentType":5126,
			"count":3307,
			"type":"VEC3"
		},
		{
			"bufferView":2,
			"componentType":5126,
			"count":3307,
			"type":"VEC2"
		},
		{
			"bufferView":3,
			"componentType":5126,
			"count":3307,
			"type":"VEC2"
		},
		{
			"bufferView":4,
			"componentType":5123,
			"count":3307,
			"normalized":true,
			"type":"VEC4"
		},
		{
			"bufferView":5,
			"componentType":5123,
			"count":12000,
			"type":"SCALAR"
		},
		{
			"bufferView":6,
			"componentType":5126,
			"count":8980,
			"max":[
				6.6385674476623535,
				18.434839248657227,
				8.867837905883789
			],
			"min":[
				-6.1259684562683105,
				3.554762363433838,
				-8.491998672485352
			],
			"type":"VEC3"
		},
		{
			"bufferView":7,
			"componentType":5126,
			"count":8980,
			"type":"VEC3"
		},
		{
			"bufferView":8,
			"componentType":5126,
			"count":8980,
			"type":"VEC2"
		},
		{
			"bufferView":9,
			"componentType":5126,
			"count":8980,
			"type":"VEC2"
		},
		{
			"bufferView":10,
			"componentType":5123,
			"count":8980,
			"normalized":true,
			"type":"VEC4"
		},
		{
			"bufferView":11,
			"componentType":5123,
			"count":26961,
			"type":"SCALAR"
		}
	],
	"bufferViews":[
		{
			"buffer":0,
			"byteLength":39684,
			"byteOffset":0,
			"target":34962
		},
		{
			"buffer":0,
			"byteLength":39684,
			"byteOffset":39684,
			"target":34962
		},
		{
			"buffer":0,
			"byteLength":26456,
			"byteOffset":79368,
			"target":34962
		},
		{
			"buffer":0,
			"byteLength":26456,
			"byteOffset":105824,
			"target":34962
		},
		{
			"buffer":0,
			"byteLength":26456,
			"byteOffset":132280,
			"target":34962
		},
		{
			"buffer":0,
			"byteLength":24000,
			"byteOffset":158736,
			"target":34963
		},
		{
			"buffer":0,
			"byteLength":107760,
			"byteOffset":182736,
			"target":34962
		},
		{
			"buffer":0,
			"byteLength":107760,
			"byteOffset":290496,
			"target":34962
		},
		{
			"buffer":0,
			"byteLength":71840,
			"byteOffset":398256,
			"target":34962
		},
		{
			"buffer":0,
			"byteLength":71840,
			"byteOffset":470096,
			"target":34962
		},
		{
			"buffer":0,
			"byteLength":71840,
			"byteOffset":541936,
			"target":34962
		},
		{
			"buffer":0,
			"byteLength":53922,
			"byteOffset":613776,
			"target":34963
		}
	],
	"buffers":[
		{
			"byteLength":667700,
			"uri":"maple1.bin"
		}
	]
}
