{
	"asset":{
		"generator":"Khronos glTF Blender I/O v5.1.20",
		"version":"2.0"
	},
	"scene":0,
	"scenes":[
		{
			"name":"Scene",
			"nodes":[
				0
			]
		}
	],
	"nodes":[
		{
			"mesh":0,
			"name":"Acer_large_1_LOD0",
			"scale":[
				0.6891544461250305,
				0.6891544461250305,
				0.6891544461250305
			]
		}
	],
	"meshes":[
		{
			"name":"LOD0.030",
			"primitives":[
				{
					"attributes":{
						"POSITION":0,
						"NORMAL":1,
						"TEXCOORD_0":2,
						"TEXCOORD_1":3,
						"COLOR_0":4
					},
					"indices":5
				},
				{
					"attributes":{
						"POSITION":6,
						"NORMAL":7,
						"TEXCOORD_0":8,
						"TEXCOORD_1":9,
						"COLOR_0":10
					},
					"indices":11
				}
			]
		}
	],
	"accessors":[
		{
			"bufferView":0,
			"componentType":5126,
			"count":5470,
			"max":[
				7.237791061401367,
				18.77562713623047,
				6.590198516845703
			],
			"min":[
				-8.258676528930664,
				-0.003788345493376255,
				-9.753779411315918
			],
			"type":"VEC3"
		},
		{
			"bufferView":1,
			"componentType":5126,
			"count":5470,
			"type":"VEC3"
		},
		{
			"bufferView":2,
			"componentType":5126,
			"count":5470,
			"type":"VEC2"
		},
		{
			"bufferView":3,
			"componentType":5126,
			"count":5470,
			"type":"VEC2"
		},
		{
			"bufferView":4,
			"componentType":5123,
			"count":5470,
			"normalized":true,
			"type":"VEC4"
		},
		{
			"bufferView":5,
			"componentType":5123,
			"count":21096,
			"type":"SCALAR"
		},
		{
			"bufferView":6,
			"componentType":5126,
			"count":15448,
			"max":[
				9.04543685913086,
				20.78032875061035,
				8.258691787719727
			],
			"min":[
				-9.648810386657715,
				0.20709381997585297,
				-11.462016105651855
			],
			"type":"VEC3"
		},
		{
			"bufferView":7,
			"componentType":5126,
			"count":15448,
			"type":"VEC3"
		},
		{
			"bufferView":8,
			"componentType":5126,
			"count":15448,
			"type":"VEC2"
		},
		{
			"bufferView":9,
			"componentType":5126,
			"count":15448,
			"type":"VEC2"
		},
		{
			"bufferView":10,
			"componentType":5123,
			"count":15448,
			"normalized":true,
			"type":"VEC4"
		},
		{
			"bufferView":11,
			"componentType":5123,
			"count":46374,
			"type":"SCALAR"
		}
	],
	"bufferViews":[
		{
			"buffer":0,
			"byteLength":65640,
			"byteOffset":0,
			"target":34962
		},
		{
			"buffer":0,
			"byteLength":65640,
			"byteOffset":65640,
			"target":34962
		},
		{
			"buffer":0,
			"byteLength":43760,
			"byteOffset":131280,
			"target":34962
		},
		{
			"buffer":0,
			"byteLength":43760,
			"byteOffset":175040,
			"target":34962
		},
		{
			"buffer":0,
			"byteLength":43760,
			"byteOffset":218800,
			"target":34962
		},
		{
			"buffer":0,
			"byteLength":42192,
			"byteOffset":262560,
			"target":34963
		},
		{
			"buffer":0,
			"byteLength":185376,
			"byteOffset":304752,
			"target":34962
		},
		{
			"buffer":0,
			"byteLength":185376,
			"byteOffset":490128,
			"target":34962
		},
		{
			"buffer":0,
			"byteLength":123584,
			"byteOffset":675504,
			"target":34962
		},
		{
			"buffer":0,
			"byteLength":123584,
			"byteOffset":799088,
			"target":34962
		},
		{
			"buffer":0,
			"byteLength":123584,
			"byteOffset":922672,
			"target":34962
		},
		{
			"buffer":0,
			"byteLength":92748,
			"byteOffset":1046256,
			"target":34963
		}
	],
	"buffers":[
		{
			"byteLength":1139004,
			"uri":"maple2.bin"
		}
	]
}
