{
	"asset":{
		"generator":"Khronos glTF Blender I/O v5.1.20",
		"version":"2.0"
	},
	"scene":0,
	"scenes":[
		{
			"name":"Scene",
			"nodes":[
				0
			]
		}
	],
	"nodes":[
		{
			"mesh":0,
			"name":"Acer_large_2_LOD0",
			"scale":[
				0.7518033981323242,
				0.7518033981323242,
				0.7518033981323242
			]
		}
	],
	"meshes":[
		{
			"name":"LOD0.031",
			"primitives":[
				{
					"attributes":{
						"POSITION":0,
						"NORMAL":1,
						"TEXCOORD_0":2,
						"TEXCOORD_1":3,
						"COLOR_0":4
					},
					"indices":5
				},
				{
					"attributes":{
						"POSITION":6,
						"NORMAL":7,
						"TEXCOORD_0":8,
						"TEXCOORD_1":9,
						"COLOR_0":10
					},
					"indices":11
				}
			]
		}
	],
	"accessors":[
		{
			"bufferView":0,
			"componentType":5126,
			"count":5537,
			"max":[
				6.370785713195801,
				22.884572982788086,
				8.362421035766602
			],
			"min":[
				-6.038933277130127,
				-0.0045634363777935505,
				-7.362457752227783
			],
			"type":"VEC3"
		},
		{
			"bufferView":1,
			"componentType":5126,
			"count":5537,
			"type":"VEC3"
		},
		{
			"bufferView":2,
			"componentType":5126,
			"count":5537,
			"type":"VEC2"
		},
		{
			"bufferView":3,
			"componentType":5126,
			"count":5537,
			"type":"VEC2"
		},
		{
			"bufferView":4,
			"componentType":5123,
			"count":5537,
			"normalized":true,
			"type":"VEC4"
		},
		{
			"bufferView":5,
			"componentType":5123,
			"count":21012,
			"type":"SCALAR"
		},
		{
			"bufferView":6,
			"componentType":5126,
			"count":12413,
			"max":[
				8.087876319885254,
				24.049283981323242,
				9.915756225585938
			],
			"min":[
				-7.422840595245361,
				3.0124075412750244,
				-8.973893165588379
			],
			"type":"VEC3"
		},
		{
			"bufferView":7,
			"componentType":5126,
			"count":12413,
			"type":"VEC3"
		},
		{
			"bufferView":8,
			"componentType":5126,
			"count":12413,
			"type":"VEC2"
		},
		{
			"bufferView":9,
			"componentType":5126,
			"count":12413,
			"type":"VEC2"
		},
		{
			"bufferView":10,
			"componentType":5123,
			"count":12413,
			"normalized":true,
			"type":"VEC4"
		},
		{
			"bufferView":11,
			"componentType":5123,
			"count":40056,
			"type":"SCALAR"
		}
	],
	"bufferViews":[
		{
			"buffer":0,
			"byteLength":66444,
			"byteOffset":0,
			"target":34962
		},
		{
			"buffer":0,
			"byteLength":66444,
			"byteOffset":66444,
			"target":34962
		},
		{
			"buffer":0,
			"byteLength":44296,
			"byteOffset":132888,
			"target":34962
		},
		{
			"buffer":0,
			"byteLength":44296,
			"byteOffset":177184,
			"target":34962
		},
		{
			"buffer":0,
			"byteLength":44296,
			"byteOffset":221480,
			"target":34962
		},
		{
			"buffer":0,
			"byteLength":42024,
			"byteOffset":265776,
			"target":34963
		},
		{
			"buffer":0,
			"byteLength":148956,
			"byteOffset":307800,
			"target":34962
		},
		{
			"buffer":0,
			"byteLength":148956,
			"byteOffset":456756,
			"target":34962
		},
		{
			"buffer":0,
			"byteLength":99304,
			"byteOffset":605712,
			"target":34962
		},
		{
			"buffer":0,
			"byteLength":99304,
			"byteOffset":705016,
			"target":34962
		},
		{
			"buffer":0,
			"byteLength":99304,
			"byteOffset":804320,
			"target":34962
		},
		{
			"buffer":0,
			"byteLength":80112,
			"byteOffset":903624,
			"target":34963
		}
	],
	"buffers":[
		{
			"byteLength":983736,
			"uri":"maple3.bin"
		}
	]
}
