{
	"asset":{
		"generator":"Khronos glTF Blender I/O v5.1.20",
		"version":"2.0"
	},
	"scene":0,
	"scenes":[
		{
			"name":"Scene",
			"nodes":[
				0
			]
		}
	],
	"nodes":[
		{
			"mesh":0,
			"name":"Pine_large_2_LOD0",
			"scale":[
				0.5825955271720886,
				0.5825955271720886,
				0.5825955271720886
			]
		}
	],
	"meshes":[
		{
			"name":"LOD0.017",
			"primitives":[
				{
					"attributes":{
						"POSITION":0,
						"NORMAL":1,
						"TEXCOORD_0":2,
						"COLOR_0":3
					},
					"indices":4
				},
				{
					"attributes":{
						"POSITION":5,
						"NORMAL":6,
						"TEXCOORD_0":7,
						"COLOR_0":8
					},
					"indices":9
				}
			]
		}
	],
	"accessors":[
		{
			"bufferView":0,
			"componentType":5126,
			"count":3170,
			"max":[
				7.122581958770752,
				29.918991088867188,
				7.418489933013916
			],
			"min":[
				-6.796238899230957,
				-0.5861915349960327,
				-5.956914901733398
			],
			"type":"VEC3"
		},
		{
			"bufferView":1,
			"componentType":5126,
			"count":3170,
			"type":"VEC3"
		},
		{
			"bufferView":2,
			"componentType":5126,
			"count":3170,
			"type":"VEC2"
		},
		{
			"bufferView":3,
			"componentType":5123,
			"count":3170,
			"normalized":true,
			"type":"VEC4"
		},
		{
			"bufferView":4,
			"componentType":5123,
			"count":12936,
			"type":"SCALAR"
		},
		{
			"bufferView":5,
			"componentType":5126,
			"count":10048,
			"max":[
				8.418911933898926,
				31.0023193359375,
				9.021100997924805
			],
			"min":[
				-7.992756366729736,
				9.316011428833008,
				-7.093682289123535
			],
			"type":"VEC3"
		},
		{
			"bufferView":6,
			"componentType":5126,
			"count":10048,
			"type":"VEC3"
		},
		{
			"bufferView":7,
			"componentType":5126,
			"count":10048,
			"type":"VEC2"
		},
		{
			"bufferView":8,
			"componentType":5123,
			"count":10048,
			"normalized":true,
			"type":"VEC4"
		},
		{
			"bufferView":9,
			"componentType":5123,
			"count":22194,
			"type":"SCALAR"
		}
	],
	"bufferViews":[
		{
			"buffer":0,
			"byteLength":38040,
			"byteOffset":0,
			"target":34962
		},
		{
			"buffer":0,
			"byteLength":38040,
			"byteOffset":38040,
			"target":34962
		},
		{
			"buffer":0,
			"byteLength":25360,
			"byteOffset":76080,
			"target":34962
		},
		{
			"buffer":0,
			"byteLength":25360,
			"byteOffset":101440,
			"target":34962
		},
		{
			"buffer":0,
			"byteLength":25872,
			"byteOffset":126800,
			"target":34963
		},
		{
			"buffer":0,
			"byteLength":120576,
			"byteOffset":152672,
			"target":34962
		},
		{
			"buffer":0,
			"byteLength":120576,
			"byteOffset":273248,
			"target":34962
		},
		{
			"buffer":0,
			"byteLength":80384,
			"byteOffset":393824,
			"target":34962
		},
		{
			"buffer":0,
			"byteLength":80384,
			"byteOffset":474208,
			"target":34962
		},
		{
			"buffer":0,
			"byteLength":44388,
			"byteOffset":554592,
			"target":34963
		}
	],
	"buffers":[
		{
			"byteLength":598980,
			"uri":"pine3.bin"
		}
	]
}
