{
	"asset":{
		"generator":"Khronos glTF Blender I/O v5.1.20",
		"version":"2.0"
	},
	"scene":0,
	"scenes":[
		{
			"name":"Scene",
			"nodes":[
				0
			]
		}
	],
	"nodes":[
		{
			"mesh":0,
			"name":"Pine_large_1_LOD0",
			"scale":[
				0.5825955271720886,
				0.5825955271720886,
				0.5825955271720886
			]
		}
	],
	"meshes":[
		{
			"name":"LOD0.016",
			"primitives":[
				{
					"attributes":{
						"POSITION":0,
						"NORMAL":1,
						"TEXCOORD_0":2,
						"COLOR_0":3
					},
					"indices":4
				},
				{
					"attributes":{
						"POSITION":5,
						"NORMAL":6,
						"TEXCOORD_0":7,
						"COLOR_0":8
					},
					"indices":9
				}
			]
		}
	],
	"accessors":[
		{
			"bufferView":0,
			"componentType":5126,
			"count":3444,
			"max":[
				6.896543979644775,
				30.221675872802734,
				6.171166896820068
			],
			"min":[
				-7.314992427825928,
				-0.642129123210907,
				-6.745887279510498
			],
			"type":"VEC3"
		},
		{
			"bufferView":1,
			"componentType":5126,
			"count":3444,
			"type":"VEC3"
		},
		{
			"bufferView":2,
			"componentType":5126,
			"count":3444,
			"type":"VEC2"
		},
		{
			"bufferView":3,
			"componentType":5123,
			"count":3444,
			"normalized":true,
			"type":"VEC4"
		},
		{
			"bufferView":4,
			"componentType":5123,
			"count":14025,
			"type":"SCALAR"
		},
		{
			"bufferView":5,
			"componentType":5126,
			"count":9550,
			"max":[
				8.20240592956543,
				31.171682357788086,
				7.433386325836182
			],
			"min":[
				-9.166707038879395,
				10.78727912902832,
				-8.124222755432129
			],
			"type":"VEC3"
		},
		{
			"bufferView":6,
			"componentType":5126,
			"count":9550,
			"type":"VEC3"
		},
		{
			"bufferView":7,
			"componentType":5126,
			"count":9550,
			"type":"VEC2"
		},
		{
			"bufferView":8,
			"componentType":5123,
			"count":9550,
			"normalized":true,
			"type":"VEC4"
		},
		{
			"bufferView":9,
			"componentType":5123,
			"count":21507,
			"type":"SCALAR"
		}
	],
	"bufferViews":[
		{
			"buffer":0,
			"byteLength":41328,
			"byteOffset":0,
			"target":34962
		},
		{
			"buffer":0,
			"byteLength":41328,
			"byteOffset":41328,
			"target":34962
		},
		{
			"buffer":0,
			"byteLength":27552,
			"byteOffset":82656,
			"target":34962
		},
		{
			"buffer":0,
			"byteLength":27552,
			"byteOffset":110208,
			"target":34962
		},
		{
			"buffer":0,
			"byteLength":28050,
			"byteOffset":137760,
			"target":34963
		},
		{
			"buffer":0,
			"byteLength":114600,
			"byteOffset":165812,
			"target":34962
		},
		{
			"buffer":0,
			"byteLength":114600,
			"byteOffset":280412,
			"target":34962
		},
		{
			"buffer":0,
			"byteLength":76400,
			"byteOffset":395012,
			"target":34962
		},
		{
			"buffer":0,
			"byteLength":76400,
			"byteOffset":471412,
			"target":34962
		},
		{
			"buffer":0,
			"byteLength":43014,
			"byteOffset":547812,
			"target":34963
		}
	],
	"buffers":[
		{
			"byteLength":590828,
			"uri":"pine2.bin"
		}
	]
}
