{
	"asset":{
		"generator":"Khronos glTF Blender I/O v5.1.20",
		"version":"2.0"
	},
	"scene":0,
	"scenes":[
		{
			"name":"Scene",
			"nodes":[
				0
			]
		}
	],
	"nodes":[
		{
			"mesh":0,
			"name":"Pine_large_3_LOD0",
			"scale":[
				0.5825955271720886,
				0.5825955271720886,
				0.5825955271720886
			]
		}
	],
	"meshes":[
		{
			"name":"LOD0.018",
			"primitives":[
				{
					"attributes":{
						"POSITION":0,
						"NORMAL":1,
						"TEXCOORD_0":2,
						"COLOR_0":3
					},
					"indices":4
				},
				{
					"attributes":{
						"POSITION":5,
						"NORMAL":6,
						"TEXCOORD_0":7,
						"COLOR_0":8
					},
					"indices":9
				}
			]
		}
	],
	"accessors":[
		{
			"bufferView":0,
			"componentType":5126,
			"count":2832,
			"max":[
				4.983516216278076,
				28.244836807250977,
				7.408881187438965
			],
			"min":[
				-4.71966552734375,
				-0.456826388835907,
				-5.463240146636963
			],
			"type":"VEC3"
		},
		{
			"bufferView":1,
			"componentType":5126,
			"count":2832,
			"type":"VEC3"
		},
		{
			"bufferView":2,
			"componentType":5126,
			"count":2832,
			"type":"VEC2"
		},
		{
			"bufferView":3,
			"componentType":5123,
			"count":2832,
			"normalized":true,
			"type":"VEC4"
		},
		{
			"bufferView":4,
			"componentType":5123,
			"count":11475,
			"type":"SCALAR"
		},
		{
			"bufferView":5,
			"componentType":5126,
			"count":8398,
			"max":[
				6.501441955566406,
				29.619871139526367,
				8.996155738830566
			],
			"min":[
				-5.855531692504883,
				11.977238655090332,
				-6.921056747436523
			],
			"type":"VEC3"
		},
		{
			"bufferView":6,
			"componentType":5126,
			"count":8398,
			"type":"VEC3"
		},
		{
			"bufferView":7,
			"componentType":5126,
			"count":8398,
			"type":"VEC2"
		},
		{
			"bufferView":8,
			"componentType":5123,
			"count":8398,
			"normalized":true,
			"type":"VEC4"
		},
		{
			"bufferView":9,
			"componentType":5123,
			"count":18951,
			"type":"SCALAR"
		}
	],
	"bufferViews":[
		{
			"buffer":0,
			"byteLength":33984,
			"byteOffset":0,
			"target":34962
		},
		{
			"buffer":0,
			"byteLength":33984,
			"byteOffset":33984,
			"target":34962
		},
		{
			"buffer":0,
			"byteLength":22656,
			"byteOffset":67968,
			"target":34962
		},
		{
			"buffer":0,
			"byteLength":22656,
			"byteOffset":90624,
			"target":34962
		},
		{
			"buffer":0,
			"byteLength":22950,
			"byteOffset":113280,
			"target":34963
		},
		{
			"buffer":0,
			"byteLength":100776,
			"byteOffset":136232,
			"target":34962
		},
		{
			"buffer":0,
			"byteLength":100776,
			"byteOffset":237008,
			"target":34962
		},
		{
			"buffer":0,
			"byteLength":67184,
			"byteOffset":337784,
			"target":34962
		},
		{
			"buffer":0,
			"byteLength":67184,
			"byteOffset":404968,
			"target":34962
		},
		{
			"buffer":0,
			"byteLength":37902,
			"byteOffset":472152,
			"target":34963
		}
	],
	"buffers":[
		{
			"byteLength":510056,
			"uri":"pine1.bin"
		}
	]
}
