# Blender 5.1.2
# www.blender.org
mtllib rock 4.mtl
o Procedural_rocks_bake2.002
v 0.745981 -0.624123 2.380997
v 0.327516 -0.305291 2.869099
v 0.646469 0.457262 2.376985
v 0.419022 0.258817 2.688704
v 0.021089 0.174792 2.860451
v -0.119727 -0.554739 2.893542
v 0.236008 -0.706500 2.818772
v 0.850213 -0.640810 2.086831
v 0.701277 0.427883 2.021432
v 0.522268 0.588985 2.492955
v -0.305874 0.192047 2.745042
v -0.439640 -0.419148 2.724659
v 0.190829 -1.175009 2.650209
v 0.666739 -1.388462 2.288976
v 0.907166 -1.125992 1.955918
v 0.964692 -0.490059 1.269222
v 0.864843 0.301496 1.634434
v 0.349419 1.333481 2.720107
v -0.700260 0.011791 2.542512
v -0.279041 -1.284770 2.651941
v 0.139294 -1.535943 2.542594
v 0.669465 1.257326 2.497525
v -0.315031 0.890084 2.670947
v -0.943939 0.283215 2.052995
v -0.726326 -0.818169 2.313647
v -0.523737 -1.274160 2.553463
v 0.398761 -1.656983 1.999500
v 0.870138 -1.454227 1.423232
v 1.011306 -1.082785 1.311045
v 0.938350 -0.717399 0.965181
v 0.761768 0.595881 1.291506
v 0.862477 0.856882 1.570481
v 0.736456 -0.018313 0.700413
v 0.798402 1.465849 2.208499
v -0.097359 -1.727300 2.332731
v 0.895653 -1.014510 0.604048
v 0.921881 -0.631001 -0.082879
v 0.908561 1.469729 1.686101
v 0.318737 1.699504 2.505694
v -0.015672 1.449167 2.659785
v -0.585245 1.267723 2.321108
v 0.584710 1.664719 1.976490
v -0.721347 0.794384 2.181944
v -1.146266 0.520910 1.402465
v -0.898508 -0.677019 1.432902
v -0.497397 -1.546180 2.111246
v -0.184214 -1.801185 1.901664
v 0.211974 -1.748867 1.105598
v 0.579843 -1.687585 1.325155
v 0.962908 -0.333172 0.008992
v 0.811517 1.114989 1.092579
v 0.970759 0.293954 -0.016907
v 0.308339 1.726997 2.126904
v -0.377272 1.525332 2.325877
v -0.850289 -1.037218 1.788638
v 0.471173 -1.759470 0.607826
v 0.828797 -1.239782 0.005938
v 0.819317 1.428877 1.237235
v 1.077073 0.012423 -0.292545
v -0.059776 1.700619 2.210767
v -0.940792 1.212490 1.401546
v 0.486979 1.606444 1.238646
v -0.995978 0.838258 1.281997
v 0.989397 -0.890447 -0.394145
v 1.014574 -0.268961 -0.634677
v 0.881485 1.016873 0.470854
v 0.789746 1.419708 0.540742
v 0.958494 0.598968 -0.021935
v -0.261805 1.661940 1.605059
v -0.681791 1.581292 1.559536
v -1.094956 0.084669 1.261391
v -0.733216 -0.825897 0.688093
v -0.646371 -1.259654 1.203465
v -0.437808 -1.600778 1.286774
v -0.175149 -1.745556 1.005345
v 0.170813 -1.851321 0.624313
v 0.523262 -1.696887 0.213883
v 1.016955 -0.440102 -1.105475
v 0.925303 0.181295 -0.993988
v -0.247344 1.745359 1.336044
v 0.421078 1.754787 0.544670
v -0.831258 0.672887 0.490472
v -0.938519 -0.264484 0.610991
v -0.742462 -0.864233 0.122028
v 0.010144 -1.860862 0.367034
v 0.719611 -1.392801 -0.539663
v 0.904579 -1.111376 -0.915787
v 1.018919 -0.807044 -1.248212
v 0.604734 1.313409 -0.049363
v 0.894807 0.913777 -0.650554
v 0.916021 -0.175999 -1.507692
v -0.752030 1.533190 1.091100
v -0.766983 1.205578 0.235501
v -0.924189 -0.151263 -0.225819
v -0.532297 -1.696664 0.345873
v 0.416518 -1.605386 -0.475708
v 0.846351 0.519350 -1.008266
v -0.516687 1.593159 0.756437
v 0.005654 1.788039 0.281586
v -0.720072 -1.383612 0.196039
v -0.078458 -1.631268 -0.438066
v 0.696878 -1.448380 -1.468794
v 0.916927 -0.748519 -2.239352
v 0.906067 -0.454698 -1.918646
v 0.436401 1.475552 -0.615271
v 0.220212 1.633885 -0.297979
v 0.960111 0.257696 -1.555665
v -0.325281 1.777457 0.217575
v -0.807736 0.804262 -0.004385
v -1.112735 0.649476 -0.985025
v -0.924784 0.230305 -0.158758
v -1.099884 0.107501 -0.700077
v -0.824829 -0.831409 -0.906375
v 0.323662 -1.633400 -0.966151
v 0.850368 -0.133975 -2.191684
v 0.650087 1.386070 -0.934997
v 0.807280 0.955727 -1.360969
v 0.053464 1.808020 -0.854089
v -0.926795 1.220620 -0.419042
v -0.884309 -0.388316 -1.125718
v -0.578166 -1.522305 -0.498513
v -0.063261 -1.809252 -1.418951
v 0.272765 -1.720495 -1.658732
v 0.879034 -1.187865 -1.655823
v 0.718919 -1.188936 -2.470599
v 0.776323 -0.848383 -2.590875
v 0.619112 -0.118224 -2.549186
v 0.786461 1.446660 -1.372468
v -0.403073 1.796070 -0.239771
v 0.805767 0.669140 -2.261198
v -0.633663 1.612166 -0.288799
v -1.149373 0.272729 -1.050678
v 0.288940 -1.618651 -2.351513
v 0.472615 -0.919944 -2.742404
v 0.709770 1.666185 -1.444587
v 0.619636 0.798744 -2.553128
v -0.923306 1.325507 -0.976295
v -1.058672 0.286951 -1.571083
v -0.904753 -0.192061 -2.027699
v -0.743297 -1.635935 -1.374069
v -0.513479 -1.745569 -1.635177
v 0.492859 -1.257324 -2.696355
v 0.001127 -0.918844 -2.837277
v 0.286256 0.479351 -2.657475
v -0.709544 1.553353 -1.398907
v -0.901442 0.844606 -1.844252
v -0.771296 -1.002062 -2.234848
v -0.475552 -1.609241 -2.310483
v 0.023190 -1.301129 -2.729863
v -0.309634 -0.911077 -2.798374
v 0.365804 1.843738 -1.647246
v -0.250994 1.791394 -1.065452
v -0.108946 0.476725 -2.683562
v -0.418329 -0.144786 -2.689916
v -0.723226 1.325195 -2.008149
v -0.747816 -0.418529 -2.505921
v -0.772642 -1.174619 -1.749835
v -0.506901 -1.167229 -2.612249
v 0.016790 1.785917 -1.691862
v 0.601437 1.366025 -2.211833
v 0.227195 1.265362 -2.587994
v -0.610731 1.563633 -1.972106
v -0.281492 1.696128 -2.231068
v -0.099069 1.260221 -2.677512
v -0.640825 0.167924 -2.417943
v -0.647631 1.127560 -2.303806
v -0.414435 1.373264 -2.497874
vn 0.3705 -0.2854 0.8839
vn 0.8339 -0.0419 0.5503
vn 0.4554 -0.0087 0.8903
vn -0.2008 -0.1140 0.9730
vn 0.9618 0.0793 0.2621
vn 0.9403 -0.1936 0.2800
vn -0.4019 0.0749 0.9126
vn -0.7477 0.0461 0.6625
vn -0.5741 -0.0457 0.8175
vn 0.3306 -0.2992 0.8951
vn 0.2349 -0.6230 0.7461
vn 0.6739 -0.5056 0.5388
vn -0.4933 0.1805 0.8509
vn 0.9907 0.1271 -0.0478
vn 0.9884 -0.1504 -0.0202
vn 0.3006 0.2385 0.9234
vn 0.6292 -0.0127 0.7771
vn 0.7520 0.1134 0.6493
vn -0.9209 0.0662 0.3842
vn -0.9033 -0.1606 0.3979
vn -0.6432 -0.4709 0.6038
vn -0.2471 -0.4518 0.8572
vn -0.1337 -0.8814 0.4531
vn 0.9869 0.1058 -0.1220
vn 0.9885 -0.0660 0.1357
vn 0.9955 0.0810 0.0490
vn 0.8396 0.4261 0.3369
vn 0.9969 -0.0784 -0.0043
vn 0.8893 0.4570 -0.0184
vn 0.3372 0.9382 0.0785
vn -0.7720 0.3325 0.5417
vn -0.8537 0.1833 0.4874
vn -0.7191 -0.6535 0.2366
vn 0.3926 -0.8963 0.2062
vn 0.0883 -0.9927 0.0822
vn 0.4085 -0.9095 0.0773
vn 0.8094 -0.5858 0.0413
vn 0.5487 -0.8356 -0.0270
vn 0.1915 0.8359 0.5144
vn 0.0492 0.9621 -0.2681
vn -0.2408 0.9558 0.1684
vn -0.9507 0.2926 0.1025
vn -0.9575 0.2863 -0.0344
vn -0.9844 0.1684 0.0506
vn -0.9840 -0.1558 -0.0864
vn -0.9706 -0.2408 -0.0040
vn -0.9913 -0.1258 -0.0384
vn 0.9997 -0.0164 -0.0156
vn 0.8503 0.5093 -0.1330
vn 0.8520 0.5082 -0.1260
vn 0.9976 -0.0178 0.0673
vn 0.9511 -0.1563 0.2663
vn 0.9995 -0.0143 -0.0274
vn -0.0939 0.9847 0.1471
vn 0.3343 0.9423 0.0150
vn -0.6921 -0.7215 0.0177
vn -0.2268 -0.9706 0.0804
vn -0.2378 -0.9690 0.0666
vn 0.5726 -0.8097 -0.1286
vn 0.8979 -0.4402 0.0058
vn 0.9741 -0.2047 0.0957
vn 0.9966 0.0434 -0.0694
vn 0.3834 0.9226 -0.0427
vn -0.9814 -0.1903 -0.0254
vn -0.9682 -0.2493 -0.0188
vn 0.0836 -0.9948 0.0590
vn 0.7209 -0.6923 0.0317
vn 0.9192 -0.3933 0.0218
vn -0.0819 0.9903 0.1119
vn -0.9865 0.1174 -0.1145
vn -0.9799 -0.1718 0.1017
vn -0.6855 0.7213 -0.0992
vn -0.9383 0.3438 0.0377
vn 0.6761 -0.7288 -0.1079
vn 0.9927 -0.1187 0.0220
vn 0.8644 -0.4906 -0.1101
vn 0.6244 0.7806 -0.0292
vn 0.0508 0.9950 0.0863
vn -0.4576 0.8831 -0.1036
vn -0.9856 0.0892 0.1435
vn -0.9838 0.0749 0.1628
vn -0.9575 -0.2868 -0.0309
vn -0.7083 -0.7047 0.0427
vn -0.6005 -0.7996 -0.0059
vn 0.6722 0.7328 0.1060
vn 0.9384 0.3447 -0.0256
vn 0.7904 0.5514 0.2669
vn 0.9807 0.1570 -0.1165
vn 0.9896 0.1437 0.0117
vn 0.9877 0.1302 -0.0871
vn 0.9969 0.0742 -0.0265
vn 0.9988 0.0175 -0.0451
vn 0.9917 0.0869 -0.0952
vn -0.9307 0.3140 0.1874
vn -0.9829 0.1842 -0.0073
vn -0.9806 -0.1267 0.1498
vn 0.3584 -0.9301 0.0802
vn 0.4074 -0.9106 -0.0693
vn 0.9661 -0.0404 -0.2552
vn 0.7764 -0.4820 -0.4061
vn 0.2467 0.9652 0.0868
vn -0.3836 0.9110 0.1515
vn -0.7139 0.6930 0.1003
vn -0.9669 -0.2340 -0.1013
vn -0.9936 -0.1040 -0.0452
vn 0.0337 -0.9988 0.0367
vn -0.0605 -0.9971 -0.0456
vn 0.3079 -0.8757 -0.3720
vn 0.7525 0.6581 0.0275
vn 0.9669 0.2358 0.0978
vn 0.9326 0.1333 -0.3355
vn -0.8864 0.4545 -0.0882
vn -0.9769 -0.0148 -0.2133
vn -0.9759 -0.2103 0.0576
vn -0.7683 -0.6397 -0.0211
vn -0.7076 0.6970 -0.1161
vn -0.4559 -0.8786 -0.1422
vn 0.0271 -0.0843 -0.9961
vn -0.3398 -0.1145 -0.9335
vn -0.4136 0.1572 -0.8968
vn -0.9502 0.1891 -0.2478
vn -0.9682 -0.0378 -0.2474
vn -0.9323 -0.2464 -0.2647
vn -0.9663 -0.2319 -0.1120
vn -0.8006 0.0330 -0.5982
vn -0.7362 0.1583 -0.6580
vn -0.5007 -0.7553 -0.4228
vn -0.0424 -0.5216 -0.8521
vn -0.6080 -0.3563 -0.7095
vn 0.2597 0.9488 -0.1801
vn 0.6804 0.5586 -0.4744
vn -0.2154 0.9749 -0.0563
vn -0.2029 0.8832 -0.4229
vn -0.8814 0.3610 -0.3047
vn -0.8130 0.1963 -0.5482
vn -0.5346 0.4234 -0.7314
vn -0.6656 0.7135 -0.2189
vn -0.0614 0.3441 -0.9369
vn 0.9701 -0.0056 0.2428
vn 0.0033 0.1315 0.9913
vn 0.8947 0.0060 0.4466
vn 0.5523 0.2424 0.7976
vn 0.9906 0.1025 0.0901
vn 0.9892 -0.0302 -0.1434
vn -0.2881 0.4815 0.8277
vn 0.9618 -0.2638 -0.0728
vn 0.9449 0.0302 0.3260
vn -0.9536 -0.2848 0.0975
vn 0.9779 0.1834 0.1002
vn -0.6002 0.7811 0.1723
vn -0.5262 0.7188 0.4544
vn -0.9108 -0.4116 -0.0305
vn 0.9764 0.2097 -0.0524
vn -0.0605 -0.9956 -0.0710
vn 0.7975 0.5846 -0.1493
vn 0.3671 -0.9286 -0.0538
vn 0.9354 0.0590 -0.3485
vn 0.6698 0.0932 -0.7367
vn -0.3693 0.9291 0.0217
vn 0.7415 -0.0735 -0.6669
vn 0.3562 -0.0598 -0.9325
vn 0.4413 -0.4321 -0.7865
vn 0.1904 0.0733 -0.9790
vn 0.6134 0.1730 -0.7706
vn -0.2546 0.9654 -0.0567
vn 0.3290 0.4798 -0.8134
vn -0.1866 0.0918 -0.9781
vt 0.052887 0.709240
vt 0.064264 0.695305
vt 0.079669 0.723301
vt 0.825103 0.779972
vt 0.842943 0.768838
vt 0.848663 0.789582
vt 0.061743 0.677777
vt 0.039115 0.672845
vt 0.813484 0.820668
vt 0.793510 0.810481
vt 0.808318 0.787202
vt 0.841829 0.749004
vt 0.839618 0.730037
vt 0.861975 0.735770
vt 0.815832 0.858180
vt 0.068857 0.638400
vt 0.037601 0.637785
vt 0.851798 0.881194
vt 0.854639 0.842822
vt 0.867721 0.877023
vt 0.375181 0.707687
vt 0.399193 0.685635
vt 0.411424 0.709014
vt 0.457992 0.693009
vt 0.435679 0.717365
vt 0.480356 0.704692
vt 0.820616 0.739701
vt 0.824272 0.718492
vt 0.057323 0.619126
vt 0.057962 0.563049
vt 0.094041 0.604457
vt 0.175518 0.685421
vt 0.142274 0.652611
vt 0.175989 0.655929
vt 0.186839 0.673811
vt 0.345627 0.699015
vt 0.364614 0.690770
vt 0.493668 0.680989
vt 0.825277 0.036036
vt 0.833442 0.085120
vt 0.814101 0.072605
vt 0.019079 0.644190
vt 0.006915 0.640779
vt 0.003458 0.602840
vt 0.847385 0.430845
vt 0.848400 0.449740
vt 0.829702 0.447217
vt 0.342390 0.649352
vt 0.363183 0.642058
vt 0.382156 0.648087
vt 0.419615 0.604759
vt 0.444411 0.645559
vt 0.405374 0.640732
vt 0.817528 0.111213
vt 0.152624 0.621937
vt 0.172891 0.594661
vt 0.173089 0.632083
vt 0.094273 0.548793
vt 0.075558 0.566804
vt 0.073855 0.532531
vt 0.863096 0.457697
vt 0.820096 0.477502
vt 0.859432 0.497279
vt 0.877231 0.496506
vt 0.875876 0.516172
vt 0.868936 0.076247
vt 0.856595 0.042842
vt 0.872770 0.031758
vt 0.854288 0.091213
vt 0.006111 0.580899
vt 0.030338 0.578433
vt 0.046464 0.546803
vt 0.066535 0.503492
vt 0.189504 0.596073
vt 0.185150 0.619059
vt 0.451349 0.577602
vt 0.451487 0.604549
vt 0.835464 0.111367
vt 0.021674 0.538981
vt 0.035599 0.517736
vt 0.858612 0.533368
vt 0.819846 0.496261
vt 0.370977 0.598023
vt 0.415826 0.565569
vt 0.325997 0.633687
vt 0.341247 0.584988
vt 0.015590 0.489550
vt 0.050233 0.499122
vt 0.030412 0.479160
vt 0.854702 0.580267
vt 0.839111 0.550432
vt 0.328624 0.596358
vt 0.361218 0.572837
vt 0.390237 0.561207
vt 0.478073 0.578295
vt 0.486434 0.539791
vt 0.496551 0.585250
vt 0.175473 0.535475
vt 0.143100 0.528469
vt 0.169151 0.516714
vt 0.126843 0.511205
vt 0.145240 0.492157
vt 0.103965 0.510378
vt 0.107301 0.481419
vt 0.085792 0.483937
vt 0.069653 0.462453
vt 0.337865 0.551070
vt 0.367376 0.518447
vt 0.396987 0.534367
vt 0.804142 0.223288
vt 0.827902 0.200803
vt 0.823501 0.235011
vt 0.048428 0.446766
vt 0.031492 0.435318
vt 0.858783 0.596061
vt 0.847085 0.610572
vt 0.312119 0.586619
vt 0.320652 0.558909
vt 0.423327 0.509620
vt 0.390870 0.514063
vt 0.871960 0.173191
vt 0.843483 0.221760
vt 0.844929 0.168028
vt 0.791815 0.232557
vt 0.799336 0.276826
vt 0.823168 0.271427
vt 0.182425 0.487618
vt 0.164065 0.490575
vt 0.130564 0.447628
vt 0.331327 0.521307
vt 0.381393 0.483605
vt 0.446400 0.517336
vt 0.487009 0.492885
vt 0.880121 0.220336
vt 0.864594 0.615219
vt 0.878466 0.641789
vt 0.321179 0.505660
vt 0.864358 0.234941
vt 0.347415 0.860351
vt 0.328020 0.858981
vt 0.323268 0.817545
vt 0.356837 0.474290
vt 0.412245 0.463121
vt 0.452978 0.448619
vt 0.469792 0.477010
vt 0.421627 0.434583
vt 0.394746 0.442788
vt 0.862633 0.272264
vt 0.835538 0.291232
vt 0.342270 0.882569
vt 0.314057 0.872126
vt 0.306662 0.830647
vt 0.863235 0.654080
vt 0.874082 0.683446
vt 0.485029 0.440760
vt 0.843931 0.656774
vt 0.830016 0.686289
vt 0.331845 0.465275
vt 0.339556 0.448256
vt 0.462167 0.429006
vt 0.315251 0.798581
vt 0.321299 0.748115
vt 0.332462 0.738212
vt 0.816299 0.692773
vt 0.810474 0.674053
vt 0.343546 0.725733
vt 0.350328 0.743759
vt 0.852171 0.017774
vt 0.120012 0.672945
vt 0.832543 0.819414
vt 0.122396 0.694556
vt 0.132239 0.705498
vt 0.112926 0.713195
vt 0.854015 0.823376
vt 0.867721 0.755444
vt 0.112541 0.654534
vt 0.165351 0.700937
vt 0.023903 0.691688
vt 0.803082 0.741217
vt 0.811032 0.020635
vt 0.836876 0.006834
vt 0.797205 0.068635
vt 0.189863 0.698600
vt 0.172932 0.712655
vt 0.129247 0.634396
vt 0.856545 0.004711
vt 0.831344 0.888119
vt 0.867477 0.439631
vt 0.040369 0.599984
vt 0.112094 0.567404
vt 0.848689 0.900229
vt 0.799891 0.876120
vt 0.465569 0.663013
vt 0.828465 0.421921
vt 0.880109 0.472069
vt 0.130370 0.563191
vt 0.324900 0.659118
vt 0.326231 0.689504
vt 0.495010 0.636333
vt 0.479168 0.632236
vt 0.812453 0.442115
vt 0.151957 0.590648
vt 0.845148 0.132962
vt 0.166414 0.563349
vt 0.796719 0.483342
vt 0.872222 0.127397
vt 0.817904 0.170625
vt 0.800637 0.149841
vt 0.814720 0.132866
vt 0.793638 0.508912
vt 0.811657 0.526603
vt 0.818156 0.555248
vt 0.802239 0.173241
vt 0.086544 0.445690
vt 0.179663 0.551690
vt 0.088313 0.430314
vt 0.817537 0.579888
vt 0.048481 0.427558
vt 0.381289 0.821692
vt 0.385107 0.861863
vt 0.368018 0.863996
vt 0.377066 0.878116
vt 0.810292 0.290119
vt 0.364542 0.787585
vt 0.384289 0.772292
vt 0.827861 0.625570
vt 0.367543 0.882384
vt 0.802284 0.583485
vt 0.168256 0.447045
vt 0.495835 0.477472
vt 0.805423 0.635059
vt 0.137409 0.428951
vt 0.368501 0.745344
vt 0.343372 0.785691
vt 0.315424 0.468166
vt 0.316274 0.895783
vt 0.375464 0.739377
vt 0.857532 0.704770
vt 0.873571 0.011891
vt 0.813226 0.892911
vt 0.308309 0.561753
vt 0.839796 0.710751
vt 0.322613 0.448803
s 1
usemtl Default_OBJ
f 7/1/1 1/2/2 2/3/3
f 6/4/4 7/5/1 2/6/3
f 8/7/5 1/2/2 15/8/6
f 11/9/7 19/10/8 12/11/9
f 13/12/10 21/13/11 14/14/12
f 11/9/7 23/15/13 19/10/8
f 16/16/14 15/8/6 29/17/15
f 18/18/16 10/19/17 22/20/18
f 23/21/13 24/22/19 19/23/8
f 24/22/19 25/24/20 19/23/8
f 12/25/9 25/24/20 26/26/21
f 20/27/22 35/28/23 21/13/11
f 30/29/24 37/30/25 33/31/26
f 34/32/27 32/33/28 38/34/29
f 42/35/30 34/32/27 38/34/29
f 41/36/31 43/37/32 23/21/13
f 26/26/21 25/24/20 46/38/33
f 27/39/34 48/40/35 49/41/36
f 28/42/37 49/43/36 56/44/38
f 39/45/39 53/46/40 60/47/41
f 61/48/42 43/37/32 41/36/31
f 63/49/43 44/50/44 43/37/32
f 83/51/45 45/52/46 71/53/47
f 49/41/36 48/40/35 56/54/38
f 51/55/48 67/56/49 58/57/50
f 59/58/51 50/59/52 65/60/53
f 60/47/41 53/46/40 42/61/30
f 69/62/54 42/61/30 62/63/55
f 61/48/42 63/49/43 43/37/32
f 62/63/55 58/64/50 67/65/49
f 74/66/56 47/67/57 46/68/33
f 75/69/58 48/40/35 47/67/57
f 56/44/38 77/70/59 57/71/60
f 65/60/53 64/72/61 78/73/62
f 67/56/49 81/74/63 62/75/55
f 83/51/45 84/76/64 72/77/65
f 76/78/66 48/40/35 75/69/58
f 64/72/61 57/71/60 86/79/67
f 78/73/62 64/72/61 87/80/68
f 62/63/55 81/81/63 80/82/69
f 82/83/70 44/50/44 63/49/43
f 71/53/47 82/83/70 83/51/45
f 94/84/71 84/76/64 83/51/45
f 92/85/72 93/86/73 61/48/42
f 87/80/68 86/79/67 102/87/74
f 88/88/75 87/80/68 124/89/76
f 106/90/77 99/91/78 81/81/63
f 93/86/73 92/85/72 98/92/79
f 93/86/73 109/93/80 82/83/70
f 111/94/81 82/83/70 109/93/80
f 100/95/82 121/96/83 95/97/84
f 105/98/85 90/99/86 116/100/87
f 90/99/86 97/101/88 117/102/89
f 79/103/90 107/104/91 97/101/88
f 107/104/91 91/105/92 104/106/93
f 109/93/80 93/86/73 119/107/94
f 109/93/80 110/108/95 111/94/81
f 110/108/95 112/109/96 111/94/81
f 111/94/81 112/109/96 94/84/71
f 102/110/74 114/111/97 123/112/98
f 103/113/99 124/89/76 125/114/100
f 105/115/85 118/116/101 106/90/77
f 108/117/102 93/86/73 98/92/79
f 119/107/94 93/86/73 131/118/103
f 110/108/95 109/93/80 119/107/94
f 120/119/104 112/109/96 132/120/105
f 121/121/83 122/122/106 101/123/107
f 123/112/98 124/124/76 102/110/74
f 125/125/100 124/124/76 133/126/108
f 135/127/109 116/100/87 128/128/110
f 117/102/89 107/104/91 130/129/111
f 110/108/95 119/107/94 137/130/112
f 132/120/105 110/108/95 138/131/113
f 121/96/83 113/132/114 140/133/115
f 122/122/106 121/121/83 140/134/115
f 123/112/98 122/122/106 133/126/108
f 123/112/98 133/126/108 124/124/76
f 118/116/101 116/135/87 135/136/109
f 137/130/112 145/137/116 110/108/95
f 138/131/113 110/108/95 145/137/116
f 141/138/117 133/126/108 122/122/106
f 143/139/118 150/140/119 154/141/120
f 145/137/116 146/142/121 138/131/113
f 146/142/121 139/143/122 138/131/113
f 113/132/114 147/144/123 157/145/124
f 156/146/125 139/143/122 165/147/126
f 148/148/127 133/126/108 141/138/117
f 148/148/127 149/149/128 133/126/108
f 143/139/118 149/150/128 150/140/119
f 150/140/119 158/151/129 156/152/125
f 151/153/130 135/136/109 160/154/131
f 165/147/126 139/143/122 146/142/121
f 139/143/122 156/146/125 147/144/123
f 147/144/123 148/155/127 157/145/124
f 159/156/132 151/153/130 163/157/133
f 155/158/134 166/159/135 146/142/121
f 158/160/129 148/155/127 147/144/123
f 163/157/133 151/153/130 160/154/131
f 165/161/126 166/162/135 167/163/136
f 163/157/133 167/164/136 162/165/137
f 163/166/133 164/167/138 167/163/136
f 167/163/136 164/167/138 165/161/126
f 35/168/23 46/68/33 47/67/57
f 9/169/139 1/2/2 8/7/5
f 5/170/140 6/4/4 2/6/3
f 5/170/140 12/11/9 6/4/4
f 3/171/141 10/172/17 4/173/142
f 5/170/140 2/6/3 4/174/142
f 1/175/2 13/12/10 14/14/12
f 5/170/140 10/19/17 18/18/16
f 17/176/143 9/169/139 8/7/5
f 6/4/4 13/12/10 7/5/1
f 22/177/18 3/171/141 34/32/27
f 15/8/6 1/2/2 14/178/12
f 16/16/14 8/7/5 15/8/6
f 17/176/143 8/7/5 16/16/14
f 23/15/13 5/170/140 18/18/16
f 20/27/22 12/11/9 26/179/21
f 19/23/8 25/24/20 12/25/9
f 33/31/26 16/16/14 30/29/24
f 20/27/22 21/13/11 13/12/10
f 14/180/12 21/181/11 27/39/34
f 15/8/6 14/178/12 28/42/37
f 9/169/139 17/176/143 32/33/28
f 32/33/28 3/171/141 9/169/139
f 29/17/15 30/29/24 16/16/14
f 21/181/11 35/168/23 27/39/34
f 27/39/34 28/182/37 14/180/12
f 28/42/37 29/17/15 15/8/6
f 22/177/18 39/183/39 18/184/16
f 32/33/28 17/176/143 31/185/144
f 31/185/144 17/176/143 33/31/26
f 20/186/22 46/68/33 35/168/23
f 40/187/145 23/15/13 18/18/16
f 23/21/13 43/37/32 24/22/19
f 24/22/19 45/52/46 25/24/20
f 34/188/27 53/46/40 39/45/39
f 47/67/57 27/39/34 35/168/23
f 28/182/37 27/39/34 49/41/36
f 28/42/37 36/189/146 29/17/15
f 36/189/146 37/30/25 30/29/24
f 37/30/25 50/59/52 33/31/26
f 32/33/28 31/185/144 51/55/48
f 50/59/52 52/190/147 33/31/26
f 39/191/39 40/187/145 18/18/16
f 40/187/145 41/192/31 23/15/13
f 58/57/50 32/33/28 51/55/48
f 43/37/32 44/50/44 24/22/19
f 45/52/46 24/22/19 71/53/47
f 25/24/20 45/52/46 55/193/148
f 47/67/57 48/40/35 27/39/34
f 28/42/37 56/44/38 36/189/146
f 37/30/25 36/189/146 57/71/60
f 60/47/41 40/194/145 39/45/39
f 51/55/48 31/185/144 33/31/26
f 59/58/51 52/190/147 50/59/52
f 38/195/29 62/63/55 42/61/30
f 37/30/25 65/60/53 50/59/52
f 44/50/44 71/53/47 24/22/19
f 46/38/33 25/24/20 55/193/148
f 36/189/146 56/44/38 57/71/60
f 37/30/25 57/71/60 64/72/61
f 68/196/149 33/31/26 52/190/147
f 70/197/150 41/36/31 54/198/151
f 55/193/148 74/199/56 46/38/33
f 83/51/45 72/77/65 45/52/46
f 45/52/46 73/200/152 55/193/148
f 69/62/54 54/201/151 60/47/41
f 48/40/35 76/78/66 56/54/38
f 66/202/153 51/55/48 68/196/149
f 67/56/49 51/55/48 66/202/153
f 79/103/90 59/58/51 65/60/53
f 85/203/154 56/54/38 76/78/66
f 69/62/54 60/47/41 42/61/30
f 80/82/69 69/62/54 62/63/55
f 71/53/47 44/50/44 82/83/70
f 75/69/58 47/67/57 74/66/56
f 59/58/51 68/196/149 52/190/147
f 89/204/155 67/56/49 66/202/153
f 78/73/62 79/103/90 65/60/53
f 61/48/42 82/83/70 63/49/43
f 69/62/54 80/82/69 70/205/150
f 70/197/150 92/85/72 61/48/42
f 75/69/58 95/206/84 76/78/66
f 73/200/152 45/52/46 72/77/65
f 73/200/152 95/97/84 74/199/56
f 96/207/156 57/208/60 77/209/59
f 79/103/90 90/99/86 59/58/51
f 87/80/68 64/72/61 86/79/67
f 88/88/75 78/73/62 87/80/68
f 91/105/92 78/73/62 88/88/75
f 66/202/153 68/196/149 89/204/155
f 80/82/69 92/210/72 70/205/150
f 83/51/45 111/94/81 94/84/71
f 98/211/79 80/82/69 81/81/63
f 100/95/82 72/77/65 84/76/64
f 101/123/107 77/209/59 85/203/154
f 73/200/152 100/95/82 95/97/84
f 85/203/154 76/78/66 95/206/84
f 88/88/75 104/106/93 91/105/92
f 90/99/86 89/204/155 68/196/149
f 98/211/79 99/91/78 108/212/102
f 107/104/91 79/103/90 91/105/92
f 101/123/107 95/206/84 121/121/83
f 94/84/71 112/109/96 113/132/114
f 114/111/97 86/213/67 96/207/156
f 101/123/107 114/111/97 96/207/156
f 121/96/83 84/76/64 94/84/71
f 124/89/76 87/80/68 102/87/74
f 124/89/76 103/113/99 88/88/75
f 115/214/157 104/106/93 103/113/99
f 105/98/85 106/215/77 89/204/155
f 106/90/77 118/116/101 99/91/78
f 120/119/104 113/132/114 112/109/96
f 103/113/99 127/216/158 115/214/157
f 101/123/107 122/122/106 114/111/97
f 117/102/89 116/100/87 90/99/86
f 129/217/159 99/91/78 118/116/101
f 97/101/88 107/104/91 117/102/89
f 115/214/157 107/104/91 104/106/93
f 108/117/102 131/118/103 93/86/73
f 132/120/105 112/109/96 110/108/95
f 94/84/71 113/132/114 121/96/83
f 123/112/98 114/111/97 122/122/106
f 126/218/160 103/113/99 125/114/100
f 127/219/158 126/220/160 134/221/161
f 105/115/85 116/135/87 118/116/101
f 127/216/158 130/129/111 115/214/157
f 125/222/100 134/221/161 126/220/160
f 133/126/108 142/223/162 125/125/100
f 127/219/158 144/224/163 136/225/164
f 152/226/165 129/217/159 118/116/101
f 128/128/110 117/102/89 130/129/111
f 131/118/103 137/130/112 119/107/94
f 138/131/113 120/119/104 132/120/105
f 120/119/104 147/144/123 113/132/114
f 149/150/128 134/221/161 142/227/162
f 113/132/114 157/145/124 140/133/115
f 141/138/117 122/122/106 140/134/115
f 133/126/108 149/149/128 142/223/162
f 152/226/165 131/228/103 129/217/159
f 151/153/130 118/116/101 135/136/109
f 143/139/118 144/224/163 134/221/161
f 160/229/131 135/127/109 128/128/110
f 159/156/132 118/116/101 151/153/130
f 145/137/116 155/158/134 146/142/121
f 140/133/115 157/145/124 141/230/117
f 145/231/116 159/156/132 162/165/137
f 160/229/131 130/129/111 136/232/164
f 144/224/163 161/233/166 136/225/164
f 153/234/167 143/139/118 154/141/120
f 154/141/120 150/140/119 156/152/125
f 162/235/137 155/158/134 145/137/116
f 166/159/135 165/147/126 146/142/121
f 154/141/120 156/152/125 165/161/126
f 148/155/127 141/230/117 157/145/124
f 158/151/129 149/150/128 148/236/127
f 150/140/119 149/150/128 158/151/129
f 156/146/125 158/160/129 147/144/123
f 161/233/166 153/234/167 164/167/138
f 161/233/166 160/237/131 136/225/164
f 161/238/166 163/157/133 160/154/131
f 154/141/120 165/161/126 153/234/167
f 159/156/132 163/157/133 162/165/137
f 162/235/137 166/159/135 155/158/134
f 165/161/126 164/167/138 153/234/167
f 2/3/3 3/171/141 4/173/142
f 89/204/155 81/74/63 67/56/49
f 130/129/111 160/229/131 128/128/110
f 9/169/139 3/171/141 1/2/2
f 5/170/140 11/9/7 12/11/9
f 1/175/2 7/5/1 13/12/10
f 5/170/140 4/174/142 10/19/17
f 6/4/4 20/27/22 13/12/10
f 22/177/18 10/172/17 3/171/141
f 23/15/13 11/9/7 5/170/140
f 20/27/22 6/4/4 12/11/9
f 33/31/26 17/176/143 16/16/14
f 32/33/28 34/32/27 3/171/141
f 29/17/15 36/189/146 30/29/24
f 22/177/18 34/32/27 39/183/39
f 20/186/22 26/239/21 46/68/33
f 34/188/27 42/61/30 53/46/40
f 40/187/145 54/240/151 41/192/31
f 58/57/50 38/34/29 32/33/28
f 60/47/41 54/201/151 40/194/145
f 38/195/29 58/64/50 62/63/55
f 37/30/25 64/72/61 65/60/53
f 68/196/149 51/55/48 33/31/26
f 70/197/150 61/48/42 41/36/31
f 55/193/148 73/200/152 74/199/56
f 69/62/54 70/205/150 54/201/151
f 85/203/154 77/209/59 56/54/38
f 59/58/51 90/99/86 68/196/149
f 78/73/62 91/105/92 79/103/90
f 61/48/42 93/86/73 82/83/70
f 75/69/58 74/66/56 95/206/84
f 96/207/156 86/213/67 57/208/60
f 79/103/90 97/101/88 90/99/86
f 80/82/69 98/211/79 92/210/72
f 83/51/45 82/83/70 111/94/81
f 100/95/82 73/200/152 72/77/65
f 101/123/107 96/207/156 77/209/59
f 88/88/75 103/113/99 104/106/93
f 90/99/86 105/98/85 89/204/155
f 98/211/79 81/81/63 99/91/78
f 101/123/107 85/203/154 95/206/84
f 114/111/97 102/110/74 86/213/67
f 121/96/83 100/95/82 84/76/64
f 103/113/99 126/218/160 127/216/158
f 117/102/89 128/128/110 116/100/87
f 129/217/159 108/212/102 99/91/78
f 115/214/157 130/129/111 107/104/91
f 108/117/102 129/241/159 131/118/103
f 127/216/158 136/232/164 130/129/111
f 125/222/100 142/227/162 134/221/161
f 127/219/158 134/221/161 144/224/163
f 131/118/103 145/137/116 137/130/112
f 138/131/113 139/143/122 120/119/104
f 120/119/104 139/143/122 147/144/123
f 149/150/128 143/139/118 134/221/161
f 152/226/165 145/231/116 131/228/103
f 143/139/118 153/234/167 144/224/163
f 159/156/132 152/226/165 118/116/101
f 145/231/116 152/226/165 159/156/132
f 161/233/166 144/224/163 153/234/167
f 161/238/166 164/242/138 163/157/133
f 162/235/137 167/243/136 166/159/135
f 2/3/3 1/2/2 3/171/141
f 89/204/155 106/215/77 81/74/63
