# Blender 5.1.2
# www.blender.org
mtllib rock 5.mtl
o Procedural_rocks_bake2.001
v 0.013807 -3.017681 0.966889
v -0.379752 -2.360332 0.916780
v -0.339688 -3.090414 0.978472
v 0.427354 -3.127971 0.718007
v 0.355580 -2.349778 0.718024
v 0.052695 -2.385198 0.982122
v -0.648942 -3.132219 0.728553
v -0.411496 -3.465138 0.766220
v 0.024608 -3.472942 0.815277
v 0.436901 -3.401110 0.648561
v 0.049053 -1.811774 0.758906
v -0.281622 -1.820244 0.776263
v -0.686049 -2.350278 0.699212
v -0.714403 -2.212290 0.334961
v 0.796849 -3.119446 0.167677
v 0.238651 -3.399447 0.355501
v -0.598287 -1.707339 0.415226
v -0.865222 -3.092419 0.143802
v -0.771590 -3.454178 0.120740
v 0.795055 -3.489089 -0.006905
v 0.906206 -3.183073 -0.225023
v 0.341748 -1.695548 0.633852
v -0.265388 -0.998935 0.770764
v -0.841456 -2.700424 -0.250405
v -0.812872 -3.496358 -0.278127
v 0.930196 -2.471394 -0.308849
v 0.735747 -3.198101 -0.581189
v 0.772318 -2.274457 0.186098
v 0.807554 -1.764234 0.148594
v 0.544284 -1.185904 0.692016
v -0.140924 -3.672685 -0.203142
v 0.392225 -3.662905 -0.517629
v -0.783148 -1.346814 0.172574
v 0.108622 -0.733616 0.860603
v -0.823572 -2.085098 -0.070928
v -0.820940 -2.452942 -0.383917
v -0.540181 -2.760765 -0.533411
v -0.388722 -3.574960 0.241206
v 0.674434 -3.546452 -0.540398
v 0.805930 -1.830848 -0.130625
v 0.449690 -3.150551 -0.815099
v -0.947981 -1.227404 -0.164982
v -0.811657 -0.985318 0.230905
v -0.719876 -2.048419 -0.436746
v -0.267442 -2.977706 -0.772112
v -0.655027 -3.449889 -0.542577
v 0.407244 -3.505635 -0.781049
v 0.322665 -2.187523 -0.793962
v 0.076701 -2.827322 -0.891818
v 0.903782 -1.377708 0.193942
v 0.479587 -0.655088 0.701092
v -0.662511 -1.674931 -0.596482
v -0.695959 -0.620284 0.238443
v 0.190874 -0.277083 0.870569
v -0.208743 -0.214564 0.688461
v -0.233265 -2.158479 -0.902713
v 0.842952 -1.267526 0.095535
v 0.648155 -1.702850 -0.499199
v 0.098121 -2.043556 -0.943825
v 0.811121 -0.673107 0.237461
v 0.618011 -0.314530 0.786609
v 0.870244 -0.837769 -0.169944
v 0.467829 -1.757798 -0.764938
v 0.474960 0.067190 0.685805
v -0.741814 0.236190 0.161642
v -0.872410 -0.668103 -0.177651
v -0.296157 -1.676312 -0.786775
v -0.280755 0.583163 0.726905
v 0.155711 0.761746 0.756834
v 0.818667 -0.921511 -0.429092
v 0.594121 -0.904166 -0.617534
v 0.939645 -0.332254 0.086635
v 0.671388 0.238703 0.413688
v -0.424296 -0.675374 -0.645871
v 0.457466 0.851072 0.680652
v -0.829305 0.819678 -0.026253
v -0.756191 -0.241514 -0.474875
v -0.129825 -1.027426 -0.832363
v -0.642202 0.758431 0.513375
v -0.332091 1.390340 0.770413
v 0.797706 0.725673 0.042195
v 0.747454 0.038622 -0.302568
v 0.753544 0.747522 0.423302
v -0.523943 -0.252438 -0.709330
v -0.140037 -0.417039 -0.701804
v 0.009917 1.504004 0.762083
v 0.450910 0.076737 -0.537948
v 0.765474 0.831437 -0.343704
v 0.688264 1.132447 0.323302
v 0.441787 1.423977 0.682913
v -0.696047 1.032131 -0.370617
v -0.858588 1.358046 0.266134
v -0.699476 1.540340 0.622980
v 0.540624 0.793789 -0.543998
v 0.643490 1.594097 0.405592
v -0.481824 1.275441 -0.574389
v -0.144752 0.746064 -0.673859
v -0.168453 2.444166 0.919679
v 0.238908 2.172120 0.916969
v 0.686571 1.311150 -0.332047
v 0.707707 1.687557 0.043687
v 0.602912 2.195821 0.784117
v -0.810685 1.941932 0.330840
v -0.408434 2.444183 0.725927
v 0.254855 1.068166 -0.697850
v 0.795767 2.226151 0.474322
v -0.687187 1.870207 -0.452883
v -0.147481 2.847024 0.856895
v 0.620203 1.966707 -0.391929
v 0.495419 1.742849 -0.741857
v 0.778102 2.260199 0.284156
v -0.889676 2.476514 -0.327985
v -0.531655 2.700905 0.436910
v -0.051205 3.433302 0.882924
v 0.708773 2.894604 0.020537
v 0.385185 3.054625 0.700063
v -0.112633 1.834003 -0.891319
v -0.483696 1.994210 -0.749178
v -0.315452 3.504988 0.709105
v 0.795530 2.639522 -0.307578
v 0.594418 2.622948 -0.490372
v 0.224919 1.873972 -0.934748
v 0.143646 3.645322 0.708052
v -0.752636 3.206274 -0.315840
v -0.596768 3.677047 0.118935
v 0.217563 2.445504 -0.791275
v 0.819484 3.340023 -0.316261
v 0.517112 3.693772 0.291910
v -0.078894 3.812922 0.556922
v -0.675082 2.871708 -0.567432
v 0.269168 3.879034 0.156456
v -0.364922 3.925011 0.078914
v 0.226073 2.861239 -0.793748
v 0.579750 3.386279 -0.707264
v 0.690238 3.684462 -0.287468
v -0.017872 4.005467 -0.155813
v -0.687577 3.257134 -0.595245
v -0.547303 3.772152 -0.230422
v 0.121981 3.314648 -0.884169
v -0.353108 3.677540 -0.607388
v 0.307282 3.967965 -0.446442
vn 0.6814 0.0874 0.7267
vn 0.2687 -0.1086 0.9571
vn 0.6625 -0.0744 0.7454
vn -0.3676 0.1550 0.9170
vn -0.8004 -0.1904 0.5684
vn -0.2841 -0.1649 0.9445
vn 0.2854 0.1272 0.9499
vn -0.8547 0.1223 0.5044
vn 0.8980 -0.0743 0.4336
vn 0.1906 -0.9752 0.1123
vn 0.5075 -0.6773 0.5326
vn 0.2106 -0.7497 0.6274
vn -0.9707 0.0584 0.2329
vn -0.9841 -0.0597 0.1672
vn -0.7311 -0.6457 0.2203
vn -0.3728 -0.7330 0.5690
vn 0.8967 0.0220 0.4421
vn 0.6713 -0.6995 0.2449
vn -0.3529 0.2167 0.9102
vn 0.2245 0.1081 0.9685
vn -0.4854 0.0259 0.8739
vn -0.7673 0.1227 0.6294
vn 0.5722 -0.1314 0.8095
vn 0.6182 -0.0905 0.7808
vn -0.0356 -0.9986 -0.0402
vn -0.9535 -0.0333 -0.2995
vn -0.9994 -0.0350 0.0086
vn -0.6728 -0.0617 -0.7373
vn -0.7708 -0.5872 -0.2472
vn -0.1970 -0.9668 0.1627
vn 0.9866 0.0878 -0.1375
vn 0.9613 0.0795 -0.2638
vn 0.9830 -0.1681 -0.0746
vn 0.7702 -0.0812 -0.6326
vn 0.9416 -0.1065 0.3193
vn 0.0210 -0.0019 0.9998
vn 0.0688 -0.9757 -0.2079
vn 0.6608 -0.6344 -0.4010
vn -0.8750 -0.0367 -0.4827
vn -0.5772 -0.4628 -0.6728
vn 0.9945 0.0776 0.0697
vn -0.8388 -0.0420 0.5428
vn -0.9912 0.0074 -0.1323
vn -0.8160 0.1239 0.5646
vn -0.8467 0.0551 0.5292
vn 0.3525 -0.0576 -0.9340
vn -0.3991 -0.1379 -0.9065
vn -0.0138 -0.1554 -0.9877
vn 0.9980 0.0624 0.0084
vn 0.9158 -0.1331 0.3790
vn 0.5726 -0.0314 -0.8193
vn 0.1604 0.0270 -0.9867
vn 0.6316 -0.0368 -0.7744
vn 0.5967 -0.0225 0.8022
vn 0.9963 0.0218 0.0826
vn -0.0084 0.0205 0.9998
vn 0.5252 0.2227 0.8213
vn 0.1094 0.0226 0.9937
vn -0.8721 -0.0686 0.4845
vn -0.9840 0.0543 -0.1697
vn -0.5631 -0.0085 0.8263
vn 0.8607 -0.0046 -0.5091
vn 0.4856 0.0922 -0.8693
vn 0.8632 -0.0290 -0.5041
vn -0.9995 -0.0001 -0.0320
vn -0.4477 0.0361 -0.8934
vn -0.5063 -0.0040 -0.8623
vn -0.1133 0.1334 -0.9846
vn -0.3448 -0.0371 0.9379
vn -0.7656 -0.1375 0.6284
vn -0.2311 -0.0748 0.9700
vn 0.9949 -0.0861 -0.0518
vn 0.8493 0.0929 0.5197
vn 0.9957 0.0827 0.0426
vn 0.8260 0.0701 -0.5592
vn -0.8325 -0.0467 -0.5520
vn 0.0537 0.0520 -0.9972
vn 0.0815 -0.1132 0.9902
vn 0.4440 0.0124 -0.8960
vn -0.6973 -0.0147 0.7167
vn -0.4082 -0.0696 -0.9103
vn -0.1195 -0.0027 -0.9928
vn -0.8670 0.0588 -0.4948
vn -0.9954 -0.0097 0.0957
vn 0.9309 -0.1113 0.3479
vn 0.9394 0.1157 0.3228
vn 0.9992 -0.0284 -0.0269
vn -0.5752 -0.0798 -0.8141
vn -0.9599 0.1027 0.2609
vn -0.7107 0.1597 0.6851
vn 0.1574 -0.0667 0.9853
vn -0.4511 0.0580 0.8906
vn -0.2905 0.0569 0.9552
vn 0.9608 0.0489 -0.2729
vn 0.9563 -0.0281 -0.2909
vn 0.5610 -0.0573 -0.8259
vn 0.7352 -0.0272 -0.6773
vn 0.2239 -0.1638 -0.9607
vn 0.6806 0.0319 0.7319
vn 0.7074 0.1856 0.6820
vn -0.8935 -0.1389 -0.4270
vn -0.8577 0.1676 0.4861
vn -0.2418 -0.0227 -0.9701
vn -0.5287 -0.0176 -0.8486
vn -0.9801 0.0309 -0.1961
vn -0.6290 0.3659 0.6859
vn 0.6799 -0.0492 -0.7316
vn 0.2357 0.0190 -0.9716
vn -0.0512 0.3387 0.9395
vn 0.3455 0.5774 0.7398
vn -0.8588 0.4226 0.2896
vn 0.9941 0.0685 0.0842
vn 0.9408 -0.0460 -0.3360
vn 0.9423 0.1127 0.3152
vn 0.9853 0.1253 -0.1157
vn 0.2214 0.1322 -0.9662
vn -0.6223 0.0480 -0.7813
vn -0.9851 0.1718 -0.0048
vn 0.8064 0.5816 -0.1072
vn 0.7314 0.5354 0.4224
vn 0.1759 -0.1236 -0.9766
vn -0.7419 0.1545 -0.6524
vn -0.4172 0.8892 0.1877
vn -0.6991 0.6791 -0.2240
vn 0.6117 0.1919 -0.7675
vn -0.0005 0.1331 -0.9911
vn 0.2699 0.8709 -0.4106
vn -0.0858 0.9955 -0.0402
vn -0.3854 0.6035 -0.6981
vn -0.8493 0.0551 -0.5250
vn 0.1690 -0.5273 -0.8327
vn -0.6837 -0.0984 -0.7231
vn 0.5704 -0.1464 0.8082
vn -0.4102 0.0217 -0.9118
vn 0.5201 0.0358 0.8533
vn 0.5514 -0.1037 0.8278
vn 0.8836 0.0403 0.4664
vn 0.8971 0.0679 -0.4366
vn 0.8428 0.4743 0.2544
vn 0.3259 0.9067 0.2679
vn -0.1236 0.8274 0.5478
vt 0.518193 0.761564
vt 0.533957 0.798708
vt 0.517021 0.802492
vt 0.558475 0.763615
vt 0.570392 0.805377
vt 0.555194 0.803030
vt 0.534106 0.764832
vt 0.574415 0.763320
vt 0.614282 0.434584
vt 0.645626 0.430936
vt 0.614707 0.476071
vt 0.812944 0.349327
vt 0.796080 0.355594
vt 0.791837 0.332736
vt 0.269372 0.489922
vt 0.248474 0.497736
vt 0.270422 0.447414
vt 0.237405 0.450822
vt 0.237719 0.430486
vt 0.268975 0.428970
vt 0.646096 0.475308
vt 0.825949 0.380589
vt 0.552590 0.734247
vt 0.533815 0.733862
vt 0.550236 0.690085
vt 0.259171 0.524652
vt 0.519301 0.727973
vt 0.509830 0.700621
vt 0.847689 0.338128
vt 0.219737 0.471107
vt 0.228323 0.505655
vt 0.201770 0.468535
vt 0.217347 0.429439
vt 0.827384 0.316597
vt 0.662090 0.500604
vt 0.669582 0.467208
vt 0.666669 0.426954
vt 0.685425 0.426886
vt 0.507979 0.728891
vt 0.528721 0.675889
vt 0.857499 0.367020
vt 0.854607 0.383270
vt 0.279650 0.654926
vt 0.295417 0.673826
vt 0.278254 0.673826
vt 0.200225 0.430623
vt 0.617571 0.536942
vt 0.646275 0.504816
vt 0.644554 0.524639
vt 0.242207 0.544608
vt 0.224815 0.552437
vt 0.564297 0.668118
vt 0.567603 0.689403
vt 0.767083 0.391170
vt 0.728849 0.380611
vt 0.747559 0.372544
vt 0.708962 0.407669
vt 0.717256 0.369312
vt 0.653227 0.534168
vt 0.246224 0.563987
vt 0.642506 0.562818
vt 0.765836 0.338263
vt 0.749186 0.329978
vt 0.768865 0.314582
vt 0.612342 0.583592
vt 0.651211 0.581239
vt 0.527921 0.650880
vt 0.511795 0.632402
vt 0.532521 0.594968
vt 0.247121 0.630111
vt 0.223954 0.585588
vt 0.246755 0.583152
vt 0.259713 0.621996
vt 0.782473 0.295128
vt 0.773783 0.266143
vt 0.787963 0.269158
vt 0.236981 0.661634
vt 0.726038 0.301619
vt 0.720794 0.255909
vt 0.736155 0.274450
vt 0.551050 0.647806
vt 0.550819 0.604100
vt 0.573841 0.594940
vt 0.554246 0.560744
vt 0.661635 0.553652
vt 0.678508 0.549601
vt 0.633465 0.612946
vt 0.653007 0.638704
vt 0.671390 0.601678
vt 0.209592 0.605778
vt 0.739694 0.237676
vt 0.532814 0.554856
vt 0.769766 0.215561
vt 0.784910 0.217223
vt 0.263377 0.658595
vt 0.574060 0.552621
vt 0.716894 0.232850
vt 0.734821 0.179199
vt 0.217010 0.673647
vt 0.250511 0.691826
vt 0.271893 0.700507
vt 0.634069 0.686274
vt 0.638327 0.660769
vt 0.654074 0.691005
vt 0.720587 0.150445
vt 0.254281 0.721207
vt 0.273735 0.749168
vt 0.528081 0.517947
vt 0.545229 0.481559
vt 0.546286 0.503534
vt 0.673452 0.670680
vt 0.674664 0.706209
vt 0.685089 0.647053
vt 0.692909 0.694752
vt 0.754173 0.161471
vt 0.507157 0.517189
vt 0.516270 0.473679
vt 0.213861 0.719875
vt 0.262101 0.763392
vt 0.736015 0.119793
vt 0.202025 0.701335
vt 0.198144 0.726255
vt 0.220198 0.745189
vt 0.557503 0.483350
vt 0.554386 0.446150
vt 0.689598 0.722612
vt 0.772234 0.124680
vt 0.755426 0.117775
vt 0.540807 0.450189
vt 0.529938 0.438532
vt 0.276652 0.805839
vt 0.247111 0.815408
vt 0.642388 0.735222
vt 0.673688 0.742057
vt 0.655216 0.759921
vt 0.674242 0.779724
vt 0.619622 0.765118
vt 0.717137 0.111470
vt 0.754914 0.086815
vt 0.207659 0.774345
vt 0.224568 0.790950
vt 0.708685 0.063516
vt 0.672376 0.798928
vt 0.641191 0.800009
vt 0.755517 0.058459
vt 0.208423 0.793514
vt 0.121378 0.922299
vt 0.137679 0.937749
vt 0.113858 0.934104
vt 0.707659 0.044011
vt 0.776830 0.035569
vt 0.750222 0.038438
vt 0.759067 0.006291
vt 0.139383 0.907520
vt 0.726023 0.021505
vt 0.801531 0.310527
vt 0.837656 0.297519
vt 0.693248 0.783270
vt 0.677642 0.813519
vt 0.534903 0.823992
vt 0.559178 0.823763
vt 0.518927 0.821535
vt 0.617930 0.416606
vt 0.653838 0.410416
vt 0.274874 0.544541
vt 0.275500 0.517676
vt 0.618625 0.509866
vt 0.681896 0.408180
vt 0.210915 0.486467
vt 0.209267 0.505917
vt 0.565767 0.708312
vt 0.857614 0.301754
vt 0.783595 0.392488
vt 0.764725 0.410497
vt 0.783453 0.341994
vt 0.200311 0.529107
vt 0.511777 0.671517
vt 0.872338 0.372032
vt 0.278232 0.693368
vt 0.293926 0.674395
vt 0.293926 0.693232
vt 0.872279 0.313962
vt 0.677390 0.507703
vt 0.505403 0.652720
vt 0.616116 0.565548
vt 0.729274 0.336288
vt 0.714292 0.351600
vt 0.715692 0.333159
vt 0.780022 0.314582
vt 0.710205 0.309056
vt 0.694149 0.505615
vt 0.693143 0.525151
vt 0.617624 0.604586
vt 0.617455 0.647066
vt 0.513349 0.589922
vt 0.703013 0.235050
vt 0.514290 0.558521
vt 0.632845 0.640155
vt 0.771783 0.176423
vt 0.786956 0.174277
vt 0.618872 0.678480
vt 0.196036 0.605036
vt 0.201562 0.657097
vt 0.673132 0.644338
vt 0.561705 0.503300
vt 0.612710 0.719042
vt 0.631085 0.719899
vt 0.707087 0.162973
vt 0.707857 0.136261
vt 0.770856 0.076436
vt 0.787938 0.076210
vt 0.781647 0.098441
vt 0.616839 0.799301
vt 0.129036 0.890721
vt 0.098093 0.885903
vt 0.126186 0.875323
vt 0.102002 0.899363
vt 0.090751 0.909497
vt 0.688173 0.760963
vt 0.223307 0.817537
vt 0.158403 0.875736
vt 0.155801 0.933728
vt 0.159192 0.898939
vt 0.569358 0.745308
vt 0.780469 0.411507
vt 0.281146 0.674526
vt 0.707962 0.273966
vt 0.708239 0.254418
vt 0.542221 0.429660
vt 0.208286 0.811418
s 1
usemtl Default_OBJ
f 5/1/1 1/2/2 4/3/3
f 2/4/4 7/5/5 3/6/6
f 5/1/1 6/7/7 1/2/2
f 7/5/5 2/4/4 13/8/8
f 4/9/3 15/10/9 5/11/1
f 16/12/10 10/13/11 9/14/12
f 13/15/8 14/16/13 7/17/5
f 14/16/13 18/18/14 7/17/5
f 7/17/5 19/19/15 8/20/16
f 28/21/17 5/11/1 15/10/9
f 10/13/11 16/12/10 20/22/18
f 12/23/19 11/24/20 23/25/21
f 17/26/22 14/16/13 13/15/8
f 11/24/20 22/27/23 30/28/24
f 31/29/25 16/12/10 9/14/12
f 24/30/26 14/16/13 35/31/27
f 24/30/26 37/32/28 25/33/29
f 9/14/12 38/34/30 31/29/25
f 40/35/31 28/21/17 26/36/32
f 26/36/32 21/37/33 27/38/34
f 30/28/24 22/27/23 29/39/35
f 11/24/20 30/28/24 34/40/36
f 31/29/25 32/41/37 16/12/10
f 32/41/37 39/42/38 20/22/18
f 36/43/39 37/44/28 24/45/26
f 46/46/40 25/33/29 37/32/28
f 30/47/24 29/48/35 50/49/41
f 33/50/42 42/51/43 14/16/13
f 23/25/21 53/52/44 43/53/45
f 41/54/46 45/55/47 49/56/48
f 46/57/40 37/58/28 45/55/47
f 57/59/49 30/47/24 50/49/41
f 42/51/43 33/50/42 43/60/45
f 57/59/49 60/61/50 30/47/24
f 48/62/51 59/63/52 63/64/53
f 61/65/54 60/61/50 72/66/55
f 54/67/56 64/68/57 69/69/58
f 65/70/59 66/71/60 53/72/44
f 55/73/61 65/70/59 53/72/44
f 58/74/62 71/75/63 70/76/64
f 66/71/60 65/70/59 76/77/65
f 67/78/66 74/79/67 78/80/68
f 59/63/52 67/78/66 78/80/68
f 55/81/61 68/82/69 79/83/70
f 68/82/69 69/69/58 80/84/71
f 62/85/72 70/86/64 72/66/55
f 73/87/73 72/66/55 81/88/74
f 72/66/55 70/86/64 82/89/75
f 77/90/76 66/71/60 76/77/65
f 74/79/67 85/91/77 78/80/68
f 79/83/70 68/82/69 80/84/71
f 80/84/71 69/69/58 86/92/78
f 87/93/79 70/76/64 71/75/63
f 87/93/79 82/94/75 70/76/64
f 76/77/65 65/70/59 79/95/70
f 78/80/68 85/91/77 71/75/63
f 79/83/70 80/84/71 93/96/80
f 87/93/79 71/75/63 85/91/77
f 84/97/81 97/98/82 85/91/77
f 91/99/83 76/77/65 92/100/84
f 92/100/84 79/95/70 93/101/80
f 95/102/85 89/103/86 101/104/87
f 97/98/82 84/97/81 96/105/88
f 92/100/84 93/101/80 103/106/89
f 103/106/89 93/101/80 104/107/90
f 99/108/91 108/109/92 98/110/93
f 101/104/87 100/111/94 109/112/95
f 100/111/94 94/113/96 110/114/97
f 85/91/77 97/98/82 105/115/98
f 99/108/91 102/116/99 116/117/100
f 107/118/101 91/99/83 103/106/89
f 103/106/89 104/107/90 113/119/102
f 97/98/82 96/105/88 117/120/103
f 96/121/88 107/118/101 118/122/104
f 103/106/89 112/123/105 107/118/101
f 112/123/105 103/106/89 113/119/102
f 113/124/102 108/109/92 119/125/106
f 121/126/107 109/112/95 110/114/97
f 110/127/97 105/115/98 122/128/108
f 105/115/98 97/98/82 117/120/103
f 114/129/109 116/117/100 123/130/110
f 118/122/104 107/118/101 112/123/105
f 113/119/102 119/131/106 125/132/111
f 111/133/112 120/134/113 115/135/114
f 115/135/114 127/136/115 116/137/100
f 118/138/104 126/139/116 117/120/103
f 112/123/105 130/140/117 118/122/104
f 125/132/111 124/141/118 113/119/102
f 117/120/103 126/139/116 122/128/108
f 126/139/116 118/138/104 130/142/117
f 127/136/115 135/143/119 128/144/120
f 130/142/117 133/145/121 126/139/116
f 124/141/118 137/146/122 130/140/117
f 132/147/123 138/148/124 125/149/111
f 130/142/117 137/150/122 133/145/121
f 134/151/125 139/152/126 141/153/127
f 136/154/128 138/148/124 132/147/123
f 141/153/127 139/152/126 140/155/129
f 8/156/16 19/157/15 38/34/30
f 60/61/50 62/85/72 72/66/55
f 55/73/61 79/95/70 65/70/59
f 135/143/119 134/158/125 141/159/127
f 9/160/12 3/6/6 8/161/16
f 1/2/2 2/4/4 3/6/6
f 1/2/2 6/7/7 2/4/4
f 4/3/3 9/160/12 10/162/11
f 12/23/19 6/7/7 11/24/20
f 12/23/19 13/8/8 2/4/4
f 3/6/6 7/5/5 8/161/16
f 11/24/20 6/7/7 5/1/1
f 10/163/11 15/10/9 4/9/3
f 15/10/9 26/36/32 28/21/17
f 5/1/1 22/27/23 11/24/20
f 14/16/13 24/30/26 18/18/14
f 18/18/14 24/30/26 25/33/29
f 19/19/15 7/17/5 18/18/14
f 20/164/18 21/37/33 15/10/9
f 23/165/21 17/26/22 12/166/19
f 29/48/35 22/167/23 5/11/1
f 16/12/10 32/41/37 20/22/18
f 39/168/38 21/37/33 20/164/18
f 11/24/20 34/40/36 23/25/21
f 19/19/15 18/18/14 25/33/29
f 36/169/39 35/31/27 44/170/130
f 5/11/1 28/21/17 29/48/35
f 33/50/42 14/16/13 17/26/22
f 14/16/13 42/51/43 35/31/27
f 43/53/45 33/171/42 23/25/21
f 38/34/30 25/172/29 31/29/25
f 27/173/34 47/174/131 41/54/46
f 26/175/32 41/54/46 48/62/51
f 40/35/31 29/48/35 28/21/17
f 52/176/132 35/31/27 42/51/43
f 34/40/36 30/28/24 51/177/133
f 31/29/25 47/178/131 32/41/37
f 47/178/131 39/42/38 32/41/37
f 55/81/61 34/40/36 54/67/56
f 37/179/28 56/180/134 45/181/47
f 57/59/49 29/48/35 40/35/31
f 31/29/25 25/172/29 46/182/40
f 46/182/40 47/178/131 31/29/25
f 48/62/51 49/56/48 59/63/52
f 40/35/31 26/36/32 58/183/62
f 54/67/56 51/177/133 61/184/54
f 30/47/24 60/61/50 51/185/133
f 49/56/48 56/186/134 59/63/52
f 53/52/44 23/25/21 55/81/61
f 56/186/134 36/187/39 44/188/130
f 47/174/131 45/55/47 41/54/46
f 58/189/62 48/62/51 63/64/53
f 58/183/62 57/59/49 40/35/31
f 66/71/60 43/60/45 53/72/44
f 51/185/133 60/61/50 61/65/54
f 54/67/56 61/184/54 64/68/57
f 67/78/66 44/188/130 52/190/132
f 42/51/43 66/71/60 52/176/132
f 54/67/56 68/82/69 55/81/61
f 57/59/49 70/86/64 62/85/72
f 52/190/132 74/79/67 67/78/66
f 58/183/62 63/191/53 71/192/63
f 62/85/72 60/61/50 57/59/49
f 61/65/54 73/87/73 64/193/57
f 78/80/68 63/64/53 59/63/52
f 59/63/52 56/186/134 67/78/66
f 73/87/73 75/194/135 64/193/57
f 73/87/73 61/65/54 72/66/55
f 69/69/58 64/68/57 75/195/135
f 74/79/67 77/196/76 84/97/81
f 82/89/75 81/88/74 72/66/55
f 90/197/136 69/69/58 75/195/135
f 81/88/74 83/198/137 73/87/73
f 75/194/135 83/198/137 89/103/86
f 82/94/75 94/199/96 88/200/138
f 91/99/83 77/90/76 76/77/65
f 74/79/67 84/97/81 85/91/77
f 92/100/84 76/77/65 79/95/70
f 89/103/86 90/201/136 75/194/135
f 89/103/86 83/198/137 81/88/74
f 84/202/81 91/99/83 96/203/88
f 86/92/78 98/110/93 80/84/71
f 100/111/94 81/88/74 88/204/138
f 90/197/136 99/108/91 86/92/78
f 94/199/96 87/93/79 85/91/77
f 80/84/71 104/205/90 93/96/80
f 102/206/99 95/102/85 106/207/139
f 101/104/87 89/103/86 100/111/94
f 100/111/94 88/204/138 94/113/96
f 85/91/77 105/115/98 94/199/96
f 111/133/112 95/102/85 101/104/87
f 91/99/83 92/100/84 103/106/89
f 108/109/92 104/205/90 98/110/93
f 106/207/139 111/133/112 102/206/99
f 96/105/88 91/208/83 107/209/101
f 111/133/112 116/137/100 102/206/99
f 108/109/92 99/108/91 114/129/109
f 109/112/95 111/133/112 101/104/87
f 109/112/95 100/111/94 110/114/97
f 110/127/97 94/199/96 105/115/98
f 126/139/116 110/127/97 122/128/108
f 114/129/109 99/108/91 116/117/100
f 111/133/112 109/112/95 120/134/113
f 117/120/103 96/105/88 118/138/104
f 124/141/118 112/123/105 113/119/102
f 119/125/106 108/109/92 114/129/109
f 121/210/107 120/211/113 109/212/95
f 123/130/110 119/125/106 114/129/109
f 122/128/108 105/115/98 117/120/103
f 128/144/120 123/213/110 116/137/100
f 131/214/140 123/215/110 128/216/120
f 127/136/115 115/135/114 120/134/113
f 116/137/100 127/136/115 128/144/120
f 129/217/141 125/149/111 119/218/106
f 121/219/107 127/136/115 120/134/113
f 112/123/105 124/141/118 130/140/117
f 121/210/107 126/139/116 133/145/121
f 131/214/140 132/147/123 129/217/141
f 134/151/125 133/145/121 139/152/126
f 125/132/111 138/220/124 124/141/118
f 135/221/119 131/214/140 128/216/120
f 134/158/125 135/143/119 127/136/115
f 138/220/124 137/146/122 124/141/118
f 140/222/129 136/154/128 141/223/127
f 133/145/121 137/150/122 139/152/126
f 136/154/128 131/214/140 141/223/127
f 140/155/129 139/152/126 137/150/122
f 38/34/30 9/14/12 8/156/16
f 9/160/12 1/2/2 3/6/6
f 4/3/3 1/2/2 9/160/12
f 12/23/19 2/4/4 6/7/7
f 12/23/19 17/224/22 13/8/8
f 10/163/11 20/164/18 15/10/9
f 15/10/9 21/37/33 26/36/32
f 23/165/21 33/50/42 17/26/22
f 39/168/38 27/38/34 21/37/33
f 36/169/39 24/30/26 35/31/27
f 38/34/30 19/157/15 25/172/29
f 27/173/34 39/225/38 47/174/131
f 26/175/32 27/173/34 41/54/46
f 52/176/132 44/170/130 35/31/27
f 55/81/61 23/25/21 34/40/36
f 37/179/28 36/226/39 56/180/134
f 57/59/49 50/49/41 29/48/35
f 48/62/51 41/54/46 49/56/48
f 54/67/56 34/40/36 51/177/133
f 49/56/48 45/55/47 56/186/134
f 47/174/131 46/57/40 45/55/47
f 58/189/62 26/175/32 48/62/51
f 66/71/60 42/51/43 43/60/45
f 67/78/66 56/186/134 44/188/130
f 54/67/56 69/69/58 68/82/69
f 57/59/49 58/183/62 70/86/64
f 52/190/132 66/227/60 74/79/67
f 78/80/68 71/75/63 63/64/53
f 73/87/73 83/198/137 75/194/135
f 74/79/67 66/228/60 77/196/76
f 82/89/75 88/204/138 81/88/74
f 90/197/136 86/92/78 69/69/58
f 82/94/75 87/93/79 94/199/96
f 89/103/86 95/102/85 90/201/136
f 84/202/81 77/90/76 91/99/83
f 86/92/78 99/108/91 98/110/93
f 100/111/94 89/103/86 81/88/74
f 90/197/136 102/116/99 99/108/91
f 80/84/71 98/110/93 104/205/90
f 102/206/99 90/201/136 95/102/85
f 111/133/112 106/207/139 95/102/85
f 108/109/92 113/124/102 104/205/90
f 111/133/112 115/135/114 116/137/100
f 126/139/116 121/210/107 110/127/97
f 123/130/110 129/229/141 119/125/106
f 131/214/140 129/217/141 123/215/110
f 129/217/141 132/147/123 125/149/111
f 121/219/107 134/158/125 127/136/115
f 131/214/140 136/154/128 132/147/123
f 134/151/125 121/210/107 133/145/121
f 135/221/119 141/223/127 131/214/140
f 138/220/124 140/230/129 137/146/122
f 140/222/129 138/148/124 136/154/128
