# Blender 5.1.2
# www.blender.org
mtllib rock 3.mtl
o Pavementblock.021
v 1.784347 0.367270 -0.965277
v 1.793294 0.089571 -0.776468
v 1.609059 0.600751 -1.135325
v 1.754339 0.267235 -1.140724
v 1.592538 0.622120 -0.932225
v 1.810468 0.301498 -0.641534
v 1.686114 0.055255 -1.004719
v 1.558872 -0.102927 -0.246285
v 1.329430 -0.189443 -0.809097
v 1.599572 0.125198 -1.291422
v 1.357304 -0.133506 -1.297004
v 1.749143 0.041355 -0.635050
v 1.756430 -0.081592 0.190255
v 1.662183 -0.193958 0.543245
v 1.801043 0.162701 0.341476
v 1.732378 -0.117826 0.527407
v 1.619619 0.143179 0.948385
v 1.700373 0.289571 0.535205
v 1.615131 0.352378 0.947226
v 1.527039 0.485134 1.000180
v 1.298364 0.749116 1.020950
v 1.464769 0.363938 1.154165
v 1.430142 0.668027 0.139641
v 1.368921 0.747211 -0.390090
v 1.159818 0.842052 0.128203
v 0.948264 0.902105 0.082591
v 1.061324 0.889807 -0.473718
v 1.383743 0.773956 -0.916277
v 1.109365 0.881623 -0.887570
v 1.000660 0.901943 0.975434
v 0.690803 0.950021 1.009808
v 0.950334 0.672335 1.272351
v 0.728167 0.943981 0.688765
v 0.740718 0.892007 0.382660
v 0.250372 0.918502 0.658946
v 0.434574 0.846510 0.516832
v 0.282009 0.871032 0.388379
v -0.017392 0.997075 0.344892
v 0.189511 0.851026 0.240361
v 0.398815 0.861434 0.077776
v 0.130436 0.908879 0.164060
v 0.116554 0.960369 -0.053820
v 0.365065 0.908150 -0.188739
v 0.004890 1.063344 -0.087773
v -0.178690 1.078584 0.071419
v -0.061333 1.094415 -0.338778
v 0.125658 1.036301 -0.589060
v -0.426229 1.059184 -0.343921
v -0.359292 0.937015 -0.708836
v -1.134935 0.813423 -0.588440
v -0.466620 1.028940 0.081658
v -0.931676 0.823125 -0.698376
v -1.039159 0.841090 0.035551
v -1.394066 0.593540 -0.624939
v -1.234525 0.631147 0.496797
v -0.301009 0.990960 0.336516
v -1.335892 0.626961 0.004213
v -1.451547 0.436029 0.059433
v -1.527655 0.345847 -0.131846
v -1.423038 0.510668 0.655991
v -1.691582 -0.000690 0.611609
v -1.682966 0.033929 0.233141
v -0.856028 0.541074 0.958628
v -1.353973 0.420352 0.950489
v -1.289760 0.185761 1.059194
v -1.030768 0.430980 1.004959
v -1.542284 0.033291 0.836203
v -1.707373 -0.283558 0.743492
v -1.615423 -0.281429 0.901706
v -1.334325 0.072140 1.103262
v -1.265821 -0.175570 1.143136
v -1.194765 0.029901 1.131740
v -0.866808 0.436114 1.170570
v -1.065151 0.004586 1.292638
v -0.997172 0.103064 1.362147
v -0.948693 -0.636814 1.382772
v -0.426997 -0.347315 1.712573
v -0.957961 -0.973598 1.319646
v -0.666808 0.263078 1.618061
v -0.497832 -0.044133 1.744022
v -1.274164 -0.679187 1.024759
v -0.864501 -1.017027 1.346377
v -0.202488 -0.918119 1.267799
v -0.718090 -1.022133 0.626882
v -0.364441 -0.905490 1.371454
v -0.956778 -1.021036 0.963773
v -1.164140 -0.921175 0.904565
v -0.773877 -0.930658 -0.154145
v -1.063837 -0.883231 0.294520
v -1.282691 -0.713336 0.219763
v -1.213387 -0.701432 -0.453399
v -1.124132 -0.652361 -1.432422
v -1.674439 -0.290819 -0.321448
v -1.368461 -0.464256 -1.425373
v -1.614983 -0.309799 -0.630253
v -1.690922 -0.169054 -0.996692
v -1.698914 0.042979 -0.867580
v -1.536879 -0.328789 -1.101594
v -1.443379 -0.189491 -1.493207
v -1.473061 0.028875 -1.366600
v -0.715398 -0.458267 -1.588497
v -1.605941 -0.077746 -1.270659
v -0.811134 -0.082842 -1.509176
v -0.368107 -0.030682 -1.474533
v -0.075625 -0.096966 -1.596071
v -0.505601 -0.380578 -1.631752
v -0.645733 -0.757890 -1.518943
v -0.089858 -0.364514 -1.645711
v -0.183887 -0.589193 -1.528123
v -0.209912 -0.718212 -1.315001
v 0.250789 -0.660983 -1.589566
v 0.271155 -0.613738 -1.749254
v 0.176641 -0.726650 -1.189275
v 0.420891 -0.603172 -1.496163
v 0.456484 -0.350627 -1.749722
v 0.290353 -0.707434 -0.865283
v 0.850400 -0.461443 -1.419852
v 0.667744 -0.618476 -1.014558
v 0.462193 -0.719461 -0.439325
v 0.989139 -0.217728 -1.580839
v 0.982775 0.047389 -1.585923
v 1.213808 0.092000 -1.422574
v 1.061820 -0.230799 -1.472569
v 0.979665 -0.328200 -0.930503
v 0.939936 -0.381270 -0.354360
v 1.178327 -0.313044 -0.394829
v 0.772062 -0.578632 -0.453531
v 0.620538 -0.762206 0.169154
v 0.347799 -0.869743 0.404306
v 0.625818 -0.751635 0.769364
v 0.881220 -0.536512 0.676112
v 0.810948 -0.666892 1.405115
v 0.516592 -0.891219 1.187863
v 0.188561 -0.887174 1.210576
v 0.550609 -0.846777 1.341178
v -0.016155 -0.828041 1.372741
v 0.637735 -0.694882 1.514778
v 0.829390 -0.578227 1.485384
v 0.118852 -0.546935 1.577284
v 0.702323 -0.386825 1.592532
v 0.940461 -0.125286 1.531987
v 0.020853 -0.218286 1.714329
v -0.397736 -0.050275 1.750491
v 0.331687 0.458102 1.469257
v 0.872613 0.173053 1.483831
v -0.528798 0.420495 1.631866
v -0.467799 0.487926 1.550427
v -0.677613 0.452232 1.521197
v -0.483755 0.575063 1.175359
v -0.854469 0.411464 1.322315
v -0.248436 0.777009 0.805753
v -0.226427 0.428499 1.397325
v -0.343802 0.510990 1.260233
v -0.172366 0.471549 1.224059
v 0.098728 0.590549 1.176925
v 0.508814 0.779377 1.231332
v 0.100194 0.540499 1.466062
v 0.079488 0.486718 1.321144
v 0.311666 0.608095 1.402874
v 0.144175 0.837209 0.851892
v 1.037552 0.502341 1.361661
v 1.151793 0.249543 1.382490
v 1.522534 0.182521 1.101184
v 1.046623 -0.556846 1.162111
v 1.405832 -0.305503 0.841570
v -0.102771 -0.967456 0.891100
v 0.107006 -0.916554 0.692914
v -0.256208 -0.938304 0.620155
v -0.301117 -0.982687 0.121856
v -0.286793 -0.840659 -1.011229
v 0.161979 -0.833397 -0.396338
v -0.776406 -0.757386 -1.478773
v 1.441501 0.595740 -1.189916
v 1.570730 0.399083 -1.257830
v 1.034896 0.253584 -1.391124
v 0.707666 0.133921 -1.435239
v 0.911055 0.495556 -1.229272
v 0.708035 0.013717 -1.584265
v 0.220633 0.374207 -1.260460
v 0.089114 0.679477 -1.043710
v 0.076248 0.245928 -1.163448
v -0.009524 0.017798 -1.380991
v 0.156555 0.060199 -1.446458
v 0.345407 -0.135222 -1.752576
v 0.298966 -0.361663 -1.852494
v -0.167532 0.151684 -1.241019
v -0.134363 0.508145 -1.025120
v -0.361611 0.192812 -1.293790
v -0.249389 0.497315 -1.131198
v -0.724474 0.592119 -1.046963
v -0.177771 0.707583 -0.986164
v -0.602404 0.743177 -0.905468
v -1.154677 0.657807 -0.913721
v 0.289886 0.855933 -0.886624
v 0.489579 0.935937 -0.656721
v 0.575051 0.689044 -1.049202
v 0.895615 0.777117 -1.013994
v 0.997154 0.778954 -0.953067
v 0.955831 0.880850 -0.786885
v 0.628421 0.965618 -0.414928
v 0.445668 0.953471 -0.371700
v 0.879200 0.896766 -0.391246
v 0.728686 0.869106 -0.197022
v 0.751100 0.820620 0.050089
v 0.523520 0.821219 -0.057358
v 1.121046 0.832839 -0.995597
v 1.288559 0.716252 -1.096620
v 1.459729 0.536340 -1.007099
v -1.274330 0.674052 -0.782770
v -1.614071 0.232165 -1.152529
v -1.441321 0.263036 -1.220261
v -1.684454 0.168240 -1.097164
v -1.703597 0.033546 -0.271980
v -1.636031 -0.000496 -0.074973
v -1.565562 0.029508 0.007493
v -1.642823 -0.248028 -0.040722
v -1.615186 -0.375260 0.117360
v -1.677365 -0.288867 0.284739
v -1.673127 -0.407925 0.562933
v -1.454216 -0.631214 0.813031
vn 0.9575 0.2538 -0.1369
vn 0.8773 -0.4700 -0.0970
vn 0.4088 0.8316 -0.3759
vn 0.8996 -0.0496 -0.4339
vn 0.5930 0.7916 -0.1474
vn 0.9684 0.2462 0.0403
vn 0.7454 -0.6284 -0.2226
vn 0.4611 -0.8803 -0.1112
vn 0.4704 -0.8777 -0.0914
vn 0.6154 -0.2525 -0.7467
vn 0.5305 -0.6831 -0.5019
vn 0.7669 -0.6409 -0.0332
vn 0.7695 -0.6339 -0.0781
vn 0.5954 -0.7923 0.1332
vn 0.9762 0.1563 0.1504
vn 0.8854 -0.3963 0.2429
vn 0.8793 -0.1875 0.4379
vn 0.9210 0.3454 0.1802
vn 0.9080 0.2604 0.3283
vn 0.7724 0.5209 0.3634
vn 0.5607 0.7319 0.3873
vn 0.6557 0.2302 0.7190
vn 0.6578 0.7517 0.0484
vn 0.5559 0.8293 0.0568
vn 0.4090 0.9123 0.0196
vn -0.0027 0.9999 -0.0155
vn 0.2186 0.9758 0.0087
vn 0.5080 0.8089 -0.2960
vn 0.0171 0.9619 -0.2729
vn 0.2860 0.9104 0.2990
vn -0.0075 0.9353 0.3537
vn 0.2227 0.6358 0.7390
vn 0.0081 0.9962 -0.0866
vn -0.1908 0.9713 -0.1422
vn 0.0002 0.9976 0.0690
vn 0.0065 0.9919 -0.1272
vn 0.1878 0.9751 -0.1178
vn 0.2188 0.9646 0.1474
vn 0.3090 0.9508 0.0208
vn 0.1570 0.9871 0.0321
vn 0.4876 0.8477 0.2091
vn 0.4483 0.8795 0.1596
vn 0.2805 0.9373 0.2068
vn 0.3632 0.9223 0.1324
vn 0.0020 0.9883 0.1528
vn 0.1089 0.9925 -0.0555
vn 0.1101 0.9611 -0.2532
vn -0.1945 0.9715 -0.1351
vn -0.1214 0.8624 -0.4914
vn -0.4452 0.8816 -0.1566
vn -0.2582 0.9488 0.1821
vn -0.1967 0.8850 -0.4220
vn -0.4345 0.8915 0.1281
vn -0.7478 0.6633 -0.0295
vn -0.3772 0.8913 0.2516
vn -0.1758 0.9251 0.3365
vn -0.7120 0.7007 0.0462
vn -0.8816 0.4710 0.0312
vn -0.8856 0.4329 0.1682
vn -0.6517 0.7213 0.2345
vn -0.9521 0.2422 0.1864
vn -0.9541 0.2504 -0.1641
vn -0.3034 0.8759 0.3753
vn -0.5141 0.5774 0.6343
vn -0.3987 0.3533 0.8463
vn -0.3396 0.5793 0.7410
vn -0.7960 0.2727 0.5403
vn -0.9565 -0.1229 0.2645
vn -0.7728 -0.0947 0.6275
vn -0.4783 0.3053 0.8234
vn -0.5813 -0.0162 0.8135
vn -0.4445 0.3311 0.8324
vn -0.8168 0.4925 0.3007
vn -0.7274 0.2024 0.6557
vn -0.8024 0.2444 0.5445
vn -0.5945 -0.1223 0.7948
vn -0.1483 -0.2954 0.9438
vn -0.5883 -0.5498 0.5930
vn -0.5364 0.1956 0.8210
vn -0.3102 0.0218 0.9504
vn -0.7253 -0.3670 0.5824
vn -0.2031 -0.7917 0.5762
vn 0.1391 -0.9551 0.2617
vn 0.0080 -0.9993 -0.0368
vn 0.1311 -0.7480 0.6507
vn -0.2549 -0.9670 0.0047
vn -0.6280 -0.7725 0.0940
vn -0.2064 -0.9703 -0.1259
vn -0.4647 -0.8760 -0.1293
vn -0.6421 -0.7605 -0.0970
vn -0.5547 -0.8272 -0.0900
vn -0.4163 -0.7090 -0.5692
vn -0.9107 -0.4130 -0.0046
vn -0.6229 -0.5471 -0.5592
vn -0.8256 -0.5575 -0.0870
vn -0.9337 -0.3321 -0.1338
vn -0.9999 -0.0111 -0.0023
vn -0.7839 -0.5844 -0.2099
vn -0.5432 0.0080 -0.8396
vn -0.3963 0.4389 -0.8064
vn -0.1778 -0.0994 -0.9790
vn -0.8453 -0.0961 -0.5255
vn -0.0708 0.4855 -0.8713
vn 0.0205 0.7498 -0.6613
vn -0.1902 0.6210 -0.7604
vn -0.0743 -0.0341 -0.9967
vn -0.0217 -0.7381 -0.6744
vn -0.2930 -0.1458 -0.9449
vn -0.0659 -0.6748 -0.7351
vn 0.1214 -0.9196 -0.3737
vn 0.0869 -0.9171 -0.3892
vn 0.1112 -0.6412 -0.7593
vn 0.2368 -0.9615 -0.1393
vn 0.4257 -0.8522 -0.3042
vn 0.5021 -0.2238 -0.8353
vn 0.3428 -0.9327 -0.1123
vn 0.5307 -0.7729 -0.3478
vn 0.3832 -0.9187 -0.0956
vn 0.3152 -0.9417 -0.1177
vn 0.5338 -0.3476 -0.7709
vn 0.2650 0.3774 -0.8873
vn 0.4045 0.1350 -0.9045
vn 0.6833 -0.5895 -0.4308
vn 0.5844 -0.8095 -0.0576
vn 0.5271 -0.8476 -0.0611
vn 0.3644 -0.9255 -0.1034
vn 0.6208 -0.7828 -0.0425
vn 0.5367 -0.8418 -0.0573
vn 0.2734 -0.9607 -0.0484
vn 0.5851 -0.8065 -0.0847
vn 0.4509 -0.8860 -0.1078
vn 0.5845 -0.7465 0.3179
vn 0.3101 -0.9492 0.0530
vn 0.0587 -0.9784 0.1983
vn 0.2556 -0.8854 0.3882
vn 0.0942 -0.7665 0.6353
vn 0.2249 -0.5798 0.7831
vn 0.5607 -0.4237 0.7114
vn 0.0357 -0.4597 0.8874
vn 0.2443 -0.1531 0.9575
vn 0.4498 -0.0280 0.8927
vn 0.1274 -0.0779 0.9888
vn 0.0374 0.0861 0.9956
vn 0.1317 0.3727 0.9186
vn 0.2002 0.2403 0.9498
vn -0.1527 0.5038 0.8502
vn 0.0078 0.8828 0.4696
vn -0.4751 0.7009 0.5320
vn -0.0823 0.9343 0.3469
vn -0.7288 0.5894 0.3486
vn -0.1871 0.8779 0.4408
vn 0.0220 0.9936 -0.1108
vn 0.2275 0.9163 0.3295
vn 0.0027 0.7962 0.6050
vn -0.3129 0.8235 0.4731
vn -0.1355 0.7811 0.6095
vn -0.1569 0.8690 0.4692
vn -0.6163 0.7797 0.1106
vn -0.0995 0.7239 0.6827
vn -0.2295 0.8752 0.4258
vn 0.3161 0.4069 0.8570
vn 0.4716 0.1402 0.8706
vn 0.7392 -0.1910 0.6459
vn 0.5923 -0.7864 0.1750
vn 0.6728 -0.7062 0.2207
vn -0.0063 -0.9999 0.0157
vn 0.1740 -0.9847 -0.0061
vn 0.0950 -0.9951 0.0283
vn 0.0883 -0.9940 -0.0642
vn 0.0901 -0.9784 -0.1861
vn 0.2869 -0.9497 -0.1254
vn -0.2273 -0.8351 -0.5009
vn 0.2264 0.7913 -0.5680
vn 0.3999 0.3077 -0.8634
vn 0.0647 0.5444 -0.8363
vn -0.1048 0.6626 -0.7416
vn -0.0534 0.5782 -0.8142
vn -0.0369 0.6239 -0.7807
vn -0.3386 0.5009 -0.7966
vn -0.1621 0.5335 -0.8301
vn -0.4250 0.5385 -0.7276
vn -0.2234 0.7892 -0.5721
vn -0.2335 0.7033 -0.6714
vn 0.0441 0.5306 -0.8464
vn 0.0568 -0.0230 -0.9981
vn 0.1720 0.5932 -0.7865
vn 0.2002 0.3256 -0.9241
vn 0.2026 0.5441 -0.8142
vn 0.2705 0.4773 -0.8361
vn -0.0566 0.6394 -0.7668
vn -0.0365 0.5655 -0.8239
vn -0.0969 0.7450 -0.6600
vn -0.2517 0.7832 -0.5685
vn 0.0585 0.8018 -0.5948
vn 0.1025 0.9522 -0.2878
vn -0.0371 0.7249 -0.6878
vn 0.1245 0.7508 -0.6487
vn -0.1262 0.8043 -0.5807
vn -0.0072 0.9660 -0.2583
vn 0.0710 0.9900 0.1218
vn 0.0853 0.9776 0.1922
vn 0.1149 0.9702 0.2131
vn -0.0544 0.9731 0.2239
vn -0.1829 0.9829 -0.0198
vn 0.1458 0.9837 0.1055
vn -0.0909 0.8241 -0.5591
vn 0.0242 0.5235 -0.8517
vn 0.2642 0.9194 -0.2913
vn -0.5189 0.7997 -0.3021
vn -0.6375 0.5630 -0.5259
vn -0.2401 0.6165 -0.7499
vn -0.9078 0.3118 -0.2806
vn -0.9717 0.1708 0.1629
vn -0.9045 0.1442 0.4013
vn -0.9563 0.2922 -0.0051
vn -0.9994 -0.0133 0.0310
vn -0.8304 -0.5492 -0.0941
vn -0.9767 -0.1922 -0.0951
vn -0.8894 -0.4566 -0.0211
vn -0.7457 -0.6266 0.2266
vt 0.262556 0.172972
vt 0.275415 0.182465
vt 0.256283 0.189218
vt 0.272568 0.201357
vt 0.242792 0.193993
vt 0.256336 0.199088
vt 0.241598 0.185710
vt 0.255441 0.211207
vt 0.773289 0.315391
vt 0.760237 0.293958
vt 0.801296 0.299304
vt 0.779455 0.289224
vt 0.747174 0.315715
vt 0.259239 0.232665
vt 0.771600 0.286813
vt 0.278950 0.172319
vt 0.258898 0.116248
vt 0.275639 0.120362
vt 0.823306 0.287021
vt 0.270399 0.101069
vt 0.275545 0.097525
vt 0.859603 0.304885
vt 0.842767 0.291672
vt 0.249591 0.080074
vt 0.247719 0.106636
vt 0.237467 0.083507
vt 0.227646 0.082172
vt 0.228057 0.134532
vt 0.209307 0.093984
vt 0.219966 0.070981
vt 0.236941 0.073536
vt 0.226952 0.161110
vt 0.212364 0.138227
vt 0.212537 0.167836
vt 0.202487 0.142630
vt 0.194892 0.102020
vt 0.218086 0.185979
vt 0.230364 0.184864
vt 0.185863 0.117451
vt 0.189680 0.085269
vt 0.181148 0.104187
vt 0.174655 0.128610
vt 0.189462 0.131292
vt 0.164493 0.123590
vt 0.169251 0.135828
vt 0.155256 0.141236
vt 0.167256 0.143103
vt 0.177426 0.148369
vt 0.164888 0.147262
vt 0.165782 0.157064
vt 0.178169 0.160607
vt 0.159779 0.160164
vt 0.159416 0.171427
vt 0.150559 0.155308
vt 0.169847 0.180880
vt 0.143822 0.175219
vt 0.137997 0.157426
vt 0.149526 0.191374
vt 0.123730 0.196409
vt 0.114213 0.193085
vt 0.111264 0.164551
vt 0.100175 0.199273
vt 0.094605 0.169580
vt 0.142503 0.144351
vt 0.094920 0.144956
vt 0.083254 0.139464
vt 0.082884 0.169069
vt 0.079112 0.180469
vt 0.105825 0.117063
vt 0.081226 0.125011
vt 0.054156 0.141257
vt 0.056278 0.161824
vt 0.094624 0.115818
vt 0.074504 0.114161
vt 0.060041 0.127773
vt 0.068053 0.111337
vt 0.040107 0.131336
vt 0.043082 0.121456
vt 0.057525 0.099998
vt 0.071038 0.103136
vt 0.075463 0.090476
vt 0.102507 0.104754
vt 0.039455 0.062681
vt 0.084160 0.087564
vt 0.103117 0.096378
vt 0.064251 0.041521
vt 0.058969 0.013762
vt 0.108391 0.043953
vt 0.110786 0.059844
vt 0.022604 0.093449
vt 0.108423 0.078264
vt 0.053528 0.019199
vt 0.015291 0.056413
vt 0.862234 0.425694
vt 0.892952 0.394587
vt 0.900698 0.429869
vt 0.899731 0.402444
vt 0.880995 0.436496
vt 0.899897 0.435534
vt 0.096067 0.004127
vt 0.878988 0.448807
vt 0.846142 0.446800
vt 0.821245 0.433061
vt 0.806579 0.460047
vt 0.842592 0.461645
vt 0.754117 0.459126
vt 0.754888 0.475549
vt 0.814220 0.492789
vt 0.797655 0.490077
vt 0.772362 0.486771
vt 0.074701 0.233858
vt 0.071960 0.250050
vt 0.052031 0.222795
vt 0.078879 0.221126
vt 0.042210 0.203523
vt 0.092651 0.267161
vt 0.096749 0.252013
vt 0.088778 0.240614
vt 0.101423 0.283111
vt 0.098026 0.240630
vt 0.129699 0.252455
vt 0.131188 0.276364
vt 0.144897 0.274044
vt 0.153906 0.250787
vt 0.171349 0.258958
vt 0.170819 0.275901
vt 0.162556 0.291520
vt 0.131143 0.296388
vt 0.747734 0.433167
vt 0.741805 0.407649
vt 0.755356 0.408241
vt 0.739065 0.384162
vt 0.197430 0.289388
vt 0.191134 0.298008
vt 0.742956 0.374177
vt 0.730242 0.383169
vt 0.760907 0.386851
vt 0.206240 0.270994
vt 0.217432 0.291404
vt 0.777425 0.378750
vt 0.234186 0.251893
vt 0.799139 0.367797
vt 0.744503 0.349267
vt 0.767562 0.359145
vt 0.239061 0.270213
vt 0.227518 0.238914
vt 0.239988 0.228201
vt 0.241677 0.250493
vt 0.739540 0.333125
vt 0.769030 0.336045
vt 0.796287 0.322919
vt 0.796335 0.349845
vt 0.799648 0.335637
vt 0.830234 0.357254
vt 0.844283 0.370836
vt 0.861081 0.352386
vt 0.883079 0.358035
vt 0.854037 0.335851
vt 0.893109 0.338281
vt 0.887114 0.374192
vt 0.890501 0.355079
vt 0.898253 0.383192
vt 0.900698 0.347200
vt 0.135213 0.023021
vt 0.121357 0.002378
vt 0.167144 0.009000
vt 0.180810 0.009361
vt 0.179206 0.016479
vt 0.170751 0.028725
vt 0.185024 0.041748
vt 0.133630 0.044565
vt 0.182906 0.058190
vt 0.115348 0.057700
vt 0.117585 0.081492
vt 0.157561 0.077037
vt 0.146900 0.083260
vt 0.121155 0.085320
vt 0.112002 0.087566
vt 0.123828 0.103801
vt 0.139015 0.120296
vt 0.149334 0.097660
vt 0.132381 0.089816
vt 0.129174 0.097347
vt 0.136231 0.096106
vt 0.144799 0.090622
vt 0.158287 0.085204
vt 0.170411 0.094177
vt 0.157160 0.115067
vt 0.192883 0.075246
vt 0.198585 0.062189
vt 0.225914 0.060552
vt 0.238036 0.057755
vt 0.202248 0.013673
vt 0.879010 0.325662
vt 0.232543 0.027191
vt 0.278950 0.073584
vt 0.860776 0.381780
vt 0.872402 0.391534
vt 0.859303 0.401306
vt 0.833480 0.406818
vt 0.773269 0.411290
vt 0.803337 0.384346
vt 0.750544 0.439928
vt 0.122341 0.294795
vt 0.236636 0.197553
vt 0.226702 0.223745
vt 0.245943 0.202826
vt 0.213744 0.244252
vt 0.211204 0.234092
vt 0.183210 0.224646
vt 0.215545 0.211231
vt 0.182265 0.243852
vt 0.173486 0.228297
vt 0.173448 0.207506
vt 0.172688 0.244273
vt 0.196871 0.260601
vt 0.195899 0.273399
vt 0.163132 0.235389
vt 0.153160 0.236173
vt 0.163096 0.216088
vt 0.156665 0.219129
vt 0.159652 0.206695
vt 0.134312 0.215045
vt 0.139502 0.205350
vt 0.180770 0.195042
vt 0.114638 0.208661
vt 0.187533 0.181653
vt 0.196384 0.202402
vt 0.209897 0.195237
vt 0.214165 0.191974
vt 0.210472 0.183433
vt 0.191839 0.169268
vt 0.194754 0.157673
vt 0.183138 0.168679
vt 0.203380 0.165482
vt 0.193122 0.146291
vt 0.184358 0.152920
vt 0.220164 0.190395
vt 0.228590 0.193600
vt 0.237233 0.190877
vt 0.101419 0.228758
vt 0.094080 0.227108
vt 0.108735 0.203732
vt 0.089499 0.226789
vt 0.062584 0.194225
vt 0.058113 0.182552
vt 0.041632 0.182221
vt 0.059702 0.176002
vt 0.030577 0.171974
vt 0.036809 0.159677
vt 0.028672 0.140480
vt 0.861507 0.487584
vt 0.837533 0.486992
vt 0.019142 0.113366
vt 0.874493 0.470695
vt 0.002378 0.087922
s 1
usemtl RocksCollection
f 6/1/6 2/2/2 1/3/1
f 2/2/2 7/4/7 1/3/1
f 3/5/3 1/3/1 4/6/4
f 5/7/5 1/3/1 3/5/3
f 4/6/4 1/3/1 7/4/7
f 6/1/6 1/3/1 5/7/5
f 7/4/7 10/8/10 4/6/4
f 9/9/9 7/10/7 8/11/8
f 7/10/7 12/12/12 8/11/8
f 11/13/11 7/10/7 9/9/9
f 7/4/7 11/14/11 10/8/10
f 12/12/12 7/10/7 2/15/2
f 6/1/6 12/16/12 2/2/2
f 15/17/15 13/18/13 12/16/12 6/1/6
f 8/11/8 12/12/12 13/19/13
f 13/18/13 16/20/16 14/21/14
f 165/22/165 8/11/8 13/19/13 14/23/14
f 16/20/16 13/18/13 15/17/15
f 16/20/16 17/24/17 14/21/14
f 18/25/18 17/24/17 16/20/16
f 16/20/16 15/17/15 18/25/18
f 18/25/18 19/26/19 17/24/17
f 20/27/20 19/26/19 18/25/18
f 15/17/15 6/1/6 18/25/18
f 18/25/18 6/1/6 20/27/20
f 20/27/20 23/28/23 21/29/21
f 22/30/22 20/27/20 21/29/21
f 22/30/22 19/31/19 20/27/20
f 6/1/6 23/28/23 20/27/20
f 23/28/23 6/1/6 5/7/5
f 23/28/23 5/7/5 24/32/24
f 25/33/25 23/28/23 24/32/24
f 21/29/21 23/28/23 25/33/25
f 27/34/27 26/35/26 25/33/25
f 25/33/25 26/35/26 30/36/30
f 25/33/25 29/37/29 27/34/27
f 24/32/24 28/38/28 25/33/25
f 29/37/29 25/33/25 28/38/28
f 25/33/25 30/36/30 21/29/21
f 30/36/30 26/35/26 33/39/33
f 30/36/30 32/40/32 21/29/21
f 31/41/31 32/40/32 30/36/30
f 30/36/30 33/39/33 31/41/31
f 36/42/36 33/39/33 34/43/34
f 26/35/26 34/43/34 33/39/33
f 31/41/31 33/39/33 35/44/35
f 33/39/33 36/42/36 35/44/35
f 36/42/36 34/43/34 37/45/37
f 36/42/36 37/45/37 35/44/35
f 38/46/38 37/45/37 39/47/39
f 37/45/37 38/46/38 35/44/35
f 34/43/34 39/47/39 37/45/37
f 40/48/40 39/47/39 34/43/34
f 40/48/40 41/49/41 39/47/39
f 39/47/39 41/49/41 38/46/38
f 42/50/42 41/49/41 40/48/40
f 41/49/41 42/50/42 38/46/38
f 40/48/40 43/51/43 42/50/42
f 44/52/44 42/50/42 43/51/43 46/53/46
f 42/50/42 44/52/44 38/46/38
f 45/54/45 38/46/38 44/52/44
f 44/52/44 46/53/46 45/54/45
f 46/53/46 47/55/47 48/56/48
f 43/51/43 47/55/47 46/53/46
f 46/53/46 48/56/48 45/54/45
f 48/56/48 51/57/51 45/54/45
f 48/56/48 49/58/49 52/59/52
f 47/55/47 49/58/49 48/56/48
f 48/56/48 52/59/52 50/60/50
f 48/56/48 50/60/50 53/61/53
f 53/61/53 51/57/51 48/56/48
f 53/61/53 54/62/54 57/63/57
f 50/60/50 54/62/54 53/61/53
f 56/64/56 51/57/51 53/61/53
f 53/61/53 55/65/55 56/64/56
f 57/63/57 55/65/55 53/61/53
f 60/66/60 57/63/57 58/67/58
f 58/67/58 57/63/57 59/68/59
f 54/62/54 59/68/59 57/63/57
f 55/65/55 57/63/57 60/66/60
f 60/66/60 63/69/63 55/65/55
f 64/70/64 60/66/60 61/71/61
f 62/72/62 61/71/61 60/66/60
f 58/67/58 62/72/62 60/66/60
f 63/69/63 60/66/60 64/70/64
f 66/73/66 63/69/63 64/70/64
f 64/70/64 65/74/65 66/73/66
f 67/75/67 65/74/65 64/70/64
f 67/75/67 64/70/64 61/71/61
f 65/74/65 67/75/67 70/76/70
f 68/77/68 69/78/69 67/75/67
f 67/75/67 61/71/61 68/77/68
f 67/75/67 69/78/69 70/76/70
f 69/78/69 71/79/71 70/76/70
f 71/79/71 72/80/72 70/76/70
f 70/76/70 72/80/72 65/74/65
f 74/81/74 73/82/73 72/80/72
f 73/82/73 66/73/66 72/80/72
f 66/73/66 65/74/65 72/80/72
f 71/79/71 74/81/74 72/80/72
f 74/81/74 76/83/76 75/84/75
f 150/85/150 73/82/73 74/81/74 75/84/75
f 76/83/76 74/81/74 71/79/71
f 76/86/76 82/87/82 77/88/77
f 77/88/77 80/89/80 76/86/76
f 81/90/81 76/83/76 71/79/71
f 75/84/75 76/86/76 79/91/79
f 82/87/82 76/86/76 78/92/78
f 78/93/78 76/83/76 81/90/81
f 76/86/76 80/89/80 79/91/79
f 84/94/84 83/95/83 82/96/82
f 85/97/85 82/96/82 83/95/83
f 86/98/86 84/94/84 82/96/82
f 82/96/82 78/99/78 86/98/86
f 82/87/82 85/100/85 77/88/77
f 87/101/87 86/98/86 78/99/78
f 86/98/86 87/101/87 89/102/89
f 86/98/86 88/103/88 84/94/84
f 86/98/86 89/102/89 88/103/88
f 91/104/91 89/102/89 90/105/90
f 87/101/87 90/105/90 89/102/89
f 91/104/91 88/103/88 89/102/89
f 92/106/92 88/103/88 91/104/91
f 92/106/92 91/104/91 94/107/94
f 90/105/90 93/108/93 91/104/91
f 91/104/91 93/108/93 95/109/95
f 94/107/94 91/104/91 95/109/95
f 94/107/94 95/109/95 98/110/98
f 96/111/96 98/112/98 95/113/95
f 95/113/95 97/114/97 96/111/96
f 97/114/97 95/113/95 93/115/93
f 94/116/94 98/112/98 99/117/99
f 102/118/102 99/117/99 98/112/98 96/111/96
f 92/119/92 94/116/94 99/117/99
f 100/120/100 103/121/103 99/117/99
f 100/120/100 99/117/99 102/118/102
f 99/117/99 101/122/101 92/119/92
f 103/121/103 101/122/101 99/117/99
f 103/121/103 106/123/106 101/122/101
f 100/120/100 104/124/104 103/121/103
f 104/124/104 105/125/105 103/121/103
f 103/121/103 105/125/105 108/126/108 106/123/106
f 109/127/109 107/128/107 106/123/106
f 107/128/107 101/122/101 106/123/106
f 109/127/109 106/123/106 108/126/108
f 107/129/107 109/130/109 110/131/110
f 109/130/109 111/132/111 110/131/110
f 108/126/108 112/133/112 111/134/111 109/127/109
f 114/135/114 111/132/111 112/136/112
f 111/132/111 113/137/113 110/131/110
f 114/135/114 113/137/113 111/132/111
f 115/138/115 114/139/114 112/133/112
f 113/137/113 114/135/114 116/140/116
f 114/139/114 115/138/115 120/141/120
f 119/142/119 116/140/116 114/135/114
f 114/135/114 117/143/117 118/144/118
f 114/139/114 120/141/120 117/145/117
f 118/144/118 119/142/119 114/135/114
f 115/138/115 121/146/121 120/141/120
f 121/146/121 122/147/122 120/141/120
f 123/148/123 117/145/117 120/141/120
f 123/148/123 120/141/120 122/147/122
f 117/143/117 123/149/123 124/150/124
f 124/150/124 123/149/123 11/13/11
f 123/148/123 122/147/122 11/14/11
f 9/9/9 126/151/126 124/150/124
f 9/9/9 124/150/124 11/13/11
f 127/152/127 124/150/124 125/153/125
f 125/153/125 124/150/124 126/151/126
f 117/143/117 124/150/124 127/152/127
f 125/153/125 128/154/128 127/152/127
f 128/154/128 119/142/119 127/152/127
f 127/152/127 118/144/118 117/143/117
f 118/144/118 127/152/127 119/142/119
f 129/155/129 119/142/119 128/154/128
f 130/156/130 129/155/129 128/154/128
f 128/154/128 125/153/125 130/156/130
f 133/157/133 129/155/129 130/156/130
f 131/158/131 130/156/130 125/153/125
f 130/156/130 131/158/131 132/159/132
f 132/159/132 133/157/133 130/156/130
f 133/157/133 134/160/134 129/155/129
f 133/157/133 135/161/135 134/160/134
f 132/159/132 135/161/135 133/157/133
f 134/160/134 135/161/135 136/162/136
f 137/163/137 136/162/136 135/161/135
f 132/159/132 137/163/137 135/161/135
f 139/164/139 136/165/136 137/166/137
f 132/167/132 138/168/138 137/166/137
f 137/166/137 138/168/138 140/169/140
f 140/169/140 139/164/139 137/166/137
f 140/169/140 138/168/138 141/170/141
f 141/170/141 142/171/142 140/169/140
f 139/164/139 140/169/140 142/171/142
f 141/170/141 145/172/145 143/173/143 142/171/142
f 139/164/139 142/171/142 77/88/77
f 143/173/143 77/88/77 142/171/142
f 146/174/146 143/173/143 144/175/144
f 145/172/145 144/175/144 143/173/143
f 143/173/143 80/89/80 77/88/77
f 146/174/146 80/89/80 143/173/143
f 144/175/144 157/176/157 147/177/147 146/174/146
f 80/89/80 146/174/146 79/91/79
f 146/174/146 147/177/147 148/178/148
f 146/174/146 148/178/148 79/91/79
f 148/178/148 147/177/147 149/179/149
f 149/179/149 63/69/63 148/178/148
f 148/178/148 75/84/75 79/91/79
f 150/85/150 75/84/75 148/178/148
f 148/178/148 63/69/63 150/85/150
f 73/82/73 150/85/150 63/69/63
f 151/180/151 63/69/63 149/179/149
f 149/179/149 155/181/155 151/180/151
f 147/177/147 152/182/152 149/179/149
f 152/182/152 153/183/153 149/179/149
f 153/183/153 154/184/154 149/179/149
f 154/184/154 155/181/155 149/179/149
f 158/185/158 155/181/155 154/184/154
f 155/181/155 159/186/159 156/187/156
f 156/187/156 31/41/31 160/188/160 155/181/155
f 158/185/158 157/176/157 155/181/155
f 159/186/159 155/181/155 157/176/157
f 151/180/151 155/181/155 160/188/160
f 56/64/56 160/188/160 35/44/35
f 31/41/31 35/44/35 160/188/160
f 56/64/56 151/180/151 160/188/160
f 32/40/32 156/187/156 159/186/159
f 159/186/159 144/175/144 161/189/161
f 161/189/161 32/40/32 159/186/159
f 144/175/144 159/186/159 157/176/157
f 161/189/161 22/30/22 21/29/21
f 22/30/22 161/189/161 162/190/162
f 162/190/162 161/189/161 145/172/145
f 145/172/145 161/189/161 144/175/144
f 161/189/161 21/29/21 32/40/32
f 163/191/163 22/30/22 162/190/162
f 163/191/163 162/190/162 141/170/141
f 145/172/145 141/170/141 162/190/162
f 22/30/22 163/191/163 19/31/19
f 19/31/19 163/191/163 17/192/17
f 17/192/17 163/191/163 141/170/141
f 157/176/157 158/185/158 152/182/152
f 154/184/154 152/182/152 158/185/158
f 152/182/152 147/177/147 157/176/157
f 32/40/32 31/41/31 156/187/156
f 154/184/154 153/183/153 152/182/152
f 151/180/151 56/64/56 55/65/55
f 151/180/151 55/65/55 63/69/63
f 141/170/141 138/168/138 17/192/17
f 77/88/77 85/100/85 139/164/139
f 136/165/136 139/164/139 85/100/85
f 138/168/138 132/167/132 164/193/164
f 138/168/138 164/193/164 17/192/17
f 126/151/126 9/9/9 164/194/164
f 9/9/9 165/22/165 164/194/164
f 131/158/131 126/151/126 164/194/164
f 132/159/132 131/158/131 164/194/164
f 17/192/17 164/193/164 165/195/165
f 17/24/17 165/196/165 14/21/14
f 165/22/165 9/9/9 8/11/8
f 136/162/136 85/97/85 83/95/83
f 136/162/136 83/95/83 134/160/134
f 167/197/167 129/155/129 134/160/134
f 134/160/134 166/198/166 167/197/167
f 166/198/166 134/160/134 83/95/83
f 168/199/168 169/200/169 167/197/167
f 166/198/166 168/199/168 167/197/167
f 129/155/129 167/197/167 169/200/169
f 169/200/169 168/199/168 84/94/84
f 88/103/88 170/201/170 169/200/169
f 84/94/84 88/103/88 169/200/169
f 169/200/169 170/201/170 113/137/113
f 171/202/171 169/200/169 113/137/113
f 171/202/171 129/155/129 169/200/169
f 116/140/116 171/202/171 113/137/113
f 171/202/171 116/140/116 129/155/129
f 172/203/172 170/201/170 88/103/88
f 172/203/172 107/129/107 170/201/170
f 110/131/110 113/137/113 170/201/170
f 107/129/107 110/131/110 170/201/170
f 92/106/92 172/203/172 88/103/88
f 172/204/172 92/119/92 107/128/107
f 168/199/168 83/95/83 84/94/84
f 168/199/168 166/198/166 83/95/83
f 126/151/126 131/158/131 125/153/125
f 129/155/129 116/140/116 119/142/119
f 173/205/173 122/147/122 175/206/175
f 174/207/174 122/147/122 173/205/173
f 10/8/10 122/147/122 174/207/174
f 11/14/11 122/147/122 10/8/10
f 121/146/121 175/206/175 122/147/122
f 175/206/175 178/208/178 176/209/176
f 175/206/175 176/209/176 179/210/179
f 177/211/177 175/206/175 179/210/179
f 177/211/177 173/205/173 175/206/175
f 121/146/121 178/208/178 175/206/175
f 183/212/183 179/210/179 176/209/176
f 179/210/179 181/213/181 180/214/180
f 180/214/180 177/211/177 179/210/179
f 179/210/179 182/215/182 181/213/181
f 183/212/183 182/215/182 179/210/179
f 182/215/182 183/212/183 105/125/105
f 184/216/184 105/125/105 183/212/183
f 184/216/184 183/212/183 176/209/176
f 176/209/176 178/208/178 184/216/184
f 178/208/178 115/138/115 184/216/184
f 184/216/184 115/138/115 185/217/185
f 184/216/184 185/217/185 105/125/105
f 185/217/185 108/126/108 105/125/105
f 112/133/112 185/217/185 115/138/115
f 185/217/185 112/133/112 108/126/108
f 182/215/182 104/124/104 186/218/186
f 182/215/182 105/125/105 104/124/104
f 182/215/182 186/218/186 181/213/181
f 104/124/104 188/219/188 186/218/186
f 187/220/187 181/213/181 186/218/186
f 186/218/186 189/221/189 187/220/187
f 189/221/189 186/218/186 188/219/188
f 187/220/187 189/221/189 191/222/191
f 189/221/189 190/223/190 192/224/192
f 189/221/189 188/219/188 190/223/190
f 189/221/189 192/224/192 191/222/191
f 49/58/49 194/225/194 192/224/192
f 192/224/192 52/59/52 49/58/49
f 52/59/52 192/224/192 193/226/193
f 192/224/192 190/223/190 193/226/193
f 191/222/191 192/224/192 194/225/194
f 49/58/49 47/55/47 194/225/194
f 195/227/195 194/225/194 47/55/47
f 196/228/196 194/225/194 195/227/195
f 196/228/196 180/214/180 194/225/194
f 194/225/194 180/214/180 191/222/191
f 177/211/177 180/214/180 196/228/196
f 196/228/196 197/229/197 177/211/177
f 195/227/195 197/229/197 196/228/196
f 197/229/197 198/230/198 177/211/177
f 195/227/195 199/231/199 197/229/197
f 199/231/199 198/230/198 197/229/197
f 200/232/200 199/231/199 195/227/195
f 199/231/199 29/37/29 198/230/198
f 199/231/199 27/34/27 29/37/29
f 199/231/199 200/232/200 27/34/27
f 203/233/203 200/232/200 201/234/201
f 200/232/200 195/227/195 201/234/201
f 200/232/200 202/235/202 27/34/27
f 200/232/200 203/233/203 202/235/202
f 203/233/203 204/236/204 26/35/26
f 204/236/204 203/233/203 205/237/205
f 26/35/26 202/235/202 203/233/203
f 203/233/203 201/234/201 205/237/205
f 43/51/43 205/237/205 201/234/201
f 205/237/205 40/48/40 34/43/34
f 205/237/205 43/51/43 40/48/40
f 205/237/205 34/43/34 204/236/204
f 26/35/26 204/236/204 34/43/34
f 202/235/202 26/35/26 27/34/27
f 47/55/47 43/51/43 201/234/201
f 201/234/201 195/227/195 47/55/47
f 198/230/198 206/238/206 177/211/177
f 29/37/29 206/238/206 198/230/198
f 207/239/207 173/205/173 206/238/206
f 206/238/206 28/38/28 207/239/207
f 177/211/177 206/238/206 173/205/173
f 29/37/29 28/38/28 206/238/206
f 5/7/5 208/240/208 207/239/207 28/38/28
f 173/205/173 207/239/207 208/240/208
f 208/240/208 3/5/3 173/205/173
f 208/240/208 5/7/5 3/5/3
f 193/226/193 190/223/190 211/241/211
f 210/242/210 209/243/209 193/226/193
f 209/243/209 52/59/52 193/226/193
f 211/241/211 210/242/210 193/226/193
f 190/223/190 100/120/100 211/241/211
f 211/241/211 100/120/100 210/242/210
f 210/242/210 102/118/102 212/244/212
f 54/62/54 210/242/210 212/244/212
f 209/243/209 210/242/210 54/62/54
f 100/120/100 102/118/102 210/242/210
f 97/114/97 212/244/212 96/111/96
f 97/114/97 213/245/213 212/244/212
f 54/62/54 212/244/212 213/245/213
f 212/244/212 102/118/102 96/111/96
f 93/115/93 213/245/213 97/114/97
f 214/246/214 213/245/213 93/115/93
f 54/62/54 213/245/213 59/68/59
f 214/246/214 59/68/59 213/245/213
f 214/246/214 216/247/216 215/248/215
f 215/248/215 58/67/58 59/68/59 214/246/214
f 214/246/214 93/115/93 216/247/216
f 217/249/217 216/247/216 93/115/93
f 218/250/218 62/72/62 216/247/216
f 62/72/62 215/248/215 216/247/216
f 217/249/217 218/250/218 216/247/216
f 62/72/62 218/250/218 61/71/61
f 219/251/219 61/71/61 218/250/218
f 219/251/219 218/250/218 217/249/217
f 219/251/219 68/77/68 61/71/61
f 219/252/219 217/253/217 90/105/90
f 68/77/68 219/251/219 220/254/220
f 90/105/90 220/255/220 219/252/219
f 220/254/220 87/256/87 81/90/81
f 220/255/220 90/105/90 87/101/87
f 81/90/81 69/78/69 220/254/220
f 69/78/69 68/77/68 220/254/220
f 93/108/93 90/105/90 217/253/217
f 58/67/58 215/248/215 62/72/62
f 54/62/54 50/60/50 209/243/209
f 52/59/52 209/243/209 50/60/50
f 187/220/187 191/222/191 180/214/180
f 104/124/104 100/120/100 190/223/190
f 190/223/190 188/219/188 104/124/104
f 181/213/181 187/220/187 180/214/180
f 178/208/178 121/146/121 115/138/115
f 173/205/173 3/5/3 174/207/174
f 174/207/174 3/5/3 4/6/4
f 4/6/4 10/8/10 174/207/174
f 92/119/92 101/122/101 107/128/107
f 78/93/78 81/90/81 87/256/87
f 81/90/81 71/79/71 69/78/69
f 63/69/63 66/73/66 73/82/73
f 56/64/56 45/54/45 51/57/51
f 38/46/38 45/54/45 56/64/56
f 38/46/38 56/64/56 35/44/35
f 28/38/28 24/32/24 5/7/5
