# Blender 5.1.2
# www.blender.org
mtllib rock 2.mtl
o Pavementblock.031
v 1.732146 0.088486 0.026655
v 1.389211 0.189523 0.420697
v 1.741579 -0.140070 -0.084380
v 1.300039 0.464675 -0.004359
v 1.579222 0.318332 -0.182205
v 1.787018 -0.114092 0.253655
v 1.675597 -0.376268 0.572981
v 1.565815 -0.023865 0.612811
v 1.745309 -0.573139 0.298152
v 1.614155 -0.547732 0.049920
v 1.710770 -0.465086 -0.070772
v 1.348434 -0.641845 0.639305
v 1.230312 -0.595806 0.263477
v 0.977366 -0.597933 0.507302
v 1.150960 -0.162471 0.674980
v 0.957275 -0.425989 0.630733
v 0.842678 0.136029 0.741889
v 0.546318 -0.537603 0.646680
v 0.809033 -0.518463 0.670609
v 0.613566 -0.224324 0.787628
v 0.252242 -0.368133 0.766254
v 0.508092 -0.471058 0.748465
v 0.387662 0.148537 0.750275
v 0.028113 -0.483324 0.810131
v -0.174767 -0.385476 0.881051
v 0.272043 0.264437 0.514637
v 0.004279 0.131577 0.795477
v 0.628619 0.249216 0.632169
v 0.596189 0.254500 0.462733
v 1.125266 0.366574 0.456715
v 0.791388 0.377660 0.431029
v 1.137700 0.276173 0.676219
v 1.367750 0.055723 0.673299
v 0.550833 0.392482 0.391352
v 1.049015 0.498154 0.380199
v 1.242088 0.367502 0.255817
v 0.517296 0.532420 0.206817
v 0.998707 0.683951 -0.019811
v 0.647551 0.651628 -0.017122
v 0.723602 0.756503 -0.281872
v 1.129184 0.682851 -0.354059
v 1.084473 0.633402 -0.164437
v 1.324683 0.563963 -0.349843
v 0.737398 0.732903 -0.576109
v 0.628613 0.603312 -0.644899
v 0.774854 0.317957 -0.660962
v 0.287342 0.778044 -0.420651
v 0.280091 0.654133 -0.732850
v 0.351379 0.744294 -0.294621
v -0.282510 0.734505 -0.626502
v -0.143379 0.775431 -0.251062
v -0.139883 0.682770 -0.672061
v -0.516321 0.643262 -0.746020
v -0.163445 0.429023 -0.769532
v -0.591961 0.338179 -0.891162
v 0.150929 0.279886 -0.788748
v 0.148889 0.002888 -0.838162
v -0.142499 0.159588 -0.878836
v 0.409013 0.440783 -0.795646
v 0.341526 0.313159 -0.854994
v 0.019652 0.175143 -0.875537
v -0.033411 -0.095473 -0.957488
v -0.221355 -0.143567 -0.947175
v 0.351971 -0.308697 -1.016539
v 0.067638 -0.336467 -0.847629
v 0.379640 -0.411714 -0.378674
v 0.367020 -0.286521 -0.758806
v -0.287181 -0.379416 -0.922948
v 0.024731 -0.364078 -0.513051
v -0.014619 -0.310968 -0.340734
v 0.287433 -0.446519 -0.173097
v 0.550163 -0.585243 0.083975
v 0.399328 -0.627877 0.371160
v 0.111377 -0.435367 -0.083442
v 0.158779 -0.526970 0.213938
v 0.685522 -0.551955 -0.199818
v 0.718901 -0.470970 -0.386524
v 0.470091 -0.293524 -0.483211
v 0.950221 -0.553556 -0.190522
v 0.831918 -0.510319 0.081645
v 0.997382 -0.644763 0.004313
v 0.722715 -0.622406 0.269143
v 0.608598 -0.600026 0.584914
v 1.313204 -0.574957 -0.055165
v 1.397401 -0.412383 -0.307231
v 1.365395 -0.309091 -0.525198
v 1.437540 0.230457 -0.419073
v 1.092286 -0.386375 -0.591081
v 1.511808 -0.061692 -0.248898
v 0.562054 -0.294545 -0.851383
v 0.947183 -0.325754 -0.709778
v 1.234889 -0.099036 -0.561256
v 0.594045 -0.048411 -0.827732
v -0.222420 -0.547724 0.297527
v -0.275383 -0.484454 0.203382
v -0.097922 -0.490961 -0.089300
v 0.202518 -0.534330 0.442492
v 0.195650 -0.548298 0.617341
v -0.323037 -0.518597 0.638830
v -0.633217 -0.509223 0.789958
v -0.869462 -0.509280 0.485362
v -0.213923 -0.505603 0.806449
v -0.548692 -0.516551 0.362398
v -0.914086 -0.531801 0.726669
v -1.163322 -0.532397 0.567980
v -1.252455 -0.464664 0.873558
v -0.776764 -0.380182 1.003440
v -0.682141 -0.159302 1.031375
v -0.381008 -0.378292 0.991760
v -1.038143 -0.240217 0.901612
v -0.862067 -0.094936 0.904770
v -1.308131 -0.017294 0.927024
v -1.377632 -0.308842 0.919301
v -1.350400 -0.389218 0.497952
v -1.481090 -0.145332 0.813631
v -1.399802 -0.268752 0.610601
v -1.646057 -0.161472 0.385653
v -1.471518 -0.360072 0.200572
v -1.488346 0.030330 0.222261
v -1.546457 -0.046065 0.366863
v -1.307139 0.151402 0.781281
v -1.254317 0.378390 0.446549
v -0.883255 0.482517 0.244083
v -1.300570 0.458301 0.242186
v -0.709424 0.405938 0.401928
v -1.206452 0.611919 0.182456
v -1.036937 0.821029 -0.046141
v -1.362135 0.614523 -0.116019
v -1.395456 0.344728 0.065677
v -0.751626 0.746793 -0.088469
v -0.698009 0.582205 0.181647
v -0.412245 0.512407 0.212975
v -0.297700 0.719998 -0.031463
v -0.056114 0.549789 0.202819
v 0.135355 0.643932 0.032724
v -0.361189 0.736739 -0.296809
v -0.525072 0.772794 -0.410897
v -0.701303 0.755363 -0.393577
v -0.878048 0.517678 -0.540971
v -1.023689 0.376299 -0.716801
v -1.221752 0.455912 -0.444917
v -1.339862 0.349452 -0.420053
v -1.513681 0.331944 -0.393336
v -1.390860 0.249323 -0.605126
v -1.381574 -0.089612 -0.723572
v -1.104149 0.170575 -0.793571
v -1.476414 0.036458 -0.526858
v -1.568788 0.269880 -0.286341
v -1.424258 -0.389360 -0.515614
v -1.571457 0.022077 -0.308516
v -1.608245 -0.204158 0.085666
v -1.574701 -0.001025 0.100067
v -1.601200 -0.284707 -0.273509
v -1.443102 -0.381557 -0.030956
v -1.328916 -0.447024 -0.263675
v -1.002825 -0.367453 -0.491639
v -1.141499 -0.458913 -0.156692
v -0.763610 -0.504915 -0.128426
v -1.271600 -0.399642 -0.587128
v -1.038824 -0.249579 -0.737307
v -0.593578 -0.379700 -0.606205
v -0.728722 -0.261071 -0.926111
v -0.381232 -0.190046 -1.017577
v -0.591289 0.028964 -0.925200
v -0.645347 -0.317008 -0.402568
v -0.307018 -0.310308 -0.395546
v -0.571028 -0.462857 -0.127473
v -0.141375 -0.430172 -0.267694
v -1.011806 -0.510912 0.275753
v -0.696369 -0.537567 0.300955
v -1.254251 -0.483510 0.036074
v -1.058604 -0.534271 0.031953
v -1.507518 0.263770 -0.094350
v 0.371437 0.658261 -0.043033
v -0.053197 0.441580 0.373392
v 0.179431 0.432204 0.305351
v -0.309412 0.441442 0.396983
v -0.250018 0.311709 0.390996
v -0.518032 0.293286 0.547049
v -0.442180 0.205358 0.705409
v -0.374484 0.215441 0.523116
v -0.665427 0.221846 0.626758
v -0.802989 0.127855 0.833913
v -0.660419 0.054979 0.941649
v -0.184555 0.193356 0.674913
v -0.407956 -0.062576 0.964358
v -0.045672 0.332735 0.399620
v 0.031433 0.237019 0.565601
vn 0.8827 0.4694 0.0222
vn 0.5879 0.7300 0.3485
vn 0.8610 -0.0013 -0.5085
vn 0.4928 0.7986 0.3457
vn 0.8370 0.5165 -0.1806
vn 0.9485 0.2561 0.1866
vn 0.6873 -0.1526 0.7102
vn 0.5743 0.3944 0.7174
vn 0.7223 -0.6873 0.0773
vn 0.2214 -0.9389 -0.2635
vn 0.7111 -0.4927 -0.5015
vn 0.1102 -0.7508 0.6513
vn 0.0725 -0.9967 -0.0373
vn -0.0229 -0.9405 0.3392
vn 0.0765 -0.1138 0.9906
vn 0.0967 -0.2991 0.9493
vn 0.0526 0.2721 0.9608
vn 0.0407 -0.7491 0.6613
vn 0.0939 -0.2096 0.9733
vn 0.1457 -0.1207 0.9819
vn 0.1044 -0.2838 0.9532
vn 0.2698 -0.5380 0.7986
vn 0.0068 0.5412 0.8408
vn 0.2019 -0.6390 0.7422
vn 0.2254 -0.2992 0.9272
vn -0.0065 0.8406 0.5417
vn 0.0713 0.6056 0.7926
vn -0.0988 0.8745 0.4749
vn -0.1435 0.8434 0.5178
vn 0.3580 0.7963 0.4876
vn -0.1176 0.6963 0.7081
vn 0.2515 0.6626 0.7055
vn 0.3955 0.2964 0.8693
vn -0.0537 0.6605 0.7489
vn 0.2626 0.7564 0.5991
vn 0.5583 0.7533 0.3475
vn -0.0508 0.8434 0.5349
vn 0.3191 0.9040 0.2846
vn -0.0555 0.9164 0.3965
vn 0.0554 0.9900 0.1298
vn 0.4306 0.8872 -0.1656
vn 0.6536 0.6914 0.3079
vn 0.6149 0.6927 -0.3768
vn 0.1849 0.7431 -0.6431
vn 0.2117 0.4611 -0.8617
vn 0.3874 0.2244 -0.8942
vn 0.0472 0.9929 -0.1096
vn 0.0573 0.6462 -0.7610
vn 0.0138 0.9548 0.2969
vn -0.0041 0.9161 -0.4009
vn -0.0319 0.9921 0.1213
vn 0.0853 0.6411 -0.7627
vn -0.1573 0.6898 -0.7067
vn 0.1513 0.3576 -0.9215
vn -0.0861 0.3040 -0.9488
vn -0.0702 0.2849 -0.9560
vn 0.1994 0.2950 -0.9345
vn 0.0538 0.3157 -0.9473
vn 0.1675 0.3081 -0.9365
vn -0.0390 0.2857 -0.9575
vn 0.1750 0.4145 -0.8931
vn 0.0369 0.0404 -0.9985
vn 0.1492 0.0358 -0.9882
vn 0.1808 -0.4955 -0.8496
vn -0.0018 -0.8763 -0.4818
vn 0.0419 -0.9254 -0.3767
vn 0.1351 -0.9875 -0.0816
vn 0.0909 -0.8091 -0.5806
vn -0.1863 -0.9809 0.0561
vn -0.0995 -0.9744 -0.2016
vn -0.2253 -0.9456 -0.2348
vn -0.0478 -0.9805 -0.1907
vn -0.1204 -0.9927 0.0046
vn 0.0167 -0.9385 -0.3448
vn -0.1182 -0.9797 -0.1620
vn -0.0783 -0.9673 -0.2413
vn -0.1969 -0.9066 -0.3734
vn 0.0499 -0.9368 -0.3462
vn -0.0185 -0.9582 -0.2855
vn -0.1266 -0.9863 -0.1062
vn -0.2249 -0.9604 -0.1644
vn 0.0927 -0.9826 -0.1608
vn -0.0837 -0.9103 0.4055
vn 0.1521 -0.9391 -0.3082
vn 0.5148 -0.6451 -0.5646
vn 0.6878 -0.3504 -0.6358
vn 0.6658 0.1556 -0.7297
vn 0.2246 -0.8146 -0.5348
vn 0.7027 -0.0748 -0.7076
vn 0.2649 -0.6981 -0.6652
vn 0.3165 -0.3937 -0.8630
vn 0.3992 0.1339 -0.9070
vn 0.3235 0.1714 -0.9306
vn -0.0692 -0.9701 -0.2325
vn -0.0733 -0.9667 -0.2451
vn 0.0713 -0.9714 -0.2266
vn -0.2425 -0.9697 -0.0289
vn -0.0262 -0.9453 0.3252
vn -0.0089 -0.9979 0.0649
vn 0.0256 -0.9347 0.3545
vn 0.0081 -0.9999 -0.0134
vn 0.0354 -0.8658 0.4991
vn 0.0191 -0.9993 -0.0318
vn -0.0025 -0.9797 0.2003
vn -0.2820 -0.9592 0.0194
vn -0.3764 -0.7164 0.5874
vn -0.1287 -0.4658 0.8755
vn -0.1269 0.1859 0.9743
vn 0.2733 -0.4640 0.8426
vn -0.1316 0.0455 0.9903
vn -0.2285 0.3342 0.9144
vn -0.3102 0.3403 0.8877
vn -0.5754 -0.3715 0.7286
vn -0.6667 -0.7346 0.1256
vn -0.9043 -0.0064 0.4268
vn -0.7746 -0.6057 0.1821
vn -0.9986 -0.0507 -0.0177
vn -0.6936 -0.7138 0.0966
vn -0.9044 0.3821 0.1897
vn -0.7806 0.6131 0.1219
vn -0.4547 0.7079 0.5404
vn -0.4606 0.7418 0.4874
vn 0.0312 0.7263 0.6867
vn -0.8201 0.5047 0.2696
vn 0.0135 0.8428 0.5380
vn -0.3805 0.7415 0.5526
vn -0.1323 0.9750 0.1787
vn -0.7090 0.7041 -0.0402
vn -0.8491 0.4144 0.3275
vn 0.1140 0.9395 0.3229
vn 0.0352 0.6911 0.7219
vn -0.0253 0.8131 0.5816
vn 0.0185 0.9185 0.3950
vn 0.0382 0.8321 0.5533
vn 0.0630 0.9014 0.4283
vn 0.0397 0.9990 0.0209
vn -0.0082 0.9932 -0.1159
vn -0.2592 0.9137 -0.3131
vn -0.4109 0.7887 -0.4572
vn -0.3627 0.6474 -0.6703
vn -0.3985 0.7465 -0.5329
vn -0.4066 0.5253 -0.7475
vn -0.7516 0.5158 -0.4111
vn -0.6198 0.4714 -0.6274
vn -0.5935 -0.1203 -0.7958
vn -0.3451 0.2111 -0.9145
vn -0.8938 0.0206 -0.4480
vn -0.8965 0.4417 -0.0354
vn -0.5961 -0.6765 -0.4324
vn -0.9681 0.0206 -0.2498
vn -0.9305 -0.1831 0.3174
vn -0.9164 0.2380 0.3218
vn -0.8904 -0.4009 -0.2156
vn -0.4659 -0.8848 -0.0083
vn -0.2344 -0.9717 -0.0304
vn 0.0749 -0.9442 -0.3208
vn -0.1769 -0.9825 -0.0578
vn 0.1455 -0.9694 -0.1976
vn -0.0996 -0.8336 -0.5433
vn -0.2216 -0.6176 -0.7547
vn -0.0457 -0.9988 0.0166
vn -0.3224 -0.5270 -0.7864
vn 0.0910 0.0069 -0.9958
vn -0.1156 0.1574 -0.9807
vn 0.1020 -0.9871 -0.1233
vn 0.0046 -0.9756 -0.2194
vn 0.0621 -0.9564 -0.2853
vn 0.1192 -0.8251 -0.5523
vn -0.0168 -0.9996 -0.0208
vn 0.0355 -0.9993 -0.0131
vn -0.3482 -0.9310 -0.1098
vn -0.0967 -0.9928 -0.0707
vn -0.8507 0.4448 0.2800
vn 0.0289 0.9287 0.3698
vn 0.1336 0.5559 0.8204
vn 0.0232 0.7338 0.6790
vn 0.0445 0.6553 0.7540
vn 0.1089 0.5196 0.8475
vn 0.1241 0.8000 0.5870
vn 0.0840 0.8931 0.4420
vn 0.2021 0.8592 0.4699
vn -0.0172 0.8382 0.5452
vn -0.0475 0.7434 0.6672
vn -0.0944 0.6101 0.7867
vn -0.0217 0.8789 0.4766
vn 0.2449 0.3440 0.9065
vn -0.0150 0.6544 0.7560
vn 0.0045 0.8772 0.4802
vt 0.713683 0.580922
vt 0.688330 0.591768
vt 0.690940 0.568520
vt 0.719282 0.564192
vt 0.726998 0.582836
vt 0.705029 0.596050
vt 0.709772 0.542020
vt 0.728353 0.536272
vt 0.697613 0.554172
vt 0.747169 0.554845
vt 0.700328 0.520505
vt 0.182110 0.966154
vt 0.168315 0.972773
vt 0.150462 0.949966
vt 0.189432 0.972390
vt 0.745632 0.579121
vt 0.171441 0.944989
vt 0.159715 0.930004
vt 0.678031 0.512494
vt 0.673266 0.524737
vt 0.680482 0.542461
vt 0.662927 0.555181
vt 0.651232 0.536358
vt 0.664261 0.518302
vt 0.648968 0.517280
vt 0.645124 0.523327
vt 0.630189 0.527833
vt 0.639703 0.556817
vt 0.603903 0.528711
vt 0.616018 0.521862
vt 0.618398 0.557688
vt 0.635538 0.571385
vt 0.652582 0.563534
vt 0.661160 0.574844
vt 0.651072 0.571392
vt 0.676511 0.572744
vt 0.676007 0.562642
vt 0.687602 0.555259
vt 0.650121 0.578275
vt 0.673096 0.579125
vt 0.684385 0.579820
vt 0.673232 0.597140
vt 0.650389 0.589213
vt 0.664639 0.610454
vt 0.658521 0.599356
vt 0.678976 0.601316
vt 0.681449 0.608876
vt 0.668926 0.621785
vt 0.690808 0.607460
vt 0.667287 0.629415
vt 0.648070 0.622288
vt 0.680880 0.636939
vt 0.652286 0.636645
vt 0.632613 0.640377
vt 0.649100 0.615664
vt 0.626528 0.620549
vt 0.625122 0.639137
vt 0.616422 0.648343
vt 0.616130 0.664881
vt 0.635422 0.653520
vt 0.653307 0.655742
vt 0.662300 0.650772
vt 0.659673 0.669396
vt 0.648877 0.664717
vt 0.640841 0.668139
vt 0.661892 0.643269
vt 0.651661 0.681073
vt 0.641169 0.686785
vt 0.661947 0.695292
vt 0.678870 0.684139
vt 0.209660 0.900307
vt 0.218337 0.882027
vt 0.235643 0.885588
vt 0.230132 0.901320
vt 0.244098 0.901265
vt 0.241124 0.867384
vt 0.640168 0.702289
vt 0.209445 0.878627
vt 0.198877 0.894656
vt 0.182804 0.908511
vt 0.168173 0.899788
vt 0.197406 0.916814
vt 0.177587 0.886871
vt 0.194620 0.884855
vt 0.216660 0.906237
vt 0.208220 0.919430
vt 0.195898 0.931067
vt 0.182511 0.923480
vt 0.185092 0.934102
vt 0.172461 0.916827
vt 0.156988 0.910095
vt 0.152715 0.906339
vt 0.150176 0.920277
vt 0.188072 0.950117
vt 0.204058 0.955798
vt 0.747169 0.603003
vt 0.725675 0.599077
vt 0.217070 0.954413
vt 0.218498 0.939315
vt 0.709361 0.611736
vt 0.741939 0.616466
vt 0.234508 0.912384
vt 0.225934 0.932310
vt 0.683432 0.660576
vt 0.714148 0.635167
vt 0.710220 0.657664
vt 0.728403 0.637948
vt 0.690980 0.673077
vt 0.173608 0.866443
vt 0.179494 0.863701
vt 0.165205 0.888455
vt 0.194086 0.873498
vt 0.155962 0.887922
vt 0.155923 0.860300
vt 0.146771 0.865514
vt 0.148657 0.843271
vt 0.152973 0.828566
vt 0.165666 0.831698
vt 0.171348 0.848981
vt 0.145640 0.878368
vt 0.145928 0.809917
vt 0.162076 0.816000
vt 0.135820 0.834651
vt 0.554163 0.552606
vt 0.536904 0.545295
vt 0.566519 0.538081
vt 0.576047 0.548284
vt 0.589659 0.531437
vt 0.134732 0.855753
vt 0.533884 0.557332
vt 0.566839 0.557273
vt 0.545196 0.569824
vt 0.166254 0.803560
vt 0.143518 0.799271
vt 0.159986 0.796701
vt 0.149240 0.788696
vt 0.531656 0.570666
vt 0.173456 0.783700
vt 0.535138 0.618981
vt 0.510260 0.625345
vt 0.519067 0.607835
vt 0.182933 0.798291
vt 0.526453 0.579590
vt 0.528694 0.609303
vt 0.548229 0.581933
vt 0.561227 0.602819
vt 0.589127 0.593991
vt 0.584352 0.605336
vt 0.573210 0.617018
vt 0.564061 0.614715
vt 0.596735 0.621976
vt 0.585090 0.626208
vt 0.571401 0.632341
vt 0.557422 0.625018
vt 0.594423 0.607508
vt 0.606416 0.599493
vt 0.616336 0.612654
vt 0.623581 0.596075
vt 0.634996 0.602858
vt 0.611575 0.632870
vt 0.617302 0.625512
vt 0.603613 0.634669
vt 0.596388 0.648703
vt 0.578346 0.649668
vt 0.591970 0.661751
vt 0.567766 0.664793
vt 0.570198 0.652314
vt 0.561663 0.650034
vt 0.587801 0.674366
vt 0.568431 0.688438
vt 0.551268 0.683299
vt 0.551388 0.666380
vt 0.543272 0.653355
vt 0.555380 0.646499
vt 0.526083 0.680091
vt 0.521807 0.633730
vt 0.523998 0.658355
vt 0.534196 0.629282
vt 0.189840 0.787374
vt 0.209324 0.792154
vt 0.195327 0.801216
vt 0.221456 0.804429
vt 0.207440 0.809044
vt 0.224115 0.812745
vt 0.219741 0.827179
vt 0.197976 0.838473
vt 0.200945 0.818529
vt 0.241026 0.805492
vt 0.234801 0.825109
vt 0.225482 0.849596
vt 0.244098 0.842715
vt 0.589795 0.700400
vt 0.612690 0.699902
vt 0.631959 0.691731
vt 0.618531 0.681176
vt 0.213046 0.864058
vt 0.214410 0.846548
vt 0.197728 0.848956
vt 0.203504 0.871576
vt 0.177154 0.824720
vt 0.174998 0.841247
vt 0.190570 0.812324
vt 0.190241 0.822887
vt 0.553298 0.635859
vt 0.646736 0.603531
vt 0.608867 0.588960
vt 0.621099 0.586749
vt 0.633107 0.585875
vt 0.610910 0.582587
vt 0.595701 0.581402
vt 0.586116 0.578452
vt 0.596357 0.570501
vt 0.603260 0.577318
vt 0.580676 0.559878
vt 0.574848 0.568843
vt 0.610120 0.567096
vt 0.592379 0.550129
vt 0.620584 0.581182
vt 0.622531 0.570711
vt 0.139202 0.867361
vt 0.628851 0.513104
s 1
usemtl RocksCollection
f 1/1/1 4/2/4 2/3/2
f 2/3/2 6/4/6 1/1/1
f 1/1/1 6/4/6 3/5/3
f 5/6/5 1/1/1 3/5/3
f 1/1/1 5/6/5 4/2/4
f 7/7/7 9/8/9 6/4/6
f 6/4/6 8/9/8 7/7/7
f 2/3/2 8/9/8 6/4/6
f 6/4/6 9/10/9 3/5/3
f 7/7/7 12/11/12 9/8/9
f 10/12/10 9/13/9 12/14/12
f 9/13/9 10/12/10 11/15/11
f 3/5/3 9/10/9 11/16/11
f 12/14/12 13/17/13 10/12/10
f 13/17/13 12/14/12 14/18/14
f 14/19/14 12/11/12 16/20/16
f 8/9/8 12/11/12 7/7/7
f 12/11/12 15/21/15 16/20/16
f 12/11/12 8/9/8 15/21/15
f 17/22/17 16/20/16 15/21/15
f 17/22/17 20/23/20 16/20/16
f 16/20/16 19/24/19 14/19/14
f 18/25/18 16/20/16 20/23/20
f 18/25/18 19/24/19 16/20/16
f 22/26/22 20/23/20 21/27/21
f 23/28/23 21/27/21 20/23/20
f 18/25/18 20/23/20 22/26/22
f 17/22/17 23/28/23 20/23/20
f 25/29/25 24/30/24 23/28/23
f 21/27/21 23/28/23 24/30/24
f 25/29/25 23/28/23 27/31/27
f 26/32/26 27/31/27 23/28/23
f 26/32/26 23/28/23 28/33/28
f 17/22/17 28/33/28 23/28/23
f 31/34/31 29/35/29 28/33/28
f 28/33/28 29/35/29 26/32/26
f 30/36/30 31/34/31 28/33/28
f 32/37/32 30/36/30 28/33/28
f 17/22/17 32/37/32 28/33/28
f 32/37/32 2/3/2 30/36/30
f 32/37/32 17/22/17 33/38/33
f 33/38/33 2/3/2 32/37/32
f 2/3/2 33/38/33 8/9/8
f 33/38/33 15/21/15 8/9/8
f 17/22/17 15/21/15 33/38/33
f 29/35/29 31/34/31 34/39/34
f 35/40/35 34/39/34 31/34/31
f 35/40/35 31/34/31 30/36/30
f 36/41/36 38/42/38 35/40/35
f 36/41/36 35/40/35 30/36/30
f 37/43/37 34/39/34 35/40/35
f 38/42/38 37/43/37 35/40/35
f 38/42/38 40/44/40 39/45/39
f 39/45/39 37/43/37 38/42/38
f 42/46/42 38/42/38 36/41/36
f 40/44/40 38/42/38 41/47/41
f 42/46/42 41/47/41 38/42/38
f 4/2/4 42/46/42 36/41/36
f 41/47/41 42/46/42 4/2/4
f 40/44/40 41/47/41 44/48/44
f 43/49/43 44/48/44 41/47/41
f 4/2/4 43/49/43 41/47/41
f 45/50/45 47/51/47 44/48/44
f 44/48/44 46/52/46 45/50/45
f 43/49/43 46/52/46 44/48/44
f 40/44/40 44/48/44 47/51/47
f 47/51/47 48/53/48 52/54/52
f 47/51/47 45/50/45 48/53/48
f 49/55/49 47/51/47 51/56/51
f 49/55/49 40/44/40 47/51/47
f 47/51/47 52/54/52 50/57/50
f 51/56/51 47/51/47 50/57/50
f 52/54/52 53/58/53 50/57/50
f 52/54/52 55/59/55 53/58/53
f 54/60/54 52/54/52 56/61/56
f 55/59/55 52/54/52 54/60/54
f 56/61/56 52/54/52 48/53/48
f 60/62/60 57/63/57 56/61/56
f 61/64/61 56/61/56 57/63/57
f 58/65/58 54/60/54 56/61/56
f 61/64/61 58/65/58 56/61/56
f 48/53/48 59/66/59 56/61/56
f 60/62/60 56/61/56 59/66/59
f 62/67/62 58/65/58 61/64/61
f 61/64/61 57/63/57 62/67/62
f 63/68/63 62/67/62 65/69/65
f 63/68/63 58/65/58 62/67/62
f 62/67/62 57/63/57 64/70/64
f 62/67/62 64/70/64 65/69/65
f 66/71/66 69/72/69 65/73/65
f 67/74/67 66/71/66 65/73/65
f 65/73/65 64/75/64 67/74/67
f 68/76/68 65/73/65 69/72/69
f 63/68/63 65/69/65 68/77/68
f 70/78/70 68/76/68 69/72/69
f 70/78/70 69/72/69 71/79/71
f 71/79/71 69/72/69 66/71/66
f 71/79/71 72/80/72 73/81/73
f 72/80/72 71/79/71 76/82/76
f 71/79/71 66/71/66 76/82/76
f 71/79/71 73/81/73 75/83/75
f 71/79/71 74/84/74 70/78/70
f 71/79/71 75/83/75 74/84/74
f 78/85/78 76/82/76 66/71/66
f 77/86/77 76/82/76 78/85/78
f 79/87/79 76/82/76 77/86/77
f 80/88/80 76/82/76 79/87/79
f 72/80/72 76/82/76 80/88/80
f 14/18/14 80/88/80 81/89/81
f 80/88/80 14/18/14 82/90/82
f 82/90/82 72/80/72 80/88/80
f 80/88/80 79/87/79 81/89/81
f 83/91/83 72/80/72 82/90/82
f 83/91/83 82/90/82 14/18/14
f 18/92/18 73/81/73 83/91/83
f 19/93/19 18/92/18 83/91/83
f 19/93/19 83/91/83 14/18/14
f 73/81/73 72/80/72 83/91/83
f 13/17/13 81/89/81 84/94/84
f 85/95/85 84/94/84 81/89/81
f 81/89/81 13/17/13 14/18/14
f 81/89/81 79/87/79 85/95/85
f 11/16/11 85/96/85 89/97/89
f 85/95/85 11/15/11 84/94/84
f 86/98/86 85/95/85 88/99/88
f 87/100/87 85/96/85 86/101/86
f 85/96/85 87/100/87 89/97/89
f 79/87/79 88/99/88 85/95/85
f 3/5/3 89/97/89 5/6/5
f 5/6/5 89/97/89 87/100/87
f 89/97/89 3/5/3 11/16/11
f 88/99/88 79/87/79 77/86/77
f 88/99/88 77/86/77 90/102/90
f 88/99/88 91/103/91 86/98/86
f 91/103/91 88/99/88 90/102/90
f 93/104/93 92/105/92 91/106/91
f 86/107/86 91/106/91 92/105/92
f 93/104/93 91/106/91 90/108/90
f 92/105/92 93/104/93 46/52/46
f 90/108/90 64/70/64 93/104/93
f 57/63/57 93/104/93 64/70/64
f 93/104/93 60/62/60 46/52/46
f 57/63/57 60/62/60 93/104/93
f 92/105/92 87/100/87 86/107/86
f 46/52/46 87/100/87 92/105/92
f 90/102/90 77/86/77 78/85/78
f 90/102/90 78/85/78 67/74/67
f 67/74/67 64/75/64 90/102/90
f 87/100/87 46/52/46 43/49/43
f 43/49/43 5/6/5 87/100/87
f 84/94/84 10/12/10 13/17/13
f 11/15/11 10/12/10 84/94/84
f 66/71/66 67/74/67 78/85/78
f 94/109/94 95/110/95 75/83/75
f 97/111/97 94/109/94 75/83/75
f 96/112/96 75/83/75 95/110/95
f 97/111/97 75/83/75 73/81/73
f 96/112/96 74/84/74 75/83/75
f 97/111/97 73/81/73 98/113/98
f 94/109/94 97/111/97 99/114/99
f 98/113/98 99/114/99 97/111/97
f 99/114/99 102/115/102 100/116/100
f 104/117/104 99/114/99 100/116/100
f 101/118/101 99/114/99 104/117/104
f 103/119/103 99/114/99 101/118/101
f 99/114/99 24/120/24 102/115/102
f 94/109/94 99/114/99 103/119/103
f 99/114/99 98/113/98 24/120/24
f 106/121/106 105/122/105 104/117/104
f 101/118/101 104/117/104 105/122/105
f 104/117/104 107/123/107 106/121/106
f 100/116/100 107/123/107 104/117/104
f 110/124/110 106/125/106 107/126/107
f 110/124/110 107/126/107 108/127/108
f 108/127/108 107/126/107 109/128/109
f 100/116/100 109/129/109 107/123/107
f 113/130/113 106/125/106 110/124/110
f 110/124/110 108/127/108 111/131/111
f 112/132/112 110/124/110 111/131/111
f 112/132/112 113/130/113 110/124/110
f 114/133/114 113/134/113 116/135/116
f 106/121/106 113/134/113 114/133/114
f 113/134/113 115/136/115 116/135/116
f 112/132/112 115/137/115 113/130/113
f 117/138/117 116/135/116 115/136/115
f 116/135/116 117/138/117 114/133/114
f 119/139/119 118/140/118 117/141/117
f 118/142/118 114/133/114 117/138/117
f 117/141/117 115/143/115 120/144/120
f 120/144/120 119/139/119 117/141/117
f 115/143/115 121/145/121 120/144/120
f 122/146/122 120/144/120 121/145/121
f 119/139/119 120/144/120 122/146/122
f 125/147/125 123/148/123 122/146/122
f 123/148/123 126/149/126 122/146/122
f 122/146/122 124/150/124 119/139/119
f 122/146/122 126/149/126 124/150/124
f 122/146/122 121/145/121 125/147/125
f 126/149/126 130/151/130 127/152/127
f 127/152/127 128/153/128 126/149/126
f 129/154/129 126/149/126 128/153/128
f 126/149/126 129/154/129 124/150/124
f 130/151/130 126/149/126 131/155/131
f 123/148/123 131/155/131 126/149/126
f 131/155/131 132/156/132 133/157/133
f 123/148/123 132/156/132 131/155/131
f 133/157/133 130/151/130 131/155/131
f 133/157/133 132/156/132 134/158/134
f 134/158/134 135/159/135 133/157/133
f 130/151/130 133/157/133 137/160/137
f 135/159/135 51/56/51 133/157/133
f 133/157/133 51/56/51 136/161/136
f 133/157/133 136/161/136 137/160/137
f 130/151/130 137/160/137 138/162/138
f 50/57/50 137/160/137 136/161/136
f 53/58/53 138/162/138 137/160/137
f 137/160/137 50/57/50 53/58/53
f 53/58/53 139/163/139 138/162/138
f 127/152/127 138/162/138 139/163/139
f 130/151/130 138/162/138 127/152/127
f 141/164/141 139/163/139 140/165/140
f 139/163/139 53/58/53 140/165/140
f 141/164/141 127/152/127 139/163/139
f 144/166/144 141/164/141 140/165/140
f 142/167/142 143/168/143 141/164/141
f 142/167/142 141/164/141 144/166/144
f 143/168/143 128/153/128 141/164/141
f 127/152/127 141/164/141 128/153/128
f 146/169/146 145/170/145 144/166/144
f 144/166/144 145/171/145 147/172/147
f 144/166/144 140/165/140 146/169/146
f 143/168/143 142/167/142 144/166/144
f 143/168/143 144/166/144 147/172/147
f 150/173/150 148/174/148 147/172/147
f 143/168/143 147/172/147 148/174/148
f 150/173/150 147/172/147 149/175/149
f 147/172/147 145/171/145 149/175/149
f 151/176/151 150/173/150 153/177/153
f 150/173/150 151/176/151 152/178/152
f 149/175/149 153/177/153 150/173/150
f 150/173/150 152/178/152 148/174/148
f 151/179/151 153/180/153 118/142/118
f 153/180/153 154/181/154 118/142/118
f 149/182/149 155/183/155 153/180/153
f 154/181/154 153/180/153 155/183/155
f 159/184/159 155/183/155 149/182/149
f 159/184/159 156/185/156 155/183/155
f 156/185/156 158/186/158 155/183/155
f 157/187/157 155/183/155 158/186/158
f 155/183/155 157/187/157 154/181/154
f 159/184/159 145/188/145 160/189/160
f 156/185/156 159/184/159 160/189/160
f 145/188/145 159/184/159 149/182/149
f 161/190/161 156/185/156 160/189/160
f 162/191/162 161/190/161 160/189/160
f 160/192/160 146/169/146 162/193/162
f 145/170/145 146/169/146 160/192/160
f 162/191/162 68/76/68 161/190/161
f 162/193/162 163/194/163 68/77/68
f 162/193/162 164/195/164 163/194/163
f 164/195/164 162/193/162 146/169/146
f 63/68/63 164/195/164 58/65/58
f 58/65/58 164/195/164 55/59/55
f 164/195/164 146/169/146 55/59/55
f 164/195/164 63/68/63 163/194/163
f 163/194/163 63/68/63 68/77/68
f 166/196/166 165/197/165 161/190/161
f 165/197/165 156/185/156 161/190/161
f 68/76/68 166/196/166 161/190/161
f 70/78/70 166/196/166 68/76/68
f 166/196/166 167/198/167 165/197/165
f 166/196/166 168/199/168 167/198/167
f 168/199/168 166/196/166 70/78/70
f 168/199/168 70/78/70 74/84/74
f 168/199/168 96/112/96 167/198/167
f 96/112/96 168/199/168 74/84/74
f 158/186/158 165/197/165 167/198/167
f 167/198/167 169/200/169 158/186/158
f 169/200/169 167/198/167 170/201/170
f 96/112/96 95/110/95 167/198/167
f 103/119/103 167/198/167 95/110/95
f 170/201/170 167/198/167 103/119/103
f 101/118/101 169/200/169 170/201/170
f 170/201/170 103/119/103 101/118/101
f 169/200/169 171/202/171 172/203/172
f 169/200/169 105/122/105 171/202/171
f 169/200/169 101/118/101 105/122/105
f 172/203/172 158/186/158 169/200/169
f 157/187/157 172/203/172 171/202/171
f 172/203/172 157/187/157 158/186/158
f 171/202/171 118/142/118 154/181/154
f 171/202/171 154/181/154 157/187/157
f 114/133/114 118/142/118 171/202/171
f 171/202/171 105/122/105 114/133/114
f 165/197/165 158/186/158 156/185/156
f 173/204/173 148/174/148 152/178/152
f 152/178/152 119/139/119 129/154/129
f 119/139/119 152/178/152 151/176/151
f 129/154/129 173/204/173 152/178/152
f 128/153/128 173/204/173 129/154/129
f 173/204/173 128/153/128 143/168/143
f 173/204/173 143/168/143 148/174/148
f 119/139/119 151/176/151 118/140/118
f 55/59/55 146/169/146 140/165/140 53/58/53
f 50/57/50 136/161/136 51/56/51
f 49/55/49 51/56/51 135/159/135
f 135/159/135 174/205/174 49/55/49
f 135/159/135 37/43/37 174/205/174
f 37/43/37 135/159/135 134/158/134
f 39/45/39 174/205/174 37/43/37
f 174/205/174 39/45/39 49/55/49
f 134/158/134 177/206/177 175/207/175
f 176/208/176 134/158/134 175/207/175
f 176/208/176 37/43/37 134/158/134
f 132/156/132 177/206/177 134/158/134
f 178/209/178 177/206/177 179/210/179
f 175/207/175 177/206/177 178/209/178
f 179/210/179 177/206/177 132/156/132
f 179/210/179 182/211/182 180/212/180
f 180/212/180 181/213/181 179/210/179
f 179/210/179 181/213/181 178/209/178
f 125/147/125 182/211/182 179/210/179
f 179/210/179 132/156/132 125/147/125
f 184/214/184 182/211/182 183/215/183
f 121/145/121 183/215/183 182/211/182
f 182/211/182 125/147/125 121/145/121
f 184/214/184 180/212/180 182/211/182
f 184/214/184 185/216/185 180/212/180
f 184/214/184 186/217/186 185/216/185
f 111/131/111 184/214/184 183/215/183
f 111/131/111 108/127/108 184/214/184
f 186/217/186 184/214/184 108/127/108
f 186/217/186 108/127/108 109/128/109
f 25/29/25 186/217/186 109/128/109
f 186/217/186 25/29/25 27/31/27
f 185/216/185 186/217/186 27/31/27
f 187/218/187 178/209/178 185/216/185
f 188/219/188 187/218/187 185/216/185
f 27/31/27 188/219/188 185/216/185
f 180/212/180 185/216/185 181/213/181
f 185/216/185 178/209/178 181/213/181
f 187/218/187 188/219/188 176/208/176
f 176/208/176 188/219/188 26/32/26
f 26/32/26 188/219/188 27/31/27
f 176/208/176 175/207/175 187/218/187
f 175/207/175 178/209/178 187/218/187
f 183/215/183 112/132/112 111/131/111
f 112/132/112 183/215/183 121/145/121
f 26/32/26 34/39/34 176/208/176
f 34/39/34 37/43/37 176/208/176
f 125/147/125 132/156/132 123/148/123
f 119/139/119 124/150/124 129/154/129
f 121/145/121 115/137/115 112/132/112
f 106/121/106 114/133/114 105/122/105
f 109/129/109 100/116/100 25/220/25
f 94/109/94 103/119/103 95/110/95
f 100/116/100 102/115/102 25/220/25
f 25/220/25 102/115/102 24/120/24
f 98/113/98 73/81/73 18/92/18
f 22/26/22 98/221/98 18/25/18
f 21/27/21 98/221/98 22/26/22
f 98/221/98 21/27/21 24/30/24
f 59/66/59 46/52/46 60/62/60
f 59/66/59 48/53/48 45/50/45
f 59/66/59 45/50/45 46/52/46
f 54/60/54 58/65/58 55/59/55
f 49/55/49 39/45/39 40/44/40
f 4/2/4 5/6/5 43/49/43
f 36/41/36 30/36/30 2/3/2
f 36/41/36 2/3/2 4/2/4
f 26/32/26 29/35/29 34/39/34
