# Blender 5.1.2
# www.blender.org
mtllib rock.mtl
o Pavementblock.025
v -0.321344 0.262560 0.613356
v 0.038256 0.261966 0.595136
v -0.495102 0.136017 0.662203
v -0.258617 0.162159 0.670179
v -0.395268 0.265798 0.621838
v -0.131055 0.332906 0.455970
v -0.428626 0.361197 0.473436
v -0.832798 0.378505 0.504008
v -0.424648 0.436000 0.280714
v -0.528621 0.282661 0.632232
v -0.759818 0.404461 0.408161
v -1.002300 0.421329 0.438539
v -0.758745 0.453126 0.285146
v -0.953633 0.462154 0.164183
v -1.094810 0.424022 0.303708
v -0.733876 0.483155 0.103786
v -0.994877 0.459383 -0.168600
v -1.177210 0.433076 -0.006791
v -0.790273 0.499846 -0.241751
v -0.543739 0.521226 -0.160029
v -0.639718 0.535180 -0.433289
v -0.778141 0.535387 -0.373748
v -0.124637 0.471218 0.188048
v -0.401958 0.540585 -0.253032
v -0.129958 0.474968 0.070819
v -0.096037 0.483209 -0.632835
v -0.218696 0.497272 -0.192374
v -0.317871 0.520827 -0.531250
v -0.442462 0.499330 -0.597516
v -0.257802 0.484295 -0.634839
v -0.174374 0.169625 -0.855462
v -0.297247 0.066168 -0.908308
v -0.046934 0.046600 -0.948356
v -0.453628 0.086058 -0.865873
v 0.358765 0.050214 -1.036273
v 0.331365 0.358656 -0.778965
v -0.483232 0.204461 -0.808939
v 0.114209 0.425296 -0.704187
v 0.230730 0.416874 -0.498966
v 0.527032 0.345594 -0.712823
v 0.029971 0.442318 0.067239
v 0.589612 0.367148 -0.318259
v 0.444983 0.387583 -0.093785
v 0.598237 0.396199 0.100574
v 0.289811 0.413286 0.147579
v 0.138136 0.412530 0.266050
v 0.342412 0.402883 0.258420
v 0.319045 0.271688 0.547377
v 0.775571 0.387631 0.298677
v 0.568240 0.253750 0.545873
v 0.784056 0.325262 0.391636
v 0.538076 0.132286 0.732091
v 0.593023 0.032471 0.873014
v 0.419171 0.076688 0.737540
v 0.859187 0.032058 0.788465
v 1.190438 -0.047344 0.693200
v 0.823581 -0.244626 0.759768
v 1.035233 0.044845 0.731591
v 1.087825 0.342254 0.263709
v 1.392561 0.227765 0.383200
v 1.362024 0.044017 0.661040
v 1.453276 -0.182500 0.432130
v 1.464491 0.067168 0.511567
v 1.368427 -0.147238 0.624448
v 1.161591 -0.262124 0.662111
v 1.311206 -0.267534 0.569270
v 1.146384 -0.517238 0.361781
v 1.358526 -0.301207 0.263375
v 0.900503 -0.500023 0.692989
v 1.064024 -0.504367 0.571033
v 0.765859 -0.577113 0.581059
v 0.917005 -0.580443 0.204753
v 0.799731 -0.578368 0.323715
v 0.828087 -0.539262 0.031005
v 1.219978 -0.293676 0.149805
v 1.131144 -0.221726 -0.042940
v 0.971025 -0.349443 -0.060315
v 1.494028 -0.195512 0.210175
v 1.238366 -0.106602 -0.028185
v 1.312203 -0.086602 0.035460
v 1.343303 -0.044059 -0.088981
v 1.494969 -0.063160 0.058347
v 1.560156 0.034417 -0.045381
v 1.548568 -0.047776 0.116476
v 1.584079 0.189062 -0.159462
v 1.502193 0.137588 0.275949
v 1.431097 0.309918 0.100746
v 1.449614 0.348520 -0.200256
v 1.160184 0.362542 0.063151
v 0.804996 0.386719 -0.035257
v 1.117197 0.337896 -0.402674
v 1.368669 0.328738 -0.359592
v 0.878828 0.349633 -0.513239
v 1.183711 0.299749 -0.542338
v 0.926925 0.330324 -0.571937
v 0.855651 0.270573 -0.676635
v 0.567495 0.155456 -0.883091
v 1.022193 0.161136 -0.704277
v 0.899942 0.142564 -0.761160
v 0.793844 0.039892 -0.877760
v 1.040132 0.023895 -0.663098
v 0.678607 -0.024404 -0.955977
v 0.830940 -0.148675 -0.761439
v 0.930817 -0.184976 -0.587525
v 0.751385 -0.358190 -0.709770
v 0.582621 -0.283331 -0.892866
v 0.118709 -0.443724 -0.819499
v 0.639066 -0.544625 -0.519199
v 0.721790 -0.459071 -0.588384
v 0.278559 -0.171896 -0.953881
v 0.226243 -0.483170 -0.776536
v 0.578082 -0.047473 -1.018683
v 0.467492 -0.528859 -0.601042
v 0.320288 -0.468312 -0.278718
v 0.098793 -0.425860 -0.607394
v 0.595932 -0.504827 -0.319915
v 0.724174 -0.505158 -0.254214
v 0.420251 -0.458073 0.090125
v 0.359003 -0.461767 0.285710
v 0.226203 -0.410381 0.116854
v 0.049572 -0.399889 -0.272257
v 0.484175 -0.476793 0.217515
v 0.580604 -0.484951 0.306514
v 0.421650 -0.449588 0.325475
v 0.452762 -0.473492 0.379681
v 0.303413 -0.425169 0.396702
v 0.218603 -0.419162 0.325442
v 0.285778 -0.446849 0.555084
v 0.047967 -0.435219 0.554609
v 0.437553 -0.474544 0.613077
v 0.740004 -0.459489 0.740279
v 0.502003 -0.332254 0.815538
v 0.291768 -0.375643 0.655180
v 0.335730 -0.003738 0.722709
v 0.147204 -0.363882 0.620496
v 0.347816 -0.220031 0.725984
v 0.537104 -0.081969 0.861057
v 0.149004 0.066739 0.663562
v -0.218470 -0.405037 0.580333
v -0.279681 -0.140008 0.625229
v -0.005658 0.080216 0.676085
v -0.394338 -0.180797 0.565312
v -0.534986 -0.053639 0.629349
v -0.436309 -0.322083 0.514162
v -0.489160 -0.305418 0.488885
v -0.560464 -0.270985 0.537359
v -0.286750 -0.405450 0.346341
v -0.484819 -0.386007 0.180920
v -0.496154 -0.364678 0.275098
v -0.147231 -0.397328 0.111728
v -0.558284 -0.318308 0.331860
v -0.760072 -0.318061 0.391643
v -0.605239 -0.298691 0.487726
v -0.652105 -0.357772 0.251059
v -0.519978 -0.370022 0.060051
v -0.786832 -0.333887 0.289352
v -0.657031 -0.339950 0.122612
v -0.833750 -0.349404 0.059517
v -0.982095 -0.333355 -0.134133
v -0.720191 -0.334737 -0.378179
v -1.021401 -0.371193 0.317894
v -1.234861 -0.410006 0.096723
v -0.494433 -0.369754 -0.242999
v -0.248282 -0.379304 -0.614883
v -0.378009 -0.365585 -0.082398
v -0.082223 -0.405229 -0.725549
v -0.257981 -0.196468 -0.829772
v -0.455876 -0.086980 -0.796368
v -0.868250 -0.175125 -0.474681
v -0.698718 0.025392 -0.702160
v -1.147859 -0.175704 -0.263902
v -1.026565 -0.125677 -0.437262
v -0.980490 -0.003475 -0.531533
v -1.034316 0.180258 -0.517558
v -0.679823 0.095882 -0.725132
v -0.932695 0.266252 -0.510915
v -1.107690 0.249045 -0.419194
v -1.173182 0.101289 -0.284988
v -1.215594 -0.046878 -0.229452
v -1.399488 -0.009662 -0.034848
v -1.308003 0.407789 -0.202704
v -1.411334 0.188994 -0.053837
v -1.593725 0.318700 0.079758
v -1.500604 0.363646 -0.010778
v -1.555089 0.407503 0.193029
v -1.484167 0.419519 0.097038
v -1.299679 0.439569 -0.128725
v -1.248574 0.418276 0.287566
v -1.542806 0.397445 0.406559
v -1.144278 0.426395 0.498846
v -1.316036 0.418287 0.451786
v -1.248660 0.222892 0.631438
v -1.586944 0.237544 0.506109
v -1.636782 0.073210 0.557366
v -1.364285 0.067685 0.623084
v -1.023608 0.159115 0.699289
v -1.177068 0.110655 0.700568
v -0.960397 0.358990 0.577010
v -0.561226 0.181183 0.679083
v -0.741026 -0.109977 0.617566
v -0.647096 -0.153380 0.570064
v -0.818252 -0.318304 0.571052
v -1.022274 -0.342737 0.601099
v -1.239674 -0.347401 0.625471
v -1.228292 -0.419218 0.475392
v -1.319605 -0.404397 0.137136
v -1.350582 -0.369180 0.564078
v -1.420639 -0.301451 0.368695
v -1.490049 -0.256023 0.587661
v -1.592933 -0.204865 0.573630
v -1.700587 -0.124032 0.550283
v -1.723659 -0.118469 0.422831
v -1.497137 -0.250392 0.385480
v -1.605945 -0.172743 0.269648
v -1.569290 -0.180918 0.337410
v -1.491469 -0.280330 0.090500
v -1.577502 -0.200825 0.156214
v -1.746091 -0.078033 0.257455
v -1.677197 0.109100 0.187782
v -1.633388 0.225526 0.136628
v -1.308727 -0.223688 -0.095529
v -0.694655 -0.268998 0.540561
v -1.099088 0.473162 -0.260113
v -0.919594 0.503549 -0.330788
v -1.157193 0.362758 -0.336736
v -0.645680 0.279948 -0.667541
v -0.287937 -0.075724 -0.880163
v 0.097021 -0.117156 -0.950963
v -0.065588 -0.311248 -0.867596
v 0.980736 -0.257201 -0.315480
v 0.974654 -0.308949 -0.198686
v 1.105077 -0.199926 -0.223821
v 1.121138 -0.169854 -0.114858
v 1.256053 -0.124439 -0.176780
v 1.270602 -0.057689 -0.233066
v 1.188409 -0.098143 -0.330029
v 1.370381 0.129756 -0.410128
v 1.202402 0.019383 -0.478660
v 1.568455 0.112971 -0.237850
v 1.550748 0.200355 -0.285473
v 1.356983 0.222114 -0.421805
v 1.241250 0.242709 -0.542497
v 1.048307 -0.195088 -0.332664
vn 0.0487 0.6761 0.7352
vn 0.0794 0.6918 0.7177
vn 0.0801 -0.0048 0.9968
vn -0.0128 0.2099 0.9776
vn 0.1273 0.5667 0.8140
vn 0.0527 0.8957 0.4414
vn 0.0929 0.8976 0.4309
vn 0.1018 0.9187 0.3816
vn 0.0335 0.9529 0.3014
vn 0.1034 0.6262 0.7728
vn 0.0785 0.9360 0.3432
vn 0.0496 0.9846 0.1678
vn 0.0195 0.9693 0.2450
vn -0.1079 0.9908 0.0823
vn -0.0768 0.9943 0.0733
vn -0.0372 0.9923 0.1182
vn -0.0924 0.9872 0.1300
vn -0.0707 0.9951 0.0697
vn -0.1442 0.9747 0.1708
vn -0.0520 0.9902 0.1299
vn -0.1761 0.9195 -0.3514
vn -0.2488 0.9255 -0.2857
vn 0.0925 0.9663 0.2401
vn 0.0600 0.9969 0.0511
vn 0.2058 0.9784 0.0190
vn 0.0867 0.8989 -0.4296
vn 0.2128 0.9769 0.0179
vn 0.0618 0.9841 -0.1664
vn -0.1764 0.7989 -0.5750
vn -0.0323 0.7808 -0.6240
vn -0.0996 0.5559 -0.8253
vn -0.2010 0.1943 -0.9601
vn -0.1827 0.1694 -0.9685
vn -0.3626 0.0608 -0.9300
vn 0.0070 0.2276 -0.9737
vn 0.1055 0.8297 -0.5482
vn -0.2948 0.4547 -0.8405
vn 0.0807 0.8631 -0.4986
vn 0.1832 0.9819 -0.0483
vn 0.1950 0.8853 -0.4222
vn 0.1681 0.9854 0.0260
vn 0.0684 0.9961 -0.0552
vn 0.0842 0.9957 -0.0392
vn 0.0349 0.9991 -0.0236
vn 0.0770 0.9967 0.0252
vn 0.0771 0.9567 0.2806
vn 0.0480 0.9693 0.2410
vn 0.0021 0.7992 0.6010
vn 0.0901 0.9510 0.2959
vn 0.0747 0.8519 0.5184
vn 0.1491 0.8229 0.5483
vn -0.0486 0.7792 0.6249
vn -0.0249 0.3818 0.9239
vn -0.3498 0.5079 0.7872
vn 0.2446 0.3973 0.8845
vn 0.2480 -0.1141 0.9620
vn 0.2478 -0.1668 0.9543
vn 0.2270 0.5105 0.8294
vn 0.1672 0.9239 0.3441
vn 0.4540 0.7877 0.4165
vn 0.5079 0.3249 0.7978
vn 0.8437 -0.4501 0.2925
vn 0.8576 0.2445 0.4525
vn 0.6540 -0.2854 0.7006
vn 0.3632 -0.3022 0.8814
vn 0.6197 -0.6116 0.4918
vn 0.5286 -0.8461 -0.0683
vn 0.5877 -0.7828 -0.2046
vn 0.2529 -0.6226 0.7406
vn 0.4463 -0.7940 0.4128
vn -0.0635 -0.9613 0.2681
vn 0.2444 -0.9411 -0.2335
vn -0.1703 -0.9837 -0.0574
vn 0.2287 -0.9354 -0.2697
vn 0.5054 -0.6526 -0.5645
vn 0.6104 -0.6033 -0.5133
vn 0.6323 -0.6838 -0.3641
vn 0.7503 -0.6249 -0.2159
vn 0.5817 -0.7759 -0.2441
vn 0.3794 -0.7849 -0.4899
vn 0.4638 -0.8599 -0.2132
vn 0.4258 -0.7654 -0.4826
vn 0.8030 -0.5512 -0.2268
vn 0.9465 -0.3132 -0.0781
vn 0.9564 0.2921 -0.0064
vn 0.9031 0.3576 0.2377
vn 0.5178 0.8276 0.2169
vn 0.4620 0.8818 -0.0946
vn 0.1140 0.9915 0.0620
vn 0.0450 0.9981 -0.0420
vn 0.0817 0.9873 -0.1365
vn 0.4092 0.7870 -0.4616
vn 0.0833 0.9869 -0.1384
vn 0.3147 0.7636 -0.5637
vn 0.1587 0.9077 -0.3885
vn 0.2494 0.6865 -0.6830
vn 0.2716 0.6032 -0.7499
vn 0.4914 0.2490 -0.8346
vn 0.2767 0.5893 -0.7590
vn 0.5178 0.1460 -0.8429
vn 0.6585 -0.3421 -0.6703
vn 0.5229 0.0524 -0.8508
vn 0.6540 -0.4014 -0.6413
vn 0.7082 -0.5708 -0.4155
vn 0.5744 -0.6141 -0.5412
vn 0.3053 -0.5637 -0.7675
vn -0.1694 -0.7622 -0.6248
vn 0.2503 -0.9532 -0.1697
vn 0.5623 -0.7378 -0.3735
vn -0.0514 -0.3830 -0.9223
vn -0.0501 -0.9224 -0.3831
vn 0.3084 -0.0228 -0.9510
vn -0.0013 -0.9726 -0.2326
vn -0.1991 -0.9769 0.0776
vn -0.2098 -0.9736 0.0903
vn -0.1113 -0.9889 0.0982
vn 0.3803 -0.9145 -0.1381
vn -0.2023 -0.9793 -0.0038
vn -0.1458 -0.9831 0.1110
vn -0.1578 -0.9874 -0.0121
vn -0.1487 -0.9885 0.0280
vn -0.1941 -0.9805 0.0295
vn -0.3516 -0.9351 -0.0431
vn -0.1572 -0.9870 0.0323
vn -0.2792 -0.9461 -0.1644
vn -0.1542 -0.9874 -0.0367
vn -0.1147 -0.9929 -0.0320
vn -0.0960 -0.9754 -0.1986
vn -0.0613 -0.9341 0.3518
vn -0.2525 -0.9027 0.3483
vn 0.0305 -0.5518 0.8334
vn -0.2209 -0.3973 0.8907
vn -0.3228 -0.4312 0.8425
vn -0.4101 0.0531 0.9105
vn -0.1790 -0.3210 0.9300
vn -0.6460 -0.0679 0.7603
vn -0.2092 -0.0680 0.9755
vn -0.0616 0.2055 0.9767
vn -0.2382 -0.7346 0.6353
vn -0.1489 -0.2308 0.9615
vn 0.0396 0.1124 0.9929
vn -0.2084 -0.3908 0.8966
vn -0.0242 -0.3205 0.9469
vn -0.3314 -0.7482 0.5748
vn -0.2645 -0.9453 0.1912
vn -0.0330 -0.5974 0.8013
vn -0.1702 -0.9842 0.0483
vn -0.1298 -0.9915 0.0104
vn -0.2070 -0.9256 0.3168
vn -0.0527 -0.9972 -0.0522
vn -0.1110 -0.9404 0.3214
vn 0.1101 -0.9804 0.1632
vn -0.0312 -0.9455 0.3241
vn -0.1174 -0.9857 0.1210
vn -0.0954 -0.9948 -0.0360
vn 0.0365 -0.9961 0.0804
vn -0.1264 -0.9887 0.0811
vn 0.0396 -0.9992 -0.0067
vn -0.1785 -0.9230 -0.3410
vn -0.2858 -0.8922 -0.3497
vn 0.1895 -0.9810 0.0419
vn -0.1052 -0.9459 -0.3070
vn -0.0587 -0.9981 -0.0195
vn -0.2836 -0.9102 -0.3019
vn -0.0354 -0.9989 -0.0295
vn -0.3407 -0.8978 -0.2792
vn -0.4505 -0.5685 -0.6884
vn -0.4372 -0.4799 -0.7607
vn -0.4054 -0.6480 -0.6448
vn -0.4830 -0.2792 -0.8299
vn -0.5707 -0.5438 -0.6154
vn -0.5711 -0.5020 -0.6494
vn -0.5776 -0.2795 -0.7670
vn -0.6306 0.1738 -0.7564
vn -0.5017 0.0684 -0.8624
vn -0.3897 0.5200 -0.7601
vn -0.6831 0.1450 -0.7157
vn -0.7683 -0.1162 -0.6295
vn -0.7323 -0.1055 -0.6727
vn -0.6893 -0.1069 -0.7165
vn -0.6388 0.4598 -0.6169
vn -0.6769 -0.1282 -0.7249
vn -0.8369 0.2980 -0.4591
vn -0.7009 0.3778 -0.6050
vn -0.5903 0.8071 -0.0154
vn -0.3116 0.9405 -0.1355
vn -0.2684 0.9542 -0.1324
vn -0.0420 0.9989 0.0198
vn -0.5434 0.7652 0.3452
vn -0.0704 0.8983 0.4337
vn -0.1562 0.9052 0.3951
vn -0.2408 0.4569 0.8563
vn -0.6794 0.4605 0.5713
vn -0.6712 0.2651 0.6923
vn -0.3119 0.0891 0.9459
vn -0.0024 0.1890 0.9820
vn -0.1538 0.1189 0.9809
vn 0.0250 0.7235 0.6899
vn 0.1446 0.1285 0.9811
vn 0.1356 -0.2946 0.9460
vn 0.1214 -0.4187 0.9000
vn 0.2749 -0.7560 0.5941
vn 0.1748 -0.7067 0.6856
vn -0.0521 -0.5762 0.8156
vn -0.0203 -0.9856 0.1677
vn -0.3754 -0.9001 -0.2211
vn -0.4123 -0.8215 0.3938
vn -0.6268 -0.7791 0.0133
vn -0.4636 -0.5725 0.6762
vn -0.4586 -0.5810 0.6724
vn -0.7715 -0.2502 0.5850
vn -0.9068 -0.4167 0.0646
vn -0.5659 -0.8215 -0.0706
vn -0.5547 -0.8302 0.0544
vn -0.6137 -0.7889 0.0312
vn -0.6725 -0.6090 -0.4206
vn -0.7501 -0.5103 -0.4207
vn -0.9336 -0.2193 -0.2834
vn -0.9162 0.1588 -0.3680
vn -0.9450 0.3135 -0.0934
vn -0.5584 -0.4676 -0.6852
vn 0.2042 -0.6995 0.6848
vn -0.2499 0.9274 -0.2785
vn -0.2744 0.9107 -0.3086
vn -0.4678 0.4837 -0.7397
vn -0.4360 0.4914 -0.7539
vn -0.3072 -0.3103 -0.8996
vn -0.1593 -0.2444 -0.9565
vn -0.3175 -0.5309 -0.7857
vn 0.6373 -0.7182 -0.2794
vn 0.6492 -0.7304 -0.2123
vn 0.5826 -0.8018 -0.1330
vn 0.5866 -0.7992 -0.1309
vn 0.6022 -0.7684 -0.2167
vn 0.6141 -0.6915 -0.3805
vn 0.6157 -0.6911 -0.3786
vn 0.5995 -0.3852 -0.7016
vn 0.6473 -0.5311 -0.5468
vn 0.8016 -0.4452 -0.3991
vn 0.8067 0.2297 -0.5444
vn 0.6701 0.1661 -0.7234
vn 0.6222 0.1712 -0.7639
vn 0.5881 -0.7327 -0.3426
vt 0.557175 0.793400
vt 0.566790 0.802152
vt 0.558204 0.813999
vt 0.551344 0.810857
vt 0.551070 0.824690
vt 0.558522 0.818274
vt 0.568636 0.818767
vt 0.575604 0.836113
vt 0.570919 0.840871
vt 0.559782 0.825732
vt 0.579910 0.816971
vt 0.582671 0.835011
vt 0.576366 0.849347
vt 0.584267 0.853278
vt 0.590770 0.844443
vt 0.592292 0.832138
vt 0.608977 0.843966
vt 0.601768 0.855347
vt 0.611113 0.832244
vt 0.604767 0.819868
vt 0.608576 0.811668
vt 0.619909 0.822479
vt 0.618022 0.830164
vt 0.583202 0.800201
vt 0.589453 0.799589
vt 0.604005 0.802377
vt 0.622192 0.805264
vt 0.625898 0.792941
vt 0.627310 0.801284
vt 0.626772 0.810995
vt 0.647377 0.794050
vt 0.654874 0.785344
vt 0.654874 0.800308
vt 0.653581 0.809873
vt 0.653067 0.761118
vt 0.628505 0.781179
vt 0.646049 0.811819
vt 0.631378 0.768548
vt 0.616907 0.776294
vt 0.626355 0.758409
vt 0.604700 0.758822
vt 0.588390 0.790927
vt 0.594223 0.767944
vt 0.582486 0.777574
vt 0.583452 0.761524
vt 0.576888 0.786351
vt 0.576378 0.775283
vt 0.558499 0.776895
vt 0.559513 0.762895
vt 0.573273 0.753944
vt 0.568145 0.753362
vt 0.548895 0.763046
vt 0.544862 0.768356
vt 0.542859 0.758647
vt 0.547151 0.748527
vt 0.534879 0.745434
vt 0.548566 0.733888
vt 0.550135 0.741348
vt 0.572989 0.739765
vt 0.565343 0.727759
vt 0.553707 0.729353
vt 0.548311 0.725794
vt 0.550433 0.717665
vt 0.557663 0.724875
vt 0.540108 0.730960
vt 0.542922 0.723368
vt 0.544383 0.707664
vt 0.527151 0.714858
vt 0.526999 0.727632
vt 0.525020 0.737221
vt 0.270583 0.537578
vt 0.250825 0.529976
vt 0.270044 0.521557
vt 0.514933 0.738985
vt 0.258994 0.517537
vt 0.257127 0.536012
vt 0.241679 0.534911
vt 0.261556 0.318912
vt 0.261378 0.334514
vt 0.244285 0.319244
vt 0.254676 0.343069
vt 0.246675 0.309721
vt 0.238617 0.303925
vt 0.230844 0.321558
vt 0.236002 0.327882
vt 0.242166 0.337036
vt 0.231225 0.316494
vt 0.227896 0.307184
vt 0.224297 0.318338
vt 0.219283 0.306518
vt 0.228557 0.302764
vt 0.566473 0.720219
vt 0.566149 0.707045
vt 0.584711 0.712144
vt 0.576128 0.707292
vt 0.555444 0.707240
vt 0.577018 0.723987
vt 0.588876 0.720289
vt 0.581323 0.735249
vt 0.588751 0.750568
vt 0.603246 0.731369
vt 0.611784 0.741918
vt 0.609298 0.725574
vt 0.596779 0.720614
vt 0.614332 0.738602
vt 0.621807 0.740239
vt 0.628902 0.734613
vt 0.639378 0.752085
vt 0.623509 0.728807
vt 0.639458 0.737338
vt 0.647344 0.741818
vt 0.210680 0.362296
vt 0.199030 0.364929
vt 0.204622 0.348191
vt 0.196833 0.348230
vt 0.200630 0.373030
vt 0.214565 0.377814
vt 0.216870 0.353348
vt 0.221336 0.366859
vt 0.227317 0.399833
vt 0.210346 0.394004
vt 0.229310 0.393693
vt 0.236103 0.368835
vt 0.234747 0.378726
vt 0.229438 0.366094
vt 0.200817 0.379516
vt 0.223014 0.547177
vt 0.225226 0.561936
vt 0.207996 0.553862
vt 0.207980 0.574077
vt 0.198862 0.566937
vt 0.212256 0.544736
vt 0.226504 0.540373
vt 0.244733 0.556705
vt 0.255052 0.559801
vt 0.246258 0.567287
vt 0.251440 0.553141
vt 0.225748 0.576750
vt 0.256199 0.548308
vt 0.257311 0.556602
vt 0.261018 0.562890
vt 0.260264 0.554675
vt 0.257322 0.567442
vt 0.269427 0.563589
vt 0.269698 0.576160
vt 0.272476 0.555439
vt 0.523930 0.745404
vt 0.513007 0.759960
vt 0.526857 0.758211
vt 0.518416 0.770107
vt 0.510260 0.784315
vt 0.516762 0.778941
vt 0.528767 0.768165
vt 0.539924 0.772270
vt 0.537889 0.759761
vt 0.519318 0.788496
vt 0.544901 0.787472
vt 0.545909 0.796549
vt 0.542352 0.783905
vt 0.513983 0.794777
vt 0.517444 0.810385
vt 0.533559 0.813390
vt 0.539967 0.828188
vt 0.530634 0.820912
vt 0.521973 0.824005
vt 0.268587 0.603017
vt 0.270384 0.610159
vt 0.267420 0.606101
vt 0.258954 0.594393
vt 0.525967 0.831184
vt 0.271427 0.590379
vt 0.246263 0.587115
vt 0.250204 0.605269
vt 0.255401 0.606020
vt 0.258963 0.609681
vt 0.267220 0.612399
vt 0.261656 0.620656
vt 0.253948 0.614416
vt 0.243618 0.607238
vt 0.247006 0.614805
vt 0.255959 0.621920
vt 0.243312 0.624196
vt 0.227334 0.605748
vt 0.256837 0.634751
vt 0.244902 0.646065
vt 0.232661 0.631897
vt 0.219985 0.617767
vt 0.207635 0.592574
vt 0.235917 0.599592
vt 0.201757 0.583705
vt 0.218535 0.421419
vt 0.229983 0.411441
vt 0.233240 0.421448
vt 0.215731 0.432994
vt 0.230786 0.456224
vt 0.240276 0.448339
vt 0.214712 0.447759
vt 0.222217 0.463030
vt 0.238022 0.472859
vt 0.230079 0.464937
vt 0.249200 0.464676
vt 0.214470 0.469373
vt 0.210705 0.447727
vt 0.649643 0.825200
vt 0.637585 0.846784
vt 0.633749 0.840032
vt 0.630416 0.851090
vt 0.225034 0.479982
vt 0.214347 0.476875
vt 0.233695 0.479533
vt 0.238553 0.492988
vt 0.229031 0.497646
vt 0.214248 0.494682
vt 0.228275 0.511436
vt 0.222996 0.506412
vt 0.598126 0.872950
vt 0.604865 0.874409
vt 0.593348 0.877292
vt 0.600524 0.881131
vt 0.614260 0.861566
vt 0.586272 0.861407
vt 0.609582 0.861155
vt 0.574483 0.857207
vt 0.581300 0.878986
vt 0.577662 0.866050
vt 0.562733 0.864890
vt 0.570837 0.883749
vt 0.561577 0.889048
vt 0.567937 0.848358
vt 0.556253 0.873586
vt 0.555112 0.862166
vt 0.556135 0.853580
vt 0.553950 0.828463
vt 0.537862 0.840609
vt 0.533744 0.835407
vt 0.526142 0.847341
vt 0.527396 0.859835
vt 0.530674 0.872679
vt 0.271089 0.624535
vt 0.271961 0.635632
vt 0.272476 0.647317
vt 0.264146 0.645881
vt 0.247020 0.650582
vt 0.268243 0.652219
vt 0.259244 0.657544
vt 0.270779 0.660758
vt 0.540138 0.886113
vt 0.544845 0.891192
vt 0.270545 0.666744
vt 0.551374 0.896110
vt 0.269934 0.673745
vt 0.263478 0.675415
vt 0.260420 0.662131
vt 0.254887 0.669386
vt 0.258354 0.667453
vt 0.248828 0.667687
vt 0.245006 0.661823
vt 0.254889 0.678250
vt 0.594573 0.907054
vt 0.577813 0.911332
vt 0.575624 0.899569
vt 0.585222 0.910317
vt 0.241472 0.512642
vt 0.253879 0.500579
vt 0.252646 0.512782
vt 0.596690 0.895055
vt 0.577034 0.889329
vt 0.598297 0.887495
vt 0.246036 0.482681
vt 0.255048 0.493574
vt 0.261556 0.484176
vt 0.260345 0.479370
vt 0.527165 0.839185
vt 0.270237 0.617328
vt 0.614998 0.848668
vt 0.622050 0.852582
vt 0.617178 0.838169
vt 0.638654 0.822145
vt 0.206082 0.434515
vt 0.212020 0.423953
vt 0.204750 0.426036
vt 0.209266 0.403779
vt 0.221262 0.410143
vt 0.197444 0.391817
vt 0.202636 0.412959
vt 0.196605 0.572990
vt 0.244132 0.356059
vt 0.235206 0.340836
vt 0.228805 0.343582
vt 0.231709 0.329664
vt 0.228138 0.334623
vt 0.224746 0.326082
vt 0.220064 0.326117
vt 0.219193 0.333206
vt 0.209123 0.335629
vt 0.205093 0.324801
vt 0.208929 0.311016
vt 0.602134 0.710975
vt 0.590636 0.712100
vt 0.588147 0.707218
vt 0.601321 0.716259
vt 0.609508 0.721097
vt 0.196605 0.332840
vt 0.224834 0.340453
vt 0.652566 0.746707
s 1
usemtl RocksCollection
f 2/1/2 6/2/6 1/3/1
f 2/1/2 1/3/1 4/4/4
f 1/3/1 3/5/3 4/4/4
f 1/3/1 5/6/5 3/5/3
f 1/3/1 7/7/7 5/6/5
f 7/7/7 1/3/1 6/2/6
f 11/8/11 8/9/8 7/7/7
f 10/10/10 7/7/7 8/9/8
f 7/7/7 6/2/6 9/11/9
f 9/11/9 11/8/11 7/7/7
f 5/6/5 7/7/7 10/10/10
f 11/8/11 13/12/13 12/13/12
f 8/9/8 11/8/11 12/13/12
f 13/12/13 11/8/11 9/11/9
f 15/14/15 13/12/13 14/15/14
f 13/12/13 16/16/16 14/15/14
f 15/14/15 12/13/12 13/12/13
f 13/12/13 9/11/9 16/16/16
f 17/17/17 18/18/18 16/16/16
f 19/19/19 17/17/17 16/16/16
f 16/16/16 18/18/18 14/15/14
f 20/20/20 19/19/19 16/16/16
f 9/11/9 20/20/20 16/16/16
f 20/20/20 24/21/24 21/22/21
f 20/20/20 21/22/21 22/23/22
f 22/23/22 19/19/19 20/20/20
f 23/24/23 20/20/20 9/11/9
f 23/24/23 24/21/24 20/20/20
f 23/24/23 25/25/25 24/21/24
f 27/26/27 24/21/24 25/25/25
f 28/27/28 21/22/21 24/21/24
f 26/28/26 24/21/24 27/26/27
f 28/27/28 24/21/24 26/28/26
f 28/27/28 26/28/26 30/29/30
f 30/29/30 29/30/29 28/27/28
f 29/30/29 21/22/21 28/27/28
f 30/29/30 26/28/26 31/31/31
f 31/31/31 29/30/29 30/29/30
f 33/32/33 32/33/32 31/31/31
f 34/34/34 31/31/31 32/33/32
f 35/35/35 33/32/33 31/31/31
f 26/28/26 38/36/38 31/31/31
f 34/34/34 37/37/37 31/31/31
f 36/38/36 35/35/35 31/31/31
f 38/36/38 36/38/36 31/31/31
f 29/30/29 31/31/31 37/37/37
f 36/38/36 38/36/38 39/39/39
f 38/36/38 26/28/26 39/39/39
f 40/40/40 36/38/36 39/39/39
f 40/40/40 39/39/39 42/41/42
f 41/42/41 43/43/43 39/39/39
f 39/39/39 26/28/26 41/42/41
f 39/39/39 43/43/43 42/41/42
f 43/43/43 41/42/41 45/44/45
f 43/43/43 44/45/44 42/41/42
f 45/44/45 44/45/44 43/43/43
f 41/42/41 46/46/46 45/44/45
f 45/44/45 46/46/46 47/47/47
f 47/47/47 44/45/44 45/44/45
f 47/47/47 46/46/46 48/48/48
f 47/47/47 48/48/48 50/49/50
f 49/50/49 44/45/44 47/47/47
f 50/49/50 49/50/49 47/47/47
f 50/49/50 51/51/51 49/50/49
f 52/52/52 51/51/51 50/49/50
f 50/49/50 48/48/48 52/52/52
f 54/53/54 52/52/52 48/48/48
f 52/52/52 53/54/53 55/55/55
f 54/53/54 53/54/53 52/52/52
f 52/52/52 55/55/55 51/51/51
f 55/55/55 53/54/53 57/56/57
f 56/57/56 58/58/58 55/55/55
f 56/57/56 55/55/55 57/56/57
f 55/55/55 58/58/58 51/51/51
f 59/59/59 51/51/51 58/58/58
f 59/59/59 58/58/58 60/60/60
f 58/58/58 61/61/61 60/60/60
f 58/58/58 56/57/56 61/61/61
f 64/62/64 61/61/61 56/57/56
f 61/61/61 64/62/64 62/63/62
f 63/64/63 61/61/61 62/63/62
f 63/64/63 60/60/60 61/61/61
f 64/62/64 56/57/56 65/65/65
f 64/62/64 65/65/65 66/66/66
f 62/63/62 64/62/64 66/66/66
f 68/67/68 66/66/66 67/68/67
f 66/66/66 70/69/70 67/68/67
f 66/66/66 68/67/68 62/63/62
f 65/65/65 69/70/69 66/66/66
f 69/70/69 70/69/70 66/66/66
f 71/71/71 72/72/72 70/73/70
f 69/70/69 71/74/71 70/69/70
f 72/72/72 67/75/67 70/73/70
f 73/76/73 72/72/72 71/71/71
f 74/77/74 72/72/72 73/76/73
f 67/78/67 72/79/72 75/80/75
f 74/81/74 75/80/75 72/79/72
f 68/82/68 75/80/75 78/83/78
f 75/80/75 68/82/68 67/78/67
f 79/84/79 75/80/75 76/85/76
f 77/86/77 76/85/76 75/80/75
f 75/80/75 74/81/74 77/86/77
f 75/80/75 80/87/80 78/83/78
f 80/87/80 75/80/75 79/84/79
f 78/83/78 80/87/80 82/88/82
f 81/89/81 80/87/80 79/84/79
f 81/89/81 82/88/82 80/87/80
f 83/90/83 82/88/82 81/89/81
f 84/91/84 82/88/82 83/90/83
f 78/83/78 82/88/82 84/91/84
f 86/92/86 84/93/84 85/94/85
f 85/94/85 84/93/84 83/95/83
f 62/63/62 84/93/84 63/64/63
f 86/92/86 63/64/63 84/93/84
f 84/93/84 62/63/62 78/96/78
f 87/97/87 86/92/86 85/94/85
f 86/92/86 87/97/87 60/60/60
f 86/92/86 60/60/60 63/64/63
f 88/98/88 87/97/87 85/94/85
f 89/99/89 87/97/87 88/98/88
f 59/59/59 60/60/60 87/97/87
f 89/99/89 59/59/59 87/97/87
f 89/99/89 90/100/90 49/50/49
f 91/101/91 90/100/90 89/99/89
f 89/99/89 88/98/88 91/101/91
f 89/99/89 49/50/49 59/59/59
f 91/101/91 93/102/93 90/100/90
f 94/103/94 91/101/91 92/104/92
f 88/98/88 92/104/92 91/101/91
f 93/102/93 91/101/91 95/105/95
f 91/101/91 94/103/94 95/105/95
f 40/40/40 93/102/93 95/105/95
f 96/106/96 40/40/40 95/105/95
f 96/106/96 95/105/95 94/103/94
f 99/107/99 97/108/97 96/106/96
f 40/40/40 96/106/96 97/108/97
f 98/109/98 99/107/99 96/106/96
f 98/109/98 96/106/96 94/103/94
f 100/110/100 99/107/99 98/109/98
f 100/110/100 97/108/97 99/107/99
f 97/108/97 100/110/100 102/111/102
f 103/112/103 100/113/100 101/114/101
f 100/113/100 98/115/98 101/114/101
f 103/112/103 102/116/102 100/113/100
f 103/112/103 106/117/106 102/116/102
f 104/118/104 105/119/105 103/112/103
f 103/112/103 101/114/101 104/118/104
f 106/117/106 103/112/103 105/119/105
f 107/120/107 110/121/110 106/117/106
f 111/122/111 107/120/107 106/117/106
f 106/117/106 108/123/108 113/124/113
f 108/123/108 106/117/106 109/125/109
f 109/125/109 106/117/106 105/119/105
f 112/126/112 106/117/106 110/121/110
f 113/124/113 111/122/111 106/117/106
f 106/117/106 112/126/112 102/116/102
f 116/127/116 114/128/114 113/129/113
f 113/129/113 114/128/114 115/130/115
f 113/129/113 115/130/115 111/131/111
f 108/132/108 116/127/116 113/129/113
f 116/127/116 108/132/108 117/133/117
f 118/134/118 114/128/114 116/127/116
f 74/77/74 116/127/116 117/133/117
f 116/127/116 74/77/74 118/134/118
f 118/134/118 119/135/119 120/136/120
f 119/135/119 118/134/118 122/137/122
f 120/136/120 121/138/121 118/134/118
f 121/138/121 114/128/114 118/134/118
f 122/137/122 118/134/118 74/77/74
f 73/76/73 122/137/122 74/77/74
f 122/137/122 73/76/73 123/139/123
f 124/140/124 122/137/122 123/139/123
f 119/135/119 122/137/122 124/140/124
f 126/141/126 119/135/119 124/140/124
f 123/139/123 125/142/125 124/140/124
f 126/141/126 124/140/124 125/142/125
f 126/141/126 127/143/127 119/135/119
f 126/141/126 128/144/128 127/143/127
f 125/142/125 128/144/128 126/141/126
f 127/143/127 128/144/128 129/145/129
f 130/146/130 128/144/128 125/142/125
f 129/145/129 128/144/128 130/146/130
f 130/146/130 125/142/125 73/76/73
f 131/147/131 130/148/130 71/74/71
f 130/146/130 73/76/73 71/71/71
f 130/148/130 131/147/131 132/149/132
f 130/148/130 133/150/133 129/151/129
f 132/149/132 133/150/133 130/148/130
f 129/151/129 133/150/133 135/152/135
f 136/153/136 134/154/134 133/150/133
f 135/152/135 133/150/133 134/154/134
f 136/153/136 133/150/133 132/149/132
f 137/155/137 136/153/136 132/149/132
f 134/154/134 136/153/136 137/155/137
f 53/54/53 137/155/137 57/56/57
f 134/154/134 137/155/137 53/54/53
f 137/155/137 132/149/132 57/56/57
f 135/156/135 138/157/138 141/158/141
f 135/152/135 134/154/134 138/159/138
f 129/160/129 135/156/135 139/161/139
f 139/161/139 135/156/135 140/162/140
f 140/162/140 135/156/135 141/158/141
f 140/162/140 141/158/141 4/4/4
f 141/158/141 138/157/138 2/1/2
f 4/4/4 141/158/141 2/1/2
f 143/163/143 140/162/140 4/4/4
f 140/162/140 143/163/143 142/164/142
f 144/165/144 140/162/140 142/164/142
f 139/161/139 140/162/140 144/165/144
f 144/166/144 146/167/146 145/168/145
f 145/168/145 147/169/147 144/166/144
f 142/164/142 146/170/146 144/165/144
f 147/169/147 139/171/139 144/166/144
f 147/169/147 150/172/150 120/136/120
f 147/169/147 120/136/120 127/143/127
f 150/172/150 147/169/147 148/173/148
f 149/174/149 148/173/148 147/169/147
f 147/169/147 151/175/151 149/174/149
f 129/145/129 139/171/139 147/169/147
f 147/169/147 127/143/127 129/145/129
f 147/169/147 145/168/145 151/175/151
f 153/176/153 151/175/151 145/168/145
f 152/177/152 151/175/151 153/176/153
f 154/178/154 151/175/151 152/177/152
f 151/175/151 154/178/154 149/174/149
f 154/178/154 155/179/155 148/173/148
f 154/178/154 157/180/157 155/179/155
f 156/181/156 157/180/157 154/178/154
f 156/181/156 154/178/154 152/177/152
f 154/178/154 148/173/148 149/174/149
f 156/181/156 158/182/158 157/180/157
f 157/180/157 158/182/158 155/179/155
f 155/179/155 158/182/158 163/183/163
f 158/182/158 156/181/156 161/184/161
f 162/185/162 159/186/159 158/182/158
f 160/187/160 158/182/158 159/186/159
f 158/182/158 160/187/160 163/183/163
f 162/185/162 158/182/158 161/184/161
f 164/188/164 165/189/165 163/183/163
f 164/188/164 163/183/163 160/187/160
f 165/189/165 155/179/155 163/183/163
f 164/188/164 121/138/121 165/189/165
f 150/172/150 165/189/165 121/138/121
f 165/189/165 148/173/148 155/179/155
f 148/173/148 165/189/165 150/172/150
f 115/130/115 164/188/164 166/190/166
f 167/191/167 166/192/166 164/193/164
f 115/130/115 121/138/121 164/188/164
f 168/194/168 167/191/167 164/193/164
f 169/195/169 164/193/164 160/196/160
f 169/195/169 168/194/168 164/193/164
f 170/197/170 168/194/168 169/195/169
f 170/197/170 169/195/169 173/198/173
f 169/195/169 171/199/171 172/200/172
f 159/201/159 171/199/171 169/195/169
f 169/195/169 160/196/160 159/201/159
f 172/200/172 173/198/173 169/195/169
f 173/198/173 174/202/174 170/197/170
f 174/202/174 173/198/173 172/200/172
f 174/202/174 175/203/175 170/197/170
f 175/204/175 174/205/174 176/206/176
f 174/205/174 177/207/177 176/206/176
f 174/202/174 178/208/178 177/209/177
f 178/208/178 174/202/174 172/200/172
f 172/200/172 179/210/179 178/208/178
f 179/210/179 180/211/180 178/208/178
f 178/208/178 180/211/180 182/212/182
f 181/213/181 178/208/178 182/212/182
f 178/208/178 181/213/181 177/209/177
f 182/212/182 180/211/180 183/214/183
f 184/215/184 182/212/182 183/214/183
f 182/212/182 184/215/184 181/213/181
f 186/216/186 184/217/184 185/218/185
f 183/219/183 185/218/185 184/217/184
f 184/217/184 186/216/186 181/220/181
f 188/221/188 186/216/186 185/218/185
f 18/18/18 186/216/186 188/221/188
f 186/216/186 18/18/18 187/222/187
f 181/220/181 186/216/186 187/222/187
f 188/221/188 12/13/12 15/14/15
f 188/221/188 190/223/190 12/13/12
f 188/221/188 185/218/185 189/224/189
f 191/225/191 188/221/188 189/224/189
f 188/221/188 191/225/191 190/223/190
f 188/221/188 15/14/15 18/18/18
f 190/223/190 191/225/191 192/226/192
f 191/225/191 189/224/189 192/226/192
f 193/227/193 194/228/194 192/226/192
f 193/227/193 192/226/192 189/224/189
f 198/229/198 190/223/190 192/226/192
f 194/228/194 195/230/195 192/226/192
f 195/230/195 197/231/197 192/226/192
f 192/226/192 196/232/196 198/229/198
f 197/231/197 196/232/196 192/226/192
f 198/229/198 10/10/10 8/9/8
f 198/229/198 8/9/8 190/223/190
f 196/232/196 199/233/199 198/229/198
f 10/10/10 198/229/198 199/233/199
f 200/234/200 199/233/199 196/232/196
f 199/233/199 200/234/200 3/5/3
f 10/10/10 199/233/199 3/5/3
f 200/234/200 201/235/201 143/163/143
f 200/234/200 202/236/202 201/235/201
f 3/5/3 200/234/200 143/163/143
f 197/231/197 200/234/200 196/232/196
f 202/236/202 200/234/200 203/237/203
f 200/234/200 197/231/197 203/237/203
f 203/237/203 197/231/197 204/238/204
f 202/239/202 203/240/203 161/184/161
f 203/240/203 204/241/204 205/242/205
f 161/184/161 203/240/203 205/242/205
f 206/243/206 162/185/162 205/242/205
f 207/244/207 206/243/206 205/242/205
f 161/184/161 205/242/205 162/185/162
f 204/241/204 207/244/207 205/242/205
f 208/245/208 206/243/206 207/244/207
f 207/244/207 209/246/209 208/245/208
f 204/241/204 209/246/209 207/244/207
f 195/230/195 209/247/209 197/231/197
f 209/247/209 195/230/195 194/228/194
f 209/247/209 204/238/204 197/231/197
f 194/228/194 210/248/210 209/247/209
f 209/246/209 210/249/210 208/245/208
f 194/228/194 211/250/211 210/248/210
f 210/249/210 211/251/211 212/252/212
f 212/252/212 213/253/213 210/249/210
f 210/249/210 213/253/213 208/245/208
f 214/254/214 208/245/208 213/253/213
f 215/255/215 214/254/214 213/253/213
f 215/255/215 213/253/213 212/252/212
f 214/254/214 215/255/215 212/252/212
f 214/254/214 217/256/217 216/257/216
f 216/257/216 208/245/208 214/254/214
f 214/254/214 212/252/212 218/258/218
f 214/254/214 218/258/218 217/256/217
f 218/259/218 211/260/211 194/261/194
f 211/260/211 218/259/218 212/262/212
f 219/263/219 217/264/217 218/265/218
f 219/266/219 218/259/218 194/261/194
f 183/214/183 180/211/180 219/263/219
f 180/211/180 217/264/217 219/263/219
f 193/267/193 220/268/220 219/266/219
f 193/267/193 219/266/219 194/261/194
f 183/219/183 219/266/219 220/268/220
f 220/268/220 189/224/189 185/218/185
f 185/218/185 183/219/183 220/268/220
f 220/268/220 193/267/193 189/224/189
f 180/211/180 221/269/221 217/264/217
f 217/264/217 221/269/221 216/270/216
f 221/269/221 180/211/180 179/210/179
f 221/269/221 206/271/206 216/270/216
f 179/210/179 171/199/171 221/269/221
f 159/201/159 221/269/221 171/199/171
f 159/201/159 162/272/162 221/269/221
f 162/272/162 206/271/206 221/269/221
f 208/245/208 216/257/216 206/243/206
f 202/236/202 222/273/222 201/235/201
f 222/274/222 202/239/202 152/177/152
f 202/239/202 161/184/161 152/177/152
f 146/170/146 201/235/201 222/273/222
f 153/176/153 146/167/146 222/274/222
f 152/177/152 153/176/153 222/274/222
f 146/170/146 142/164/142 201/235/201
f 201/235/201 142/164/142 143/163/143
f 12/13/12 190/223/190 8/9/8
f 187/222/187 18/18/18 223/275/223
f 187/222/187 223/275/223 181/220/181
f 223/275/223 225/276/225 181/220/181
f 17/17/17 223/275/223 18/18/18
f 223/275/223 17/17/17 224/277/224
f 224/277/224 225/276/225 223/275/223
f 177/207/177 181/220/181 225/276/225
f 224/277/224 176/206/176 225/276/225
f 177/207/177 225/276/225 176/206/176
f 22/23/22 176/206/176 224/277/224
f 22/23/22 224/277/224 19/19/19
f 17/17/17 19/19/19 224/277/224
f 179/210/179 172/200/172 171/199/171
f 175/204/175 176/206/176 226/278/226
f 226/278/226 176/206/176 22/23/22
f 226/278/226 21/22/21 29/30/29
f 226/278/226 22/23/22 21/22/21
f 175/204/175 226/278/226 37/37/37
f 226/278/226 29/30/29 37/37/37
f 175/203/175 168/194/168 170/197/170
f 175/204/175 37/37/37 34/34/34
f 175/203/175 34/279/34 168/194/168
f 168/194/168 34/279/34 227/280/227
f 168/194/168 227/280/227 167/191/167
f 32/281/32 228/282/228 227/280/227
f 227/280/227 228/282/228 229/283/229
f 227/280/227 229/283/229 167/191/167
f 227/280/227 34/279/34 32/281/32
f 110/121/110 229/283/229 228/282/228
f 107/120/107 229/283/229 110/121/110
f 107/120/107 166/192/166 229/283/229
f 167/191/167 229/283/229 166/192/166
f 110/121/110 228/282/228 35/284/35
f 228/282/228 33/285/33 35/284/35
f 33/285/33 228/282/228 32/281/32
f 111/131/111 166/190/166 107/286/107
f 115/130/115 166/190/166 111/131/111
f 152/177/152 161/184/161 156/181/156
f 145/168/145 146/167/146 153/176/153
f 121/138/121 120/136/120 150/172/150
f 3/5/3 143/163/143 4/4/4
f 138/159/138 54/53/54 48/48/48
f 2/1/2 138/157/138 48/48/48
f 134/154/134 54/53/54 138/159/138
f 54/53/54 134/154/134 53/54/53
f 57/56/57 132/149/132 131/147/131
f 69/70/69 57/56/57 131/147/131
f 71/74/71 69/70/69 131/147/131
f 127/143/127 120/136/120 119/135/119
f 125/142/125 123/139/123 73/76/73
f 121/138/121 115/130/115 114/128/114
f 109/125/109 117/287/117 108/123/108
f 77/86/77 74/81/74 117/287/117
f 117/287/117 231/288/231 77/86/77
f 117/287/117 109/125/109 230/289/230
f 117/287/117 230/289/230 231/288/231
f 77/86/77 231/288/231 233/290/233
f 232/291/232 233/290/233 231/288/231
f 232/291/232 231/288/231 230/289/230
f 233/290/233 232/291/232 234/292/234
f 233/290/233 234/292/234 79/84/79
f 76/85/76 233/290/233 79/84/79
f 76/85/76 77/86/77 233/290/233
f 234/292/234 235/293/235 81/89/81
f 232/291/232 235/293/235 234/292/234
f 81/89/81 79/84/79 234/292/234
f 236/294/236 235/293/235 232/291/232
f 236/294/236 238/295/238 235/293/235
f 237/296/237 235/293/235 238/295/238
f 235/293/235 237/296/237 239/297/239
f 239/297/239 81/89/81 235/293/235
f 237/298/237 240/299/240 239/300/239
f 240/299/240 85/94/85 239/300/239
f 85/94/85 83/95/83 239/300/239
f 81/89/81 239/297/239 83/90/83
f 240/299/240 92/104/92 88/98/88
f 88/98/88 85/94/85 240/299/240
f 240/299/240 241/301/241 92/104/92
f 240/299/240 237/298/237 241/301/241
f 242/302/242 92/104/92 241/301/241
f 242/302/242 241/301/241 237/298/237
f 94/103/94 92/104/92 242/302/242
f 242/303/242 237/296/237 238/295/238
f 101/114/101 242/303/242 238/295/238
f 98/109/98 94/103/94 242/302/242
f 242/303/242 101/114/101 98/115/98
f 104/118/104 101/114/101 238/295/238
f 238/295/238 236/294/236 243/304/243
f 104/118/104 238/295/238 243/304/243
f 243/304/243 230/289/230 104/118/104
f 236/294/236 232/291/232 243/304/243
f 230/289/230 243/304/243 232/291/232
f 109/125/109 104/118/104 230/289/230
f 112/305/112 97/108/97 102/111/102
f 112/305/112 35/35/35 97/108/97
f 110/121/110 35/284/35 112/126/112
f 105/119/105 104/118/104 109/125/109
f 36/38/36 97/108/97 35/35/35
f 40/40/40 97/108/97 36/38/36
f 90/100/90 93/102/93 42/41/42
f 93/102/93 40/40/40 42/41/42
f 44/45/44 90/100/90 42/41/42
f 90/100/90 44/45/44 49/50/49
f 62/63/62 68/67/68 78/96/78
f 57/56/57 69/70/69 65/65/65
f 65/65/65 56/57/56 57/56/57
f 59/59/59 49/50/49 51/51/51
f 6/2/6 48/48/48 46/46/46
f 2/1/2 48/48/48 6/2/6
f 41/42/41 23/24/23 46/46/46
f 23/24/23 6/2/6 46/46/46
f 41/42/41 26/28/26 27/26/27
f 41/42/41 25/25/25 23/24/23
f 27/26/27 25/25/25 41/42/41
f 6/2/6 23/24/23 9/11/9
f 14/15/14 18/18/18 15/14/15
f 5/6/5 10/10/10 3/5/3
