{
	"asset":{
		"generator":"Khronos glTF Blender I/O v5.1.20",
		"version":"2.0"
	},
	"scene":0,
	"scenes":[
		{
			"name":"Scene",
			"nodes":[
				3
			]
		}
	],
	"nodes":[
		{
			"name":"Bone",
			"rotation":[
				0,
				-1.8997815325188297e-23,
				-1.4836407909355436e-30,
				1
			]
		},
		{
			"name":"Bone.001",
			"rotation":[
				1,
				2.1855697696082643e-08,
				2.1855695919725804e-08,
				4.0730171235736634e-08
			]
		},
		{
			"mesh":0,
			"name":"Plane",
			"skin":0
		},
		{
			"children":[
				2,
				0,
				1
			],
			"name":"Armature",
			"rotation":[
				0.5,
				0.5,
				-0.5,
				0.5
			],
			"scale":[
				0.11038704216480255,
				0.11038704216480255,
				0.11038704216480255
			]
		}
	],
	"animations":[
		{
			"channels":[
				{
					"sampler":0,
					"target":{
						"node":0,
						"path":"translation"
					}
				},
				{
					"sampler":1,
					"target":{
						"node":0,
						"path":"rotation"
					}
				},
				{
					"sampler":2,
					"target":{
						"node":0,
						"path":"scale"
					}
				},
				{
					"sampler":3,
					"target":{
						"node":1,
						"path":"translation"
					}
				},
				{
					"sampler":4,
					"target":{
						"node":1,
						"path":"rotation"
					}
				},
				{
					"sampler":5,
					"target":{
						"node":1,
						"path":"scale"
					}
				}
			],
			"name":"fly-loop",
			"samplers":[
				{
					"input":7,
					"interpolation":"LINEAR",
					"output":8
				},
				{
					"input":7,
					"interpolation":"LINEAR",
					"output":9
				},
				{
					"input":10,
					"interpolation":"STEP",
					"output":11
				},
				{
					"input":7,
					"interpolation":"LINEAR",
					"output":12
				},
				{
					"input":7,
					"interpolation":"LINEAR",
					"output":13
				},
				{
					"input":10,
					"interpolation":"STEP",
					"output":14
				}
			]
		}
	],
	"meshes":[
		{
			"name":"Plane",
			"primitives":[
				{
					"attributes":{
						"POSITION":0,
						"NORMAL":1,
						"TEXCOORD_0":2,
						"JOINTS_0":3,
						"WEIGHTS_0":4
					},
					"indices":5
				}
			]
		}
	],
	"skins":[
		{
			"inverseBindMatrices":6,
			"joints":[
				0,
				1
			],
			"name":"Armature"
		}
	],
	"accessors":[
		{
			"bufferView":0,
			"componentType":5126,
			"count":6,
			"max":[
				0.11946374922990799,
				0.00036422614357434213,
				0.13210488855838776
			],
			"min":[
				-0.12133605033159256,
				0.00036422614357434213,
				-0.13485758006572723
			],
			"type":"VEC3"
		},
		{
			"bufferView":1,
			"componentType":5126,
			"count":6,
			"type":"VEC3"
		},
		{
			"bufferView":2,
			"componentType":5126,
			"count":6,
			"type":"VEC2"
		},
		{
			"bufferView":3,
			"componentType":5121,
			"count":6,
			"type":"VEC4"
		},
		{
			"bufferView":4,
			"componentType":5126,
			"count":6,
			"type":"VEC4"
		},
		{
			"bufferView":5,
			"componentType":5123,
			"count":12,
			"type":"SCALAR"
		},
		{
			"bufferView":6,
			"componentType":5126,
			"count":2,
			"type":"MAT4"
		},
		{
			"bufferView":7,
			"componentType":5126,
			"count":7,
			"max":[
				0.2916666666666667
			],
			"min":[
				0.041666666666666664
			],
			"type":"SCALAR"
		},
		{
			"bufferView":8,
			"componentType":5126,
			"count":7,
			"type":"VEC3"
		},
		{
			"bufferView":9,
			"componentType":5126,
			"count":7,
			"type":"VEC4"
		},
		{
			"bufferView":10,
			"componentType":5126,
			"count":2,
			"max":[
				0.2916666666666667
			],
			"min":[
				0.041666666666666664
			],
			"type":"SCALAR"
		},
		{
			"bufferView":11,
			"componentType":5126,
			"count":2,
			"type":"VEC3"
		},
		{
			"bufferView":12,
			"componentType":5126,
			"count":7,
			"type":"VEC3"
		},
		{
			"bufferView":13,
			"componentType":5126,
			"count":7,
			"type":"VEC4"
		},
		{
			"bufferView":14,
			"componentType":5126,
			"count":2,
			"type":"VEC3"
		}
	],
	"bufferViews":[
		{
			"buffer":0,
			"byteLength":72,
			"byteOffset":0,
			"target":34962
		},
		{
			"buffer":0,
			"byteLength":72,
			"byteOffset":72,
			"target":34962
		},
		{
			"buffer":0,
			"byteLength":48,
			"byteOffset":144,
			"target":34962
		},
		{
			"buffer":0,
			"byteLength":24,
			"byteOffset":192,
			"target":34962
		},
		{
			"buffer":0,
			"byteLength":96,
			"byteOffset":216,
			"target":34962
		},
		{
			"buffer":0,
			"byteLength":24,
			"byteOffset":312,
			"target":34963
		},
		{
			"buffer":0,
			"byteLength":128,
			"byteOffset":336
		},
		{
			"buffer":0,
			"byteLength":28,
			"byteOffset":464
		},
		{
			"buffer":0,
			"byteLength":84,
			"byteOffset":492
		},
		{
			"buffer":0,
			"byteLength":112,
			"byteOffset":576
		},
		{
			"buffer":0,
			"byteLength":8,
			"byteOffset":688
		},
		{
			"buffer":0,
			"byteLength":24,
			"byteOffset":696
		},
		{
			"buffer":0,
			"byteLength":84,
			"byteOffset":720
		},
		{
			"buffer":0,
			"byteLength":112,
			"byteOffset":804
		},
		{
			"buffer":0,
			"byteLength":24,
			"byteOffset":916
		}
	],
	"buffers":[
		{
			"byteLength":940,
			"uri":"butterfly.bin"
		}
	]
}
