# Blender 5.1.2
# www.blender.org
mtllib grass main.mtl
o grass1_LOD0
v 0.775391 -0.000000 -0.268927
v 0.443214 0.428718 0.213090
v 0.823095 0.118651 -0.304491
v 0.004161 0.093572 0.681770
v 0.067195 0.000000 0.588020
v 0.544323 0.477828 -0.302132
v 0.097335 0.132242 -0.765570
v 0.118065 -0.000000 -0.707806
v 0.905144 0.104291 0.231591
v 0.821512 0.000000 0.154577
v -0.348132 -0.000000 -0.615783
v -0.228041 0.193933 -0.407089
v -0.370567 0.053672 -0.628103
v -0.043351 0.042328 -0.219571
v -0.065788 -0.000000 -0.260370
v -0.268193 0.000001 0.768323
v -0.582360 0.452791 0.202195
v -0.279920 0.125314 0.838642
v -0.713168 0.098826 -0.491126
v -0.649698 -0.000000 -0.382952
v 0.110776 0.000000 0.810991
v 0.416808 0.212648 0.811112
v 0.094287 0.058852 0.848431
v 0.683895 0.046413 0.623841
v 0.623961 0.000000 0.621278
v 0.649752 0.000000 0.088253
v 0.588974 0.216977 0.399593
v 0.684126 0.060050 0.071494
v 0.380313 0.047358 0.671232
v 0.390108 0.000000 0.610257
v -0.598672 0.000000 0.112336
v -0.102828 0.480224 -0.317467
v -0.666292 0.132906 0.126513
v 0.534598 0.104813 -0.647638
v 0.440263 -0.000000 -0.562855
v 0.126315 -0.000000 -0.352093
v -0.174360 0.462527 0.366796
v 0.138261 0.128008 -0.429497
v -0.356311 0.000001 1.049540
v -0.415485 0.100952 1.187708
v -0.041776 0.000000 0.196671
v 0.265148 0.483576 -0.308525
v -0.089873 0.133833 0.233428
v 0.632967 -0.000000 -0.698864
v 0.690937 0.105545 -0.797157
v -0.145174 -0.000000 -0.217869
v 0.448051 0.509511 -0.037854
v -0.207906 0.141011 -0.217767
v 1.005658 0.000000 0.034289
v 1.119752 0.111206 0.070208
v 0.931298 -0.000000 -0.583986
v 0.365180 0.322179 -0.635616
v 0.986775 0.089165 -0.603707
v -0.144691 -0.000000 -0.556433
v -0.253868 0.070318 -0.568070
v -0.195338 -0.000000 -0.296250
v 0.290895 0.585818 0.264868
v -0.196524 0.162129 -0.378709
v 0.493170 0.000000 0.909567
v 0.590092 0.127861 1.015918
v -0.374460 0.000000 0.249007
v -0.174685 0.287025 0.550957
v -0.412298 0.079436 0.236574
v 0.097855 0.000000 0.735889
v 0.135144 0.062646 0.795285
vn 0.7654 -0.1181 0.6326
vn 0.7658 -0.1528 -0.6247
vn 0.7700 0.1814 -0.6117
vn -0.9175 -0.2565 0.3040
vn -0.3102 0.4469 -0.8391
vn 0.8347 -0.3619 0.4152
vn -0.5356 -0.1846 -0.8241
vn 0.9400 0.1080 0.3237
vn -0.7928 -0.1209 -0.5974
vn 0.2131 0.0955 -0.9724
vn 0.0251 0.2010 0.9793
vn 0.8433 -0.2387 -0.4815
vn 0.6991 0.2268 -0.6781
vt 0.087696 0.000000
vt 0.954910 0.000000
vt 1.000000 0.104273
vt 0.500000 0.376768
vt 0.000000 0.082233
vt 0.954910 0.000000
vt 0.087696 0.000000
s 0
usemtl Grass_Material.004
f 5/1/1 1/2/1 3/3/1
f 2/4/1 4/5/1 5/1/1
f 2/4/1 5/1/1 3/3/1
f 9/5/2 10/1/2 8/2/2
f 6/4/2 9/5/2 8/2/2
f 6/4/2 8/2/2 7/3/2
f 14/5/3 15/1/3 11/2/3
f 12/4/3 14/5/3 11/2/3
s 1
f 12/4/3 11/2/3 13/3/3
s 0
f 19/5/4 20/1/4 16/6/4
f 17/4/4 19/5/4 16/6/4
f 17/4/4 16/6/4 18/3/4
f 24/5/5 25/1/5 21/2/5
f 22/4/5 24/5/5 21/2/5
f 22/4/5 21/2/5 23/3/5
s 1
f 30/1/6 26/2/6 28/3/6
s 0
f 27/4/6 29/5/6 30/1/6
f 27/4/6 30/1/6 28/3/6
f 34/5/7 35/1/7 31/2/7
f 32/4/7 34/5/7 31/2/7
f 32/4/7 31/2/7 33/3/7
f 39/1/8 36/2/8 38/3/8
f 37/4/8 40/5/8 39/1/8
f 37/4/8 39/1/8 38/3/8
s 1
f 44/7/9 41/2/9 43/3/9
s 0
f 42/4/9 45/5/9 44/7/9
f 42/4/9 44/7/9 43/3/9
f 49/1/10 46/2/10 48/3/10
f 47/4/10 50/5/10 49/1/10
f 47/4/10 49/1/10 48/3/10
s 1
f 54/1/11 51/2/11 53/3/11
s 0
f 52/4/11 55/5/11 54/1/11
f 52/4/11 54/1/11 53/3/11
f 59/1/12 56/2/12 58/3/12
f 57/4/12 60/5/12 59/1/12
f 57/4/12 59/1/12 58/3/12
f 64/1/13 61/2/13 63/3/13
f 62/4/13 65/5/13 64/1/13
f 62/4/13 64/1/13 63/3/13
