# Blender 5.1.2
# www.blender.org
mtllib grass main1.mtl
o grass3_LOD0
v -0.054780 0.630062 0.233125
v -0.237462 0.000000 0.064700
v -0.424759 0.461596 -0.016561
v 0.024848 0.000000 0.231865
v 0.245706 0.203272 0.389393
v -0.013572 0.819271 0.029230
v -0.186581 0.000000 -0.102984
v -0.268284 0.600213 -0.261672
v -0.016311 -0.000000 0.105756
v 0.144611 0.264315 0.277264
v -0.157900 0.925981 -0.080426
v 0.013800 0.000000 -0.248624
v 0.125095 0.678391 -0.412283
v -0.179858 -0.000000 -0.014290
v -0.354795 0.298742 0.184626
v 0.156938 0.457647 0.105883
v 0.202817 0.000000 -0.026822
v 0.213181 0.335281 -0.141909
v 0.129922 0.147647 0.296462
v 0.166897 -0.000000 0.146598
v 0.078765 0.721822 -0.295365
v 0.086397 0.000000 -0.056585
v 0.192990 0.528820 0.107023
v -0.064266 0.232876 -0.580849
v -0.005238 -0.000000 -0.333115
v 0.161602 0.654886 0.140797
v -0.000587 0.000000 0.061875
v -0.144495 0.479782 0.091335
v 0.214018 -0.000000 0.085040
v 0.398817 0.211281 0.124802
v 0.184050 0.665998 -0.118351
v 0.011301 0.000000 -0.169746
v -0.085885 0.487922 -0.280361
v 0.194062 -0.000000 -0.048637
v 0.362610 0.214866 0.042704
v -0.066531 0.854798 0.169322
v -0.286909 0.000000 0.236138
v -0.414229 0.626241 0.374858
v -0.051032 -0.000000 0.082845
v 0.165671 0.275777 -0.033338
vn 0.5361 0.0694 -0.8413
vn 0.7734 -0.0615 -0.6309
vn 0.7706 0.0272 0.6368
vn 0.9785 0.0393 0.2027
vn -0.9451 0.0936 0.3132
vn 0.1069 0.0928 -0.9899
vn 0.5507 -0.0787 -0.8310
vn -0.5434 0.0747 -0.8361
vt 0.960690 0.366442
vt 0.725305 0.500133
vt 0.690238 0.000133
vt 0.547322 0.161444
vt 0.854327 0.000133
vt 0.690237 0.000133
s 0
usemtl Grass_Material.008
f 3/1/1 1/2/1 4/3/1
f 1/2/1 5/4/1 4/3/1
f 2/5/1 3/1/1 4/3/1
f 8/1/2 6/2/2 9/3/2
f 6/2/2 10/4/2 9/3/2
f 7/5/2 8/1/2 9/3/2
f 13/1/3 11/2/3 14/3/3
f 11/2/3 15/4/3 14/3/3
f 12/5/3 13/1/3 14/3/3
f 18/1/4 16/2/4 20/6/4
f 16/2/4 19/4/4 20/6/4
f 17/5/4 18/1/4 20/6/4
s 1
f 23/1/5 21/2/5 25/6/5
s 0
f 21/2/5 24/4/5 25/6/5
f 22/5/5 23/1/5 25/6/5
f 28/1/6 26/2/6 29/3/6
f 26/2/6 30/4/6 29/3/6
f 27/5/6 28/1/6 29/3/6
f 33/1/7 31/2/7 34/3/7
f 31/2/7 35/4/7 34/3/7
f 32/5/7 33/1/7 34/3/7
f 40/4/8 39/3/8 37/5/8
f 38/1/8 36/2/8 37/5/8
s 1
f 36/2/8 40/4/8 37/5/8
