{
	"asset":{
		"generator":"Khronos glTF Blender I/O v5.1.20",
		"version":"2.0"
	},
	"scene":0,
	"scenes":[
		{
			"name":"Scene",
			"nodes":[
				0
			]
		}
	],
	"nodes":[
		{
			"mesh":0,
			"name":"Plant.003"
		}
	],
	"meshes":[
		{
			"name":"000-0-0.003",
			"primitives":[
				{
					"attributes":{
						"POSITION":0,
						"NORMAL":1,
						"TEXCOORD_0":2,
						"COLOR_0":3
					},
					"indices":4
				}
			]
		}
	],
	"accessors":[
		{
			"bufferView":0,
			"componentType":5126,
			"count":784,
			"max":[
				0.5152601599693298,
				0.9370393753051758,
				0.557673990726471
			],
			"min":[
				-0.7338711023330688,
				0.027597496286034584,
				-0.5240370035171509
			],
			"type":"VEC3"
		},
		{
			"bufferView":1,
			"componentType":5126,
			"count":784,
			"type":"VEC3"
		},
		{
			"bufferView":2,
			"componentType":5126,
			"count":784,
			"type":"VEC2"
		},
		{
			"bufferView":3,
			"componentType":5123,
			"count":784,
			"normalized":true,
			"type":"VEC4"
		},
		{
			"bufferView":4,
			"componentType":5123,
			"count":3300,
			"type":"SCALAR"
		}
	],
	"bufferViews":[
		{
			"buffer":0,
			"byteLength":9408,
			"byteOffset":0,
			"target":34962
		},
		{
			"buffer":0,
			"byteLength":9408,
			"byteOffset":9408,
			"target":34962
		},
		{
			"buffer":0,
			"byteLength":6272,
			"byteOffset":18816,
			"target":34962
		},
		{
			"buffer":0,
			"byteLength":6272,
			"byteOffset":25088,
			"target":34962
		},
		{
			"buffer":0,
			"byteLength":6600,
			"byteOffset":31360,
			"target":34963
		}
	],
	"buffers":[
		{
			"byteLength":37960,
			"uri":"grass5.bin"
		}
	]
}
