{
	"asset":{
		"generator":"Khronos glTF Blender I/O v5.1.20",
		"version":"2.0"
	},
	"scene":0,
	"scenes":[
		{
			"name":"Scene",
			"nodes":[
				0
			]
		}
	],
	"nodes":[
		{
			"mesh":0,
			"name":"Plant.005",
			"rotation":[
				-0.18737411499023438,
				0,
				0,
				0.982288658618927
			]
		}
	],
	"meshes":[
		{
			"name":"000-0-0.005",
			"primitives":[
				{
					"attributes":{
						"POSITION":0,
						"NORMAL":1,
						"TEXCOORD_0":2,
						"COLOR_0":3
					},
					"indices":4
				}
			]
		}
	],
	"accessors":[
		{
			"bufferView":0,
			"componentType":5126,
			"count":18393,
			"max":[
				0.6170791387557983,
				1.3452235460281372,
				0.8713011145591736
			],
			"min":[
				-1.1212750673294067,
				-0.0046012625098228455,
				-0.7626391649246216
			],
			"type":"VEC3"
		},
		{
			"bufferView":1,
			"componentType":5126,
			"count":18393,
			"type":"VEC3"
		},
		{
			"bufferView":2,
			"componentType":5126,
			"count":18393,
			"type":"VEC2"
		},
		{
			"bufferView":3,
			"componentType":5123,
			"count":18393,
			"normalized":true,
			"type":"VEC4"
		},
		{
			"bufferView":4,
			"componentType":5123,
			"count":84864,
			"type":"SCALAR"
		}
	],
	"bufferViews":[
		{
			"buffer":0,
			"byteLength":220716,
			"byteOffset":0,
			"target":34962
		},
		{
			"buffer":0,
			"byteLength":220716,
			"byteOffset":220716,
			"target":34962
		},
		{
			"buffer":0,
			"byteLength":147144,
			"byteOffset":441432,
			"target":34962
		},
		{
			"buffer":0,
			"byteLength":147144,
			"byteOffset":588576,
			"target":34962
		},
		{
			"buffer":0,
			"byteLength":169728,
			"byteOffset":735720,
			"target":34963
		}
	],
	"buffers":[
		{
			"byteLength":905448,
			"uri":"grass2.bin"
		}
	]
}
