{
	"asset":{
		"generator":"Khronos glTF Blender I/O v5.1.20",
		"version":"2.0"
	},
	"scene":0,
	"scenes":[
		{
			"name":"Scene",
			"nodes":[
				0
			]
		}
	],
	"nodes":[
		{
			"mesh":0,
			"name":"Plant.001",
			"rotation":[
				-0.19987131655216217,
				0,
				0,
				0.9798222184181213
			]
		}
	],
	"meshes":[
		{
			"name":"000-0-0.001",
			"primitives":[
				{
					"attributes":{
						"POSITION":0,
						"NORMAL":1,
						"TEXCOORD_0":2,
						"COLOR_0":3
					},
					"indices":4
				}
			]
		}
	],
	"accessors":[
		{
			"bufferView":0,
			"componentType":5126,
			"count":17354,
			"max":[
				0.6880618333816528,
				1.0423994064331055,
				0.5919415354728699
			],
			"min":[
				-0.722802460193634,
				-0.02370949648320675,
				-0.7323331236839294
			],
			"type":"VEC3"
		},
		{
			"bufferView":1,
			"componentType":5126,
			"count":17354,
			"type":"VEC3"
		},
		{
			"bufferView":2,
			"componentType":5126,
			"count":17354,
			"type":"VEC2"
		},
		{
			"bufferView":3,
			"componentType":5123,
			"count":17354,
			"normalized":true,
			"type":"VEC4"
		},
		{
			"bufferView":4,
			"componentType":5123,
			"count":79920,
			"type":"SCALAR"
		}
	],
	"bufferViews":[
		{
			"buffer":0,
			"byteLength":208248,
			"byteOffset":0,
			"target":34962
		},
		{
			"buffer":0,
			"byteLength":208248,
			"byteOffset":208248,
			"target":34962
		},
		{
			"buffer":0,
			"byteLength":138832,
			"byteOffset":416496,
			"target":34962
		},
		{
			"buffer":0,
			"byteLength":138832,
			"byteOffset":555328,
			"target":34962
		},
		{
			"buffer":0,
			"byteLength":159840,
			"byteOffset":694160,
			"target":34963
		}
	],
	"buffers":[
		{
			"byteLength":854000,
			"uri":"grass1.bin"
		}
	]
}
